<?xml version="1.0" encoding="UTF-8" standalone="no"?>
<!DOCTYPE svg PUBLIC "-//W3C//DTD SVG 1.1//EN" "http://www.w3.org/Graphics/SVG/1.1/DTD/svg11.dtd">
<svg xmlns="http://www.w3.org/2000/svg" version="1.1" viewBox="0.00 0.00 472.00 758.00">
<g stroke-width="2.00" fill="none" stroke-linecap="butt">
<path stroke="#de8686" vector-effect="non-scaling-stroke" d="
  M 215.96 291.12
  A 0.27 0.27 0.0 0 1 216.25 290.89
  Q 218.89 291.15 219.60 288.88
  Q 219.73 288.49 219.52 288.12
  Q 219.19 287.52 219.18 287.50
  A 0.82 0.82 0.0 0 1 219.49 286.51
  Q 221.36 285.28 218.88 282.31
  A 1.70 1.70 0.0 0 1 218.69 280.42
  C 220.99 276.11 222.67 272.17 224.08 267.70
  Q 229.98 249.01 234.39 229.33
  A 0.33 0.33 0.0 0 1 235.01 229.25
  Q 243.98 246.93 255.46 262.81
  Q 262.48 272.53 268.78 278.23
  C 275.89 284.66 283.50 289.27 290.41 292.32
  Q 308.95 300.51 329.22 304.55
  C 336.63 306.03 344.52 306.48 351.49 307.56
  Q 357.03 308.42 359.60 304.74
  A 0.70 0.69 30.6 0 1 360.48 304.52
  Q 377.28 313.09 396.50 314.09
  Q 398.26 314.18 404.77 313.25
  Q 409.25 312.60 410.44 309.96
  A 1.01 1.01 0.0 0 1 411.28 309.36
  C 413.98 309.14 417.68 307.64 418.12 304.24
  A 1.34 1.34 0.0 0 1 418.90 303.18
  C 422.54 301.54 423.79 298.15 421.10 294.92
  A 2.11 2.10 28.7 0 1 420.63 293.32
  C 421.14 289.13 415.96 287.13 412.72 286.32
  Q 401.21 283.44 393.34 281.92
  A 0.57 0.33 -14.9 0 1 393.23 281.89
  L 390.75 280.98
  A 0.51 0.50 33.1 0 1 390.57 280.14
  C 395.08 275.89 399.75 272.22 398.87 266.49
  C 398.35 263.11 393.96 262.49 391.76 264.00
  Q 379.40 272.50 374.14 274.47
  C 371.14 275.59 368.35 276.44 365.75 277.74
  Q 365.25 277.99 365.00 277.92
  Q 364.57 277.79 364.49 277.34
  C 364.18 275.51 361.98 274.32 360.29 273.95
  Q 349.07 271.51 334.02 267.06
  C 327.49 265.12 319.56 261.68 314.21 258.55
  C 305.37 253.39 298.03 246.81 292.69 238.13
  Q 288.50 231.34 284.80 223.70
  Q 283.97 221.97 264.06 178.65
  Q 261.43 172.92 257.40 164.84
  Q 249.71 149.43 235.37 139.62
  Q 233.79 138.53 225.05 133.49
  A 1.40 1.40 0.0 0 1 224.40 132.64
  C 223.13 128.09 222.37 124.28 217.61 122.36
  A 0.42 0.41 -71.1 0 1 217.37 121.86
  L 218.75 116.98
  A 0.91 0.91 0.0 0 1 219.60 116.32
  C 234.30 115.88 244.45 94.43 247.78 82.79
  Q 250.03 74.88 250.44 71.99
  Q 250.58 71.06 250.33 66.33
  A 1.10 1.10 0.0 0 1 250.79 65.38
  Q 252.93 63.92 253.30 61.28
  A 0.95 0.95 0.0 0 1 253.96 60.50
  C 260.40 58.46 266.05 55.83 265.86 48.18
  Q 265.77 44.30 263.24 42.47
  C 256.31 37.47 249.17 33.10 240.42 29.59
  Q 229.45 25.19 216.96 26.59
  C 206.77 27.74 204.69 35.33 203.39 44.61
  A 0.81 0.81 0.0 0 1 203.29 44.91
  L 199.66 51.19
  A 1.41 1.39 8.0 0 1 198.77 51.85
  C 190.58 53.72 187.99 61.17 188.52 68.72
  Q 188.93 74.74 193.68 78.97
  A 1.82 1.81 26.6 0 1 194.25 80.67
  Q 193.50 84.66 191.66 92.35
  C 190.25 98.24 187.22 104.64 185.76 109.44
  A 1.21 1.19 10.0 0 1 184.53 110.29
  C 177.57 109.85 174.78 113.32 170.80 118.64
  A 1.26 1.23 -76.2 0 1 170.05 119.11
  Q 154.52 122.18 143.73 125.77
  Q 128.24 130.91 117.87 145.63
  Q 112.41 153.39 107.16 162.90
  Q 89.89 194.19 77.63 224.37
  Q 73.47 234.62 71.09 244.01
  Q 68.00 256.23 74.99 264.37
  Q 77.75 267.60 84.23 270.86
  Q 90.16 273.86 94.60 275.37
  Q 107.54 279.81 114.05 281.54
  A 0.55 0.54 -76.1 0 1 114.44 282.20
  Q 112.85 288.57 112.40 292.58
  C 111.78 298.02 110.79 301.88 109.67 308.44
  Q 105.04 335.36 103.08 350.01
  Q 97.34 392.93 96.69 432.18
  Q 96.17 463.67 96.86 486.55
  Q 96.95 489.36 97.00 499.05
  C 97.19 532.63 98.52 558.09 100.04 596.05
  Q 101.44 630.76 102.45 651.05
  C 102.62 654.39 104.57 656.71 108.15 657.56
  Q 109.95 657.99 115.47 659.98
  A 0.65 0.64 -80.5 0 1 115.90 660.59
  L 115.90 670.45
  A 1.04 1.00 -35.6 0 1 115.83 670.82
  Q 112.91 678.79 113.84 687.69
  Q 114.30 692.06 116.55 693.78
  Q 131.86 705.40 149.50 714.26
  Q 153.88 716.46 158.23 716.82
  C 162.79 717.19 168.61 715.06 169.42 710.00
  C 170.14 705.52 168.17 701.68 165.15 698.14
  C 157.96 689.69 150.47 682.48 142.73 674.21
  A 3.29 3.29 0.0 0 1 141.84 671.96
  L 141.84 661.66
  A 1.45 1.44 87.2 0 1 143.14 660.22
  Q 149.23 659.58 154.84 656.79
  C 160.25 654.10 158.88 649.26 158.92 644.50
  Q 159.48 583.79 158.93 494.00
  C 158.90 489.12 159.39 485.88 158.79 482.21
  A 1.50 1.50 0.0 0 1 160.27 480.47
  L 162.97 480.47
  A 1.26 1.26 0.0 0 1 164.21 481.98
  Q 163.71 484.50 163.70 485.50
  C 163.29 518.78 163.98 549.88 164.07 587.79
  C 164.12 606.78 164.83 624.84 165.71 643.50
  Q 165.94 648.35 170.46 649.26
  Q 178.95 650.97 180.42 651.39
  A 0.72 0.72 0.0 0 1 180.95 652.06
  L 181.31 661.67
  A 2.46 2.39 54.9 0 1 181.17 662.54
  Q 177.95 671.22 180.44 679.56
  Q 181.58 683.38 183.90 684.44
  Q 201.11 692.27 219.09 696.61
  Q 227.58 698.66 233.94 699.06
  C 240.46 699.46 244.66 695.07 243.12 688.72
  C 242.30 685.33 239.20 683.06 235.86 680.30
  Q 231.09 676.36 230.82 676.17
  Q 220.61 668.93 209.43 660.51
  A 2.10 2.09 18.9 0 1 208.61 658.85
  L 208.61 649.67
  A 0.88 0.88 0.0 0 1 209.14 648.86
  L 216.93 645.51
  A 3.24 3.09 9.5 0 0 217.96 644.81
  Q 220.47 642.29 220.48 638.74
  Q 220.53 612.69 220.06 579.00
  Q 219.66 549.55 219.97 525.51
  Q 220.20 508.67 219.83 472.01
  A 1.67 1.67 0.0 0 1 221.04 470.38
  C 226.38 468.84 227.57 462.77 227.22 458.00
  Q 226.35 446.17 225.86 438.25
  Q 225.40 430.83 223.72 377.96
  C 223.04 356.57 221.54 338.93 220.39 318.19
  Q 219.98 310.80 218.26 292.91
  A 1.21 1.20 -75.8 0 0 217.73 292.01
  Q 217.30 291.70 216.47 291.75
  A 0.50 0.49 -87.6 0 1 215.95 291.18
  L 215.96 291.12"
/>
<path stroke="#de8686" vector-effect="non-scaling-stroke" d="
  M 195.60 62.73
  Q 193.94 68.67 196.69 73.67
  A 1.15 1.15 0.0 0 0 197.64 74.26
  L 199.39 74.34
  A 1.18 1.18 0.0 0 1 200.20 74.71
  Q 201.88 76.47 201.64 78.48
  Q 200.85 85.07 199.12 92.49
  C 198.21 96.40 196.79 99.19 196.07 102.44
  C 195.12 106.68 192.07 111.93 190.63 116.09
  A 1.37 1.35 76.6 0 1 190.37 116.52
  L 188.09 118.96
  A 0.93 0.92 53.1 0 0 187.94 120.03
  Q 191.27 126.34 196.37 130.12
  A 2.66 2.53 7.5 0 1 197.17 131.11
  Q 198.07 133.11 198.14 136.11
  A 0.46 0.45 -39.1 0 0 199.04 136.20
  C 199.88 132.67 202.22 131.40 206.02 130.56
  Q 208.42 130.04 210.98 128.23
  A 1.08 1.07 75.6 0 0 211.43 127.46
  C 211.45 127.31 210.52 126.27 210.65 125.28
  Q 211.27 120.65 213.34 116.31
  A 0.68 0.68 0.0 0 0 212.97 115.39
  C 209.69 114.12 205.86 111.41 204.92 107.77
  A 1.42 1.41 -35.5 0 1 205.11 106.65
  C 206.32 104.83 208.68 105.38 210.32 106.78
  Q 214.28 110.15 219.79 109.22
  Q 223.77 108.54 228.04 103.99
  Q 234.62 96.95 237.66 89.44
  Q 242.28 78.00 243.38 75.14
  A 1.81 1.80 -64.5 0 0 242.60 72.93
  L 236.51 69.41
  A 1.09 1.08 -80.6 0 1 235.97 68.65
  Q 235.56 66.58 237.46 66.18
  Q 241.57 65.30 244.72 68.21
  A 0.42 0.42 0.0 0 0 245.41 67.99
  Q 245.75 66.33 246.41 65.43
  A 0.68 0.67 5.8 0 1 246.66 65.23
  L 247.63 64.81
  A 0.52 0.51 -30.1 0 0 247.84 64.03
  Q 246.24 61.92 247.60 58.80
  A 0.54 0.52 29.7 0 0 247.42 58.17
  Q 239.23 52.24 230.83 48.76
  C 226.76 47.08 220.49 44.04 217.18 47.43
  A 2.04 2.00 74.3 0 0 216.64 48.41
  C 215.30 54.24 210.47 66.30 202.42 64.25
  A 0.72 0.71 3.3 0 0 201.53 65.04
  Q 202.00 68.17 200.16 69.42
  A 2.28 2.23 59.3 0 1 196.90 68.55
  Q 195.63 66.09 196.15 62.77
  A 0.24 0.22 13.8 0 0 195.98 62.51
  A 0.32 0.31 14.3 0 0 195.60 62.73"
/>
<path stroke="#de8686" vector-effect="non-scaling-stroke" d="
  M 191.49 140.44
  A 0.40 0.40 0.0 0 0 190.83 140.11
  C 188.13 142.56 182.71 146.69 178.99 145.29
  Q 177.59 144.76 176.02 141.88
  Q 171.88 134.25 170.35 128.36
  A 1.09 1.09 0.0 0 0 169.06 127.57
  Q 159.65 129.67 147.97 133.52
  Q 140.32 136.05 136.50 138.95
  C 128.80 144.79 122.75 153.42 117.79 162.04
  Q 100.91 191.41 87.03 224.04
  Q 81.80 236.36 78.53 248.02
  Q 77.16 252.94 80.47 258.00
  A 2.71 2.63 -89.2 0 0 81.17 258.74
  Q 88.01 263.65 91.96 265.27
  Q 107.24 271.53 128.90 276.03
  C 138.08 277.93 147.45 278.65 156.26 280.17
  A 0.24 0.23 13.7 0 0 156.53 280.01
  L 161.66 261.83
  A 1.18 1.18 0.0 0 0 161.00 260.43
  C 149.39 255.36 138.34 251.87 117.39 244.67
  Q 115.18 243.91 107.64 241.80
  Q 106.23 241.41 105.79 240.46
  A 2.64 2.41 -28.3 0 1 106.90 237.29
  Q 109.16 235.91 112.98 236.69
  A 1.39 1.38 15.8 0 0 114.56 235.81
  Q 123.29 211.91 137.29 183.34
  A 1.60 1.59 22.1 0 1 139.22 182.53
  L 139.64 182.66
  A 2.06 2.06 0.0 0 1 140.96 185.25
  L 132.30 211.84
  A 7.87 7.52 59.0 0 0 132.01 213.13
  L 128.64 239.50
  A 0.82 0.82 0.0 0 0 129.18 240.38
  C 130.82 240.96 132.79 241.26 134.36 241.81
  Q 150.90 247.64 166.97 254.79
  A 2.39 2.28 -7.7 0 1 167.73 255.34
  Q 168.50 256.16 168.85 257.69
  A 0.45 0.45 0.0 0 0 169.73 257.64
  Q 170.61 249.12 173.20 236.73
  Q 179.05 208.67 179.64 205.84
  Q 182.99 189.80 188.26 169.96
  C 189.47 165.39 191.34 160.23 192.33 155.15
  A 3.99 3.67 -30.1 0 1 192.58 154.35
  Q 193.96 151.15 194.10 146.76
  A 2.05 2.02 -69.6 0 0 193.37 145.13
  Q 191.29 143.38 191.49 140.44"
/>
<path stroke="#de8686" vector-effect="non-scaling-stroke" d="
  M 185.7859 135.0371
  A 1.06 1.06 0.0 0 0 184.3065 134.7949
  L 182.2763 136.2537
  A 1.06 1.06 0.0 0 0 182.0340 137.7331
  L 182.3141 138.1229
  A 1.06 1.06 0.0 0 0 183.7935 138.3651
  L 185.8237 136.9063
  A 1.06 1.06 0.0 0 0 186.0660 135.4269
  L 185.7859 135.0371"
/>
<path stroke="#de8686" vector-effect="non-scaling-stroke" d="
  M 209.63 144.84
  Q 211.88 143.12 210.06 141.31
  A 1.53 1.47 -73.9 0 0 207.58 142.75
  Q 207.62 142.94 208.70 144.67
  A 0.64 0.63 54.9 0 0 209.63 144.84"
/>
<path stroke="#de8686" vector-effect="non-scaling-stroke" d="
  M 214.19 271.92
  C 216.81 262.18 219.60 255.11 222.14 245.77
  Q 226.62 229.29 229.47 217.69
  Q 231.65 208.82 234.00 201.04
  C 234.64 198.92 233.96 196.81 236.03 195.07
  A 1.74 1.52 -39.6 0 1 238.38 195.14
  C 240.31 197.59 238.41 199.39 238.45 201.88
  Q 238.57 209.43 237.42 216.17
  A 1.58 1.57 34.0 0 0 237.64 217.27
  C 242.18 224.61 245.41 231.65 249.83 238.63
  Q 250.53 239.74 256.72 250.00
  Q 260.51 256.29 270.82 268.09
  C 274.52 272.32 280.77 277.18 284.39 279.34
  Q 295.72 286.09 308.91 290.34
  Q 310.55 290.87 319.54 293.43
  C 326.45 295.39 332.33 296.23 339.51 297.95
  A 1.05 1.05 0.0 0 0 340.78 297.14
  L 344.59 278.89
  A 0.23 0.22 14.1 0 0 344.43 278.63
  C 339.00 276.92 333.09 275.76 327.79 273.67
  Q 319.17 270.27 317.01 269.32
  Q 305.17 264.14 295.57 255.25
  C 291.20 251.20 287.40 245.94 284.57 241.29
  Q 280.84 235.14 275.58 223.99
  Q 275.34 223.47 254.35 178.10
  Q 249.59 167.81 245.20 161.18
  Q 242.12 156.55 236.56 151.83
  Q 227.65 144.27 222.40 141.42
  A 0.58 0.57 34.4 0 0 221.69 141.55
  Q 216.44 147.59 212.17 151.15
  C 206.94 155.52 204.01 149.13 201.68 144.71
  A 0.60 0.59 53.3 0 0 200.73 144.57
  L 198.67 146.63
  A 0.86 0.85 68.4 0 0 198.42 147.21
  L 198.36 151.09
  A 3.03 3.00 51.9 0 1 198.28 151.78
  L 176.78 254.84
  A 0.40 0.39 -3.9 0 0 177.30 255.29
  Q 187.38 251.78 195.93 249.40
  C 200.32 248.18 202.68 251.54 201.73 255.50
  C 200.78 259.46 195.66 262.69 194.03 264.31
  A 0.45 0.44 33.0 0 0 194.19 265.04
  L 213.26 272.39
  A 0.70 0.70 0.0 0 0 214.19 271.92"
/>
<path stroke="#de8686" vector-effect="non-scaling-stroke" d="
  M 120.63 235.51
  Q 119.63 236.83 119.97 237.61
  A 0.63 0.62 -47.2 0 0 121.13 237.56
  Q 121.51 236.49 121.27 235.63
  A 0.36 0.36 0.0 0 0 120.63 235.51"
/>
<path stroke="#de8686" vector-effect="non-scaling-stroke" d="
  M 212.91 279.84
  A 0.45 0.44 -68.9 0 0 212.66 279.26
  Q 201.45 274.80 189.53 269.34
  C 185.63 267.55 185.68 264.74 189.26 262.13
  Q 192.34 259.89 195.82 256.27
  A 0.38 0.38 0.0 0 0 195.60 255.63
  Q 195.20 255.58 194.92 255.70
  Q 182.88 260.93 170.55 265.01
  Q 170.02 265.18 169.70 265.15
  Q 168.81 265.08 168.74 265.15
  A 3.84 3.79 -15.5 0 0 167.77 266.84
  L 164.91 277.55
  A 0.48 0.48 0.0 0 0 165.12 278.08
  Q 171.29 282.00 176.38 284.62
  Q 188.80 291.02 201.42 293.17
  A 0.28 0.28 0.0 0 0 201.59 292.64
  Q 198.64 291.17 195.08 289.91
  Q 192.77 289.10 191.24 287.84
  A 1.19 1.19 0.0 0 1 192.37 285.79
  L 209.00 291.20
  A 1.02 1.02 0.0 0 0 210.18 290.78
  L 210.38 290.47
  A 0.77 0.75 -63.3 0 0 210.02 289.35
  L 194.90 283.53
  A 0.93 0.93 0.0 0 1 195.28 281.73
  C 196.60 281.79 197.59 282.74 198.93 283.06
  Q 203.77 284.21 210.12 286.15
  Q 212.83 286.98 214.75 288.30
  A 0.31 0.31 0.0 0 0 215.23 288.11
  Q 215.44 287.15 216.09 286.63
  A 0.40 0.40 0.0 0 0 216.05 285.97
  Q 211.44 283.24 206.98 282.08
  C 203.93 281.28 200.64 279.36 197.11 278.36
  A 0.52 0.46 75.1 0 1 196.87 278.20
  Q 196.60 277.88 196.61 277.62
  A 0.91 0.80 14.0 0 1 197.85 276.98
  Q 199.00 277.47 200.50 277.55
  Q 206.32 277.83 212.36 280.10
  A 0.42 0.42 0.0 0 0 212.90 279.86
  L 212.91 279.84"
/>
<path stroke="#de8686" vector-effect="non-scaling-stroke" d="
  M 401.75 306.89
  A 0.12 0.11 -84.3 0 0 401.66 306.77
  L 392.19 304.09
  A 0.98 0.98 0.0 0 1 391.48 303.11
  L 391.50 302.78
  A 1.13 1.13 0.0 0 1 392.83 301.72
  Q 401.70 303.38 408.00 303.69
  Q 409.53 303.76 410.37 303.28
  A 0.27 0.27 0.0 0 0 410.31 302.79
  L 395.09 298.49
  A 0.61 0.60 9.0 0 1 394.64 297.88
  L 394.66 297.62
  A 0.77 0.76 -83.2 0 1 395.57 296.90
  Q 402.05 298.11 411.99 298.61
  Q 413.15 298.66 413.66 298.42
  A 0.22 0.21 -49.8 0 0 413.63 298.02
  L 396.99 293.32
  A 0.57 0.57 0.0 0 1 397.17 292.20
  L 411.26 292.86
  A 0.19 0.19 0.0 0 0 411.38 292.52
  Q 410.51 291.86 409.04 291.45
  Q 399.47 288.79 394.60 287.35
  C 392.10 286.60 388.93 286.43 386.13 285.04
  A 1.57 1.57 0.0 0 1 385.40 284.28
  Q 383.97 281.07 386.10 279.12
  Q 389.36 276.13 392.11 271.78
  A 0.49 0.49 0.0 0 0 391.41 271.13
  Q 388.95 272.95 385.50 275.48
  Q 383.56 276.92 371.47 282.44
  C 369.57 283.31 367.04 283.58 365.41 284.21
  A 0.54 0.52 86.2 0 0 365.08 284.60
  L 362.44 297.27
  A 0.38 0.38 0.0 0 0 362.71 297.72
  Q 366.06 298.66 371.01 300.90
  Q 374.81 302.62 379.45 303.85
  Q 389.51 306.52 401.65 307.23
  A 0.09 0.09 0.0 0 0 401.74 307.15
  L 401.75 306.89"
/>
<path stroke="#de8686" vector-effect="non-scaling-stroke" d="
  M 358.2294 282.3037
  A 0.49 0.49 0.0 0 0 357.8611 281.7166
  L 352.1295 280.4039
  A 0.49 0.49 0.0 0 0 351.5425 280.7722
  L 347.5106 298.3763
  A 0.49 0.49 0.0 0 0 347.8789 298.9634
  L 353.6105 300.2761
  A 0.49 0.49 0.0 0 0 354.1975 299.9078
  L 358.2294 282.3037"
/>
<path stroke="#de8686" vector-effect="non-scaling-stroke" d="
  M 213.66 293.86
  Q 211.25 293.49 209.31 292.47
  A 0.43 0.42 16.6 0 0 208.69 292.80
  Q 208.57 293.99 207.99 294.66
  A 1.43 1.43 0.0 0 0 209.76 296.85
  L 213.79 294.62
  A 0.41 0.41 0.0 0 0 213.66 293.86"
/>
<path stroke="#de8686" vector-effect="non-scaling-stroke" d="
  M 188.70 652.85
  L 188.70 662.17
  A 1.59 1.58 -74.6 0 0 189.47 663.53
  C 191.44 664.70 196.81 667.96 200.15 668.29
  C 202.13 668.49 202.57 667.25 203.33 665.84
  A 0.98 0.97 -49.8 0 0 203.25 664.80
  C 200.73 661.41 200.76 656.11 201.14 651.82
  A 0.80 0.80 0.0 0 0 200.25 650.96
  L 189.18 652.31
  A 0.55 0.54 -3.6 0 0 188.70 652.85"
/>
<path stroke="#de8686" vector-effect="non-scaling-stroke" d="
  M 124.29 661.64
  A 0.56 0.55 2.1 0 0 123.71 662.17
  L 123.18 673.52
  A 0.98 0.98 0.0 0 0 123.50 674.29
  Q 127.03 677.54 131.54 679.71
  Q 134.18 680.98 135.55 678.25
  A 1.27 1.26 47.0 0 0 135.58 677.19
  L 134.70 675.14
  A 3.23 3.08 -58.9 0 1 134.44 673.98
  L 134.12 662.72
  A 0.68 0.67 0.5 0 0 133.47 662.07
  L 124.29 661.64"
/>
<path stroke="#de8686" vector-effect="non-scaling-stroke" d="
  M 216.99 63.90
  L 225.44 65.12
  A 1.17 1.17 0.0 0 0 226.76 64.13
  L 226.83 63.65
  A 4.11 3.48 8.2 0 0 223.26 59.62
  L 220.63 59.24
  A 4.11 3.48 8.2 0 0 216.07 62.09
  L 216.00 62.58
  A 1.17 1.17 0.0 0 0 216.99 63.90"
/>
<path stroke="#de8686" vector-effect="non-scaling-stroke" d="
  M 220.4948 68.5221
  A 2.28 2.00 -70.4 0 0 217.8459 69.9991
  A 2.28 2.00 -70.4 0 0 218.9652 72.8179
  A 2.28 2.00 -70.4 0 0 221.6141 71.3409
  A 2.28 2.00 -70.4 0 0 220.4948 68.5221"
/>
<path stroke="#de8686" vector-effect="non-scaling-stroke" d="
  M 222.75 83.98
  C 220.18 84.78 219.82 86.90 219.89 89.29
  A 0.82 0.82 0.0 0 1 218.31 89.63
  L 217.41 87.55
  A 1.71 1.71 0.0 0 0 214.95 86.76
  C 208.71 90.52 219.05 103.32 224.93 95.60
  A 0.95 0.94 -44.2 0 0 224.95 94.47
  L 223.61 92.64
  A 0.64 0.64 0.0 0 1 223.87 91.68
  L 228.64 89.63
  A 2.38 2.37 -11.7 0 0 230.08 87.45
  L 230.08 75.28
  A 1.33 1.33 0.0 0 0 228.28 74.03
  L 227.89 74.18
  A 2.20 2.20 0.0 0 0 226.47 76.24
  L 226.47 85.30
  A 0.69 0.69 0.0 0 1 225.29 85.79
  L 223.72 84.22
  A 0.98 0.97 -30.8 0 0 222.75 83.98"
/>
<path stroke="#de8686" vector-effect="non-scaling-stroke" d="
  M 237.6882 75.3329
  A 2.49 2.08 -76.1 0 0 235.0709 77.2503
  A 2.49 2.08 -76.1 0 0 236.4918 80.1671
  A 2.49 2.08 -76.1 0 0 239.1091 78.2497
  A 2.49 2.08 -76.1 0 0 237.6882 75.3329"
/>
<path stroke="#de8686" vector-effect="non-scaling-stroke" d="
  M 187.6500 157.1102
  A 3.15 2.78 -47.7 0 0 183.4738 157.5690
  A 3.15 2.78 -47.7 0 0 183.4100 161.7698
  A 3.15 2.78 -47.7 0 0 187.5862 161.3110
  A 3.15 2.78 -47.7 0 0 187.6500 157.1102"
/>
<path stroke="#de8686" vector-effect="non-scaling-stroke" d="
  M 183.45 182.12
  A 3.22 3.22 0.0 0 0 180.23 178.90
  A 3.22 3.22 0.0 0 0 177.01 182.12
  A 3.22 3.22 0.0 0 0 180.23 185.34
  A 3.22 3.22 0.0 0 0 183.45 182.12"
/>
<path stroke="#de8686" vector-effect="non-scaling-stroke" d="
  M 175.3451 209.3763
  A 3.34 2.88 -59.7 0 0 171.1734 210.8070
  A 3.34 2.88 -59.7 0 0 171.9749 215.1437
  A 3.34 2.88 -59.7 0 0 176.1466 213.7130
  A 3.34 2.88 -59.7 0 0 175.3451 209.3763"
/>
<path stroke="#de8686" vector-effect="non-scaling-stroke" d="
  M 170.0592 235.4784
  A 3.46 3.15 -57.3 0 0 165.5392 236.6882
  A 3.46 3.15 -57.3 0 0 166.3208 241.3016
  A 3.46 3.15 -57.3 0 0 170.8408 240.0918
  A 3.46 3.15 -57.3 0 0 170.0592 235.4784"
/>
</g>
<path fill="none" d="
  M 472.00 0.00
  L 472.00 758.00
  L 0.00 758.00
  L 0.00 0.00
  L 472.00 0.00
  Z
  M 215.96 291.12
  A 0.27 0.27 0.0 0 1 216.25 290.89
  Q 218.89 291.15 219.60 288.88
  Q 219.73 288.49 219.52 288.12
  Q 219.19 287.52 219.18 287.50
  A 0.82 0.82 0.0 0 1 219.49 286.51
  Q 221.36 285.28 218.88 282.31
  A 1.70 1.70 0.0 0 1 218.69 280.42
  C 220.99 276.11 222.67 272.17 224.08 267.70
  Q 229.98 249.01 234.39 229.33
  A 0.33 0.33 0.0 0 1 235.01 229.25
  Q 243.98 246.93 255.46 262.81
  Q 262.48 272.53 268.78 278.23
  C 275.89 284.66 283.50 289.27 290.41 292.32
  Q 308.95 300.51 329.22 304.55
  C 336.63 306.03 344.52 306.48 351.49 307.56
  Q 357.03 308.42 359.60 304.74
  A 0.70 0.69 30.6 0 1 360.48 304.52
  Q 377.28 313.09 396.50 314.09
  Q 398.26 314.18 404.77 313.25
  Q 409.25 312.60 410.44 309.96
  A 1.01 1.01 0.0 0 1 411.28 309.36
  C 413.98 309.14 417.68 307.64 418.12 304.24
  A 1.34 1.34 0.0 0 1 418.90 303.18
  C 422.54 301.54 423.79 298.15 421.10 294.92
  A 2.11 2.10 28.7 0 1 420.63 293.32
  C 421.14 289.13 415.96 287.13 412.72 286.32
  Q 401.21 283.44 393.34 281.92
  A 0.57 0.33 -14.9 0 1 393.23 281.89
  L 390.75 280.98
  A 0.51 0.50 33.1 0 1 390.57 280.14
  C 395.08 275.89 399.75 272.22 398.87 266.49
  C 398.35 263.11 393.96 262.49 391.76 264.00
  Q 379.40 272.50 374.14 274.47
  C 371.14 275.59 368.35 276.44 365.75 277.74
  Q 365.25 277.99 365.00 277.92
  Q 364.57 277.79 364.49 277.34
  C 364.18 275.51 361.98 274.32 360.29 273.95
  Q 349.07 271.51 334.02 267.06
  C 327.49 265.12 319.56 261.68 314.21 258.55
  C 305.37 253.39 298.03 246.81 292.69 238.13
  Q 288.50 231.34 284.80 223.70
  Q 283.97 221.97 264.06 178.65
  Q 261.43 172.92 257.40 164.84
  Q 249.71 149.43 235.37 139.62
  Q 233.79 138.53 225.05 133.49
  A 1.40 1.40 0.0 0 1 224.40 132.64
  C 223.13 128.09 222.37 124.28 217.61 122.36
  A 0.42 0.41 -71.1 0 1 217.37 121.86
  L 218.75 116.98
  A 0.91 0.91 0.0 0 1 219.60 116.32
  C 234.30 115.88 244.45 94.43 247.78 82.79
  Q 250.03 74.88 250.44 71.99
  Q 250.58 71.06 250.33 66.33
  A 1.10 1.10 0.0 0 1 250.79 65.38
  Q 252.93 63.92 253.30 61.28
  A 0.95 0.95 0.0 0 1 253.96 60.50
  C 260.40 58.46 266.05 55.83 265.86 48.18
  Q 265.77 44.30 263.24 42.47
  C 256.31 37.47 249.17 33.10 240.42 29.59
  Q 229.45 25.19 216.96 26.59
  C 206.77 27.74 204.69 35.33 203.39 44.61
  A 0.81 0.81 0.0 0 1 203.29 44.91
  L 199.66 51.19
  A 1.41 1.39 8.0 0 1 198.77 51.85
  C 190.58 53.72 187.99 61.17 188.52 68.72
  Q 188.93 74.74 193.68 78.97
  A 1.82 1.81 26.6 0 1 194.25 80.67
  Q 193.50 84.66 191.66 92.35
  C 190.25 98.24 187.22 104.64 185.76 109.44
  A 1.21 1.19 10.0 0 1 184.53 110.29
  C 177.57 109.85 174.78 113.32 170.80 118.64
  A 1.26 1.23 -76.2 0 1 170.05 119.11
  Q 154.52 122.18 143.73 125.77
  Q 128.24 130.91 117.87 145.63
  Q 112.41 153.39 107.16 162.90
  Q 89.89 194.19 77.63 224.37
  Q 73.47 234.62 71.09 244.01
  Q 68.00 256.23 74.99 264.37
  Q 77.75 267.60 84.23 270.86
  Q 90.16 273.86 94.60 275.37
  Q 107.54 279.81 114.05 281.54
  A 0.55 0.54 -76.1 0 1 114.44 282.20
  Q 112.85 288.57 112.40 292.58
  C 111.78 298.02 110.79 301.88 109.67 308.44
  Q 105.04 335.36 103.08 350.01
  Q 97.34 392.93 96.69 432.18
  Q 96.17 463.67 96.86 486.55
  Q 96.95 489.36 97.00 499.05
  C 97.19 532.63 98.52 558.09 100.04 596.05
  Q 101.44 630.76 102.45 651.05
  C 102.62 654.39 104.57 656.71 108.15 657.56
  Q 109.95 657.99 115.47 659.98
  A 0.65 0.64 -80.5 0 1 115.90 660.59
  L 115.90 670.45
  A 1.04 1.00 -35.6 0 1 115.83 670.82
  Q 112.91 678.79 113.84 687.69
  Q 114.30 692.06 116.55 693.78
  Q 131.86 705.40 149.50 714.26
  Q 153.88 716.46 158.23 716.82
  C 162.79 717.19 168.61 715.06 169.42 710.00
  C 170.14 705.52 168.17 701.68 165.15 698.14
  C 157.96 689.69 150.47 682.48 142.73 674.21
  A 3.29 3.29 0.0 0 1 141.84 671.96
  L 141.84 661.66
  A 1.45 1.44 87.2 0 1 143.14 660.22
  Q 149.23 659.58 154.84 656.79
  C 160.25 654.10 158.88 649.26 158.92 644.50
  Q 159.48 583.79 158.93 494.00
  C 158.90 489.12 159.39 485.88 158.79 482.21
  A 1.50 1.50 0.0 0 1 160.27 480.47
  L 162.97 480.47
  A 1.26 1.26 0.0 0 1 164.21 481.98
  Q 163.71 484.50 163.70 485.50
  C 163.29 518.78 163.98 549.88 164.07 587.79
  C 164.12 606.78 164.83 624.84 165.71 643.50
  Q 165.94 648.35 170.46 649.26
  Q 178.95 650.97 180.42 651.39
  A 0.72 0.72 0.0 0 1 180.95 652.06
  L 181.31 661.67
  A 2.46 2.39 54.9 0 1 181.17 662.54
  Q 177.95 671.22 180.44 679.56
  Q 181.58 683.38 183.90 684.44
  Q 201.11 692.27 219.09 696.61
  Q 227.58 698.66 233.94 699.06
  C 240.46 699.46 244.66 695.07 243.12 688.72
  C 242.30 685.33 239.20 683.06 235.86 680.30
  Q 231.09 676.36 230.82 676.17
  Q 220.61 668.93 209.43 660.51
  A 2.10 2.09 18.9 0 1 208.61 658.85
  L 208.61 649.67
  A 0.88 0.88 0.0 0 1 209.14 648.86
  L 216.93 645.51
  A 3.24 3.09 9.5 0 0 217.96 644.81
  Q 220.47 642.29 220.48 638.74
  Q 220.53 612.69 220.06 579.00
  Q 219.66 549.55 219.97 525.51
  Q 220.20 508.67 219.83 472.01
  A 1.67 1.67 0.0 0 1 221.04 470.38
  C 226.38 468.84 227.57 462.77 227.22 458.00
  Q 226.35 446.17 225.86 438.25
  Q 225.40 430.83 223.72 377.96
  C 223.04 356.57 221.54 338.93 220.39 318.19
  Q 219.98 310.80 218.26 292.91
  A 1.21 1.20 -75.8 0 0 217.73 292.01
  Q 217.30 291.70 216.47 291.75
  A 0.50 0.49 -87.6 0 1 215.95 291.18
  L 215.96 291.12
  Z"
/>
<path fill="#c41b1e" d="
  M 216.47 291.75
  Q 217.30 291.70 217.73 292.01
  A 1.21 1.20 -75.8 0 1 218.26 292.91
  Q 219.98 310.80 220.39 318.19
  C 221.54 338.93 223.04 356.57 223.72 377.96
  Q 225.40 430.83 225.86 438.25
  Q 226.35 446.17 227.22 458.00
  C 227.57 462.77 226.38 468.84 221.04 470.38
  A 1.67 1.67 0.0 0 0 219.83 472.01
  Q 220.20 508.67 219.97 525.51
  Q 219.66 549.55 220.06 579.00
  Q 220.53 612.69 220.48 638.74
  Q 220.47 642.29 217.96 644.81
  A 3.24 3.09 9.5 0 1 216.93 645.51
  L 209.14 648.86
  A 0.88 0.88 0.0 0 0 208.61 649.67
  L 208.61 658.85
  A 2.10 2.09 18.9 0 0 209.43 660.51
  Q 220.61 668.93 230.82 676.17
  Q 231.09 676.36 235.86 680.30
  C 239.20 683.06 242.30 685.33 243.12 688.72
  C 244.66 695.07 240.46 699.46 233.94 699.06
  Q 227.58 698.66 219.09 696.61
  Q 201.11 692.27 183.90 684.44
  Q 181.58 683.38 180.44 679.56
  Q 177.95 671.22 181.17 662.54
  A 2.46 2.39 54.9 0 0 181.31 661.67
  L 180.95 652.06
  A 0.72 0.72 0.0 0 0 180.42 651.39
  Q 178.95 650.97 170.46 649.26
  Q 165.94 648.35 165.71 643.50
  C 164.83 624.84 164.12 606.78 164.07 587.79
  C 163.98 549.88 163.29 518.78 163.70 485.50
  Q 163.71 484.50 164.21 481.98
  A 1.26 1.26 0.0 0 0 162.97 480.47
  L 160.27 480.47
  A 1.50 1.50 0.0 0 0 158.79 482.21
  C 159.39 485.88 158.90 489.12 158.93 494.00
  Q 159.48 583.79 158.92 644.50
  C 158.88 649.26 160.25 654.10 154.84 656.79
  Q 149.23 659.58 143.14 660.22
  A 1.45 1.44 87.2 0 0 141.84 661.66
  L 141.84 671.96
  A 3.29 3.29 0.0 0 0 142.73 674.21
  C 150.47 682.48 157.96 689.69 165.15 698.14
  C 168.17 701.68 170.14 705.52 169.42 710.00
  C 168.61 715.06 162.79 717.19 158.23 716.82
  Q 153.88 716.46 149.50 714.26
  Q 131.86 705.40 116.55 693.78
  Q 114.30 692.06 113.84 687.69
  Q 112.91 678.79 115.83 670.82
  A 1.04 1.00 -35.6 0 0 115.90 670.45
  L 115.90 660.59
  A 0.65 0.64 -80.5 0 0 115.47 659.98
  Q 109.95 657.99 108.15 657.56
  C 104.57 656.71 102.62 654.39 102.45 651.05
  Q 101.44 630.76 100.04 596.05
  C 98.52 558.09 97.19 532.63 97.00 499.05
  Q 96.95 489.36 96.86 486.55
  Q 96.17 463.67 96.69 432.18
  Q 97.34 392.93 103.08 350.01
  Q 105.04 335.36 109.67 308.44
  C 110.79 301.88 111.78 298.02 112.40 292.58
  Q 112.85 288.57 114.44 282.20
  A 0.55 0.54 -76.1 0 0 114.05 281.54
  Q 107.54 279.81 94.60 275.37
  Q 90.16 273.86 84.23 270.86
  Q 77.75 267.60 74.99 264.37
  Q 68.00 256.23 71.09 244.01
  Q 73.47 234.62 77.63 224.37
  Q 89.89 194.19 107.16 162.90
  Q 112.41 153.39 117.87 145.63
  Q 128.24 130.91 143.73 125.77
  Q 154.52 122.18 170.05 119.11
  A 1.26 1.23 -76.2 0 0 170.80 118.64
  C 174.78 113.32 177.57 109.85 184.53 110.29
  A 1.21 1.19 10.0 0 0 185.76 109.44
  C 187.22 104.64 190.25 98.24 191.66 92.35
  Q 193.50 84.66 194.25 80.67
  A 1.82 1.81 26.6 0 0 193.68 78.97
  Q 188.93 74.74 188.52 68.72
  C 187.99 61.17 190.58 53.72 198.77 51.85
  A 1.41 1.39 8.0 0 0 199.66 51.19
  L 203.29 44.91
  A 0.81 0.81 0.0 0 0 203.39 44.61
  C 204.69 35.33 206.77 27.74 216.96 26.59
  Q 229.45 25.19 240.42 29.59
  C 249.17 33.10 256.31 37.47 263.24 42.47
  Q 265.77 44.30 265.86 48.18
  C 266.05 55.83 260.40 58.46 253.96 60.50
  A 0.95 0.95 0.0 0 0 253.30 61.28
  Q 252.93 63.92 250.79 65.38
  A 1.10 1.10 0.0 0 0 250.33 66.33
  Q 250.58 71.06 250.44 71.99
  Q 250.03 74.88 247.78 82.79
  C 244.45 94.43 234.30 115.88 219.60 116.32
  A 0.91 0.91 0.0 0 0 218.75 116.98
  L 217.37 121.86
  A 0.42 0.41 -71.1 0 0 217.61 122.36
  C 222.37 124.28 223.13 128.09 224.40 132.64
  A 1.40 1.40 0.0 0 0 225.05 133.49
  Q 233.79 138.53 235.37 139.62
  Q 249.71 149.43 257.40 164.84
  Q 261.43 172.92 264.06 178.65
  Q 283.97 221.97 284.80 223.70
  Q 288.50 231.34 292.69 238.13
  C 298.03 246.81 305.37 253.39 314.21 258.55
  C 319.56 261.68 327.49 265.12 334.02 267.06
  Q 349.07 271.51 360.29 273.95
  C 361.98 274.32 364.18 275.51 364.49 277.34
  Q 364.57 277.79 365.00 277.92
  Q 365.25 277.99 365.75 277.74
  C 368.35 276.44 371.14 275.59 374.14 274.47
  Q 379.40 272.50 391.76 264.00
  C 393.96 262.49 398.35 263.11 398.87 266.49
  C 399.75 272.22 395.08 275.89 390.57 280.14
  A 0.51 0.50 33.1 0 0 390.75 280.98
  L 393.23 281.89
  A 0.57 0.33 -14.9 0 0 393.34 281.92
  Q 401.21 283.44 412.72 286.32
  C 415.96 287.13 421.14 289.13 420.63 293.32
  A 2.11 2.10 28.7 0 0 421.10 294.92
  C 423.79 298.15 422.54 301.54 418.90 303.18
  A 1.34 1.34 0.0 0 0 418.12 304.24
  C 417.68 307.64 413.98 309.14 411.28 309.36
  A 1.01 1.01 0.0 0 0 410.44 309.96
  Q 409.25 312.60 404.77 313.25
  Q 398.26 314.18 396.50 314.09
  Q 377.28 313.09 360.48 304.52
  A 0.70 0.69 30.6 0 0 359.60 304.74
  Q 357.03 308.42 351.49 307.56
  C 344.52 306.48 336.63 306.03 329.22 304.55
  Q 308.95 300.51 290.41 292.32
  C 283.50 289.27 275.89 284.66 268.78 278.23
  Q 262.48 272.53 255.46 262.81
  Q 243.98 246.93 235.01 229.25
  A 0.33 0.33 0.0 0 0 234.39 229.33
  Q 229.98 249.01 224.08 267.70
  C 222.67 272.17 220.99 276.11 218.69 280.42
  A 1.70 1.70 0.0 0 0 218.88 282.31
  Q 221.36 285.28 219.49 286.51
  A 0.82 0.82 0.0 0 0 219.18 287.50
  Q 219.19 287.52 219.52 288.12
  Q 219.73 288.49 219.60 288.88
  Q 218.89 291.15 216.25 290.89
  A 0.27 0.27 0.0 0 0 215.96 291.12
  L 215.95 291.18
  A 0.50 0.49 -87.6 0 0 216.47 291.75
  Z
  M 195.60 62.73
  Q 193.94 68.67 196.69 73.67
  A 1.15 1.15 0.0 0 0 197.64 74.26
  L 199.39 74.34
  A 1.18 1.18 0.0 0 1 200.20 74.71
  Q 201.88 76.47 201.64 78.48
  Q 200.85 85.07 199.12 92.49
  C 198.21 96.40 196.79 99.19 196.07 102.44
  C 195.12 106.68 192.07 111.93 190.63 116.09
  A 1.37 1.35 76.6 0 1 190.37 116.52
  L 188.09 118.96
  A 0.93 0.92 53.1 0 0 187.94 120.03
  Q 191.27 126.34 196.37 130.12
  A 2.66 2.53 7.5 0 1 197.17 131.11
  Q 198.07 133.11 198.14 136.11
  A 0.46 0.45 -39.1 0 0 199.04 136.20
  C 199.88 132.67 202.22 131.40 206.02 130.56
  Q 208.42 130.04 210.98 128.23
  A 1.08 1.07 75.6 0 0 211.43 127.46
  C 211.45 127.31 210.52 126.27 210.65 125.28
  Q 211.27 120.65 213.34 116.31
  A 0.68 0.68 0.0 0 0 212.97 115.39
  C 209.69 114.12 205.86 111.41 204.92 107.77
  A 1.42 1.41 -35.5 0 1 205.11 106.65
  C 206.32 104.83 208.68 105.38 210.32 106.78
  Q 214.28 110.15 219.79 109.22
  Q 223.77 108.54 228.04 103.99
  Q 234.62 96.95 237.66 89.44
  Q 242.28 78.00 243.38 75.14
  A 1.81 1.80 -64.5 0 0 242.60 72.93
  L 236.51 69.41
  A 1.09 1.08 -80.6 0 1 235.97 68.65
  Q 235.56 66.58 237.46 66.18
  Q 241.57 65.30 244.72 68.21
  A 0.42 0.42 0.0 0 0 245.41 67.99
  Q 245.75 66.33 246.41 65.43
  A 0.68 0.67 5.8 0 1 246.66 65.23
  L 247.63 64.81
  A 0.52 0.51 -30.1 0 0 247.84 64.03
  Q 246.24 61.92 247.60 58.80
  A 0.54 0.52 29.7 0 0 247.42 58.17
  Q 239.23 52.24 230.83 48.76
  C 226.76 47.08 220.49 44.04 217.18 47.43
  A 2.04 2.00 74.3 0 0 216.64 48.41
  C 215.30 54.24 210.47 66.30 202.42 64.25
  A 0.72 0.71 3.3 0 0 201.53 65.04
  Q 202.00 68.17 200.16 69.42
  A 2.28 2.23 59.3 0 1 196.90 68.55
  Q 195.63 66.09 196.15 62.77
  A 0.24 0.22 13.8 0 0 195.98 62.51
  A 0.32 0.31 14.3 0 0 195.60 62.73
  Z
  M 191.49 140.44
  A 0.40 0.40 0.0 0 0 190.83 140.11
  C 188.13 142.56 182.71 146.69 178.99 145.29
  Q 177.59 144.76 176.02 141.88
  Q 171.88 134.25 170.35 128.36
  A 1.09 1.09 0.0 0 0 169.06 127.57
  Q 159.65 129.67 147.97 133.52
  Q 140.32 136.05 136.50 138.95
  C 128.80 144.79 122.75 153.42 117.79 162.04
  Q 100.91 191.41 87.03 224.04
  Q 81.80 236.36 78.53 248.02
  Q 77.16 252.94 80.47 258.00
  A 2.71 2.63 -89.2 0 0 81.17 258.74
  Q 88.01 263.65 91.96 265.27
  Q 107.24 271.53 128.90 276.03
  C 138.08 277.93 147.45 278.65 156.26 280.17
  A 0.24 0.23 13.7 0 0 156.53 280.01
  L 161.66 261.83
  A 1.18 1.18 0.0 0 0 161.00 260.43
  C 149.39 255.36 138.34 251.87 117.39 244.67
  Q 115.18 243.91 107.64 241.80
  Q 106.23 241.41 105.79 240.46
  A 2.64 2.41 -28.3 0 1 106.90 237.29
  Q 109.16 235.91 112.98 236.69
  A 1.39 1.38 15.8 0 0 114.56 235.81
  Q 123.29 211.91 137.29 183.34
  A 1.60 1.59 22.1 0 1 139.22 182.53
  L 139.64 182.66
  A 2.06 2.06 0.0 0 1 140.96 185.25
  L 132.30 211.84
  A 7.87 7.52 59.0 0 0 132.01 213.13
  L 128.64 239.50
  A 0.82 0.82 0.0 0 0 129.18 240.38
  C 130.82 240.96 132.79 241.26 134.36 241.81
  Q 150.90 247.64 166.97 254.79
  A 2.39 2.28 -7.7 0 1 167.73 255.34
  Q 168.50 256.16 168.85 257.69
  A 0.45 0.45 0.0 0 0 169.73 257.64
  Q 170.61 249.12 173.20 236.73
  Q 179.05 208.67 179.64 205.84
  Q 182.99 189.80 188.26 169.96
  C 189.47 165.39 191.34 160.23 192.33 155.15
  A 3.99 3.67 -30.1 0 1 192.58 154.35
  Q 193.96 151.15 194.10 146.76
  A 2.05 2.02 -69.6 0 0 193.37 145.13
  Q 191.29 143.38 191.49 140.44
  Z
  M 185.7859 135.0371
  A 1.06 1.06 0.0 0 0 184.3065 134.7949
  L 182.2763 136.2537
  A 1.06 1.06 0.0 0 0 182.0340 137.7331
  L 182.3141 138.1229
  A 1.06 1.06 0.0 0 0 183.7935 138.3651
  L 185.8237 136.9063
  A 1.06 1.06 0.0 0 0 186.0660 135.4269
  L 185.7859 135.0371
  Z
  M 209.63 144.84
  Q 211.88 143.12 210.06 141.31
  A 1.53 1.47 -73.9 0 0 207.58 142.75
  Q 207.62 142.94 208.70 144.67
  A 0.64 0.63 54.9 0 0 209.63 144.84
  Z
  M 214.19 271.92
  C 216.81 262.18 219.60 255.11 222.14 245.77
  Q 226.62 229.29 229.47 217.69
  Q 231.65 208.82 234.00 201.04
  C 234.64 198.92 233.96 196.81 236.03 195.07
  A 1.74 1.52 -39.6 0 1 238.38 195.14
  C 240.31 197.59 238.41 199.39 238.45 201.88
  Q 238.57 209.43 237.42 216.17
  A 1.58 1.57 34.0 0 0 237.64 217.27
  C 242.18 224.61 245.41 231.65 249.83 238.63
  Q 250.53 239.74 256.72 250.00
  Q 260.51 256.29 270.82 268.09
  C 274.52 272.32 280.77 277.18 284.39 279.34
  Q 295.72 286.09 308.91 290.34
  Q 310.55 290.87 319.54 293.43
  C 326.45 295.39 332.33 296.23 339.51 297.95
  A 1.05 1.05 0.0 0 0 340.78 297.14
  L 344.59 278.89
  A 0.23 0.22 14.1 0 0 344.43 278.63
  C 339.00 276.92 333.09 275.76 327.79 273.67
  Q 319.17 270.27 317.01 269.32
  Q 305.17 264.14 295.57 255.25
  C 291.20 251.20 287.40 245.94 284.57 241.29
  Q 280.84 235.14 275.58 223.99
  Q 275.34 223.47 254.35 178.10
  Q 249.59 167.81 245.20 161.18
  Q 242.12 156.55 236.56 151.83
  Q 227.65 144.27 222.40 141.42
  A 0.58 0.57 34.4 0 0 221.69 141.55
  Q 216.44 147.59 212.17 151.15
  C 206.94 155.52 204.01 149.13 201.68 144.71
  A 0.60 0.59 53.3 0 0 200.73 144.57
  L 198.67 146.63
  A 0.86 0.85 68.4 0 0 198.42 147.21
  L 198.36 151.09
  A 3.03 3.00 51.9 0 1 198.28 151.78
  L 176.78 254.84
  A 0.40 0.39 -3.9 0 0 177.30 255.29
  Q 187.38 251.78 195.93 249.40
  C 200.32 248.18 202.68 251.54 201.73 255.50
  C 200.78 259.46 195.66 262.69 194.03 264.31
  A 0.45 0.44 33.0 0 0 194.19 265.04
  L 213.26 272.39
  A 0.70 0.70 0.0 0 0 214.19 271.92
  Z
  M 120.63 235.51
  Q 119.63 236.83 119.97 237.61
  A 0.63 0.62 -47.2 0 0 121.13 237.56
  Q 121.51 236.49 121.27 235.63
  A 0.36 0.36 0.0 0 0 120.63 235.51
  Z
  M 212.91 279.84
  A 0.45 0.44 -68.9 0 0 212.66 279.26
  Q 201.45 274.80 189.53 269.34
  C 185.63 267.55 185.68 264.74 189.26 262.13
  Q 192.34 259.89 195.82 256.27
  A 0.38 0.38 0.0 0 0 195.60 255.63
  Q 195.20 255.58 194.92 255.70
  Q 182.88 260.93 170.55 265.01
  Q 170.02 265.18 169.70 265.15
  Q 168.81 265.08 168.74 265.15
  A 3.84 3.79 -15.5 0 0 167.77 266.84
  L 164.91 277.55
  A 0.48 0.48 0.0 0 0 165.12 278.08
  Q 171.29 282.00 176.38 284.62
  Q 188.80 291.02 201.42 293.17
  A 0.28 0.28 0.0 0 0 201.59 292.64
  Q 198.64 291.17 195.08 289.91
  Q 192.77 289.10 191.24 287.84
  A 1.19 1.19 0.0 0 1 192.37 285.79
  L 209.00 291.20
  A 1.02 1.02 0.0 0 0 210.18 290.78
  L 210.38 290.47
  A 0.77 0.75 -63.3 0 0 210.02 289.35
  L 194.90 283.53
  A 0.93 0.93 0.0 0 1 195.28 281.73
  C 196.60 281.79 197.59 282.74 198.93 283.06
  Q 203.77 284.21 210.12 286.15
  Q 212.83 286.98 214.75 288.30
  A 0.31 0.31 0.0 0 0 215.23 288.11
  Q 215.44 287.15 216.09 286.63
  A 0.40 0.40 0.0 0 0 216.05 285.97
  Q 211.44 283.24 206.98 282.08
  C 203.93 281.28 200.64 279.36 197.11 278.36
  A 0.52 0.46 75.1 0 1 196.87 278.20
  Q 196.60 277.88 196.61 277.62
  A 0.91 0.80 14.0 0 1 197.85 276.98
  Q 199.00 277.47 200.50 277.55
  Q 206.32 277.83 212.36 280.10
  A 0.42 0.42 0.0 0 0 212.90 279.86
  L 212.91 279.84
  Z
  M 401.75 306.89
  A 0.12 0.11 -84.3 0 0 401.66 306.77
  L 392.19 304.09
  A 0.98 0.98 0.0 0 1 391.48 303.11
  L 391.50 302.78
  A 1.13 1.13 0.0 0 1 392.83 301.72
  Q 401.70 303.38 408.00 303.69
  Q 409.53 303.76 410.37 303.28
  A 0.27 0.27 0.0 0 0 410.31 302.79
  L 395.09 298.49
  A 0.61 0.60 9.0 0 1 394.64 297.88
  L 394.66 297.62
  A 0.77 0.76 -83.2 0 1 395.57 296.90
  Q 402.05 298.11 411.99 298.61
  Q 413.15 298.66 413.66 298.42
  A 0.22 0.21 -49.8 0 0 413.63 298.02
  L 396.99 293.32
  A 0.57 0.57 0.0 0 1 397.17 292.20
  L 411.26 292.86
  A 0.19 0.19 0.0 0 0 411.38 292.52
  Q 410.51 291.86 409.04 291.45
  Q 399.47 288.79 394.60 287.35
  C 392.10 286.60 388.93 286.43 386.13 285.04
  A 1.57 1.57 0.0 0 1 385.40 284.28
  Q 383.97 281.07 386.10 279.12
  Q 389.36 276.13 392.11 271.78
  A 0.49 0.49 0.0 0 0 391.41 271.13
  Q 388.95 272.95 385.50 275.48
  Q 383.56 276.92 371.47 282.44
  C 369.57 283.31 367.04 283.58 365.41 284.21
  A 0.54 0.52 86.2 0 0 365.08 284.60
  L 362.44 297.27
  A 0.38 0.38 0.0 0 0 362.71 297.72
  Q 366.06 298.66 371.01 300.90
  Q 374.81 302.62 379.45 303.85
  Q 389.51 306.52 401.65 307.23
  A 0.09 0.09 0.0 0 0 401.74 307.15
  L 401.75 306.89
  Z
  M 358.2294 282.3037
  A 0.49 0.49 0.0 0 0 357.8611 281.7166
  L 352.1295 280.4039
  A 0.49 0.49 0.0 0 0 351.5425 280.7722
  L 347.5106 298.3763
  A 0.49 0.49 0.0 0 0 347.8789 298.9634
  L 353.6105 300.2761
  A 0.49 0.49 0.0 0 0 354.1975 299.9078
  L 358.2294 282.3037
  Z
  M 213.66 293.86
  Q 211.25 293.49 209.31 292.47
  A 0.43 0.42 16.6 0 0 208.69 292.80
  Q 208.57 293.99 207.99 294.66
  A 1.43 1.43 0.0 0 0 209.76 296.85
  L 213.79 294.62
  A 0.41 0.41 0.0 0 0 213.66 293.86
  Z
  M 188.70 652.85
  L 188.70 662.17
  A 1.59 1.58 -74.6 0 0 189.47 663.53
  C 191.44 664.70 196.81 667.96 200.15 668.29
  C 202.13 668.49 202.57 667.25 203.33 665.84
  A 0.98 0.97 -49.8 0 0 203.25 664.80
  C 200.73 661.41 200.76 656.11 201.14 651.82
  A 0.80 0.80 0.0 0 0 200.25 650.96
  L 189.18 652.31
  A 0.55 0.54 -3.6 0 0 188.70 652.85
  Z
  M 124.29 661.64
  A 0.56 0.55 2.1 0 0 123.71 662.17
  L 123.18 673.52
  A 0.98 0.98 0.0 0 0 123.50 674.29
  Q 127.03 677.54 131.54 679.71
  Q 134.18 680.98 135.55 678.25
  A 1.27 1.26 47.0 0 0 135.58 677.19
  L 134.70 675.14
  A 3.23 3.08 -58.9 0 1 134.44 673.98
  L 134.12 662.72
  A 0.68 0.67 0.5 0 0 133.47 662.07
  L 124.29 661.64
  Z"
/>
<path fill="none" d="
  M 195.60 62.73
  A 0.32 0.31 14.3 0 1 195.98 62.51
  A 0.24 0.22 13.8 0 1 196.15 62.77
  Q 195.63 66.09 196.90 68.55
  A 2.28 2.23 59.3 0 0 200.16 69.42
  Q 202.00 68.17 201.53 65.04
  A 0.72 0.71 3.3 0 1 202.42 64.25
  C 210.47 66.30 215.30 54.24 216.64 48.41
  A 2.04 2.00 74.3 0 1 217.18 47.43
  C 220.49 44.04 226.76 47.08 230.83 48.76
  Q 239.23 52.24 247.42 58.17
  A 0.54 0.52 29.7 0 1 247.60 58.80
  Q 246.24 61.92 247.84 64.03
  A 0.52 0.51 -30.1 0 1 247.63 64.81
  L 246.66 65.23
  A 0.68 0.67 5.8 0 0 246.41 65.43
  Q 245.75 66.33 245.41 67.99
  A 0.42 0.42 0.0 0 1 244.72 68.21
  Q 241.57 65.30 237.46 66.18
  Q 235.56 66.58 235.97 68.65
  A 1.09 1.08 -80.6 0 0 236.51 69.41
  L 242.60 72.93
  A 1.81 1.80 -64.5 0 1 243.38 75.14
  Q 242.28 78.00 237.66 89.44
  Q 234.62 96.95 228.04 103.99
  Q 223.77 108.54 219.79 109.22
  Q 214.28 110.15 210.32 106.78
  C 208.68 105.38 206.32 104.83 205.11 106.65
  A 1.42 1.41 -35.5 0 0 204.92 107.77
  C 205.86 111.41 209.69 114.12 212.97 115.39
  A 0.68 0.68 0.0 0 1 213.34 116.31
  Q 211.27 120.65 210.65 125.28
  C 210.52 126.27 211.45 127.31 211.43 127.46
  A 1.08 1.07 75.6 0 1 210.98 128.23
  Q 208.42 130.04 206.02 130.56
  C 202.22 131.40 199.88 132.67 199.04 136.20
  A 0.46 0.45 -39.1 0 1 198.14 136.11
  Q 198.07 133.11 197.17 131.11
  A 2.66 2.53 7.5 0 0 196.37 130.12
  Q 191.27 126.34 187.94 120.03
  A 0.93 0.92 53.1 0 1 188.09 118.96
  L 190.37 116.52
  A 1.37 1.35 76.6 0 0 190.63 116.09
  C 192.07 111.93 195.12 106.68 196.07 102.44
  C 196.79 99.19 198.21 96.40 199.12 92.49
  Q 200.85 85.07 201.64 78.48
  Q 201.88 76.47 200.20 74.71
  A 1.18 1.18 0.0 0 0 199.39 74.34
  L 197.64 74.26
  A 1.15 1.15 0.0 0 1 196.69 73.67
  Q 193.94 68.67 195.60 62.73
  Z
  M 216.99 63.90
  L 225.44 65.12
  A 1.17 1.17 0.0 0 0 226.76 64.13
  L 226.83 63.65
  A 4.11 3.48 8.2 0 0 223.26 59.62
  L 220.63 59.24
  A 4.11 3.48 8.2 0 0 216.07 62.09
  L 216.00 62.58
  A 1.17 1.17 0.0 0 0 216.99 63.90
  Z
  M 220.4948 68.5221
  A 2.28 2.00 -70.4 0 0 217.8459 69.9991
  A 2.28 2.00 -70.4 0 0 218.9652 72.8179
  A 2.28 2.00 -70.4 0 0 221.6141 71.3409
  A 2.28 2.00 -70.4 0 0 220.4948 68.5221
  Z
  M 222.75 83.98
  C 220.18 84.78 219.82 86.90 219.89 89.29
  A 0.82 0.82 0.0 0 1 218.31 89.63
  L 217.41 87.55
  A 1.71 1.71 0.0 0 0 214.95 86.76
  C 208.71 90.52 219.05 103.32 224.93 95.60
  A 0.95 0.94 -44.2 0 0 224.95 94.47
  L 223.61 92.64
  A 0.64 0.64 0.0 0 1 223.87 91.68
  L 228.64 89.63
  A 2.38 2.37 -11.7 0 0 230.08 87.45
  L 230.08 75.28
  A 1.33 1.33 0.0 0 0 228.28 74.03
  L 227.89 74.18
  A 2.20 2.20 0.0 0 0 226.47 76.24
  L 226.47 85.30
  A 0.69 0.69 0.0 0 1 225.29 85.79
  L 223.72 84.22
  A 0.98 0.97 -30.8 0 0 222.75 83.98
  Z
  M 237.6882 75.3329
  A 2.49 2.08 -76.1 0 0 235.0709 77.2503
  A 2.49 2.08 -76.1 0 0 236.4918 80.1671
  A 2.49 2.08 -76.1 0 0 239.1091 78.2497
  A 2.49 2.08 -76.1 0 0 237.6882 75.3329
  Z"
/>
<path fill="#c41b1e" d="
  M 216.99 63.90
  A 1.17 1.17 0.0 0 1 216.00 62.58
  L 216.07 62.09
  A 4.11 3.48 8.2 0 1 220.63 59.24
  L 223.26 59.62
  A 4.11 3.48 8.2 0 1 226.83 63.65
  L 226.76 64.13
  A 1.17 1.17 0.0 0 1 225.44 65.12
  L 216.99 63.90
  Z"
/>
<ellipse fill="#c41b1e" cx="0.00" cy="0.00" transform="translate(219.73,70.67) rotate(-70.4)" rx="2.28" ry="2.00"/>
<path fill="#c41b1e" d="
  M 219.89 89.29
  C 219.82 86.90 220.18 84.78 222.75 83.98
  A 0.98 0.97 -30.8 0 1 223.72 84.22
  L 225.29 85.79
  A 0.69 0.69 0.0 0 0 226.47 85.30
  L 226.47 76.24
  A 2.20 2.20 0.0 0 1 227.89 74.18
  L 228.28 74.03
  A 1.33 1.33 0.0 0 1 230.08 75.28
  L 230.08 87.45
  A 2.38 2.37 -11.7 0 1 228.64 89.63
  L 223.87 91.68
  A 0.64 0.64 0.0 0 0 223.61 92.64
  L 224.95 94.47
  A 0.95 0.94 -44.2 0 1 224.93 95.60
  C 219.05 103.32 208.71 90.52 214.95 86.76
  A 1.71 1.71 0.0 0 1 217.41 87.55
  L 218.31 89.63
  A 0.82 0.82 0.0 0 0 219.89 89.29
  Z"
/>
<ellipse fill="#c41b1e" cx="0.00" cy="0.00" transform="translate(237.09,77.75) rotate(-76.1)" rx="2.49" ry="2.08"/>
<path fill="none" d="
  M 191.49 140.44
  Q 191.29 143.38 193.37 145.13
  A 2.05 2.02 -69.6 0 1 194.10 146.76
  Q 193.96 151.15 192.58 154.35
  A 3.99 3.67 -30.1 0 0 192.33 155.15
  C 191.34 160.23 189.47 165.39 188.26 169.96
  Q 182.99 189.80 179.64 205.84
  Q 179.05 208.67 173.20 236.73
  Q 170.61 249.12 169.73 257.64
  A 0.45 0.45 0.0 0 1 168.85 257.69
  Q 168.50 256.16 167.73 255.34
  A 2.39 2.28 -7.7 0 0 166.97 254.79
  Q 150.90 247.64 134.36 241.81
  C 132.79 241.26 130.82 240.96 129.18 240.38
  A 0.82 0.82 0.0 0 1 128.64 239.50
  L 132.01 213.13
  A 7.87 7.52 59.0 0 1 132.30 211.84
  L 140.96 185.25
  A 2.06 2.06 0.0 0 0 139.64 182.66
  L 139.22 182.53
  A 1.60 1.59 22.1 0 0 137.29 183.34
  Q 123.29 211.91 114.56 235.81
  A 1.39 1.38 15.8 0 1 112.98 236.69
  Q 109.16 235.91 106.90 237.29
  A 2.64 2.41 -28.3 0 0 105.79 240.46
  Q 106.23 241.41 107.64 241.80
  Q 115.18 243.91 117.39 244.67
  C 138.34 251.87 149.39 255.36 161.00 260.43
  A 1.18 1.18 0.0 0 1 161.66 261.83
  L 156.53 280.01
  A 0.24 0.23 13.7 0 1 156.26 280.17
  C 147.45 278.65 138.08 277.93 128.90 276.03
  Q 107.24 271.53 91.96 265.27
  Q 88.01 263.65 81.17 258.74
  A 2.71 2.63 -89.2 0 1 80.47 258.00
  Q 77.16 252.94 78.53 248.02
  Q 81.80 236.36 87.03 224.04
  Q 100.91 191.41 117.79 162.04
  C 122.75 153.42 128.80 144.79 136.50 138.95
  Q 140.32 136.05 147.97 133.52
  Q 159.65 129.67 169.06 127.57
  A 1.09 1.09 0.0 0 1 170.35 128.36
  Q 171.88 134.25 176.02 141.88
  Q 177.59 144.76 178.99 145.29
  C 182.71 146.69 188.13 142.56 190.83 140.11
  A 0.40 0.40 0.0 0 1 191.49 140.44
  Z
  M 187.6500 157.1102
  A 3.15 2.78 -47.7 0 0 183.4738 157.5690
  A 3.15 2.78 -47.7 0 0 183.4100 161.7698
  A 3.15 2.78 -47.7 0 0 187.5862 161.3110
  A 3.15 2.78 -47.7 0 0 187.6500 157.1102
  Z
  M 183.45 182.12
  A 3.22 3.22 0.0 0 0 180.23 178.90
  A 3.22 3.22 0.0 0 0 177.01 182.12
  A 3.22 3.22 0.0 0 0 180.23 185.34
  A 3.22 3.22 0.0 0 0 183.45 182.12
  Z
  M 175.3451 209.3763
  A 3.34 2.88 -59.7 0 0 171.1734 210.8070
  A 3.34 2.88 -59.7 0 0 171.9749 215.1437
  A 3.34 2.88 -59.7 0 0 176.1466 213.7130
  A 3.34 2.88 -59.7 0 0 175.3451 209.3763
  Z
  M 170.0592 235.4784
  A 3.46 3.15 -57.3 0 0 165.5392 236.6882
  A 3.46 3.15 -57.3 0 0 166.3208 241.3016
  A 3.46 3.15 -57.3 0 0 170.8408 240.0918
  A 3.46 3.15 -57.3 0 0 170.0592 235.4784
  Z"
/>
<rect fill="none" x="-2.31" y="-1.30" transform="translate(184.05,136.58) rotate(-35.7)" width="4.62" height="2.60" rx="1.06"/>
<path fill="none" d="
  M 209.63 144.84
  A 0.64 0.63 54.9 0 1 208.70 144.67
  Q 207.62 142.94 207.58 142.75
  A 1.53 1.47 -73.9 0 1 210.06 141.31
  Q 211.88 143.12 209.63 144.84
  Z"
/>
<path fill="none" d="
  M 213.26 272.39
  L 194.19 265.04
  A 0.45 0.44 33.0 0 1 194.03 264.31
  C 195.66 262.69 200.78 259.46 201.73 255.50
  C 202.68 251.54 200.32 248.18 195.93 249.40
  Q 187.38 251.78 177.30 255.29
  A 0.40 0.39 -3.9 0 1 176.78 254.84
  L 198.28 151.78
  A 3.03 3.00 51.9 0 0 198.36 151.09
  L 198.42 147.21
  A 0.86 0.85 68.4 0 1 198.67 146.63
  L 200.73 144.57
  A 0.60 0.59 53.3 0 1 201.68 144.71
  C 204.01 149.13 206.94 155.52 212.17 151.15
  Q 216.44 147.59 221.69 141.55
  A 0.58 0.57 34.4 0 1 222.40 141.42
  Q 227.65 144.27 236.56 151.83
  Q 242.12 156.55 245.20 161.18
  Q 249.59 167.81 254.35 178.10
  Q 275.34 223.47 275.58 223.99
  Q 280.84 235.14 284.57 241.29
  C 287.40 245.94 291.20 251.20 295.57 255.25
  Q 305.17 264.14 317.01 269.32
  Q 319.17 270.27 327.79 273.67
  C 333.09 275.76 339.00 276.92 344.43 278.63
  A 0.23 0.22 14.1 0 1 344.59 278.89
  L 340.78 297.14
  A 1.05 1.05 0.0 0 1 339.51 297.95
  C 332.33 296.23 326.45 295.39 319.54 293.43
  Q 310.55 290.87 308.91 290.34
  Q 295.72 286.09 284.39 279.34
  C 280.77 277.18 274.52 272.32 270.82 268.09
  Q 260.51 256.29 256.72 250.00
  Q 250.53 239.74 249.83 238.63
  C 245.41 231.65 242.18 224.61 237.64 217.27
  A 1.58 1.57 34.0 0 1 237.42 216.17
  Q 238.57 209.43 238.45 201.88
  C 238.41 199.39 240.31 197.59 238.38 195.14
  A 1.74 1.52 -39.6 0 0 236.03 195.07
  C 233.96 196.81 234.64 198.92 234.00 201.04
  Q 231.65 208.82 229.47 217.69
  Q 226.62 229.29 222.14 245.77
  C 219.60 255.11 216.81 262.18 214.19 271.92
  A 0.70 0.70 0.0 0 1 213.26 272.39
  Z"
/>
<ellipse fill="#c41b1e" cx="0.00" cy="0.00" transform="translate(185.53,159.44) rotate(-47.7)" rx="3.15" ry="2.78"/>
<circle fill="#c41b1e" cx="180.23" cy="182.12" r="3.22"/>
<ellipse fill="#c41b1e" cx="0.00" cy="0.00" transform="translate(173.66,212.26) rotate(-59.7)" rx="3.34" ry="2.88"/>
<ellipse fill="#c41b1e" cx="0.00" cy="0.00" transform="translate(168.19,238.39) rotate(-57.3)" rx="3.46" ry="3.15"/>
<path fill="none" d="
  M 121.27 235.63
  Q 121.51 236.49 121.13 237.56
  A 0.63 0.62 -47.2 0 1 119.97 237.61
  Q 119.63 236.83 120.63 235.51
  A 0.36 0.36 0.0 0 1 121.27 235.63
  Z"
/>
<path fill="none" d="
  M 212.91 279.84
  L 212.90 279.86
  A 0.42 0.42 0.0 0 1 212.36 280.10
  Q 206.32 277.83 200.50 277.55
  Q 199.00 277.47 197.85 276.98
  A 0.91 0.80 14.0 0 0 196.61 277.62
  Q 196.60 277.88 196.87 278.20
  A 0.52 0.46 75.1 0 0 197.11 278.36
  C 200.64 279.36 203.93 281.28 206.98 282.08
  Q 211.44 283.24 216.05 285.97
  A 0.40 0.40 0.0 0 1 216.09 286.63
  Q 215.44 287.15 215.23 288.11
  A 0.31 0.31 0.0 0 1 214.75 288.30
  Q 212.83 286.98 210.12 286.15
  Q 203.77 284.21 198.93 283.06
  C 197.59 282.74 196.60 281.79 195.28 281.73
  A 0.93 0.93 0.0 0 0 194.90 283.53
  L 210.02 289.35
  A 0.77 0.75 -63.3 0 1 210.38 290.47
  L 210.18 290.78
  A 1.02 1.02 0.0 0 1 209.00 291.20
  L 192.37 285.79
  A 1.19 1.19 0.0 0 0 191.24 287.84
  Q 192.77 289.10 195.08 289.91
  Q 198.64 291.17 201.59 292.64
  A 0.28 0.28 0.0 0 1 201.42 293.17
  Q 188.80 291.02 176.38 284.62
  Q 171.29 282.00 165.12 278.08
  A 0.48 0.48 0.0 0 1 164.91 277.55
  L 167.77 266.84
  A 3.84 3.79 -15.5 0 1 168.74 265.15
  Q 168.81 265.08 169.70 265.15
  Q 170.02 265.18 170.55 265.01
  Q 182.88 260.93 194.92 255.70
  Q 195.20 255.58 195.60 255.63
  A 0.38 0.38 0.0 0 1 195.82 256.27
  Q 192.34 259.89 189.26 262.13
  C 185.68 264.74 185.63 267.55 189.53 269.34
  Q 201.45 274.80 212.66 279.26
  A 0.45 0.44 -68.9 0 1 212.91 279.84
  Z"
/>
<path fill="none" d="
  M 401.75 306.89
  L 401.74 307.15
  A 0.09 0.09 0.0 0 1 401.65 307.23
  Q 389.51 306.52 379.45 303.85
  Q 374.81 302.62 371.01 300.90
  Q 366.06 298.66 362.71 297.72
  A 0.38 0.38 0.0 0 1 362.44 297.27
  L 365.08 284.60
  A 0.54 0.52 86.2 0 1 365.41 284.21
  C 367.04 283.58 369.57 283.31 371.47 282.44
  Q 383.56 276.92 385.50 275.48
  Q 388.95 272.95 391.41 271.13
  A 0.49 0.49 0.0 0 1 392.11 271.78
  Q 389.36 276.13 386.10 279.12
  Q 383.97 281.07 385.40 284.28
  A 1.57 1.57 0.0 0 0 386.13 285.04
  C 388.93 286.43 392.10 286.60 394.60 287.35
  Q 399.47 288.79 409.04 291.45
  Q 410.51 291.86 411.38 292.52
  A 0.19 0.19 0.0 0 1 411.26 292.86
  L 397.17 292.20
  A 0.57 0.57 0.0 0 0 396.99 293.32
  L 413.63 298.02
  A 0.22 0.21 -49.8 0 1 413.66 298.42
  Q 413.15 298.66 411.99 298.61
  Q 402.05 298.11 395.57 296.90
  A 0.77 0.76 -83.2 0 0 394.66 297.62
  L 394.64 297.88
  A 0.61 0.60 9.0 0 0 395.09 298.49
  L 410.31 302.79
  A 0.27 0.27 0.0 0 1 410.37 303.28
  Q 409.53 303.76 408.00 303.69
  Q 401.70 303.38 392.83 301.72
  A 1.13 1.13 0.0 0 0 391.50 302.78
  L 391.48 303.11
  A 0.98 0.98 0.0 0 0 392.19 304.09
  L 401.66 306.77
  A 0.12 0.11 -84.3 0 1 401.75 306.89
  Z"
/>
<rect fill="none" x="-3.43" y="-9.52" transform="translate(352.87,290.34) rotate(12.9)" width="6.86" height="19.04" rx="0.49"/>
<path fill="none" d="
  M 213.66 293.86
  A 0.41 0.41 0.0 0 1 213.79 294.62
  L 209.76 296.85
  A 1.43 1.43 0.0 0 1 207.99 294.66
  Q 208.57 293.99 208.69 292.80
  A 0.43 0.42 16.6 0 1 209.31 292.47
  Q 211.25 293.49 213.66 293.86
  Z"
/>
<path fill="none" d="
  M 188.70 652.85
  A 0.55 0.54 -3.6 0 1 189.18 652.31
  L 200.25 650.96
  A 0.80 0.80 0.0 0 1 201.14 651.82
  C 200.76 656.11 200.73 661.41 203.25 664.80
  A 0.98 0.97 -49.8 0 1 203.33 665.84
  C 202.57 667.25 202.13 668.49 200.15 668.29
  C 196.81 667.96 191.44 664.70 189.47 663.53
  A 1.59 1.58 -74.6 0 1 188.70 662.17
  L 188.70 652.85
  Z"
/>
<path fill="none" d="
  M 124.29 661.64
  L 133.47 662.07
  A 0.68 0.67 0.5 0 1 134.12 662.72
  L 134.44 673.98
  A 3.23 3.08 -58.9 0 0 134.70 675.14
  L 135.58 677.19
  A 1.27 1.26 47.0 0 1 135.55 678.25
  Q 134.18 680.98 131.54 679.71
  Q 127.03 677.54 123.50 674.29
  A 0.98 0.98 0.0 0 1 123.18 673.52
  L 123.71 662.17
  A 0.56 0.55 2.1 0 1 124.29 661.64
  Z"
/>
</svg>
