<?xml version="1.0" encoding="UTF-8" standalone="no"?>
<!DOCTYPE svg PUBLIC "-//W3C//DTD SVG 1.1//EN" "http://www.w3.org/Graphics/SVG/1.1/DTD/svg11.dtd">
<svg xmlns="http://www.w3.org/2000/svg" version="1.1" viewBox="0.00 0.00 460.00 746.00">
<g stroke-width="2.00" fill="none" stroke-linecap="butt">
<path stroke="#f7f1ed" vector-effect="non-scaling-stroke" d="
  M 365.96 472.70
  Q 366.53 472.78 366.93 473.25"
/>
<path stroke="#de8686" vector-effect="non-scaling-stroke" d="
  M 366.93 473.25
  Q 367.18 475.66 364.52 476.57
  Q 347.95 482.23 330.00 483.11
  Q 326.46 483.29 323.40 482.68
  A 1.70 1.64 39.7 0 0 322.47 482.75
  C 320.80 483.35 320.05 485.03 320.04 486.90
  C 320.02 492.41 319.80 496.73 319.74 502.40
  Q 319.02 574.35 317.82 619.01
  Q 317.54 629.38 317.44 646.94
  C 317.41 651.78 318.15 655.18 322.95 656.50
  Q 327.92 657.87 332.59 659.19
  A 0.96 0.94 -81.0 0 1 333.28 660.16
  L 332.62 671.47
  A 2.16 2.13 -18.8 0 1 331.86 672.99
  Q 329.95 674.60 328.90 675.90
  C 322.73 683.56 316.91 689.72 309.88 698.38
  C 307.53 701.27 305.14 706.37 306.74 710.44
  C 309.54 717.59 316.35 717.05 322.12 714.62
  Q 338.43 707.71 352.80 697.33
  C 356.92 694.35 360.36 692.40 361.16 687.93
  C 362.03 683.06 362.08 675.96 359.87 671.30
  A 2.45 2.45 0.0 0 1 359.62 670.18
  L 359.72 659.49
  A 0.76 0.76 0.0 0 1 360.23 658.77
  C 363.79 657.51 370.27 656.46 372.70 652.83
  Q 373.89 651.06 374.23 646.40
  Q 378.21 592.28 378.68 582.75
  Q 381.77 520.04 382.16 469.75
  C 382.36 444.74 381.00 423.25 379.74 394.66
  C 378.39 364.21 374.77 335.57 369.58 305.71
  A 0.96 0.94 63.0 0 1 369.85 304.86
  Q 383.82 291.10 394.25 273.72
  Q 400.18 263.84 403.37 253.43
  C 405.97 244.94 404.99 235.01 403.04 226.66
  Q 399.12 209.87 391.27 191.21
  C 385.56 177.64 379.30 164.47 372.21 153.57
  Q 361.70 137.40 343.67 130.09
  Q 330.75 124.85 318.20 122.52
  A 1.71 1.68 -13.2 0 1 317.18 121.90
  C 314.07 117.96 311.45 113.28 305.61 113.42
  A 1.81 1.80 82.8 0 1 303.80 112.01
  Q 302.77 107.55 301.71 104.62
  C 299.50 98.49 298.94 92.42 298.42 85.93
  A 1.50 1.50 0.0 0 1 299.10 84.54
  C 302.99 82.03 305.74 78.35 306.04 73.30
  Q 306.45 66.33 304.49 62.35
  Q 303.14 59.58 298.38 57.66
  A 1.11 1.08 2.1 0 1 297.75 57.00
  Q 295.76 51.28 295.48 46.33
  C 295.15 40.66 293.70 36.39 289.08 34.41
  C 273.63 27.80 254.61 33.79 241.30 42.83
  C 238.94 44.43 237.53 45.51 237.18 48.19
  Q 237.03 49.38 236.48 50.91
  A 3.00 2.95 -37.1 0 0 236.31 52.06
  Q 236.51 57.18 241.34 60.20
  Q 243.65 61.65 245.21 61.73
  A 0.60 0.60 0.0 0 1 245.79 62.32
  Q 245.84 64.10 247.23 66.50
  A 1.10 1.09 -49.4 0 1 247.30 67.48
  Q 245.68 71.42 246.33 76.26
  C 248.28 90.66 253.69 113.01 270.20 117.48
  A 1.20 1.19 2.8 0 1 271.06 118.42
  L 272.14 124.33
  A 1.02 1.02 0.0 0 1 271.73 125.35
  Q 266.39 129.14 265.45 135.97
  A 1.46 1.42 74.8 0 1 264.95 136.87
  Q 248.15 150.88 238.04 166.81
  Q 231.97 176.38 215.03 204.78
  C 207.86 216.79 200.71 228.75 193.20 237.24
  Q 179.54 252.67 158.36 256.90
  C 145.07 259.55 131.48 260.59 118.78 260.93
  A 1.47 1.47 0.0 0 0 117.91 261.26
  L 115.87 262.91
  A 1.10 1.09 40.6 0 1 114.62 263.00
  Q 105.37 257.57 97.85 251.11
  C 95.37 248.98 93.45 245.72 90.36 244.70
  A 2.29 2.25 52.6 0 0 89.52 244.58
  C 84.83 244.72 83.65 249.43 85.31 253.06
  Q 87.30 257.42 90.87 260.97
  A 0.28 0.28 0.0 0 1 90.69 261.44
  Q 79.39 262.26 69.00 261.97
  C 65.19 261.87 58.24 262.53 58.30 267.94
  A 1.52 1.50 -21.7 0 1 57.80 269.08
  Q 53.14 273.25 58.03 277.92
  A 1.59 1.59 0.0 0 1 58.52 279.07
  Q 58.53 282.45 63.59 284.75
  Q 64.79 285.29 65.24 286.71
  Q 66.28 290.01 69.84 291.46
  Q 76.32 294.10 81.51 294.39
  Q 98.40 295.34 114.03 290.81
  A 0.61 0.61 0.0 0 1 114.77 291.16
  Q 116.49 295.35 122.03 295.53
  Q 128.22 295.73 139.77 296.39
  Q 148.02 296.86 165.50 295.26
  C 188.67 293.15 210.64 283.53 226.51 266.00
  Q 239.65 251.48 250.60 235.45
  A 0.22 0.22 0.0 0 1 251.00 235.54
  Q 253.83 252.45 256.17 264.06
  Q 256.65 266.43 260.42 279.02
  A 2.37 2.31 -49.8 0 1 260.49 280.00
  Q 259.02 291.20 258.72 294.50
  Q 254.86 336.14 251.55 379.11
  Q 250.82 388.54 250.49 395.88
  C 249.85 410.06 248.63 424.66 248.29 437.85
  Q 247.80 457.35 247.63 462.06
  C 247.41 468.60 248.92 470.93 254.93 472.25
  A 1.86 1.85 -83.4 0 1 256.39 474.10
  Q 255.56 507.39 254.96 524.88
  C 253.63 563.36 254.48 591.52 254.77 637.11
  Q 254.80 641.22 255.70 642.66
  C 257.69 645.85 262.84 647.43 266.31 648.52
  A 0.63 0.62 -80.1 0 1 266.75 649.16
  L 266.18 658.95
  A 3.14 3.11 73.3 0 1 264.94 661.28
  Q 243.97 677.07 240.80 679.56
  Q 235.68 683.57 234.33 685.03
  C 230.15 689.56 230.04 697.30 237.14 698.91
  Q 241.20 699.84 246.21 698.92
  Q 268.37 694.83 290.79 685.49
  Q 295.76 683.42 296.44 677.49
  C 297.12 671.68 296.56 667.83 295.10 663.12
  A 9.81 9.78 -51.0 0 1 294.76 659.84
  L 295.25 652.07
  A 0.66 0.66 0.0 0 1 295.74 651.47
  Q 299.44 650.49 303.63 649.53
  C 307.48 648.66 310.85 646.79 311.10 642.67
  Q 311.64 633.88 313.95 578.25
  Q 314.61 562.41 314.75 550.50
  Q 315.04 525.56 315.89 496.20
  C 316.02 491.50 316.32 487.56 315.50 482.53
  A 1.84 1.83 -1.5 0 1 317.52 480.41
  L 321.80 480.87
  A 0.64 0.64 0.0 0 0 321.96 480.87
  Q 328.14 479.98 338.74 479.04
  Q 342.43 478.71 357.21 475.46
  Q 359.91 474.87 363.09 474.60
  A 1.65 1.63 23.2 0 0 363.98 474.25
  L 365.96 472.70"
/>
<path stroke="#de8686" vector-effect="non-scaling-stroke" d="
  M 366.93 473.25
  C 367.06 471.29 368.70 470.81 368.77 468.91
  Q 369.85 437.14 368.42 410.76
  Q 368.15 405.84 367.02 389.10
  Q 366.39 379.75 365.47 373.08
  C 364.51 366.10 364.22 356.38 363.04 347.94
  C 362.01 340.56 361.69 333.59 360.48 325.23
  C 359.31 317.17 359.13 311.39 357.77 303.67
  Q 356.79 298.05 356.09 289.51
  C 355.80 285.96 353.93 281.87 355.38 278.04
  A 1.36 1.36 0.0 0 0 354.02 276.20
  L 351.74 276.34
  A 0.58 0.58 0.0 0 0 351.20 276.95
  Q 351.90 288.67 352.97 294.72
  Q 353.91 300.04 354.09 303.07
  C 354.53 310.38 356.19 317.50 356.79 323.97
  Q 357.13 327.64 361.09 363.95
  C 362.00 372.25 362.12 380.44 363.13 388.18
  Q 363.93 394.32 364.29 406.36
  Q 364.42 410.61 365.34 424.97
  Q 366.21 438.43 366.18 443.56
  C 366.16 447.55 366.12 458.70 367.01 469.75
  Q 367.11 471.00 365.96 472.70"
/>
<path stroke="#de8686" vector-effect="non-scaling-stroke" d="
  M 297.91 70.67
  Q 297.11 75.07 293.60 74.97
  A 1.61 1.61 0.0 0 1 292.04 73.26
  L 292.19 70.67
  A 0.83 0.82 -79.2 0 0 291.64 69.85
  C 285.31 67.67 282.62 59.56 282.32 53.62
  A 1.89 1.88 -66.1 0 0 281.90 52.52
  Q 279.84 49.91 276.44 50.28
  Q 264.08 51.63 253.00 58.68
  A 1.93 1.92 -23.5 0 0 252.17 60.77
  Q 252.85 63.41 251.58 65.07
  A 0.87 0.86 -36.6 0 0 251.45 65.92
  L 252.44 68.46
  A 0.58 0.58 0.0 0 0 253.18 68.79
  C 255.70 67.83 257.99 67.10 260.22 68.58
  A 1.29 1.28 12.9 0 1 260.78 69.47
  C 261.20 72.49 256.22 73.24 253.89 74.03
  A 0.78 0.77 -13.8 0 0 253.37 74.88
  Q 254.88 85.03 259.10 95.63
  C 260.84 100.01 264.12 105.12 267.37 107.52
  C 272.47 111.30 277.23 109.96 281.98 106.68
  A 2.69 2.26 49.1 0 1 285.12 107.18
  C 287.96 110.02 280.51 114.95 278.28 115.86
  A 1.17 1.17 0.0 0 0 277.59 117.21
  L 279.68 126.12
  A 2.32 2.12 42.4 0 1 279.74 126.78
  L 279.56 129.91
  A 2.04 2.03 10.9 0 0 280.96 131.97
  C 284.51 133.13 287.04 133.32 288.04 136.64
  A 0.37 0.37 0.0 0 0 288.75 136.64
  L 289.66 133.64
  A 1.05 1.03 -10.1 0 1 290.05 133.09
  C 294.08 130.26 297.56 127.40 300.45 123.11
  A 1.11 1.09 -39.4 0 0 300.56 122.08
  C 300.04 120.84 298.61 119.56 298.12 117.84
  Q 296.97 113.76 295.76 110.77
  C 294.65 108.03 294.67 105.41 293.67 102.31
  Q 292.87 99.83 292.43 95.91
  Q 291.64 88.89 291.26 82.97
  A 1.96 1.95 -37.8 0 1 291.36 82.19
  Q 292.53 78.65 295.21 78.65
  A 1.82 1.81 15.7 0 0 296.76 77.78
  Q 299.08 73.98 298.43 70.66
  A 0.27 0.26 -45.8 0 0 297.91 70.67"
/>
<path stroke="#de8686" vector-effect="non-scaling-stroke" d="
  M 367.63 295.00
  Q 368.58 294.21 368.98 293.73
  Q 375.44 285.78 377.89 282.67
  Q 383.65 275.38 390.65 261.70
  C 394.59 254.02 397.34 244.91 395.85 236.22
  Q 393.55 222.88 389.01 210.28
  Q 380.48 186.57 368.66 165.14
  C 362.32 153.65 354.14 144.07 342.05 138.70
  Q 330.25 133.46 317.97 130.41
  A 0.59 0.59 0.0 0 0 317.26 130.79
  Q 314.20 139.61 309.38 146.68
  Q 306.34 151.15 301.99 148.59
  Q 297.77 146.10 295.65 144.20
  A 0.59 0.58 36.3 0 0 294.76 144.33
  Q 292.90 147.44 293.10 148.88
  Q 295.22 164.33 306.00 230.73
  Q 307.29 238.71 307.36 239.32
  Q 307.94 244.94 308.72 247.91
  Q 309.33 250.20 310.12 257.39
  Q 310.77 263.20 311.63 266.88
  Q 311.71 267.25 312.41 272.71
  Q 312.67 274.77 314.82 274.52
  Q 333.93 272.25 342.51 270.51
  C 344.16 270.18 346.16 270.24 347.68 270.47
  A 2.14 2.13 -87.1 0 0 350.13 268.25
  Q 348.61 239.48 347.93 219.75
  Q 347.74 214.36 348.60 211.64
  A 1.96 1.93 43.3 0 0 348.55 210.33
  C 347.52 207.80 345.94 203.81 345.65 200.55
  C 345.45 198.22 343.39 196.70 345.06 193.97
  A 1.10 1.10 0.0 0 1 345.90 193.45
  C 348.19 193.25 349.42 195.24 349.37 197.47
  Q 349.33 199.04 349.75 200.35
  A 1.00 0.95 2.4 0 0 350.35 200.97
  Q 351.41 201.35 352.04 202.95
  Q 353.38 206.33 355.24 209.70
  C 359.33 217.13 362.29 225.05 365.64 233.27
  Q 366.45 235.25 367.23 238.18
  C 368.06 241.29 369.48 244.61 368.33 247.87
  Q 364.58 258.48 359.21 268.18
  A 2.36 2.35 46.4 0 0 359.16 270.37
  Q 360.42 272.89 359.80 276.15
  A 0.99 0.98 26.4 0 0 360.11 277.06
  Q 361.36 278.17 361.80 279.19
  Q 364.87 286.18 366.91 294.76
  A 0.45 0.45 0.0 0 0 367.63 295.00"
/>
<path stroke="#de8686" vector-effect="non-scaling-stroke" d="
  M 300.87 140.22
  Q 301.73 140.93 302.53 141.82
  A 0.96 0.96 0.0 0 0 304.13 140.79
  Q 303.97 140.44 302.95 138.28
  Q 302.64 137.62 301.52 137.93
  A 1.40 1.29 -31.6 0 0 300.87 140.22"
/>
<path stroke="#de8686" vector-effect="non-scaling-stroke" d="
  M 276.7190 143.6030
  A 1.06 1.06 0.0 0 0 276.3564 142.1484
  L 275.9621 141.9115
  A 1.06 1.06 0.0 0 0 274.5075 142.2742
  L 273.9410 143.2170
  A 1.06 1.06 0.0 0 0 274.3036 144.6716
  L 274.6979 144.9085
  A 1.06 1.06 0.0 0 0 276.1525 144.5458
  L 276.7190 143.6030"
/>
<path stroke="#de8686" vector-effect="non-scaling-stroke" d="
  M 297.32 234.89
  C 296.35 241.00 288.79 237.68 291.19 233.36
  Q 292.41 231.17 294.64 231.44
  A 0.91 0.89 69.8 0 1 295.19 231.70
  L 297.06 233.58
  A 0.23 0.23 0.0 0 0 297.45 233.38
  L 293.51 211.86
  A 0.30 0.30 0.0 0 0 292.98 211.72
  C 292.45 212.39 291.95 213.25 290.99 213.37
  C 284.78 214.13 287.02 203.51 292.57 207.79
  A 0.38 0.37 13.7 0 0 293.17 207.43
  L 289.70 188.43
  A 0.23 0.22 -20.3 0 0 289.37 188.28
  Q 289.22 188.37 289.06 188.57
  C 287.91 190.00 285.71 189.54 284.64 188.29
  C 282.47 185.76 285.60 181.27 288.74 183.72
  A 0.30 0.30 0.0 0 0 289.22 183.45
  L 287.38 166.97
  A 0.35 0.35 0.0 0 0 286.82 166.73
  Q 284.21 168.77 282.18 166.17
  A 1.95 1.95 0.0 0 1 281.78 165.22
  Q 281.49 162.88 283.55 161.42
  A 1.25 1.25 0.0 0 1 284.78 161.30
  L 286.17 161.91
  A 0.29 0.29 0.0 0 0 286.58 161.61
  L 284.91 146.57
  A 0.55 0.55 0.0 0 0 283.93 146.29
  C 281.20 149.76 279.65 152.36 275.97 153.62
  C 274.36 154.18 272.25 153.35 271.59 152.05
  Q 269.77 148.51 267.79 145.25
  A 0.45 0.45 0.0 0 0 267.10 145.15
  Q 258.78 152.70 252.26 160.48
  C 248.70 164.73 246.39 168.81 243.36 173.47
  Q 240.24 178.25 237.20 183.53
  Q 226.88 201.42 218.34 215.83
  Q 209.63 230.50 200.19 241.91
  Q 191.50 252.40 181.08 257.57
  Q 170.89 262.62 162.41 264.39
  Q 155.02 265.93 152.00 266.58
  C 146.33 267.81 141.46 267.82 135.07 268.28
  A 1.15 1.15 0.0 0 0 134.00 269.51
  L 135.14 287.52
  A 0.55 0.55 0.0 0 0 135.64 288.03
  C 143.01 288.71 151.36 287.79 157.00 287.50
  Q 171.95 286.74 187.33 281.83
  Q 201.99 277.15 214.77 265.02
  Q 221.48 258.65 224.76 254.75
  Q 237.81 239.24 249.03 222.86
  A 1.32 1.27 -32.2 0 0 249.25 221.97
  Q 248.39 214.48 248.59 213.24
  Q 249.19 209.56 248.63 204.54
  C 248.24 201.04 252.99 200.73 253.00 204.31
  Q 253.00 209.68 253.53 212.24
  C 254.10 215.06 255.76 218.78 256.44 222.47
  Q 260.62 245.45 265.92 267.58
  C 266.30 269.17 266.90 270.64 267.41 272.18
  A 2.38 2.38 0.0 0 0 269.37 273.80
  Q 285.96 275.85 303.76 275.12
  A 1.04 1.04 0.0 0 0 304.74 273.90
  L 297.60 234.89
  A 0.14 0.14 0.0 0 0 297.32 234.89"
/>
<path stroke="#de8686" vector-effect="non-scaling-stroke" d="
  M 356.56 233.73
  L 357.75 252.54
  A 0.30 0.30 0.0 0 0 358.33 252.64
  L 361.18 246.23
  A 1.79 1.78 -43.9 0 0 361.21 244.86
  L 356.86 233.67
  A 0.16 0.15 32.9 0 0 356.56 233.73"
/>
<path stroke="#de8686" vector-effect="non-scaling-stroke" d="
  M 66.51 279.23
  C 67.77 279.79 69.76 280.48 71.54 280.66
  Q 78.67 281.39 84.69 281.93
  A 0.81 0.81 0.0 0 1 85.41 282.90
  L 85.33 283.25
  A 1.23 1.22 -85.9 0 1 84.21 284.23
  L 73.30 284.92
  A 0.20 0.20 0.0 0 0 73.26 285.31
  C 79.84 286.92 88.54 287.81 95.90 286.84
  Q 105.21 285.62 112.51 283.22
  A 1.34 1.33 81.0 0 0 113.43 281.95
  L 113.46 270.25
  A 0.75 0.74 -75.7 0 0 113.08 269.60
  Q 100.52 262.64 90.98 252.11
  A 0.32 0.32 0.0 0 0 90.44 252.44
  Q 92.13 256.96 94.97 260.58
  Q 95.41 261.14 95.41 261.54
  Q 95.42 262.22 95.01 262.67
  A 0.60 0.59 -46.4 0 0 95.03 263.49
  L 95.22 263.68
  A 1.32 1.32 0.0 0 1 94.67 265.88
  C 92.54 266.52 90.57 267.16 88.31 267.28
  Q 77.71 267.83 65.90 268.04
  A 0.26 0.26 0.0 0 0 65.85 268.56
  Q 73.44 270.08 81.57 270.68
  A 0.83 0.83 0.0 0 1 82.25 271.89
  Q 82.06 272.25 81.51 272.31
  Q 72.86 273.30 63.75 273.26
  A 0.47 0.47 0.0 0 0 63.65 274.19
  Q 68.72 275.29 74.17 275.47
  A 3.16 2.78 48.7 0 1 74.71 275.54
  L 82.72 277.22
  A 0.38 0.37 -85.9 0 1 83.01 277.56
  L 83.03 277.81
  A 0.26 0.25 87.8 0 1 82.79 278.08
  L 66.53 279.12
  A 0.06 0.06 0.0 0 0 66.51 279.23"
/>
<path stroke="#de8686" vector-effect="non-scaling-stroke" d="
  M 126.52 268.83
  L 121.56 268.93
  A 0.75 0.75 0.0 0 0 120.83 269.70
  L 121.18 286.48
  A 1.61 0.62 88.8 0 0 121.83 288.07
  L 127.05 287.96
  A 1.61 0.62 88.8 0 0 127.64 286.34
  L 127.28 269.56
  A 0.75 0.75 0.0 0 0 126.52 268.83"
/>
<path stroke="#de8686" vector-effect="non-scaling-stroke" d="
  M 274.07 651.04
  Q 274.08 652.25 274.21 658.99
  Q 274.24 660.72 272.01 664.77
  A 1.45 1.42 54.7 0 0 271.86 665.71
  L 272.28 667.99
  A 1.13 1.12 1.2 0 0 273.15 668.89
  Q 275.71 669.43 276.46 669.13
  Q 281.24 667.20 286.81 663.83
  A 0.77 0.77 0.0 0 0 287.18 663.19
  L 287.31 652.96
  A 0.83 0.83 0.0 0 0 286.58 652.14
  L 274.49 650.66
  A 0.38 0.38 0.0 0 0 274.07 651.04"
/>
<path stroke="#de8686" vector-effect="non-scaling-stroke" d="
  M 340.38 660.49
  C 340.54 665.17 341.43 670.57 339.16 675.83
  A 1.64 1.62 -41.8 0 0 339.09 676.95
  C 339.91 679.86 341.69 680.57 343.91 678.96
  Q 345.79 677.59 351.32 672.91
  A 1.31 1.31 0.0 0 0 351.78 671.89
  L 351.64 660.91
  A 0.62 0.62 0.0 0 0 350.93 660.30
  Q 346.26 660.91 341.30 659.73
  A 0.75 0.75 0.0 0 0 340.38 660.49"
/>
<path stroke="#de8686" vector-effect="non-scaling-stroke" d="
  M 271.31 68.69
  L 279.47 68.14
  A 1.08 1.08 0.0 0 0 280.47 66.99
  L 280.45 66.63
  A 3.48 3.31 -3.8 0 0 276.76 63.55
  L 273.39 63.78
  A 3.48 3.31 -3.8 0 0 270.13 67.31
  L 270.16 67.68
  A 1.08 1.08 0.0 0 0 271.31 68.69"
/>
<path stroke="#de8686" vector-effect="non-scaling-stroke" d="
  M 277.66 74.14
  A 1.80 1.80 0.0 0 0 275.86 72.34
  A 1.80 1.80 0.0 0 0 274.06 74.14
  A 1.80 1.80 0.0 0 0 275.86 75.94
  A 1.80 1.80 0.0 0 0 277.66 74.14"
/>
<path stroke="#de8686" vector-effect="non-scaling-stroke" d="
  M 268.65 85.27
  Q 268.29 80.28 267.82 76.62
  A 1.43 1.33 74.0 0 0 265.90 75.47
  Q 265.13 75.85 265.01 77.06
  Q 264.83 78.98 264.36 87.45
  A 2.81 2.81 0.0 0 0 266.42 90.31
  Q 268.46 90.88 270.42 90.18
  A 2.62 2.35 -20.4 0 0 272.08 87.02
  Q 271.61 85.80 269.60 86.05
  A 0.85 0.85 0.0 0 1 268.65 85.27"
/>
<path stroke="#de8686" vector-effect="non-scaling-stroke" d="
  M 258.8767 76.4391
  A 1.87 1.69 -81.8 0 0 256.9373 78.0490
  A 1.87 1.69 -81.8 0 0 258.3433 80.1409
  A 1.87 1.69 -81.8 0 0 260.2827 78.5310
  A 1.87 1.69 -81.8 0 0 258.8767 76.4391"
/>
<path stroke="#de8686" vector-effect="non-scaling-stroke" d="
  M 270.92 97.70
  C 275.13 99.88 278.55 95.87 280.26 91.92
  A 2.15 2.14 -55.8 0 0 279.81 89.55
  L 279.46 89.20
  A 1.45 1.44 34.4 0 0 277.11 89.64
  Q 275.03 94.42 271.64 94.86
  A 1.60 1.47 -33.1 0 0 270.92 97.70"
/>
<path stroke="#de8686" vector-effect="non-scaling-stroke" d="
  M 297.7420 255.2200
  A 3.43 3.10 -89.8 0 0 294.6300 258.6392
  A 3.43 3.10 -89.8 0 0 297.7180 262.0800
  A 3.43 3.10 -89.8 0 0 300.8300 258.6608
  A 3.43 3.10 -89.8 0 0 297.7420 255.2200"
/>
</g>
<path fill="none" d="
  M 460.00 0.00
  L 460.00 746.00
  L 0.00 746.00
  L 0.00 0.00
  L 460.00 0.00
  Z
  M 365.96 472.70
  Q 366.53 472.78 366.93 473.25
  Q 367.18 475.66 364.52 476.57
  Q 347.95 482.23 330.00 483.11
  Q 326.46 483.29 323.40 482.68
  A 1.70 1.64 39.7 0 0 322.47 482.75
  C 320.80 483.35 320.05 485.03 320.04 486.90
  C 320.02 492.41 319.80 496.73 319.74 502.40
  Q 319.02 574.35 317.82 619.01
  Q 317.54 629.38 317.44 646.94
  C 317.41 651.78 318.15 655.18 322.95 656.50
  Q 327.92 657.87 332.59 659.19
  A 0.96 0.94 -81.0 0 1 333.28 660.16
  L 332.62 671.47
  A 2.16 2.13 -18.8 0 1 331.86 672.99
  Q 329.95 674.60 328.90 675.90
  C 322.73 683.56 316.91 689.72 309.88 698.38
  C 307.53 701.27 305.14 706.37 306.74 710.44
  C 309.54 717.59 316.35 717.05 322.12 714.62
  Q 338.43 707.71 352.80 697.33
  C 356.92 694.35 360.36 692.40 361.16 687.93
  C 362.03 683.06 362.08 675.96 359.87 671.30
  A 2.45 2.45 0.0 0 1 359.62 670.18
  L 359.72 659.49
  A 0.76 0.76 0.0 0 1 360.23 658.77
  C 363.79 657.51 370.27 656.46 372.70 652.83
  Q 373.89 651.06 374.23 646.40
  Q 378.21 592.28 378.68 582.75
  Q 381.77 520.04 382.16 469.75
  C 382.36 444.74 381.00 423.25 379.74 394.66
  C 378.39 364.21 374.77 335.57 369.58 305.71
  A 0.96 0.94 63.0 0 1 369.85 304.86
  Q 383.82 291.10 394.25 273.72
  Q 400.18 263.84 403.37 253.43
  C 405.97 244.94 404.99 235.01 403.04 226.66
  Q 399.12 209.87 391.27 191.21
  C 385.56 177.64 379.30 164.47 372.21 153.57
  Q 361.70 137.40 343.67 130.09
  Q 330.75 124.85 318.20 122.52
  A 1.71 1.68 -13.2 0 1 317.18 121.90
  C 314.07 117.96 311.45 113.28 305.61 113.42
  A 1.81 1.80 82.8 0 1 303.80 112.01
  Q 302.77 107.55 301.71 104.62
  C 299.50 98.49 298.94 92.42 298.42 85.93
  A 1.50 1.50 0.0 0 1 299.10 84.54
  C 302.99 82.03 305.74 78.35 306.04 73.30
  Q 306.45 66.33 304.49 62.35
  Q 303.14 59.58 298.38 57.66
  A 1.11 1.08 2.1 0 1 297.75 57.00
  Q 295.76 51.28 295.48 46.33
  C 295.15 40.66 293.70 36.39 289.08 34.41
  C 273.63 27.80 254.61 33.79 241.30 42.83
  C 238.94 44.43 237.53 45.51 237.18 48.19
  Q 237.03 49.38 236.48 50.91
  A 3.00 2.95 -37.1 0 0 236.31 52.06
  Q 236.51 57.18 241.34 60.20
  Q 243.65 61.65 245.21 61.73
  A 0.60 0.60 0.0 0 1 245.79 62.32
  Q 245.84 64.10 247.23 66.50
  A 1.10 1.09 -49.4 0 1 247.30 67.48
  Q 245.68 71.42 246.33 76.26
  C 248.28 90.66 253.69 113.01 270.20 117.48
  A 1.20 1.19 2.8 0 1 271.06 118.42
  L 272.14 124.33
  A 1.02 1.02 0.0 0 1 271.73 125.35
  Q 266.39 129.14 265.45 135.97
  A 1.46 1.42 74.8 0 1 264.95 136.87
  Q 248.15 150.88 238.04 166.81
  Q 231.97 176.38 215.03 204.78
  C 207.86 216.79 200.71 228.75 193.20 237.24
  Q 179.54 252.67 158.36 256.90
  C 145.07 259.55 131.48 260.59 118.78 260.93
  A 1.47 1.47 0.0 0 0 117.91 261.26
  L 115.87 262.91
  A 1.10 1.09 40.6 0 1 114.62 263.00
  Q 105.37 257.57 97.85 251.11
  C 95.37 248.98 93.45 245.72 90.36 244.70
  A 2.29 2.25 52.6 0 0 89.52 244.58
  C 84.83 244.72 83.65 249.43 85.31 253.06
  Q 87.30 257.42 90.87 260.97
  A 0.28 0.28 0.0 0 1 90.69 261.44
  Q 79.39 262.26 69.00 261.97
  C 65.19 261.87 58.24 262.53 58.30 267.94
  A 1.52 1.50 -21.7 0 1 57.80 269.08
  Q 53.14 273.25 58.03 277.92
  A 1.59 1.59 0.0 0 1 58.52 279.07
  Q 58.53 282.45 63.59 284.75
  Q 64.79 285.29 65.24 286.71
  Q 66.28 290.01 69.84 291.46
  Q 76.32 294.10 81.51 294.39
  Q 98.40 295.34 114.03 290.81
  A 0.61 0.61 0.0 0 1 114.77 291.16
  Q 116.49 295.35 122.03 295.53
  Q 128.22 295.73 139.77 296.39
  Q 148.02 296.86 165.50 295.26
  C 188.67 293.15 210.64 283.53 226.51 266.00
  Q 239.65 251.48 250.60 235.45
  A 0.22 0.22 0.0 0 1 251.00 235.54
  Q 253.83 252.45 256.17 264.06
  Q 256.65 266.43 260.42 279.02
  A 2.37 2.31 -49.8 0 1 260.49 280.00
  Q 259.02 291.20 258.72 294.50
  Q 254.86 336.14 251.55 379.11
  Q 250.82 388.54 250.49 395.88
  C 249.85 410.06 248.63 424.66 248.29 437.85
  Q 247.80 457.35 247.63 462.06
  C 247.41 468.60 248.92 470.93 254.93 472.25
  A 1.86 1.85 -83.4 0 1 256.39 474.10
  Q 255.56 507.39 254.96 524.88
  C 253.63 563.36 254.48 591.52 254.77 637.11
  Q 254.80 641.22 255.70 642.66
  C 257.69 645.85 262.84 647.43 266.31 648.52
  A 0.63 0.62 -80.1 0 1 266.75 649.16
  L 266.18 658.95
  A 3.14 3.11 73.3 0 1 264.94 661.28
  Q 243.97 677.07 240.80 679.56
  Q 235.68 683.57 234.33 685.03
  C 230.15 689.56 230.04 697.30 237.14 698.91
  Q 241.20 699.84 246.21 698.92
  Q 268.37 694.83 290.79 685.49
  Q 295.76 683.42 296.44 677.49
  C 297.12 671.68 296.56 667.83 295.10 663.12
  A 9.81 9.78 -51.0 0 1 294.76 659.84
  L 295.25 652.07
  A 0.66 0.66 0.0 0 1 295.74 651.47
  Q 299.44 650.49 303.63 649.53
  C 307.48 648.66 310.85 646.79 311.10 642.67
  Q 311.64 633.88 313.95 578.25
  Q 314.61 562.41 314.75 550.50
  Q 315.04 525.56 315.89 496.20
  C 316.02 491.50 316.32 487.56 315.50 482.53
  A 1.84 1.83 -1.5 0 1 317.52 480.41
  L 321.80 480.87
  A 0.64 0.64 0.0 0 0 321.96 480.87
  Q 328.14 479.98 338.74 479.04
  Q 342.43 478.71 357.21 475.46
  Q 359.91 474.87 363.09 474.60
  A 1.65 1.63 23.2 0 0 363.98 474.25
  L 365.96 472.70
  Z"
/>
<path fill="#c41b1e" d="
  M 366.93 473.25
  C 367.06 471.29 368.70 470.81 368.77 468.91
  Q 369.85 437.14 368.42 410.76
  Q 368.15 405.84 367.02 389.10
  Q 366.39 379.75 365.47 373.08
  C 364.51 366.10 364.22 356.38 363.04 347.94
  C 362.01 340.56 361.69 333.59 360.48 325.23
  C 359.31 317.17 359.13 311.39 357.77 303.67
  Q 356.79 298.05 356.09 289.51
  C 355.80 285.96 353.93 281.87 355.38 278.04
  A 1.36 1.36 0.0 0 0 354.02 276.20
  L 351.74 276.34
  A 0.58 0.58 0.0 0 0 351.20 276.95
  Q 351.90 288.67 352.97 294.72
  Q 353.91 300.04 354.09 303.07
  C 354.53 310.38 356.19 317.50 356.79 323.97
  Q 357.13 327.64 361.09 363.95
  C 362.00 372.25 362.12 380.44 363.13 388.18
  Q 363.93 394.32 364.29 406.36
  Q 364.42 410.61 365.34 424.97
  Q 366.21 438.43 366.18 443.56
  C 366.16 447.55 366.12 458.70 367.01 469.75
  Q 367.11 471.00 365.96 472.70
  L 363.98 474.25
  A 1.65 1.63 23.2 0 1 363.09 474.60
  Q 359.91 474.87 357.21 475.46
  Q 342.43 478.71 338.74 479.04
  Q 328.14 479.98 321.96 480.87
  A 0.64 0.64 0.0 0 1 321.80 480.87
  L 317.52 480.41
  A 1.84 1.83 -1.5 0 0 315.50 482.53
  C 316.32 487.56 316.02 491.50 315.89 496.20
  Q 315.04 525.56 314.75 550.50
  Q 314.61 562.41 313.95 578.25
  Q 311.64 633.88 311.10 642.67
  C 310.85 646.79 307.48 648.66 303.63 649.53
  Q 299.44 650.49 295.74 651.47
  A 0.66 0.66 0.0 0 0 295.25 652.07
  L 294.76 659.84
  A 9.81 9.78 -51.0 0 0 295.10 663.12
  C 296.56 667.83 297.12 671.68 296.44 677.49
  Q 295.76 683.42 290.79 685.49
  Q 268.37 694.83 246.21 698.92
  Q 241.20 699.84 237.14 698.91
  C 230.04 697.30 230.15 689.56 234.33 685.03
  Q 235.68 683.57 240.80 679.56
  Q 243.97 677.07 264.94 661.28
  A 3.14 3.11 73.3 0 0 266.18 658.95
  L 266.75 649.16
  A 0.63 0.62 -80.1 0 0 266.31 648.52
  C 262.84 647.43 257.69 645.85 255.70 642.66
  Q 254.80 641.22 254.77 637.11
  C 254.48 591.52 253.63 563.36 254.96 524.88
  Q 255.56 507.39 256.39 474.10
  A 1.86 1.85 -83.4 0 0 254.93 472.25
  C 248.92 470.93 247.41 468.60 247.63 462.06
  Q 247.80 457.35 248.29 437.85
  C 248.63 424.66 249.85 410.06 250.49 395.88
  Q 250.82 388.54 251.55 379.11
  Q 254.86 336.14 258.72 294.50
  Q 259.02 291.20 260.49 280.00
  A 2.37 2.31 -49.8 0 0 260.42 279.02
  Q 256.65 266.43 256.17 264.06
  Q 253.83 252.45 251.00 235.54
  A 0.22 0.22 0.0 0 0 250.60 235.45
  Q 239.65 251.48 226.51 266.00
  C 210.64 283.53 188.67 293.15 165.50 295.26
  Q 148.02 296.86 139.77 296.39
  Q 128.22 295.73 122.03 295.53
  Q 116.49 295.35 114.77 291.16
  A 0.61 0.61 0.0 0 0 114.03 290.81
  Q 98.40 295.34 81.51 294.39
  Q 76.32 294.10 69.84 291.46
  Q 66.28 290.01 65.24 286.71
  Q 64.79 285.29 63.59 284.75
  Q 58.53 282.45 58.52 279.07
  A 1.59 1.59 0.0 0 0 58.03 277.92
  Q 53.14 273.25 57.80 269.08
  A 1.52 1.50 -21.7 0 0 58.30 267.94
  C 58.24 262.53 65.19 261.87 69.00 261.97
  Q 79.39 262.26 90.69 261.44
  A 0.28 0.28 0.0 0 0 90.87 260.97
  Q 87.30 257.42 85.31 253.06
  C 83.65 249.43 84.83 244.72 89.52 244.58
  A 2.29 2.25 52.6 0 1 90.36 244.70
  C 93.45 245.72 95.37 248.98 97.85 251.11
  Q 105.37 257.57 114.62 263.00
  A 1.10 1.09 40.6 0 0 115.87 262.91
  L 117.91 261.26
  A 1.47 1.47 0.0 0 1 118.78 260.93
  C 131.48 260.59 145.07 259.55 158.36 256.90
  Q 179.54 252.67 193.20 237.24
  C 200.71 228.75 207.86 216.79 215.03 204.78
  Q 231.97 176.38 238.04 166.81
  Q 248.15 150.88 264.95 136.87
  A 1.46 1.42 74.8 0 0 265.45 135.97
  Q 266.39 129.14 271.73 125.35
  A 1.02 1.02 0.0 0 0 272.14 124.33
  L 271.06 118.42
  A 1.20 1.19 2.8 0 0 270.20 117.48
  C 253.69 113.01 248.28 90.66 246.33 76.26
  Q 245.68 71.42 247.30 67.48
  A 1.10 1.09 -49.4 0 0 247.23 66.50
  Q 245.84 64.10 245.79 62.32
  A 0.60 0.60 0.0 0 0 245.21 61.73
  Q 243.65 61.65 241.34 60.20
  Q 236.51 57.18 236.31 52.06
  A 3.00 2.95 -37.1 0 1 236.48 50.91
  Q 237.03 49.38 237.18 48.19
  C 237.53 45.51 238.94 44.43 241.30 42.83
  C 254.61 33.79 273.63 27.80 289.08 34.41
  C 293.70 36.39 295.15 40.66 295.48 46.33
  Q 295.76 51.28 297.75 57.00
  A 1.11 1.08 2.1 0 0 298.38 57.66
  Q 303.14 59.58 304.49 62.35
  Q 306.45 66.33 306.04 73.30
  C 305.74 78.35 302.99 82.03 299.10 84.54
  A 1.50 1.50 0.0 0 0 298.42 85.93
  C 298.94 92.42 299.50 98.49 301.71 104.62
  Q 302.77 107.55 303.80 112.01
  A 1.81 1.80 82.8 0 0 305.61 113.42
  C 311.45 113.28 314.07 117.96 317.18 121.90
  A 1.71 1.68 -13.2 0 0 318.20 122.52
  Q 330.75 124.85 343.67 130.09
  Q 361.70 137.40 372.21 153.57
  C 379.30 164.47 385.56 177.64 391.27 191.21
  Q 399.12 209.87 403.04 226.66
  C 404.99 235.01 405.97 244.94 403.37 253.43
  Q 400.18 263.84 394.25 273.72
  Q 383.82 291.10 369.85 304.86
  A 0.96 0.94 63.0 0 0 369.58 305.71
  C 374.77 335.57 378.39 364.21 379.74 394.66
  C 381.00 423.25 382.36 444.74 382.16 469.75
  Q 381.77 520.04 378.68 582.75
  Q 378.21 592.28 374.23 646.40
  Q 373.89 651.06 372.70 652.83
  C 370.27 656.46 363.79 657.51 360.23 658.77
  A 0.76 0.76 0.0 0 0 359.72 659.49
  L 359.62 670.18
  A 2.45 2.45 0.0 0 0 359.87 671.30
  C 362.08 675.96 362.03 683.06 361.16 687.93
  C 360.36 692.40 356.92 694.35 352.80 697.33
  Q 338.43 707.71 322.12 714.62
  C 316.35 717.05 309.54 717.59 306.74 710.44
  C 305.14 706.37 307.53 701.27 309.88 698.38
  C 316.91 689.72 322.73 683.56 328.90 675.90
  Q 329.95 674.60 331.86 672.99
  A 2.16 2.13 -18.8 0 0 332.62 671.47
  L 333.28 660.16
  A 0.96 0.94 -81.0 0 0 332.59 659.19
  Q 327.92 657.87 322.95 656.50
  C 318.15 655.18 317.41 651.78 317.44 646.94
  Q 317.54 629.38 317.82 619.01
  Q 319.02 574.35 319.74 502.40
  C 319.80 496.73 320.02 492.41 320.04 486.90
  C 320.05 485.03 320.80 483.35 322.47 482.75
  A 1.70 1.64 39.7 0 1 323.40 482.68
  Q 326.46 483.29 330.00 483.11
  Q 347.95 482.23 364.52 476.57
  Q 367.18 475.66 366.93 473.25
  Z
  M 297.91 70.67
  Q 297.11 75.07 293.60 74.97
  A 1.61 1.61 0.0 0 1 292.04 73.26
  L 292.19 70.67
  A 0.83 0.82 -79.2 0 0 291.64 69.85
  C 285.31 67.67 282.62 59.56 282.32 53.62
  A 1.89 1.88 -66.1 0 0 281.90 52.52
  Q 279.84 49.91 276.44 50.28
  Q 264.08 51.63 253.00 58.68
  A 1.93 1.92 -23.5 0 0 252.17 60.77
  Q 252.85 63.41 251.58 65.07
  A 0.87 0.86 -36.6 0 0 251.45 65.92
  L 252.44 68.46
  A 0.58 0.58 0.0 0 0 253.18 68.79
  C 255.70 67.83 257.99 67.10 260.22 68.58
  A 1.29 1.28 12.9 0 1 260.78 69.47
  C 261.20 72.49 256.22 73.24 253.89 74.03
  A 0.78 0.77 -13.8 0 0 253.37 74.88
  Q 254.88 85.03 259.10 95.63
  C 260.84 100.01 264.12 105.12 267.37 107.52
  C 272.47 111.30 277.23 109.96 281.98 106.68
  A 2.69 2.26 49.1 0 1 285.12 107.18
  C 287.96 110.02 280.51 114.95 278.28 115.86
  A 1.17 1.17 0.0 0 0 277.59 117.21
  L 279.68 126.12
  A 2.32 2.12 42.4 0 1 279.74 126.78
  L 279.56 129.91
  A 2.04 2.03 10.9 0 0 280.96 131.97
  C 284.51 133.13 287.04 133.32 288.04 136.64
  A 0.37 0.37 0.0 0 0 288.75 136.64
  L 289.66 133.64
  A 1.05 1.03 -10.1 0 1 290.05 133.09
  C 294.08 130.26 297.56 127.40 300.45 123.11
  A 1.11 1.09 -39.4 0 0 300.56 122.08
  C 300.04 120.84 298.61 119.56 298.12 117.84
  Q 296.97 113.76 295.76 110.77
  C 294.65 108.03 294.67 105.41 293.67 102.31
  Q 292.87 99.83 292.43 95.91
  Q 291.64 88.89 291.26 82.97
  A 1.96 1.95 -37.8 0 1 291.36 82.19
  Q 292.53 78.65 295.21 78.65
  A 1.82 1.81 15.7 0 0 296.76 77.78
  Q 299.08 73.98 298.43 70.66
  A 0.27 0.26 -45.8 0 0 297.91 70.67
  Z
  M 367.63 295.00
  Q 368.58 294.21 368.98 293.73
  Q 375.44 285.78 377.89 282.67
  Q 383.65 275.38 390.65 261.70
  C 394.59 254.02 397.34 244.91 395.85 236.22
  Q 393.55 222.88 389.01 210.28
  Q 380.48 186.57 368.66 165.14
  C 362.32 153.65 354.14 144.07 342.05 138.70
  Q 330.25 133.46 317.97 130.41
  A 0.59 0.59 0.0 0 0 317.26 130.79
  Q 314.20 139.61 309.38 146.68
  Q 306.34 151.15 301.99 148.59
  Q 297.77 146.10 295.65 144.20
  A 0.59 0.58 36.3 0 0 294.76 144.33
  Q 292.90 147.44 293.10 148.88
  Q 295.22 164.33 306.00 230.73
  Q 307.29 238.71 307.36 239.32
  Q 307.94 244.94 308.72 247.91
  Q 309.33 250.20 310.12 257.39
  Q 310.77 263.20 311.63 266.88
  Q 311.71 267.25 312.41 272.71
  Q 312.67 274.77 314.82 274.52
  Q 333.93 272.25 342.51 270.51
  C 344.16 270.18 346.16 270.24 347.68 270.47
  A 2.14 2.13 -87.1 0 0 350.13 268.25
  Q 348.61 239.48 347.93 219.75
  Q 347.74 214.36 348.60 211.64
  A 1.96 1.93 43.3 0 0 348.55 210.33
  C 347.52 207.80 345.94 203.81 345.65 200.55
  C 345.45 198.22 343.39 196.70 345.06 193.97
  A 1.10 1.10 0.0 0 1 345.90 193.45
  C 348.19 193.25 349.42 195.24 349.37 197.47
  Q 349.33 199.04 349.75 200.35
  A 1.00 0.95 2.4 0 0 350.35 200.97
  Q 351.41 201.35 352.04 202.95
  Q 353.38 206.33 355.24 209.70
  C 359.33 217.13 362.29 225.05 365.64 233.27
  Q 366.45 235.25 367.23 238.18
  C 368.06 241.29 369.48 244.61 368.33 247.87
  Q 364.58 258.48 359.21 268.18
  A 2.36 2.35 46.4 0 0 359.16 270.37
  Q 360.42 272.89 359.80 276.15
  A 0.99 0.98 26.4 0 0 360.11 277.06
  Q 361.36 278.17 361.80 279.19
  Q 364.87 286.18 366.91 294.76
  A 0.45 0.45 0.0 0 0 367.63 295.00
  Z
  M 300.87 140.22
  Q 301.73 140.93 302.53 141.82
  A 0.96 0.96 0.0 0 0 304.13 140.79
  Q 303.97 140.44 302.95 138.28
  Q 302.64 137.62 301.52 137.93
  A 1.40 1.29 -31.6 0 0 300.87 140.22
  Z
  M 276.7190 143.6030
  A 1.06 1.06 0.0 0 0 276.3564 142.1484
  L 275.9621 141.9115
  A 1.06 1.06 0.0 0 0 274.5075 142.2742
  L 273.9410 143.2170
  A 1.06 1.06 0.0 0 0 274.3036 144.6716
  L 274.6979 144.9085
  A 1.06 1.06 0.0 0 0 276.1525 144.5458
  L 276.7190 143.6030
  Z
  M 297.32 234.89
  C 296.35 241.00 288.79 237.68 291.19 233.36
  Q 292.41 231.17 294.64 231.44
  A 0.91 0.89 69.8 0 1 295.19 231.70
  L 297.06 233.58
  A 0.23 0.23 0.0 0 0 297.45 233.38
  L 293.51 211.86
  A 0.30 0.30 0.0 0 0 292.98 211.72
  C 292.45 212.39 291.95 213.25 290.99 213.37
  C 284.78 214.13 287.02 203.51 292.57 207.79
  A 0.38 0.37 13.7 0 0 293.17 207.43
  L 289.70 188.43
  A 0.23 0.22 -20.3 0 0 289.37 188.28
  Q 289.22 188.37 289.06 188.57
  C 287.91 190.00 285.71 189.54 284.64 188.29
  C 282.47 185.76 285.60 181.27 288.74 183.72
  A 0.30 0.30 0.0 0 0 289.22 183.45
  L 287.38 166.97
  A 0.35 0.35 0.0 0 0 286.82 166.73
  Q 284.21 168.77 282.18 166.17
  A 1.95 1.95 0.0 0 1 281.78 165.22
  Q 281.49 162.88 283.55 161.42
  A 1.25 1.25 0.0 0 1 284.78 161.30
  L 286.17 161.91
  A 0.29 0.29 0.0 0 0 286.58 161.61
  L 284.91 146.57
  A 0.55 0.55 0.0 0 0 283.93 146.29
  C 281.20 149.76 279.65 152.36 275.97 153.62
  C 274.36 154.18 272.25 153.35 271.59 152.05
  Q 269.77 148.51 267.79 145.25
  A 0.45 0.45 0.0 0 0 267.10 145.15
  Q 258.78 152.70 252.26 160.48
  C 248.70 164.73 246.39 168.81 243.36 173.47
  Q 240.24 178.25 237.20 183.53
  Q 226.88 201.42 218.34 215.83
  Q 209.63 230.50 200.19 241.91
  Q 191.50 252.40 181.08 257.57
  Q 170.89 262.62 162.41 264.39
  Q 155.02 265.93 152.00 266.58
  C 146.33 267.81 141.46 267.82 135.07 268.28
  A 1.15 1.15 0.0 0 0 134.00 269.51
  L 135.14 287.52
  A 0.55 0.55 0.0 0 0 135.64 288.03
  C 143.01 288.71 151.36 287.79 157.00 287.50
  Q 171.95 286.74 187.33 281.83
  Q 201.99 277.15 214.77 265.02
  Q 221.48 258.65 224.76 254.75
  Q 237.81 239.24 249.03 222.86
  A 1.32 1.27 -32.2 0 0 249.25 221.97
  Q 248.39 214.48 248.59 213.24
  Q 249.19 209.56 248.63 204.54
  C 248.24 201.04 252.99 200.73 253.00 204.31
  Q 253.00 209.68 253.53 212.24
  C 254.10 215.06 255.76 218.78 256.44 222.47
  Q 260.62 245.45 265.92 267.58
  C 266.30 269.17 266.90 270.64 267.41 272.18
  A 2.38 2.38 0.0 0 0 269.37 273.80
  Q 285.96 275.85 303.76 275.12
  A 1.04 1.04 0.0 0 0 304.74 273.90
  L 297.60 234.89
  A 0.14 0.14 0.0 0 0 297.32 234.89
  Z
  M 356.56 233.73
  L 357.75 252.54
  A 0.30 0.30 0.0 0 0 358.33 252.64
  L 361.18 246.23
  A 1.79 1.78 -43.9 0 0 361.21 244.86
  L 356.86 233.67
  A 0.16 0.15 32.9 0 0 356.56 233.73
  Z
  M 66.51 279.23
  C 67.77 279.79 69.76 280.48 71.54 280.66
  Q 78.67 281.39 84.69 281.93
  A 0.81 0.81 0.0 0 1 85.41 282.90
  L 85.33 283.25
  A 1.23 1.22 -85.9 0 1 84.21 284.23
  L 73.30 284.92
  A 0.20 0.20 0.0 0 0 73.26 285.31
  C 79.84 286.92 88.54 287.81 95.90 286.84
  Q 105.21 285.62 112.51 283.22
  A 1.34 1.33 81.0 0 0 113.43 281.95
  L 113.46 270.25
  A 0.75 0.74 -75.7 0 0 113.08 269.60
  Q 100.52 262.64 90.98 252.11
  A 0.32 0.32 0.0 0 0 90.44 252.44
  Q 92.13 256.96 94.97 260.58
  Q 95.41 261.14 95.41 261.54
  Q 95.42 262.22 95.01 262.67
  A 0.60 0.59 -46.4 0 0 95.03 263.49
  L 95.22 263.68
  A 1.32 1.32 0.0 0 1 94.67 265.88
  C 92.54 266.52 90.57 267.16 88.31 267.28
  Q 77.71 267.83 65.90 268.04
  A 0.26 0.26 0.0 0 0 65.85 268.56
  Q 73.44 270.08 81.57 270.68
  A 0.83 0.83 0.0 0 1 82.25 271.89
  Q 82.06 272.25 81.51 272.31
  Q 72.86 273.30 63.75 273.26
  A 0.47 0.47 0.0 0 0 63.65 274.19
  Q 68.72 275.29 74.17 275.47
  A 3.16 2.78 48.7 0 1 74.71 275.54
  L 82.72 277.22
  A 0.38 0.37 -85.9 0 1 83.01 277.56
  L 83.03 277.81
  A 0.26 0.25 87.8 0 1 82.79 278.08
  L 66.53 279.12
  A 0.06 0.06 0.0 0 0 66.51 279.23
  Z
  M 126.52 268.83
  L 121.56 268.93
  A 0.75 0.75 0.0 0 0 120.83 269.70
  L 121.18 286.48
  A 1.61 0.62 88.8 0 0 121.83 288.07
  L 127.05 287.96
  A 1.61 0.62 88.8 0 0 127.64 286.34
  L 127.28 269.56
  A 0.75 0.75 0.0 0 0 126.52 268.83
  Z
  M 274.07 651.04
  Q 274.08 652.25 274.21 658.99
  Q 274.24 660.72 272.01 664.77
  A 1.45 1.42 54.7 0 0 271.86 665.71
  L 272.28 667.99
  A 1.13 1.12 1.2 0 0 273.15 668.89
  Q 275.71 669.43 276.46 669.13
  Q 281.24 667.20 286.81 663.83
  A 0.77 0.77 0.0 0 0 287.18 663.19
  L 287.31 652.96
  A 0.83 0.83 0.0 0 0 286.58 652.14
  L 274.49 650.66
  A 0.38 0.38 0.0 0 0 274.07 651.04
  Z
  M 340.38 660.49
  C 340.54 665.17 341.43 670.57 339.16 675.83
  A 1.64 1.62 -41.8 0 0 339.09 676.95
  C 339.91 679.86 341.69 680.57 343.91 678.96
  Q 345.79 677.59 351.32 672.91
  A 1.31 1.31 0.0 0 0 351.78 671.89
  L 351.64 660.91
  A 0.62 0.62 0.0 0 0 350.93 660.30
  Q 346.26 660.91 341.30 659.73
  A 0.75 0.75 0.0 0 0 340.38 660.49
  Z"
/>
<path fill="none" d="
  M 298.43 70.66
  Q 299.08 73.98 296.76 77.78
  A 1.82 1.81 15.7 0 1 295.21 78.65
  Q 292.53 78.65 291.36 82.19
  A 1.96 1.95 -37.8 0 0 291.26 82.97
  Q 291.64 88.89 292.43 95.91
  Q 292.87 99.83 293.67 102.31
  C 294.67 105.41 294.65 108.03 295.76 110.77
  Q 296.97 113.76 298.12 117.84
  C 298.61 119.56 300.04 120.84 300.56 122.08
  A 1.11 1.09 -39.4 0 1 300.45 123.11
  C 297.56 127.40 294.08 130.26 290.05 133.09
  A 1.05 1.03 -10.1 0 0 289.66 133.64
  L 288.75 136.64
  A 0.37 0.37 0.0 0 1 288.04 136.64
  C 287.04 133.32 284.51 133.13 280.96 131.97
  A 2.04 2.03 10.9 0 1 279.56 129.91
  L 279.74 126.78
  A 2.32 2.12 42.4 0 0 279.68 126.12
  L 277.59 117.21
  A 1.17 1.17 0.0 0 1 278.28 115.86
  C 280.51 114.95 287.96 110.02 285.12 107.18
  A 2.69 2.26 49.1 0 0 281.98 106.68
  C 277.23 109.96 272.47 111.30 267.37 107.52
  C 264.12 105.12 260.84 100.01 259.10 95.63
  Q 254.88 85.03 253.37 74.88
  A 0.78 0.77 -13.8 0 1 253.89 74.03
  C 256.22 73.24 261.20 72.49 260.78 69.47
  A 1.29 1.28 12.9 0 0 260.22 68.58
  C 257.99 67.10 255.70 67.83 253.18 68.79
  A 0.58 0.58 0.0 0 1 252.44 68.46
  L 251.45 65.92
  A 0.87 0.86 -36.6 0 1 251.58 65.07
  Q 252.85 63.41 252.17 60.77
  A 1.93 1.92 -23.5 0 1 253.00 58.68
  Q 264.08 51.63 276.44 50.28
  Q 279.84 49.91 281.90 52.52
  A 1.89 1.88 -66.1 0 1 282.32 53.62
  C 282.62 59.56 285.31 67.67 291.64 69.85
  A 0.83 0.82 -79.2 0 1 292.19 70.67
  L 292.04 73.26
  A 1.61 1.61 0.0 0 0 293.60 74.97
  Q 297.11 75.07 297.91 70.67
  A 0.27 0.26 -45.8 0 1 298.43 70.66
  Z
  M 271.31 68.69
  L 279.47 68.14
  A 1.08 1.08 0.0 0 0 280.47 66.99
  L 280.45 66.63
  A 3.48 3.31 -3.8 0 0 276.76 63.55
  L 273.39 63.78
  A 3.48 3.31 -3.8 0 0 270.13 67.31
  L 270.16 67.68
  A 1.08 1.08 0.0 0 0 271.31 68.69
  Z
  M 277.66 74.14
  A 1.80 1.80 0.0 0 0 275.86 72.34
  A 1.80 1.80 0.0 0 0 274.06 74.14
  A 1.80 1.80 0.0 0 0 275.86 75.94
  A 1.80 1.80 0.0 0 0 277.66 74.14
  Z
  M 268.65 85.27
  Q 268.29 80.28 267.82 76.62
  A 1.43 1.33 74.0 0 0 265.90 75.47
  Q 265.13 75.85 265.01 77.06
  Q 264.83 78.98 264.36 87.45
  A 2.81 2.81 0.0 0 0 266.42 90.31
  Q 268.46 90.88 270.42 90.18
  A 2.62 2.35 -20.4 0 0 272.08 87.02
  Q 271.61 85.80 269.60 86.05
  A 0.85 0.85 0.0 0 1 268.65 85.27
  Z
  M 258.8767 76.4391
  A 1.87 1.69 -81.8 0 0 256.9373 78.0490
  A 1.87 1.69 -81.8 0 0 258.3433 80.1409
  A 1.87 1.69 -81.8 0 0 260.2827 78.5310
  A 1.87 1.69 -81.8 0 0 258.8767 76.4391
  Z
  M 270.92 97.70
  C 275.13 99.88 278.55 95.87 280.26 91.92
  A 2.15 2.14 -55.8 0 0 279.81 89.55
  L 279.46 89.20
  A 1.45 1.44 34.4 0 0 277.11 89.64
  Q 275.03 94.42 271.64 94.86
  A 1.60 1.47 -33.1 0 0 270.92 97.70
  Z"
/>
<path fill="#c41b1e" d="
  M 271.31 68.69
  A 1.08 1.08 0.0 0 1 270.16 67.68
  L 270.13 67.31
  A 3.48 3.31 -3.8 0 1 273.39 63.78
  L 276.76 63.55
  A 3.48 3.31 -3.8 0 1 280.45 66.63
  L 280.47 66.99
  A 1.08 1.08 0.0 0 1 279.47 68.14
  L 271.31 68.69
  Z"
/>
<circle fill="#c41b1e" cx="275.86" cy="74.14" r="1.80"/>
<path fill="#c41b1e" d="
  M 268.65 85.27
  A 0.85 0.85 0.0 0 0 269.60 86.05
  Q 271.61 85.80 272.08 87.02
  A 2.62 2.35 -20.4 0 1 270.42 90.18
  Q 268.46 90.88 266.42 90.31
  A 2.81 2.81 0.0 0 1 264.36 87.45
  Q 264.83 78.98 265.01 77.06
  Q 265.13 75.85 265.90 75.47
  A 1.43 1.33 74.0 0 1 267.82 76.62
  Q 268.29 80.28 268.65 85.27
  Z"
/>
<ellipse fill="#c41b1e" cx="0.00" cy="0.00" transform="translate(258.61,78.29) rotate(-81.8)" rx="1.87" ry="1.69"/>
<path fill="#c41b1e" d="
  M 270.92 97.70
  A 1.60 1.47 -33.1 0 1 271.64 94.86
  Q 275.03 94.42 277.11 89.64
  A 1.45 1.44 34.4 0 1 279.46 89.20
  L 279.81 89.55
  A 2.15 2.14 -55.8 0 1 280.26 91.92
  C 278.55 95.87 275.13 99.88 270.92 97.70
  Z"
/>
<path fill="none" d="
  M 367.63 295.00
  A 0.45 0.45 0.0 0 1 366.91 294.76
  Q 364.87 286.18 361.80 279.19
  Q 361.36 278.17 360.11 277.06
  A 0.99 0.98 26.4 0 1 359.80 276.15
  Q 360.42 272.89 359.16 270.37
  A 2.36 2.35 46.4 0 1 359.21 268.18
  Q 364.58 258.48 368.33 247.87
  C 369.48 244.61 368.06 241.29 367.23 238.18
  Q 366.45 235.25 365.64 233.27
  C 362.29 225.05 359.33 217.13 355.24 209.70
  Q 353.38 206.33 352.04 202.95
  Q 351.41 201.35 350.35 200.97
  A 1.00 0.95 2.4 0 1 349.75 200.35
  Q 349.33 199.04 349.37 197.47
  C 349.42 195.24 348.19 193.25 345.90 193.45
  A 1.10 1.10 0.0 0 0 345.06 193.97
  C 343.39 196.70 345.45 198.22 345.65 200.55
  C 345.94 203.81 347.52 207.80 348.55 210.33
  A 1.96 1.93 43.3 0 1 348.60 211.64
  Q 347.74 214.36 347.93 219.75
  Q 348.61 239.48 350.13 268.25
  A 2.14 2.13 -87.1 0 1 347.68 270.47
  C 346.16 270.24 344.16 270.18 342.51 270.51
  Q 333.93 272.25 314.82 274.52
  Q 312.67 274.77 312.41 272.71
  Q 311.71 267.25 311.63 266.88
  Q 310.77 263.20 310.12 257.39
  Q 309.33 250.20 308.72 247.91
  Q 307.94 244.94 307.36 239.32
  Q 307.29 238.71 306.00 230.73
  Q 295.22 164.33 293.10 148.88
  Q 292.90 147.44 294.76 144.33
  A 0.59 0.58 36.3 0 1 295.65 144.20
  Q 297.77 146.10 301.99 148.59
  Q 306.34 151.15 309.38 146.68
  Q 314.20 139.61 317.26 130.79
  A 0.59 0.59 0.0 0 1 317.97 130.41
  Q 330.25 133.46 342.05 138.70
  C 354.14 144.07 362.32 153.65 368.66 165.14
  Q 380.48 186.57 389.01 210.28
  Q 393.55 222.88 395.85 236.22
  C 397.34 244.91 394.59 254.02 390.65 261.70
  Q 383.65 275.38 377.89 282.67
  Q 375.44 285.78 368.98 293.73
  Q 368.58 294.21 367.63 295.00
  Z"
/>
<path fill="none" d="
  M 300.87 140.22
  A 1.40 1.29 -31.6 0 1 301.52 137.93
  Q 302.64 137.62 302.95 138.28
  Q 303.97 140.44 304.13 140.79
  A 0.96 0.96 0.0 0 1 302.53 141.82
  Q 301.73 140.93 300.87 140.22
  Z"
/>
<rect fill="none" x="-1.29" y="-1.61" transform="translate(275.33,143.41) rotate(31.0)" width="2.58" height="3.22" rx="1.06"/>
<path fill="none" d="
  M 297.32 234.89
  A 0.14 0.14 0.0 0 1 297.60 234.89
  L 304.74 273.90
  A 1.04 1.04 0.0 0 1 303.76 275.12
  Q 285.96 275.85 269.37 273.80
  A 2.38 2.38 0.0 0 1 267.41 272.18
  C 266.90 270.64 266.30 269.17 265.92 267.58
  Q 260.62 245.45 256.44 222.47
  C 255.76 218.78 254.10 215.06 253.53 212.24
  Q 253.00 209.68 253.00 204.31
  C 252.99 200.73 248.24 201.04 248.63 204.54
  Q 249.19 209.56 248.59 213.24
  Q 248.39 214.48 249.25 221.97
  A 1.32 1.27 -32.2 0 1 249.03 222.86
  Q 237.81 239.24 224.76 254.75
  Q 221.48 258.65 214.77 265.02
  Q 201.99 277.15 187.33 281.83
  Q 171.95 286.74 157.00 287.50
  C 151.36 287.79 143.01 288.71 135.64 288.03
  A 0.55 0.55 0.0 0 1 135.14 287.52
  L 134.00 269.51
  A 1.15 1.15 0.0 0 1 135.07 268.28
  C 141.46 267.82 146.33 267.81 152.00 266.58
  Q 155.02 265.93 162.41 264.39
  Q 170.89 262.62 181.08 257.57
  Q 191.50 252.40 200.19 241.91
  Q 209.63 230.50 218.34 215.83
  Q 226.88 201.42 237.20 183.53
  Q 240.24 178.25 243.36 173.47
  C 246.39 168.81 248.70 164.73 252.26 160.48
  Q 258.78 152.70 267.10 145.15
  A 0.45 0.45 0.0 0 1 267.79 145.25
  Q 269.77 148.51 271.59 152.05
  C 272.25 153.35 274.36 154.18 275.97 153.62
  C 279.65 152.36 281.20 149.76 283.93 146.29
  A 0.55 0.55 0.0 0 1 284.91 146.57
  L 286.58 161.61
  A 0.29 0.29 0.0 0 1 286.17 161.91
  L 284.78 161.30
  A 1.25 1.25 0.0 0 0 283.55 161.42
  Q 281.49 162.88 281.78 165.22
  A 1.95 1.95 0.0 0 0 282.18 166.17
  Q 284.21 168.77 286.82 166.73
  A 0.35 0.35 0.0 0 1 287.38 166.97
  L 289.22 183.45
  A 0.30 0.30 0.0 0 1 288.74 183.72
  C 285.60 181.27 282.47 185.76 284.64 188.29
  C 285.71 189.54 287.91 190.00 289.06 188.57
  Q 289.22 188.37 289.37 188.28
  A 0.23 0.22 -20.3 0 1 289.70 188.43
  L 293.17 207.43
  A 0.38 0.37 13.7 0 1 292.57 207.79
  C 287.02 203.51 284.78 214.13 290.99 213.37
  C 291.95 213.25 292.45 212.39 292.98 211.72
  A 0.30 0.30 0.0 0 1 293.51 211.86
  L 297.45 233.38
  A 0.23 0.23 0.0 0 1 297.06 233.58
  L 295.19 231.70
  A 0.91 0.89 69.8 0 0 294.64 231.44
  Q 292.41 231.17 291.19 233.36
  C 288.79 237.68 296.35 241.00 297.32 234.89
  Z
  M 297.7420 255.2200
  A 3.43 3.10 -89.8 0 0 294.6300 258.6392
  A 3.43 3.10 -89.8 0 0 297.7180 262.0800
  A 3.43 3.10 -89.8 0 0 300.8300 258.6608
  A 3.43 3.10 -89.8 0 0 297.7420 255.2200
  Z"
/>
<path fill="none" d="
  M 356.86 233.67
  L 361.21 244.86
  A 1.79 1.78 -43.9 0 1 361.18 246.23
  L 358.33 252.64
  A 0.30 0.30 0.0 0 1 357.75 252.54
  L 356.56 233.73
  A 0.16 0.15 32.9 0 1 356.86 233.67
  Z"
/>
<path fill="none" d="
  M 66.51 279.23
  A 0.06 0.06 0.0 0 1 66.53 279.12
  L 82.79 278.08
  A 0.26 0.25 87.8 0 0 83.03 277.81
  L 83.01 277.56
  A 0.38 0.37 -85.9 0 0 82.72 277.22
  L 74.71 275.54
  A 3.16 2.78 48.7 0 0 74.17 275.47
  Q 68.72 275.29 63.65 274.19
  A 0.47 0.47 0.0 0 1 63.75 273.26
  Q 72.86 273.30 81.51 272.31
  Q 82.06 272.25 82.25 271.89
  A 0.83 0.83 0.0 0 0 81.57 270.68
  Q 73.44 270.08 65.85 268.56
  A 0.26 0.26 0.0 0 1 65.90 268.04
  Q 77.71 267.83 88.31 267.28
  C 90.57 267.16 92.54 266.52 94.67 265.88
  A 1.32 1.32 0.0 0 0 95.22 263.68
  L 95.03 263.49
  A 0.60 0.59 -46.4 0 1 95.01 262.67
  Q 95.42 262.22 95.41 261.54
  Q 95.41 261.14 94.97 260.58
  Q 92.13 256.96 90.44 252.44
  A 0.32 0.32 0.0 0 1 90.98 252.11
  Q 100.52 262.64 113.08 269.60
  A 0.75 0.74 -75.7 0 1 113.46 270.25
  L 113.43 281.95
  A 1.34 1.33 81.0 0 1 112.51 283.22
  Q 105.21 285.62 95.90 286.84
  C 88.54 287.81 79.84 286.92 73.26 285.31
  A 0.20 0.20 0.0 0 1 73.30 284.92
  L 84.21 284.23
  A 1.23 1.22 -85.9 0 0 85.33 283.25
  L 85.41 282.90
  A 0.81 0.81 0.0 0 0 84.69 281.93
  Q 78.67 281.39 71.54 280.66
  C 69.76 280.48 67.77 279.79 66.51 279.23
  Z"
/>
<ellipse fill="#c41b1e" cx="0.00" cy="0.00" transform="translate(297.73,258.65) rotate(-89.8)" rx="3.43" ry="3.10"/>
<path fill="none" d="
  M 126.52 268.83
  A 0.75 0.75 0.0 0 1 127.28 269.56
  L 127.64 286.34
  A 1.61 0.62 88.8 0 1 127.05 287.96
  L 121.83 288.07
  A 1.61 0.62 88.8 0 1 121.18 286.48
  L 120.83 269.70
  A 0.75 0.75 0.0 0 1 121.56 268.93
  L 126.52 268.83
  Z"
/>
<path fill="none" d="
  M 366.93 473.25
  Q 366.53 472.78 365.96 472.70
  Q 367.11 471.00 367.01 469.75
  C 366.12 458.70 366.16 447.55 366.18 443.56
  Q 366.21 438.43 365.34 424.97
  Q 364.42 410.61 364.29 406.36
  Q 363.93 394.32 363.13 388.18
  C 362.12 380.44 362.00 372.25 361.09 363.95
  Q 357.13 327.64 356.79 323.97
  C 356.19 317.50 354.53 310.38 354.09 303.07
  Q 353.91 300.04 352.97 294.72
  Q 351.90 288.67 351.20 276.95
  A 0.58 0.58 0.0 0 1 351.74 276.34
  L 354.02 276.20
  A 1.36 1.36 0.0 0 1 355.38 278.04
  C 353.93 281.87 355.80 285.96 356.09 289.51
  Q 356.79 298.05 357.77 303.67
  C 359.13 311.39 359.31 317.17 360.48 325.23
  C 361.69 333.59 362.01 340.56 363.04 347.94
  C 364.22 356.38 364.51 366.10 365.47 373.08
  Q 366.39 379.75 367.02 389.10
  Q 368.15 405.84 368.42 410.76
  Q 369.85 437.14 368.77 468.91
  C 368.70 470.81 367.06 471.29 366.93 473.25
  Z"
/>
<path fill="none" d="
  M 274.07 651.04
  A 0.38 0.38 0.0 0 1 274.49 650.66
  L 286.58 652.14
  A 0.83 0.83 0.0 0 1 287.31 652.96
  L 287.18 663.19
  A 0.77 0.77 0.0 0 1 286.81 663.83
  Q 281.24 667.20 276.46 669.13
  Q 275.71 669.43 273.15 668.89
  A 1.13 1.12 1.2 0 1 272.28 667.99
  L 271.86 665.71
  A 1.45 1.42 54.7 0 1 272.01 664.77
  Q 274.24 660.72 274.21 658.99
  Q 274.08 652.25 274.07 651.04
  Z"
/>
<path fill="none" d="
  M 340.38 660.49
  A 0.75 0.75 0.0 0 1 341.30 659.73
  Q 346.26 660.91 350.93 660.30
  A 0.62 0.62 0.0 0 1 351.64 660.91
  L 351.78 671.89
  A 1.31 1.31 0.0 0 1 351.32 672.91
  Q 345.79 677.59 343.91 678.96
  C 341.69 680.57 339.91 679.86 339.09 676.95
  A 1.64 1.62 -41.8 0 1 339.16 675.83
  C 341.43 670.57 340.54 665.17 340.38 660.49
  Z"
/>
</svg>
