<?xml version="1.0" encoding="UTF-8" standalone="no"?>
<!DOCTYPE svg PUBLIC "-//W3C//DTD SVG 1.1//EN" "http://www.w3.org/Graphics/SVG/1.1/DTD/svg11.dtd">
<svg xmlns="http://www.w3.org/2000/svg" version="1.1" viewBox="0.00 0.00 993.00 830.00">
<g stroke-width="2.00" fill="none" stroke-linecap="butt">
<path stroke="#de8585" vector-effect="non-scaling-stroke" d="
  M 641.24 248.73
  Q 648.80 255.18 649.73 256.06
  C 654.17 260.28 659.13 263.56 664.33 267.79
  Q 665.13 268.44 670.57 272.35
  C 684.89 282.64 700.32 291.13 717.20 297.54
  Q 733.89 303.88 759.99 309.06
  Q 763.88 309.84 771.09 310.46
  Q 771.26 310.48 782.24 311.60
  Q 786.62 312.05 790.73 309.16
  A 0.94 0.93 -50.6 0 1 791.64 309.07
  Q 807.75 316.19 825.01 317.75
  Q 829.05 318.12 832.50 317.81
  C 838.37 317.28 844.34 317.41 846.18 311.72
  A 1.27 1.27 0.0 0 1 847.30 310.84
  C 852.14 310.47 853.23 308.06 854.35 304.07
  A 1.35 1.33 -12.8 0 1 854.78 303.40
  Q 860.06 298.83 856.82 293.36
  A 2.14 2.08 -61.0 0 1 856.51 292.22
  Q 856.52 285.64 850.56 283.85
  Q 837.27 279.86 823.73 277.44
  A 0.60 0.60 0.0 0 1 823.39 276.45
  C 827.54 271.76 835.15 264.53 830.51 258.30
  C 828.53 255.64 825.31 255.95 822.64 257.41
  Q 820.59 258.53 810.48 264.98
  C 805.22 268.33 799.88 270.86 793.94 274.03
  A 1.66 1.66 0.0 0 1 792.46 274.07
  Q 789.86 272.82 788.50 272.69
  Q 775.29 271.35 760.33 267.21
  Q 748.97 264.06 738.78 258.99
  Q 727.01 253.12 718.69 247.51
  Q 696.20 232.33 673.43 210.31
  Q 666.87 203.97 651.01 188.39
  C 644.53 182.03 638.49 175.50 631.35 169.72
  A 1.22 1.21 28.8 0 1 630.96 168.40
  Q 632.35 164.10 631.45 158.70
  C 629.17 145.03 610.35 140.04 598.75 142.23
  Q 594.80 142.98 590.48 143.68
  A 1.58 1.57 -21.3 0 1 588.92 143.00
  Q 585.59 138.00 578.97 138.43
  A 1.07 1.07 0.0 0 1 577.84 137.55
  C 576.81 131.95 574.62 126.94 573.78 121.60
  Q 572.40 112.88 571.88 106.00
  A 1.21 1.18 65.4 0 1 572.22 105.05
  Q 572.53 104.74 573.26 104.43
  Q 574.24 104.02 574.74 103.46
  C 580.54 96.88 581.77 89.91 579.85 82.06
  Q 577.90 74.10 569.84 72.06
  A 0.44 0.42 88.3 0 1 569.54 71.76
  L 566.43 60.46
  A 1.04 0.55 -73.2 0 1 566.40 60.31
  L 565.74 53.48
  A 4.32 4.22 33.0 0 0 565.49 52.37
  C 562.45 43.92 555.05 40.70 546.44 41.55
  A 2.50 2.42 49.0 0 1 545.51 41.47
  Q 539.86 39.83 538.51 39.85
  Q 523.13 40.07 509.61 45.53
  C 501.34 48.86 496.19 51.55 494.45 60.21
  C 493.09 67.04 498.06 76.90 505.84 77.38
  A 0.86 0.85 2.1 0 1 506.65 78.24
  Q 506.65 79.82 508.38 83.47
  A 1.71 1.70 -48.3 0 1 508.45 84.74
  Q 506.61 90.20 508.06 98.24
  C 510.52 111.88 514.48 124.26 523.08 134.75
  Q 528.27 141.08 536.51 142.69
  A 1.15 1.13 3.4 0 1 537.43 143.71
  L 538.02 150.83
  A 1.08 1.07 79.4 0 1 537.26 151.95
  Q 534.54 152.74 531.82 157.09
  A 1.48 1.47 -75.8 0 1 530.67 157.78
  Q 516.33 158.84 505.34 158.97
  C 502.55 159.01 499.02 159.49 496.01 159.55
  Q 467.58 160.11 438.95 158.25
  C 429.28 157.62 417.76 155.66 410.31 155.13
  A 1.25 1.23 -11.8 0 1 409.31 154.49
  Q 407.06 150.35 403.27 148.36
  A 1.06 1.05 19.0 0 1 402.72 147.25
  L 403.58 142.10
  A 0.92 0.90 1.9 0 1 404.41 141.34
  C 425.41 139.56 439.01 107.74 442.58 90.31
  Q 443.40 86.28 442.49 79.67
  A 0.98 0.96 -24.0 0 1 442.84 78.78
  Q 443.00 78.66 443.36 78.59
  Q 443.85 78.49 444.23 77.91
  Q 445.32 76.25 446.10 73.40
  A 0.64 0.64 0.0 0 1 446.63 72.93
  C 452.91 71.98 458.76 68.57 460.39 62.26
  C 461.72 57.08 458.76 53.01 454.43 50.55
  A 3.29 3.25 -28.0 0 0 453.03 50.13
  Q 451.12 50.00 450.60 49.87
  A 1.49 1.20 21.8 0 1 449.51 47.93
  Q 449.84 47.46 449.39 46.92
  Q 448.48 45.84 447.56 45.21
  C 434.33 36.29 418.89 29.49 402.66 30.68
  C 395.11 31.23 390.62 32.48 386.06 38.01
  Q 383.89 40.65 381.90 47.10
  C 379.57 54.66 378.18 59.38 376.37 63.18
  A 1.26 1.21 1.3 0 1 375.68 63.81
  C 368.10 66.71 365.53 73.41 365.26 81.01
  Q 364.95 89.28 371.34 95.61
  A 0.82 0.81 -62.3 0 1 371.57 96.36
  Q 367.94 114.85 361.31 132.95
  A 1.02 1.01 10.6 0 1 360.34 133.61
  Q 352.12 133.44 347.75 139.39
  A 0.82 0.81 31.6 0 1 346.71 139.63
  Q 341.06 136.63 332.98 135.86
  Q 327.39 135.33 322.16 136.82
  C 308.91 140.59 296.42 151.21 301.73 166.22
  A 1.43 1.42 -31.2 0 1 301.35 167.74
  Q 295.51 173.17 291.48 177.22
  Q 269.61 199.21 255.80 212.30
  C 244.14 223.35 231.68 234.11 217.85 242.20
  C 204.17 250.20 188.90 254.55 173.74 255.53
  Q 157.86 256.56 139.05 256.12
  C 136.44 256.05 133.78 255.59 131.74 255.92
  C 129.44 256.29 128.88 257.29 126.41 255.60
  Q 106.28 241.79 103.14 238.95
  C 99.59 235.76 93.53 230.42 90.23 235.80
  Q 87.23 240.70 90.51 245.94
  Q 93.64 250.92 96.14 253.94
  A 0.53 0.53 0.0 0 1 95.78 254.80
  Q 83.08 255.93 72.51 257.74
  C 67.71 258.57 63.69 259.75 63.93 265.62
  A 1.62 1.55 -31.5 0 1 63.69 266.52
  Q 63.68 266.55 62.50 268.24
  C 60.07 271.73 61.53 274.67 63.84 277.57
  A 2.30 2.27 25.8 0 1 64.33 278.95
  Q 64.36 283.32 70.15 285.78
  Q 71.41 286.31 71.88 287.60
  C 75.46 297.35 101.78 295.29 109.38 294.30
  C 114.79 293.60 118.62 292.42 124.58 290.99
  A 0.78 0.78 0.0 0 1 125.52 291.56
  C 126.49 295.47 129.58 296.92 133.71 297.45
  Q 148.35 299.34 151.49 299.79
  C 164.52 301.63 175.37 301.77 189.27 301.52
  Q 194.83 301.42 203.51 300.28
  Q 229.28 296.91 249.53 283.78
  C 252.60 281.79 256.52 279.40 260.16 276.69
  Q 263.52 274.20 271.88 267.38
  Q 283.75 257.71 293.52 247.23
  A 0.58 0.58 0.0 0 1 294.53 247.64
  Q 294.39 252.09 293.66 256.21
  C 291.75 266.98 290.89 277.89 289.28 293.59
  C 289.05 295.82 289.23 298.48 289.30 300.07
  A 2.58 2.57 60.0 0 1 288.90 301.58
  Q 287.37 303.95 286.38 308.70
  Q 285.24 314.22 284.84 316.78
  Q 275.03 379.18 269.49 452.50
  Q 267.54 478.26 267.29 489.32
  C 267.23 491.93 267.83 494.00 267.33 496.05
  Q 266.78 498.32 266.65 501.05
  Q 266.09 512.41 265.97 523.74
  Q 265.91 528.50 268.38 531.03
  A 3.04 2.98 -66.7 0 1 269.23 533.23
  Q 267.92 574.40 269.66 614.90
  C 270.25 628.60 270.41 643.12 271.07 654.26
  Q 271.20 656.46 272.20 683.78
  Q 273.18 710.92 274.54 728.00
  Q 274.80 731.19 276.84 733.35
  A 3.73 3.72 -12.1 0 0 278.34 734.32
  L 287.90 737.61
  A 1.27 1.27 0.0 0 1 288.76 738.84
  L 288.59 749.39
  A 1.03 0.89 59.2 0 1 288.53 749.73
  C 286.47 755.92 285.14 763.54 286.50 770.28
  Q 287.15 773.53 290.49 776.03
  Q 307.19 788.54 325.45 797.52
  C 331.92 800.70 340.39 802.96 345.75 797.92
  C 351.53 792.48 347.68 784.09 343.31 779.19
  Q 333.33 768.01 320.22 755.05
  A 4.34 4.22 14.0 0 1 319.15 753.32
  C 317.94 749.64 318.22 746.42 318.05 739.47
  A 1.42 1.42 0.0 0 1 319.29 738.03
  Q 326.73 737.09 332.86 734.14
  C 336.62 732.33 337.55 729.90 337.39 725.53
  Q 337.04 715.35 337.74 682.25
  Q 338.51 645.73 338.40 550.99
  C 338.40 547.09 339.04 544.15 338.25 540.57
  A 1.20 1.20 0.0 0 1 339.42 539.11
  L 343.19 539.11
  A 0.95 0.95 0.0 0 1 344.14 540.09
  Q 343.38 566.59 343.82 595.25
  Q 343.97 605.13 343.81 633.42
  Q 343.71 651.24 344.13 671.58
  Q 344.41 685.07 345.16 718.39
  Q 345.24 721.89 346.04 723.00
  Q 347.37 724.86 350.08 725.42
  Q 350.55 725.52 360.98 728.02
  A 0.79 0.78 -84.2 0 1 361.58 728.76
  L 361.96 738.94
  A 0.92 0.75 57.8 0 1 361.92 739.26
  Q 358.74 748.62 360.38 758.23
  Q 361.25 763.36 366.77 765.71
  Q 372.72 768.24 377.25 769.97
  Q 388.22 774.16 406.89 778.81
  Q 415.24 780.89 421.24 781.05
  C 431.22 781.32 434.62 770.75 427.81 764.25
  Q 424.37 760.97 419.28 757.06
  Q 404.37 745.62 394.00 738.43
  A 0.88 0.88 0.0 0 1 393.68 737.96
  Q 392.34 732.84 392.85 726.05
  A 1.14 1.14 0.0 0 1 393.60 725.07
  C 400.48 722.63 406.84 720.75 406.73 711.99
  Q 406.41 686.38 407.86 615.32
  Q 408.44 586.95 408.42 577.16
  Q 408.36 551.80 408.39 539.00
  Q 408.40 537.31 408.58 534.66
  A 0.74 0.73 -3.1 0 1 409.19 533.99
  C 411.07 533.67 413.40 533.97 415.26 533.03
  Q 419.10 531.07 419.12 526.24
  C 419.27 466.77 419.60 408.99 417.25 353.25
  Q 417.07 349.02 415.49 322.36
  C 415.38 320.48 414.96 318.96 414.74 317.24
  A 2.05 2.00 51.5 0 1 414.84 316.27
  Q 417.34 309.56 418.21 306.47
  Q 424.77 283.19 433.21 260.73
  A 0.71 0.71 0.0 0 1 433.94 260.27
  Q 452.07 261.68 466.76 259.17
  Q 476.80 257.45 492.61 252.08
  C 497.20 250.53 500.93 248.27 505.54 246.82
  A 0.91 0.91 0.0 0 1 506.72 247.63
  C 507.32 255.60 509.42 263.20 510.96 271.02
  Q 515.29 293.01 516.04 296.25
  C 518.67 307.70 519.68 314.38 522.42 322.14
  A 2.43 2.42 41.5 0 1 522.50 323.40
  C 522.25 324.65 521.76 326.02 521.61 327.48
  C 519.90 344.58 518.96 358.32 517.13 381.53
  Q 515.62 400.73 514.36 432.50
  Q 513.42 456.32 512.54 480.80
  Q 512.05 494.25 512.03 504.57
  Q 511.99 524.68 512.17 528.33
  Q 512.41 533.26 516.46 535.24
  C 517.35 535.67 519.84 536.00 521.33 536.44
  Q 523.09 536.95 523.05 539.23
  C 522.76 553.96 523.74 575.19 523.80 589.25
  Q 523.95 621.90 525.44 653.88
  C 526.49 676.36 526.78 692.71 527.65 717.43
  C 527.76 720.65 528.20 723.09 530.38 725.03
  Q 532.80 727.19 540.50 729.45
  A 0.47 0.46 -81.7 0 1 540.83 729.90
  L 540.83 740.58
  A 2.61 2.61 0.0 0 1 539.74 742.70
  Q 522.26 755.27 511.79 762.79
  Q 507.36 765.98 503.86 769.59
  C 500.64 772.91 499.54 777.31 502.40 781.53
  C 504.91 785.24 510.45 785.89 514.77 785.24
  Q 521.48 784.24 525.52 783.25
  Q 549.50 777.40 568.69 770.39
  Q 574.22 768.37 575.33 762.90
  Q 577.28 753.21 573.35 743.78
  A 1.30 1.24 35.1 0 1 573.24 743.22
  L 573.42 733.13
  A 1.19 1.18 -4.5 0 1 574.40 731.99
  Q 580.42 730.98 585.13 729.17
  Q 590.58 727.08 590.58 721.71
  Q 590.56 694.42 590.93 673.75
  Q 591.66 633.07 590.98 587.59
  C 590.80 575.47 590.01 563.37 590.42 551.22
  A 2.16 2.15 -14.2 0 1 591.49 549.43
  L 595.86 546.91
  A 0.92 0.91 74.9 0 1 597.23 547.70
  Q 597.55 576.70 598.82 600.18
  Q 599.20 607.18 599.40 621.14
  C 599.71 641.63 600.56 663.03 600.79 682.97
  Q 601.18 717.72 601.27 729.99
  Q 601.30 732.91 604.22 736.04
  A 2.57 2.41 78.8 0 0 605.00 736.60
  Q 611.73 739.59 617.90 740.63
  A 0.95 0.95 0.0 0 1 618.69 741.62
  L 618.03 754.14
  A 1.76 1.76 0.0 0 1 617.56 755.23
  Q 604.18 769.46 592.57 783.83
  Q 589.74 787.33 588.59 791.61
  C 586.05 801.02 594.13 806.41 602.56 803.81
  Q 608.41 802.01 614.90 798.86
  Q 629.69 791.67 645.16 779.93
  Q 649.50 776.64 650.37 772.94
  Q 652.42 764.19 648.66 752.99
  A 2.31 2.16 37.9 0 1 648.55 752.30
  L 648.35 740.61
  A 1.09 1.07 -7.3 0 1 649.19 739.54
  Q 650.13 739.32 655.94 737.56
  C 660.15 736.28 663.11 734.14 663.41 729.93
  Q 667.14 678.54 666.24 629.50
  Q 665.56 593.07 663.77 541.53
  Q 663.68 538.91 663.67 537.72
  A 1.54 1.54 0.0 0 1 664.87 536.22
  Q 670.90 534.86 670.84 529.27
  C 670.55 504.74 667.94 473.68 665.74 448.75
  C 661.75 403.57 654.87 358.11 647.16 313.37
  Q 646.89 311.80 646.02 309.20
  A 2.40 2.09 -59.6 0 1 645.95 308.83
  L 640.96 248.88
  A 0.17 0.17 0.0 0 1 641.24 248.73"
/>
<path stroke="#de8585" vector-effect="non-scaling-stroke" d="
  M 375.11 74.22
  C 372.47 76.12 372.99 81.01 373.47 84.52
  Q 373.73 86.44 375.84 89.52
  A 0.90 0.87 -8.2 0 0 376.34 89.88
  L 378.64 90.51
  A 1.15 1.13 -11.1 0 1 379.23 90.90
  Q 380.83 92.94 380.55 94.76
  Q 377.34 115.51 368.05 139.71
  C 367.23 141.84 365.88 143.37 365.25 144.66
  A 1.17 1.16 -49.1 0 0 365.33 145.83
  L 371.53 155.10
  A 1.61 1.53 2.3 0 0 371.93 155.51
  L 376.82 158.81
  A 2.02 2.00 17.2 0 1 377.70 160.47
  L 377.70 167.20
  A 0.66 0.66 0.0 0 0 378.96 167.49
  L 381.38 162.58
  A 3.68 3.66 1.1 0 1 383.20 160.84
  L 392.62 156.69
  A 2.08 2.06 -14.9 0 0 393.85 154.59
  L 393.55 151.46
  A 0.89 0.64 -49.7 0 1 393.57 151.21
  L 396.17 141.04
  A 0.83 0.83 0.0 0 0 395.64 140.06
  Q 388.99 137.75 385.76 130.84
  A 2.20 2.19 58.0 0 1 386.37 128.20
  C 387.95 126.93 390.04 126.85 391.59 128.74
  C 395.93 134.03 404.88 134.19 410.25 130.23
  C 416.08 125.93 420.91 120.26 424.53 113.43
  Q 429.19 104.67 433.18 93.72
  Q 434.25 90.79 434.41 89.14
  A 1.00 0.99 16.3 0 0 433.85 88.13
  L 425.59 84.06
  A 0.51 0.49 83.2 0 1 425.42 83.92
  Q 424.36 82.63 425.15 80.96
  A 1.41 1.41 0.0 0 1 425.86 80.25
  C 429.81 78.43 432.16 80.07 435.88 82.26
  A 0.54 0.52 -64.9 0 0 436.65 81.97
  L 438.28 77.22
  A 0.36 0.36 0.0 0 0 438.28 76.96
  Q 437.21 74.23 439.03 70.74
  A 0.85 0.85 0.0 0 0 438.95 69.83
  Q 438.46 69.21 436.76 67.74
  Q 431.06 62.83 423.12 58.15
  Q 417.72 54.97 411.70 54.27
  C 408.15 53.85 400.90 53.23 399.46 57.86
  Q 397.77 63.31 394.31 69.81
  C 391.97 74.20 388.17 78.75 382.70 77.65
  A 0.64 0.63 3.9 0 0 381.94 78.31
  Q 382.04 80.20 380.78 83.34
  A 1.60 1.59 13.4 0 1 379.15 84.34
  C 374.81 83.96 375.71 78.14 375.92 74.66
  A 0.51 0.51 0.0 0 0 375.11 74.22"
/>
<path stroke="#de8585" vector-effect="non-scaling-stroke" d="
  M 569.68 82.42
  C 569.55 85.59 569.43 90.28 565.80 91.06
  A 1.43 1.43 0.0 0 1 564.07 89.66
  L 564.07 86.46
  A 0.69 0.69 0.0 0 0 563.39 85.77
  C 555.55 85.75 552.38 71.62 550.92 66.42
  A 1.63 1.60 10.7 0 0 550.32 65.56
  Q 547.76 63.67 545.23 63.96
  C 541.24 64.41 535.79 65.65 531.90 67.38
  Q 528.65 68.82 523.42 70.65
  Q 522.33 71.03 515.63 74.56
  A 1.78 1.78 0.0 0 0 514.67 76.14
  L 514.67 81.33
  A 1.18 1.18 0.0 0 1 513.97 82.41
  L 513.63 82.56
  A 0.69 0.69 0.0 0 0 513.28 83.47
  L 515.01 87.41
  A 0.26 0.26 0.0 0 0 515.41 87.51
  C 517.68 85.69 523.54 83.33 525.21 87.02
  A 1.85 1.85 0.0 0 1 524.27 89.47
  L 516.26 93.00
  A 1.09 1.09 0.0 0 0 515.63 94.21
  Q 517.74 104.35 521.79 115.15
  Q 524.09 121.26 526.34 124.41
  C 531.58 131.72 538.41 137.37 547.78 132.51
  C 549.82 131.45 552.62 128.21 555.03 130.67
  C 556.55 132.22 554.99 134.46 553.52 136.23
  Q 550.02 140.41 545.58 141.42
  A 0.89 0.89 0.0 0 0 544.90 142.44
  L 546.75 153.64
  A 10.16 9.90 -48.5 0 1 546.86 155.96
  L 546.72 158.22
  A 1.20 1.18 -78.9 0 0 547.52 159.43
  L 555.80 162.28
  A 1.49 1.46 87.3 0 1 556.65 163.07
  L 559.16 168.77
  A 0.52 0.52 0.0 0 0 560.15 168.67
  L 561.33 163.30
  A 4.97 4.94 -11.1 0 1 563.37 160.28
  Q 569.49 156.12 573.68 149.43
  A 1.09 1.08 45.7 0 0 573.69 148.30
  Q 572.39 146.07 571.59 143.97
  Q 568.30 135.28 565.54 120.75
  Q 564.24 113.92 564.38 111.01
  Q 564.52 108.01 564.19 104.48
  C 563.90 101.41 564.65 97.91 568.30 98.38
  A 1.15 1.14 23.6 0 0 569.32 97.99
  Q 572.93 93.72 572.23 87.67
  C 571.97 85.33 571.80 83.53 570.36 82.14
  A 0.41 0.40 -67.0 0 0 569.68 82.42"
/>
<path stroke="#de8585" vector-effect="non-scaling-stroke" d="
  M 311.04 166.82
  L 310.11 158.94
  A 1.35 1.35 0.0 0 1 310.11 158.54
  Q 310.42 156.56 312.23 156.27
  A 2.15 1.92 77.0 0 1 314.44 157.83
  Q 315.62 161.90 317.50 165.24
  A 0.64 0.63 -63.1 0 0 318.68 164.85
  Q 317.71 156.59 317.62 155.15
  Q 317.52 153.72 318.58 152.93
  C 320.38 151.60 321.32 152.95 321.86 154.65
  Q 324.02 161.41 324.72 162.79
  Q 324.96 163.27 325.09 163.30
  A 0.93 0.93 0.0 0 0 326.22 162.27
  L 324.92 152.41
  A 2.56 2.55 80.2 0 1 326.92 149.56
  L 327.06 149.53
  A 2.27 2.26 74.6 0 1 329.79 151.09
  L 332.18 159.15
  A 0.42 0.42 0.0 0 0 332.96 159.22
  Q 333.14 158.85 333.11 158.50
  C 332.67 154.07 330.78 146.59 336.36 145.90
  A 1.24 1.20 53.7 0 1 337.07 146.02
  L 338.63 146.79
  A 1.26 1.22 49.4 0 0 339.49 146.87
  L 342.47 146.05
  A 0.58 0.57 -44.7 0 0 342.48 144.94
  Q 337.10 143.39 331.49 143.40
  C 324.88 143.41 318.10 147.00 312.75 150.92
  C 306.67 155.37 307.86 161.57 310.62 166.95
  A 0.22 0.22 0.0 0 0 311.04 166.82"
/>
<path stroke="#de8585" vector-effect="non-scaling-stroke" d="
  M 598.49 149.79
  Q 601.57 151.80 600.76 155.74
  Q 599.95 159.70 600.06 163.43
  A 0.42 0.42 0.0 0 0 600.87 163.55
  Q 602.06 160.19 603.27 156.03
  A 2.55 2.54 -81.5 0 1 605.75 154.19
  Q 607.99 154.22 607.91 156.78
  Q 607.79 161.33 606.82 165.88
  A 0.72 0.72 0.0 0 0 608.17 166.35
  Q 609.12 164.41 611.26 158.76
  Q 611.83 157.23 613.02 156.97
  A 1.84 1.70 85.3 0 1 615.07 158.86
  Q 614.90 164.59 614.32 168.12
  A 0.45 0.45 0.0 0 0 614.83 168.64
  Q 615.35 168.57 615.54 168.09
  C 617.30 163.83 618.54 159.59 620.38 159.42
  A 1.98 1.77 85.2 0 1 622.32 161.25
  Q 622.61 164.90 621.52 168.71
  A 0.34 0.34 0.0 0 0 622.13 168.98
  C 624.82 164.76 625.27 158.45 621.13 154.92
  Q 618.13 152.36 616.49 151.76
  C 610.25 149.49 605.17 147.34 598.59 149.17
  A 0.35 0.34 -36.3 0 0 598.49 149.79"
/>
<path stroke="#de8585" vector-effect="non-scaling-stroke" d="
  M 595.56 149.38
  Q 593.12 149.57 593.09 149.58
  A 0.81 0.81 0.0 0 0 593.50 151.12
  Q 595.40 150.95 595.94 149.96
  A 0.40 0.39 12.0 0 0 595.56 149.38"
/>
<path stroke="#de8585" vector-effect="non-scaling-stroke" d="
  M 371.40 169.78
  A 0.30 0.30 0.0 0 0 370.89 169.60
  C 367.97 172.68 357.40 181.45 353.31 175.71
  Q 346.14 165.66 343.62 156.45
  A 1.60 1.59 35.4 0 0 340.49 156.98
  C 340.84 162.02 338.64 167.78 332.36 166.97
  A 1.07 1.06 -72.9 0 0 331.27 167.55
  Q 329.48 171.11 325.07 170.38
  A 1.41 1.39 24.9 0 0 323.78 170.84
  Q 320.65 174.47 317.13 173.00
  A 0.92 0.91 30.9 0 0 316.07 173.26
  Q 314.09 175.67 309.21 174.56
  A 1.90 1.90 0.0 0 0 307.45 175.07
  Q 285.49 197.30 266.64 215.64
  Q 250.97 230.88 240.08 239.32
  Q 231.19 246.21 227.81 248.31
  Q 209.85 259.49 191.31 263.07
  Q 175.16 266.19 153.74 266.47
  A 0.95 0.94 -75.6 0 0 152.91 266.97
  Q 151.77 269.11 151.84 270.44
  Q 152.40 282.22 152.48 289.57
  A 0.78 0.77 6.3 0 0 153.08 290.31
  Q 155.97 290.96 162.53 291.12
  Q 165.65 291.20 179.68 291.52
  Q 190.98 291.79 196.81 291.10
  C 212.17 289.27 226.58 285.51 238.78 278.24
  C 244.17 275.03 250.84 270.89 256.69 266.42
  Q 276.14 251.58 292.55 234.05
  C 294.88 231.55 295.87 230.12 298.40 226.90
  C 299.99 224.86 300.04 221.66 302.67 219.79
  C 304.54 218.46 306.93 219.71 306.83 221.82
  Q 306.53 228.58 305.28 236.85
  C 302.77 253.39 301.46 267.93 299.07 290.76
  Q 298.55 295.75 298.68 298.02
  A 0.77 0.75 -81.8 0 0 299.17 298.69
  Q 323.41 307.52 350.22 311.73
  A 1.23 1.22 -86.9 0 0 351.63 310.46
  L 351.47 307.05
  A 4.44 3.73 -47.1 0 1 351.51 306.24
  C 352.32 299.76 352.68 294.45 353.83 288.05
  C 356.59 272.61 360.16 249.05 364.19 229.41
  Q 366.04 220.37 368.11 208.94
  Q 369.01 203.98 369.57 202.11
  C 371.09 197.05 371.32 192.15 372.75 186.78
  Q 373.70 183.18 374.54 178.25
  A 0.80 0.80 0.0 0 0 374.20 177.45
  Q 372.46 176.26 371.84 174.53
  A 1.33 1.09 39.2 0 1 371.77 174.19
  L 371.40 169.78"
/>
<path stroke="#de8585" vector-effect="non-scaling-stroke" d="
  M 592.48 160.38
  Q 589.86 167.87 586.60 173.58
  C 583.18 179.58 579.39 183.24 572.97 178.42
  Q 569.68 175.95 567.80 174.30
  A 0.57 0.57 0.0 0 0 566.93 174.44
  Q 565.72 176.46 565.99 179.93
  Q 566.15 181.94 567.50 190.69
  C 568.89 199.65 569.97 208.33 571.11 214.67
  C 573.08 225.56 573.71 235.05 575.81 245.70
  C 576.79 250.67 576.77 255.24 577.66 260.29
  Q 578.54 265.29 579.26 270.72
  Q 581.87 290.41 584.62 307.74
  Q 584.80 308.87 584.88 314.34
  A 1.43 1.43 0.0 0 0 585.19 315.23
  C 586.38 316.77 587.61 316.14 589.18 315.93
  Q 612.47 312.83 635.56 307.05
  A 0.73 0.72 81.8 0 0 636.11 306.31
  Q 634.72 282.15 631.98 257.32
  C 631.40 252.06 631.22 245.64 631.00 239.57
  A 2.97 2.80 35.2 0 0 630.82 238.69
  L 628.64 232.98
  A 1.68 1.65 39.1 0 1 628.55 232.16
  Q 629.12 228.26 633.05 228.84
  Q 634.86 229.11 635.34 231.12
  A 1.69 1.68 -82.0 0 0 636.14 232.19
  C 637.37 232.91 638.54 233.52 639.58 234.40
  Q 647.84 241.37 652.10 245.25
  Q 656.43 249.20 658.59 250.85
  C 664.80 255.59 669.85 260.20 675.46 263.71
  C 680.31 266.75 684.55 270.24 690.08 273.43
  Q 697.92 277.96 698.79 278.43
  Q 711.53 285.37 727.08 290.87
  Q 730.65 292.13 745.75 296.30
  C 752.71 298.22 758.07 298.75 767.49 300.33
  A 0.62 0.62 0.0 0 0 768.20 299.82
  L 771.43 280.49
  A 0.67 0.66 11.8 0 0 770.93 279.74
  Q 763.42 277.96 752.27 274.97
  Q 750.11 274.39 737.49 269.13
  Q 729.67 265.86 723.19 262.08
  Q 704.34 251.06 687.50 236.46
  Q 686.02 235.18 680.01 229.78
  C 674.26 224.61 670.42 220.45 666.06 216.72
  C 661.34 212.69 657.62 208.29 653.83 204.83
  Q 649.78 201.12 645.32 196.50
  Q 635.79 186.63 625.43 177.44
  A 1.55 1.54 56.3 0 0 623.89 177.13
  Q 620.62 178.25 617.58 176.42
  A 1.96 1.96 0.0 0 0 616.09 176.20
  Q 612.54 177.08 610.13 174.73
  A 1.73 1.73 0.0 0 0 608.69 174.27
  Q 604.44 174.86 602.66 171.72
  A 1.44 1.43 70.2 0 0 601.17 171.01
  C 596.10 171.89 592.77 168.89 593.02 163.96
  Q 593.17 160.93 592.97 160.38
  A 0.26 0.26 0.0 0 0 592.48 160.38"
/>
<path stroke="#de8585" vector-effect="non-scaling-stroke" d="
  M 358.01 166.41
  L 359.47 168.86
  A 0.28 0.28 0.0 0 0 359.86 168.96
  L 362.87 167.16
  A 1.99 1.57 -30.9 0 0 363.77 164.79
  L 363.63 164.55
  A 1.99 1.57 -30.9 0 0 361.11 164.22
  L 358.10 166.02
  A 0.28 0.28 0.0 0 0 358.01 166.41"
/>
<path stroke="#de8585" vector-effect="non-scaling-stroke" d="
  M 514.06 168.41
  C 505.64 168.66 498.53 169.70 490.91 169.35
  Q 489.88 169.30 480.75 169.53
  C 461.11 170.02 434.36 167.55 411.12 164.87
  A 0.57 0.56 -78.2 0 0 410.52 165.27
  C 408.29 172.51 403.84 177.09 397.41 183.09
  Q 393.28 186.95 388.80 183.99
  A 2.02 2.01 -88.1 0 1 388.15 183.29
  L 384.10 176.28
  A 0.44 0.44 0.0 0 0 383.41 176.18
  Q 381.87 177.63 381.78 178.25
  Q 379.66 193.40 377.03 205.79
  C 375.32 213.86 374.71 219.92 372.85 229.03
  Q 372.71 229.72 368.60 254.65
  C 367.25 262.89 365.76 268.90 364.92 275.08
  C 363.48 285.69 360.34 298.86 359.20 307.97
  Q 359.07 309.03 358.19 310.88
  A 1.51 1.51 0.0 0 0 359.20 312.99
  Q 364.26 314.22 369.25 314.44
  Q 388.32 315.32 405.17 313.49
  A 0.86 0.84 -84.7 0 0 405.89 312.88
  Q 413.34 287.00 422.96 260.69
  C 426.39 251.33 430.92 240.40 436.79 228.27
  C 440.71 220.15 444.84 214.97 452.31 211.07
  Q 461.30 206.39 466.37 204.52
  A 10.03 9.94 17.2 0 0 468.67 203.32
  Q 481.66 194.19 483.71 192.37
  Q 489.32 187.38 494.00 183.90
  C 497.40 181.38 500.50 178.12 504.30 175.56
  Q 510.92 171.10 514.25 169.01
  A 0.33 0.32 28.0 0 0 514.06 168.41"
/>
<path stroke="#de8585" vector-effect="non-scaling-stroke" d="
  M 578.4126 170.6829
  A 0.97 0.97 0.0 0 0 578.3384 169.3131
  L 575.4654 166.7353
  A 0.97 0.97 0.0 0 0 574.0956 166.8095
  L 573.2274 167.7771
  A 0.97 0.97 0.0 0 0 573.3016 169.1469
  L 576.1746 171.7247
  A 0.97 0.97 0.0 0 0 577.5444 171.6505
  L 578.4126 170.6829"
/>
<path stroke="#de8585" vector-effect="non-scaling-stroke" d="
  M 390.37 172.80
  L 392.16 175.76
  A 0.62 0.62 0.0 0 0 393.01 175.97
  L 393.32 175.78
  A 2.37 1.16 -31.1 0 0 394.75 173.56
  L 393.52 171.52
  A 2.37 1.16 -31.1 0 0 390.90 171.75
  L 390.58 171.95
  A 0.62 0.62 0.0 0 0 390.37 172.80"
/>
<path stroke="#de8585" vector-effect="non-scaling-stroke" d="
  M 553.12 176.05
  Q 551.63 177.68 546.85 183.08
  C 544.66 185.55 540.15 187.10 537.86 184.33
  Q 533.37 178.91 530.87 171.57
  A 0.69 0.69 0.0 0 0 529.92 171.17
  C 517.77 176.94 507.44 184.96 497.22 193.70
  Q 490.22 199.68 478.56 208.02
  Q 467.94 215.61 452.97 221.93
  A 3.55 3.47 10.7 0 0 451.89 222.65
  Q 448.76 225.76 447.90 227.42
  C 443.80 235.42 439.86 242.62 437.43 250.32
  A 0.59 0.58 11.5 0 0 437.94 251.08
  C 441.57 251.45 444.37 251.85 448.03 251.61
  Q 477.08 249.68 503.64 236.83
  A 0.86 0.86 0.0 0 0 504.12 236.04
  Q 504.04 231.44 506.88 227.22
  A 2.34 2.18 -63.0 0 1 509.46 226.28
  C 510.90 226.78 511.81 228.74 511.84 230.59
  C 511.92 234.53 513.79 238.95 514.45 242.78
  Q 516.05 252.11 520.43 271.61
  C 523.29 284.30 526.07 298.20 529.93 311.93
  A 4.32 4.32 0.0 0 1 530.06 312.58
  Q 530.26 314.24 530.68 315.89
  A 1.00 0.99 1.1 0 0 531.36 316.59
  Q 534.55 317.51 538.70 317.78
  C 551.49 318.62 563.71 319.66 575.83 317.81
  A 1.55 1.55 0.0 0 0 577.12 315.99
  Q 576.66 313.49 574.10 298.61
  C 573.27 293.80 573.11 289.15 572.19 284.14
  Q 571.23 278.90 570.51 273.32
  C 568.75 259.61 567.12 250.41 565.61 237.52
  Q 564.83 230.84 563.47 222.04
  C 561.96 212.30 561.57 204.44 559.97 195.35
  Q 558.83 188.87 558.32 179.52
  A 0.97 0.97 0.0 0 0 557.69 178.67
  Q 555.54 177.89 554.15 176.09
  A 0.68 0.67 -42.7 0 0 553.12 176.05"
/>
<path stroke="#de8585" vector-effect="non-scaling-stroke" d="
  M 542.50 176.11
  Q 542.54 176.11 542.58 176.09
  Q 545.20 175.01 544.44 173.50
  Q 543.52 171.66 542.41 171.68
  Q 541.29 171.70 540.45 173.58
  Q 539.76 175.12 542.42 176.10
  Q 542.46 176.11 542.50 176.11"
/>
<path stroke="#de8585" vector-effect="non-scaling-stroke" d="
  M 81.65 285.19
  Q 83.87 285.99 86.78 286.21
  C 94.24 286.75 102.97 287.11 111.46 284.88
  C 116.08 283.66 120.12 283.22 123.92 281.99
  A 1.46 1.45 -7.6 0 0 124.93 280.68
  L 125.74 265.49
  A 0.86 0.85 -75.2 0 0 125.27 264.68
  Q 122.59 263.36 119.55 261.20
  Q 118.95 260.77 106.51 251.23
  Q 101.14 247.11 97.38 243.35
  A 0.32 0.32 0.0 0 0 96.84 243.67
  C 97.93 247.47 101.31 250.98 103.93 253.78
  A 2.60 2.57 25.2 0 1 104.63 255.69
  L 104.46 258.82
  A 2.10 2.10 0.0 0 1 102.96 260.72
  Q 97.72 262.28 91.59 262.70
  C 83.89 263.23 78.65 264.16 72.33 265.11
  A 0.25 0.25 0.0 0 0 72.34 265.60
  L 88.77 267.27
  A 0.76 0.75 -74.1 0 1 89.37 268.35
  Q 89.10 268.92 88.61 269.07
  Q 80.44 271.60 70.57 271.01
  A 0.81 0.80 4.1 0 0 69.72 271.74
  L 69.68 272.12
  A 0.78 0.77 -86.6 0 0 70.44 272.98
  L 81.43 273.18
  A 3.29 3.21 53.9 0 1 82.37 273.34
  Q 85.82 274.42 89.84 274.29
  A 1.13 1.12 85.3 0 1 91.00 275.28
  L 91.00 275.34
  A 1.03 1.02 86.3 0 1 90.10 276.37
  L 73.85 278.30
  A 0.33 0.33 0.0 0 0 73.71 278.91
  C 74.64 279.51 76.12 279.91 77.18 279.91
  Q 87.00 279.92 92.24 280.10
  A 1.81 1.80 88.6 0 1 93.97 281.75
  L 93.97 281.81
  A 1.69 1.68 84.8 0 1 92.49 283.59
  L 81.69 284.86
  A 0.17 0.17 0.0 0 0 81.65 285.19"
/>
<path stroke="#de8585" vector-effect="non-scaling-stroke" d="
  M 846.02 290.72
  Q 839.20 288.13 830.33 286.29
  C 826.63 285.52 821.56 283.97 817.16 282.80
  A 2.52 2.52 0.0 0 1 815.31 280.11
  L 815.61 277.18
  A 4.06 4.06 0.0 0 1 816.95 274.56
  Q 821.55 270.49 823.67 265.68
  A 0.23 0.23 0.0 0 0 823.34 265.40
  Q 820.40 267.31 815.86 270.35
  Q 804.69 277.83 795.05 282.37
  A 1.28 1.26 -10.1 0 0 794.33 283.39
  L 792.78 298.55
  A 1.79 1.77 -76.5 0 0 793.89 300.38
  Q 799.50 302.61 802.70 304.00
  Q 806.11 305.47 811.72 306.66
  Q 822.60 308.98 825.51 309.48
  Q 831.86 310.59 835.77 310.32
  Q 836.62 310.26 837.14 309.85
  A 0.50 0.50 0.0 0 0 836.96 308.97
  L 824.09 305.43
  A 1.78 1.77 6.9 0 1 822.79 303.78
  L 822.79 303.72
  A 1.28 1.28 0.0 0 1 824.22 302.49
  Q 831.60 303.36 841.24 304.82
  Q 842.27 304.98 845.62 303.39
  A 0.17 0.16 -51.3 0 0 845.59 303.08
  L 826.78 298.96
  A 1.09 1.09 0.0 0 1 826.26 297.11
  Q 827.02 296.39 827.73 296.45
  Q 845.71 298.11 847.95 298.12
  A 2.13 2.07 26.8 0 0 849.16 297.74
  L 849.31 297.63
  A 0.40 0.40 0.0 0 0 849.19 296.91
  C 842.99 295.22 836.51 294.84 830.25 292.53
  Q 828.85 292.01 829.30 290.97
  A 1.12 1.12 0.0 0 1 830.40 290.29
  L 845.93 291.11
  A 0.20 0.20 0.0 0 0 846.02 290.72"
/>
<path stroke="#de8585" vector-effect="non-scaling-stroke" d="
  M 144.45 266.55
  A 0.66 0.66 0.0 0 0 143.83 265.95
  L 135.26 265.49
  A 0.69 0.67 10.1 0 0 134.58 265.95
  Q 133.61 268.77 133.63 270.03
  Q 133.85 283.92 133.67 287.29
  A 0.96 0.95 5.5 0 0 134.50 288.29
  L 142.79 289.39
  A 0.92 0.92 0.0 0 0 143.83 288.40
  Q 143.35 282.65 143.44 276.22
  C 143.48 273.07 144.70 269.57 144.45 266.55"
/>
<path stroke="#de8585" vector-effect="non-scaling-stroke" d="
  M 779.74 281.34
  A 0.56 0.56 0.0 0 0 779.11 281.83
  L 776.53 301.19
  A 0.56 0.56 0.0 0 0 777.02 301.82
  L 783.27 302.66
  A 0.56 0.56 0.0 0 0 783.90 302.17
  L 786.48 282.81
  A 0.56 0.56 0.0 0 0 785.99 282.18
  L 779.74 281.34"
/>
<path stroke="#de8585" vector-effect="non-scaling-stroke" d="
  M 370.59 728.94
  L 370.59 740.17
  A 1.18 1.16 -71.1 0 0 371.03 741.09
  Q 376.68 745.61 383.66 746.74
  A 1.54 1.53 -58.5 0 0 384.84 746.45
  Q 386.14 745.47 386.43 743.60
  A 1.43 1.42 34.2 0 0 386.25 742.68
  C 383.83 738.50 384.30 732.40 384.17 728.69
  A 0.59 0.59 0.0 0 0 383.58 728.12
  L 371.40 728.12
  A 0.82 0.81 -90.0 0 0 370.59 728.94"
/>
<path stroke="#de8585" vector-effect="non-scaling-stroke" d="
  M 564.10 732.83
  Q 557.76 733.10 550.66 731.81
  A 0.69 0.69 0.0 0 0 549.85 732.45
  Q 549.61 736.19 549.41 743.36
  Q 549.37 744.76 547.30 747.53
  A 1.35 1.34 56.3 0 0 547.07 748.71
  L 547.74 751.14
  A 1.02 1.01 -5.6 0 0 548.65 751.88
  Q 551.88 752.12 552.95 751.73
  Q 558.68 749.64 564.18 746.50
  A 1.48 1.46 75.4 0 0 564.92 745.22
  L 564.92 733.63
  A 0.80 0.79 89.0 0 0 564.10 732.83"
/>
<path stroke="#de8585" vector-effect="non-scaling-stroke" d="
  M 308.84 740.12
  L 298.32 739.56
  A 0.73 0.73 0.0 0 0 297.55 740.25
  L 296.92 752.05
  A 2.24 2.22 -70.3 0 0 297.81 753.95
  C 300.94 756.27 304.89 759.35 308.70 760.14
  A 1.01 1.00 29.6 0 0 309.59 759.90
  Q 310.78 758.83 311.13 757.84
  A 1.30 1.28 -49.8 0 0 311.05 756.82
  C 308.87 752.59 309.62 746.43 309.61 740.93
  A 0.81 0.81 0.0 0 0 308.84 740.12"
/>
<path stroke="#de8585" vector-effect="non-scaling-stroke" d="
  M 639.03 742.08
  L 627.23 741.45
  A 0.63 0.63 0.0 0 0 626.58 742.14
  C 627.16 747.88 627.79 753.49 625.34 758.48
  A 1.84 1.78 55.7 0 0 625.17 759.48
  Q 625.51 762.45 628.18 763.16
  A 1.82 1.79 -55.2 0 0 629.68 762.88
  L 639.27 756.04
  A 1.01 1.00 -17.6 0 0 639.70 755.22
  L 639.70 742.79
  A 0.71 0.71 0.0 0 0 639.03 742.08"
/>
<path stroke="#de8585" vector-effect="non-scaling-stroke" d="
  M 401.36 76.96
  L 412.24 78.56
  A 1.31 1.31 0.0 0 0 413.73 77.46
  L 413.83 76.80
  A 4.33 3.87 8.4 0 0 410.11 72.34
  L 405.20 71.62
  A 4.33 3.87 8.4 0 0 400.35 74.81
  L 400.26 75.47
  A 1.31 1.31 0.0 0 0 401.36 76.96"
/>
<path stroke="#de8585" vector-effect="non-scaling-stroke" d="
  M 405.7353 82.7955
  A 2.91 2.44 -70.0 0 0 402.4472 84.6955
  A 2.91 2.44 -70.0 0 0 403.7447 88.2645
  A 2.91 2.44 -70.0 0 0 407.0328 86.3645
  A 2.91 2.44 -70.0 0 0 405.7353 82.7955"
/>
<path stroke="#de8585" vector-effect="non-scaling-stroke" d="
  M 413.66 103.02
  A 0.69 0.69 0.0 0 1 412.63 103.58
  L 409.57 101.81
  A 1.00 1.00 0.0 0 0 408.85 101.71
  Q 406.66 102.28 406.88 104.82
  C 407.23 108.68 411.08 108.86 414.84 108.73
  C 416.71 108.67 418.24 107.75 418.34 105.77
  Q 418.72 98.07 418.38 90.21
  A 1.55 1.55 0.0 0 0 416.48 88.77
  L 416.40 88.80
  A 2.96 2.96 0.0 0 0 414.24 91.50
  L 413.66 103.02"
/>
<path stroke="#de8585" vector-effect="non-scaling-stroke" d="
  M 427.8613 90.4481
  A 2.89 2.50 -67.6 0 0 424.4486 92.1673
  A 2.89 2.50 -67.6 0 0 425.6587 95.7919
  A 2.89 2.50 -67.6 0 0 429.0714 94.0727
  A 2.89 2.50 -67.6 0 0 427.8613 90.4481"
/>
<path stroke="#de8585" vector-effect="non-scaling-stroke" d="
  M 409.37 113.81
  Q 408.63 113.30 407.08 113.39
  A 4.76 4.21 -16.1 0 1 402.95 111.43
  Q 401.92 109.79 400.39 106.17
  A 2.20 2.07 -16.3 0 0 398.02 104.96
  Q 396.09 105.32 395.78 106.99
  C 394.61 113.25 400.96 119.59 406.96 118.65
  Q 409.11 118.31 409.98 117.62
  A 2.62 2.17 41.3 0 0 409.37 113.81"
/>
<path stroke="#de8585" vector-effect="non-scaling-stroke" d="
  M 538.21 85.82
  L 548.39 84.98
  A 1.06 1.06 0.0 0 0 549.36 83.84
  L 549.35 83.68
  A 4.54 3.94 -4.7 0 0 544.50 80.13
  L 541.25 80.39
  A 4.54 3.94 -4.7 0 0 537.05 84.69
  L 537.07 84.85
  A 1.06 1.06 0.0 0 0 538.21 85.82"
/>
<path stroke="#de8585" vector-effect="non-scaling-stroke" d="
  M 544.5255 90.2675
  A 2.50 2.26 -74.8 0 0 541.6891 92.0875
  A 2.50 2.26 -74.8 0 0 543.2145 95.0925
  A 2.50 2.26 -74.8 0 0 546.0509 93.2725
  A 2.50 2.26 -74.8 0 0 544.5255 90.2675"
/>
<path stroke="#de8585" vector-effect="non-scaling-stroke" d="
  M 534.61 105.96
  Q 535.01 100.13 534.35 95.45
  A 1.94 1.80 73.8 0 0 531.76 93.90
  Q 530.73 94.40 530.57 96.03
  Q 529.75 104.41 529.54 106.99
  Q 529.19 111.37 533.03 111.86
  C 535.62 112.20 539.13 111.80 539.01 108.45
  A 1.90 1.85 84.8 0 0 536.88 106.62
  Q 536.05 106.74 535.46 106.80
  A 0.78 0.78 0.0 0 1 534.61 105.96"
/>
<path stroke="#de8585" vector-effect="non-scaling-stroke" d="
  M 522.3733 95.2033
  A 2.42 2.08 -93.0 0 0 520.4229 97.7289
  A 2.42 2.08 -93.0 0 0 522.6267 100.0367
  A 2.42 2.08 -93.0 0 0 524.5771 97.5111
  A 2.42 2.08 -93.0 0 0 522.3733 95.2033"
/>
<path stroke="#de8585" vector-effect="non-scaling-stroke" d="
  M 545.45 110.40
  C 543.84 113.47 542.29 116.62 538.34 116.62
  A 2.35 2.05 -86.2 0 0 536.28 118.69
  C 536.02 120.90 539.58 121.09 541.06 120.80
  Q 546.18 119.82 548.30 115.20
  C 549.38 112.83 550.25 111.96 548.34 109.98
  A 1.80 1.80 0.0 0 0 545.45 110.40"
/>
<path stroke="#de8585" vector-effect="non-scaling-stroke" d="
  M 367.9142 192.2105
  A 3.83 3.57 -35.6 0 0 362.7218 191.5372
  A 3.83 3.57 -35.6 0 0 361.6858 196.6695
  A 3.83 3.57 -35.6 0 0 366.8782 197.3428
  A 3.83 3.57 -35.6 0 0 367.9142 192.2105"
/>
<path stroke="#de8585" vector-effect="non-scaling-stroke" d="
  M 361.8572 219.2929
  A 3.93 3.68 -51.3 0 0 356.5280 220.0591
  A 3.93 3.68 -51.3 0 0 356.9428 225.4271
  A 3.93 3.68 -51.3 0 0 362.2720 224.6609
  A 3.93 3.68 -51.3 0 0 361.8572 219.2929"
/>
<path stroke="#de8585" vector-effect="non-scaling-stroke" d="
  M 354.9956 255.3024
  A 4.03 3.67 -58.0 0 0 349.7477 256.7752
  A 4.03 3.67 -58.0 0 0 350.7244 262.1376
  A 4.03 3.67 -58.0 0 0 355.9723 260.6648
  A 4.03 3.67 -58.0 0 0 354.9956 255.3024"
/>
<path stroke="#de8585" vector-effect="non-scaling-stroke" d="
  M 351.46 289.65
  A 3.81 3.81 0.0 0 0 347.65 285.84
  A 3.81 3.81 0.0 0 0 343.84 289.65
  A 3.81 3.81 0.0 0 0 347.65 293.46
  A 3.81 3.81 0.0 0 0 351.46 289.65"
/>
<path stroke="#de8585" vector-effect="non-scaling-stroke" d="
  M 554.8878 193.6233
  A 3.85 3.60 -78.8 0 0 550.6086 196.7008
  A 3.85 3.60 -78.8 0 0 553.3922 201.1767
  A 3.85 3.60 -78.8 0 0 557.6714 198.0992
  A 3.85 3.60 -78.8 0 0 554.8878 193.6233"
/>
<path stroke="#de8585" vector-effect="non-scaling-stroke" d="
  M 561.18 221.70
  A 3.73 3.73 0.0 0 0 557.45 217.97
  A 3.73 3.73 0.0 0 0 553.72 221.70
  A 3.73 3.73 0.0 0 0 557.45 225.43
  A 3.73 3.73 0.0 0 0 561.18 221.70"
/>
<path stroke="#de8585" vector-effect="non-scaling-stroke" d="
  M 559.3182 243.9358
  A 3.92 3.73 -114.6 0 0 557.5585 249.0527
  A 3.92 3.73 -114.6 0 0 562.5818 251.0642
  A 3.92 3.73 -114.6 0 0 564.3415 245.9473
  A 3.92 3.73 -114.6 0 0 559.3182 243.9358"
/>
<path stroke="#de8585" vector-effect="non-scaling-stroke" d="
  M 565.2728 270.5453
  A 3.71 3.60 -83.3 0 0 561.2646 273.8100
  A 3.71 3.60 -83.3 0 0 564.4072 277.9147
  A 3.71 3.60 -83.3 0 0 568.4154 274.6500
  A 3.71 3.60 -83.3 0 0 565.2728 270.5453"
/>
<path stroke="#de8585" vector-effect="non-scaling-stroke" d="
  M 570.5432 296.4120
  A 3.94 3.57 -62.6 0 0 565.5605 298.2671
  A 3.94 3.57 -62.6 0 0 566.9168 303.4080
  A 3.94 3.57 -62.6 0 0 571.8995 301.5529
  A 3.94 3.57 -62.6 0 0 570.5432 296.4120"
/>
</g>
<path fill="none" d="
  M 993.00 0.00
  L 993.00 830.00
  L 0.00 830.00
  L 0.00 0.00
  L 993.00 0.00
  Z
  M 641.24 248.73
  Q 648.80 255.18 649.73 256.06
  C 654.17 260.28 659.13 263.56 664.33 267.79
  Q 665.13 268.44 670.57 272.35
  C 684.89 282.64 700.32 291.13 717.20 297.54
  Q 733.89 303.88 759.99 309.06
  Q 763.88 309.84 771.09 310.46
  Q 771.26 310.48 782.24 311.60
  Q 786.62 312.05 790.73 309.16
  A 0.94 0.93 -50.6 0 1 791.64 309.07
  Q 807.75 316.19 825.01 317.75
  Q 829.05 318.12 832.50 317.81
  C 838.37 317.28 844.34 317.41 846.18 311.72
  A 1.27 1.27 0.0 0 1 847.30 310.84
  C 852.14 310.47 853.23 308.06 854.35 304.07
  A 1.35 1.33 -12.8 0 1 854.78 303.40
  Q 860.06 298.83 856.82 293.36
  A 2.14 2.08 -61.0 0 1 856.51 292.22
  Q 856.52 285.64 850.56 283.85
  Q 837.27 279.86 823.73 277.44
  A 0.60 0.60 0.0 0 1 823.39 276.45
  C 827.54 271.76 835.15 264.53 830.51 258.30
  C 828.53 255.64 825.31 255.95 822.64 257.41
  Q 820.59 258.53 810.48 264.98
  C 805.22 268.33 799.88 270.86 793.94 274.03
  A 1.66 1.66 0.0 0 1 792.46 274.07
  Q 789.86 272.82 788.50 272.69
  Q 775.29 271.35 760.33 267.21
  Q 748.97 264.06 738.78 258.99
  Q 727.01 253.12 718.69 247.51
  Q 696.20 232.33 673.43 210.31
  Q 666.87 203.97 651.01 188.39
  C 644.53 182.03 638.49 175.50 631.35 169.72
  A 1.22 1.21 28.8 0 1 630.96 168.40
  Q 632.35 164.10 631.45 158.70
  C 629.17 145.03 610.35 140.04 598.75 142.23
  Q 594.80 142.98 590.48 143.68
  A 1.58 1.57 -21.3 0 1 588.92 143.00
  Q 585.59 138.00 578.97 138.43
  A 1.07 1.07 0.0 0 1 577.84 137.55
  C 576.81 131.95 574.62 126.94 573.78 121.60
  Q 572.40 112.88 571.88 106.00
  A 1.21 1.18 65.4 0 1 572.22 105.05
  Q 572.53 104.74 573.26 104.43
  Q 574.24 104.02 574.74 103.46
  C 580.54 96.88 581.77 89.91 579.85 82.06
  Q 577.90 74.10 569.84 72.06
  A 0.44 0.42 88.3 0 1 569.54 71.76
  L 566.43 60.46
  A 1.04 0.55 -73.2 0 1 566.40 60.31
  L 565.74 53.48
  A 4.32 4.22 33.0 0 0 565.49 52.37
  C 562.45 43.92 555.05 40.70 546.44 41.55
  A 2.50 2.42 49.0 0 1 545.51 41.47
  Q 539.86 39.83 538.51 39.85
  Q 523.13 40.07 509.61 45.53
  C 501.34 48.86 496.19 51.55 494.45 60.21
  C 493.09 67.04 498.06 76.90 505.84 77.38
  A 0.86 0.85 2.1 0 1 506.65 78.24
  Q 506.65 79.82 508.38 83.47
  A 1.71 1.70 -48.3 0 1 508.45 84.74
  Q 506.61 90.20 508.06 98.24
  C 510.52 111.88 514.48 124.26 523.08 134.75
  Q 528.27 141.08 536.51 142.69
  A 1.15 1.13 3.4 0 1 537.43 143.71
  L 538.02 150.83
  A 1.08 1.07 79.4 0 1 537.26 151.95
  Q 534.54 152.74 531.82 157.09
  A 1.48 1.47 -75.8 0 1 530.67 157.78
  Q 516.33 158.84 505.34 158.97
  C 502.55 159.01 499.02 159.49 496.01 159.55
  Q 467.58 160.11 438.95 158.25
  C 429.28 157.62 417.76 155.66 410.31 155.13
  A 1.25 1.23 -11.8 0 1 409.31 154.49
  Q 407.06 150.35 403.27 148.36
  A 1.06 1.05 19.0 0 1 402.72 147.25
  L 403.58 142.10
  A 0.92 0.90 1.9 0 1 404.41 141.34
  C 425.41 139.56 439.01 107.74 442.58 90.31
  Q 443.40 86.28 442.49 79.67
  A 0.98 0.96 -24.0 0 1 442.84 78.78
  Q 443.00 78.66 443.36 78.59
  Q 443.85 78.49 444.23 77.91
  Q 445.32 76.25 446.10 73.40
  A 0.64 0.64 0.0 0 1 446.63 72.93
  C 452.91 71.98 458.76 68.57 460.39 62.26
  C 461.72 57.08 458.76 53.01 454.43 50.55
  A 3.29 3.25 -28.0 0 0 453.03 50.13
  Q 451.12 50.00 450.60 49.87
  A 1.49 1.20 21.8 0 1 449.51 47.93
  Q 449.84 47.46 449.39 46.92
  Q 448.48 45.84 447.56 45.21
  C 434.33 36.29 418.89 29.49 402.66 30.68
  C 395.11 31.23 390.62 32.48 386.06 38.01
  Q 383.89 40.65 381.90 47.10
  C 379.57 54.66 378.18 59.38 376.37 63.18
  A 1.26 1.21 1.3 0 1 375.68 63.81
  C 368.10 66.71 365.53 73.41 365.26 81.01
  Q 364.95 89.28 371.34 95.61
  A 0.82 0.81 -62.3 0 1 371.57 96.36
  Q 367.94 114.85 361.31 132.95
  A 1.02 1.01 10.6 0 1 360.34 133.61
  Q 352.12 133.44 347.75 139.39
  A 0.82 0.81 31.6 0 1 346.71 139.63
  Q 341.06 136.63 332.98 135.86
  Q 327.39 135.33 322.16 136.82
  C 308.91 140.59 296.42 151.21 301.73 166.22
  A 1.43 1.42 -31.2 0 1 301.35 167.74
  Q 295.51 173.17 291.48 177.22
  Q 269.61 199.21 255.80 212.30
  C 244.14 223.35 231.68 234.11 217.85 242.20
  C 204.17 250.20 188.90 254.55 173.74 255.53
  Q 157.86 256.56 139.05 256.12
  C 136.44 256.05 133.78 255.59 131.74 255.92
  C 129.44 256.29 128.88 257.29 126.41 255.60
  Q 106.28 241.79 103.14 238.95
  C 99.59 235.76 93.53 230.42 90.23 235.80
  Q 87.23 240.70 90.51 245.94
  Q 93.64 250.92 96.14 253.94
  A 0.53 0.53 0.0 0 1 95.78 254.80
  Q 83.08 255.93 72.51 257.74
  C 67.71 258.57 63.69 259.75 63.93 265.62
  A 1.62 1.55 -31.5 0 1 63.69 266.52
  Q 63.68 266.55 62.50 268.24
  C 60.07 271.73 61.53 274.67 63.84 277.57
  A 2.30 2.27 25.8 0 1 64.33 278.95
  Q 64.36 283.32 70.15 285.78
  Q 71.41 286.31 71.88 287.60
  C 75.46 297.35 101.78 295.29 109.38 294.30
  C 114.79 293.60 118.62 292.42 124.58 290.99
  A 0.78 0.78 0.0 0 1 125.52 291.56
  C 126.49 295.47 129.58 296.92 133.71 297.45
  Q 148.35 299.34 151.49 299.79
  C 164.52 301.63 175.37 301.77 189.27 301.52
  Q 194.83 301.42 203.51 300.28
  Q 229.28 296.91 249.53 283.78
  C 252.60 281.79 256.52 279.40 260.16 276.69
  Q 263.52 274.20 271.88 267.38
  Q 283.75 257.71 293.52 247.23
  A 0.58 0.58 0.0 0 1 294.53 247.64
  Q 294.39 252.09 293.66 256.21
  C 291.75 266.98 290.89 277.89 289.28 293.59
  C 289.05 295.82 289.23 298.48 289.30 300.07
  A 2.58 2.57 60.0 0 1 288.90 301.58
  Q 287.37 303.95 286.38 308.70
  Q 285.24 314.22 284.84 316.78
  Q 275.03 379.18 269.49 452.50
  Q 267.54 478.26 267.29 489.32
  C 267.23 491.93 267.83 494.00 267.33 496.05
  Q 266.78 498.32 266.65 501.05
  Q 266.09 512.41 265.97 523.74
  Q 265.91 528.50 268.38 531.03
  A 3.04 2.98 -66.7 0 1 269.23 533.23
  Q 267.92 574.40 269.66 614.90
  C 270.25 628.60 270.41 643.12 271.07 654.26
  Q 271.20 656.46 272.20 683.78
  Q 273.18 710.92 274.54 728.00
  Q 274.80 731.19 276.84 733.35
  A 3.73 3.72 -12.1 0 0 278.34 734.32
  L 287.90 737.61
  A 1.27 1.27 0.0 0 1 288.76 738.84
  L 288.59 749.39
  A 1.03 0.89 59.2 0 1 288.53 749.73
  C 286.47 755.92 285.14 763.54 286.50 770.28
  Q 287.15 773.53 290.49 776.03
  Q 307.19 788.54 325.45 797.52
  C 331.92 800.70 340.39 802.96 345.75 797.92
  C 351.53 792.48 347.68 784.09 343.31 779.19
  Q 333.33 768.01 320.22 755.05
  A 4.34 4.22 14.0 0 1 319.15 753.32
  C 317.94 749.64 318.22 746.42 318.05 739.47
  A 1.42 1.42 0.0 0 1 319.29 738.03
  Q 326.73 737.09 332.86 734.14
  C 336.62 732.33 337.55 729.90 337.39 725.53
  Q 337.04 715.35 337.74 682.25
  Q 338.51 645.73 338.40 550.99
  C 338.40 547.09 339.04 544.15 338.25 540.57
  A 1.20 1.20 0.0 0 1 339.42 539.11
  L 343.19 539.11
  A 0.95 0.95 0.0 0 1 344.14 540.09
  Q 343.38 566.59 343.82 595.25
  Q 343.97 605.13 343.81 633.42
  Q 343.71 651.24 344.13 671.58
  Q 344.41 685.07 345.16 718.39
  Q 345.24 721.89 346.04 723.00
  Q 347.37 724.86 350.08 725.42
  Q 350.55 725.52 360.98 728.02
  A 0.79 0.78 -84.2 0 1 361.58 728.76
  L 361.96 738.94
  A 0.92 0.75 57.8 0 1 361.92 739.26
  Q 358.74 748.62 360.38 758.23
  Q 361.25 763.36 366.77 765.71
  Q 372.72 768.24 377.25 769.97
  Q 388.22 774.16 406.89 778.81
  Q 415.24 780.89 421.24 781.05
  C 431.22 781.32 434.62 770.75 427.81 764.25
  Q 424.37 760.97 419.28 757.06
  Q 404.37 745.62 394.00 738.43
  A 0.88 0.88 0.0 0 1 393.68 737.96
  Q 392.34 732.84 392.85 726.05
  A 1.14 1.14 0.0 0 1 393.60 725.07
  C 400.48 722.63 406.84 720.75 406.73 711.99
  Q 406.41 686.38 407.86 615.32
  Q 408.44 586.95 408.42 577.16
  Q 408.36 551.80 408.39 539.00
  Q 408.40 537.31 408.58 534.66
  A 0.74 0.73 -3.1 0 1 409.19 533.99
  C 411.07 533.67 413.40 533.97 415.26 533.03
  Q 419.10 531.07 419.12 526.24
  C 419.27 466.77 419.60 408.99 417.25 353.25
  Q 417.07 349.02 415.49 322.36
  C 415.38 320.48 414.96 318.96 414.74 317.24
  A 2.05 2.00 51.5 0 1 414.84 316.27
  Q 417.34 309.56 418.21 306.47
  Q 424.77 283.19 433.21 260.73
  A 0.71 0.71 0.0 0 1 433.94 260.27
  Q 452.07 261.68 466.76 259.17
  Q 476.80 257.45 492.61 252.08
  C 497.20 250.53 500.93 248.27 505.54 246.82
  A 0.91 0.91 0.0 0 1 506.72 247.63
  C 507.32 255.60 509.42 263.20 510.96 271.02
  Q 515.29 293.01 516.04 296.25
  C 518.67 307.70 519.68 314.38 522.42 322.14
  A 2.43 2.42 41.5 0 1 522.50 323.40
  C 522.25 324.65 521.76 326.02 521.61 327.48
  C 519.90 344.58 518.96 358.32 517.13 381.53
  Q 515.62 400.73 514.36 432.50
  Q 513.42 456.32 512.54 480.80
  Q 512.05 494.25 512.03 504.57
  Q 511.99 524.68 512.17 528.33
  Q 512.41 533.26 516.46 535.24
  C 517.35 535.67 519.84 536.00 521.33 536.44
  Q 523.09 536.95 523.05 539.23
  C 522.76 553.96 523.74 575.19 523.80 589.25
  Q 523.95 621.90 525.44 653.88
  C 526.49 676.36 526.78 692.71 527.65 717.43
  C 527.76 720.65 528.20 723.09 530.38 725.03
  Q 532.80 727.19 540.50 729.45
  A 0.47 0.46 -81.7 0 1 540.83 729.90
  L 540.83 740.58
  A 2.61 2.61 0.0 0 1 539.74 742.70
  Q 522.26 755.27 511.79 762.79
  Q 507.36 765.98 503.86 769.59
  C 500.64 772.91 499.54 777.31 502.40 781.53
  C 504.91 785.24 510.45 785.89 514.77 785.24
  Q 521.48 784.24 525.52 783.25
  Q 549.50 777.40 568.69 770.39
  Q 574.22 768.37 575.33 762.90
  Q 577.28 753.21 573.35 743.78
  A 1.30 1.24 35.1 0 1 573.24 743.22
  L 573.42 733.13
  A 1.19 1.18 -4.5 0 1 574.40 731.99
  Q 580.42 730.98 585.13 729.17
  Q 590.58 727.08 590.58 721.71
  Q 590.56 694.42 590.93 673.75
  Q 591.66 633.07 590.98 587.59
  C 590.80 575.47 590.01 563.37 590.42 551.22
  A 2.16 2.15 -14.2 0 1 591.49 549.43
  L 595.86 546.91
  A 0.92 0.91 74.9 0 1 597.23 547.70
  Q 597.55 576.70 598.82 600.18
  Q 599.20 607.18 599.40 621.14
  C 599.71 641.63 600.56 663.03 600.79 682.97
  Q 601.18 717.72 601.27 729.99
  Q 601.30 732.91 604.22 736.04
  A 2.57 2.41 78.8 0 0 605.00 736.60
  Q 611.73 739.59 617.90 740.63
  A 0.95 0.95 0.0 0 1 618.69 741.62
  L 618.03 754.14
  A 1.76 1.76 0.0 0 1 617.56 755.23
  Q 604.18 769.46 592.57 783.83
  Q 589.74 787.33 588.59 791.61
  C 586.05 801.02 594.13 806.41 602.56 803.81
  Q 608.41 802.01 614.90 798.86
  Q 629.69 791.67 645.16 779.93
  Q 649.50 776.64 650.37 772.94
  Q 652.42 764.19 648.66 752.99
  A 2.31 2.16 37.9 0 1 648.55 752.30
  L 648.35 740.61
  A 1.09 1.07 -7.3 0 1 649.19 739.54
  Q 650.13 739.32 655.94 737.56
  C 660.15 736.28 663.11 734.14 663.41 729.93
  Q 667.14 678.54 666.24 629.50
  Q 665.56 593.07 663.77 541.53
  Q 663.68 538.91 663.67 537.72
  A 1.54 1.54 0.0 0 1 664.87 536.22
  Q 670.90 534.86 670.84 529.27
  C 670.55 504.74 667.94 473.68 665.74 448.75
  C 661.75 403.57 654.87 358.11 647.16 313.37
  Q 646.89 311.80 646.02 309.20
  A 2.40 2.09 -59.6 0 1 645.95 308.83
  L 640.96 248.88
  A 0.17 0.17 0.0 0 1 641.24 248.73
  Z"
/>
<path fill="#c5191d" d="
  M 641.24 248.73
  A 0.17 0.17 0.0 0 0 640.96 248.88
  L 645.95 308.83
  A 2.40 2.09 -59.6 0 0 646.02 309.20
  Q 646.89 311.80 647.16 313.37
  C 654.87 358.11 661.75 403.57 665.74 448.75
  C 667.94 473.68 670.55 504.74 670.84 529.27
  Q 670.90 534.86 664.87 536.22
  A 1.54 1.54 0.0 0 0 663.67 537.72
  Q 663.68 538.91 663.77 541.53
  Q 665.56 593.07 666.24 629.50
  Q 667.14 678.54 663.41 729.93
  C 663.11 734.14 660.15 736.28 655.94 737.56
  Q 650.13 739.32 649.19 739.54
  A 1.09 1.07 -7.3 0 0 648.35 740.61
  L 648.55 752.30
  A 2.31 2.16 37.9 0 0 648.66 752.99
  Q 652.42 764.19 650.37 772.94
  Q 649.50 776.64 645.16 779.93
  Q 629.69 791.67 614.90 798.86
  Q 608.41 802.01 602.56 803.81
  C 594.13 806.41 586.05 801.02 588.59 791.61
  Q 589.74 787.33 592.57 783.83
  Q 604.18 769.46 617.56 755.23
  A 1.76 1.76 0.0 0 0 618.03 754.14
  L 618.69 741.62
  A 0.95 0.95 0.0 0 0 617.90 740.63
  Q 611.73 739.59 605.00 736.60
  A 2.57 2.41 78.8 0 1 604.22 736.04
  Q 601.30 732.91 601.27 729.99
  Q 601.18 717.72 600.79 682.97
  C 600.56 663.03 599.71 641.63 599.40 621.14
  Q 599.20 607.18 598.82 600.18
  Q 597.55 576.70 597.23 547.70
  A 0.92 0.91 74.9 0 0 595.86 546.91
  L 591.49 549.43
  A 2.16 2.15 -14.2 0 0 590.42 551.22
  C 590.01 563.37 590.80 575.47 590.98 587.59
  Q 591.66 633.07 590.93 673.75
  Q 590.56 694.42 590.58 721.71
  Q 590.58 727.08 585.13 729.17
  Q 580.42 730.98 574.40 731.99
  A 1.19 1.18 -4.5 0 0 573.42 733.13
  L 573.24 743.22
  A 1.30 1.24 35.1 0 0 573.35 743.78
  Q 577.28 753.21 575.33 762.90
  Q 574.22 768.37 568.69 770.39
  Q 549.50 777.40 525.52 783.25
  Q 521.48 784.24 514.77 785.24
  C 510.45 785.89 504.91 785.24 502.40 781.53
  C 499.54 777.31 500.64 772.91 503.86 769.59
  Q 507.36 765.98 511.79 762.79
  Q 522.26 755.27 539.74 742.70
  A 2.61 2.61 0.0 0 0 540.83 740.58
  L 540.83 729.90
  A 0.47 0.46 -81.7 0 0 540.50 729.45
  Q 532.80 727.19 530.38 725.03
  C 528.20 723.09 527.76 720.65 527.65 717.43
  C 526.78 692.71 526.49 676.36 525.44 653.88
  Q 523.95 621.90 523.80 589.25
  C 523.74 575.19 522.76 553.96 523.05 539.23
  Q 523.09 536.95 521.33 536.44
  C 519.84 536.00 517.35 535.67 516.46 535.24
  Q 512.41 533.26 512.17 528.33
  Q 511.99 524.68 512.03 504.57
  Q 512.05 494.25 512.54 480.80
  Q 513.42 456.32 514.36 432.50
  Q 515.62 400.73 517.13 381.53
  C 518.96 358.32 519.90 344.58 521.61 327.48
  C 521.76 326.02 522.25 324.65 522.50 323.40
  A 2.43 2.42 41.5 0 0 522.42 322.14
  C 519.68 314.38 518.67 307.70 516.04 296.25
  Q 515.29 293.01 510.96 271.02
  C 509.42 263.20 507.32 255.60 506.72 247.63
  A 0.91 0.91 0.0 0 0 505.54 246.82
  C 500.93 248.27 497.20 250.53 492.61 252.08
  Q 476.80 257.45 466.76 259.17
  Q 452.07 261.68 433.94 260.27
  A 0.71 0.71 0.0 0 0 433.21 260.73
  Q 424.77 283.19 418.21 306.47
  Q 417.34 309.56 414.84 316.27
  A 2.05 2.00 51.5 0 0 414.74 317.24
  C 414.96 318.96 415.38 320.48 415.49 322.36
  Q 417.07 349.02 417.25 353.25
  C 419.60 408.99 419.27 466.77 419.12 526.24
  Q 419.10 531.07 415.26 533.03
  C 413.40 533.97 411.07 533.67 409.19 533.99
  A 0.74 0.73 -3.1 0 0 408.58 534.66
  Q 408.40 537.31 408.39 539.00
  Q 408.36 551.80 408.42 577.16
  Q 408.44 586.95 407.86 615.32
  Q 406.41 686.38 406.73 711.99
  C 406.84 720.75 400.48 722.63 393.60 725.07
  A 1.14 1.14 0.0 0 0 392.85 726.05
  Q 392.34 732.84 393.68 737.96
  A 0.88 0.88 0.0 0 0 394.00 738.43
  Q 404.37 745.62 419.28 757.06
  Q 424.37 760.97 427.81 764.25
  C 434.62 770.75 431.22 781.32 421.24 781.05
  Q 415.24 780.89 406.89 778.81
  Q 388.22 774.16 377.25 769.97
  Q 372.72 768.24 366.77 765.71
  Q 361.25 763.36 360.38 758.23
  Q 358.74 748.62 361.92 739.26
  A 0.92 0.75 57.8 0 0 361.96 738.94
  L 361.58 728.76
  A 0.79 0.78 -84.2 0 0 360.98 728.02
  Q 350.55 725.52 350.08 725.42
  Q 347.37 724.86 346.04 723.00
  Q 345.24 721.89 345.16 718.39
  Q 344.41 685.07 344.13 671.58
  Q 343.71 651.24 343.81 633.42
  Q 343.97 605.13 343.82 595.25
  Q 343.38 566.59 344.14 540.09
  A 0.95 0.95 0.0 0 0 343.19 539.11
  L 339.42 539.11
  A 1.20 1.20 0.0 0 0 338.25 540.57
  C 339.04 544.15 338.40 547.09 338.40 550.99
  Q 338.51 645.73 337.74 682.25
  Q 337.04 715.35 337.39 725.53
  C 337.55 729.90 336.62 732.33 332.86 734.14
  Q 326.73 737.09 319.29 738.03
  A 1.42 1.42 0.0 0 0 318.05 739.47
  C 318.22 746.42 317.94 749.64 319.15 753.32
  A 4.34 4.22 14.0 0 0 320.22 755.05
  Q 333.33 768.01 343.31 779.19
  C 347.68 784.09 351.53 792.48 345.75 797.92
  C 340.39 802.96 331.92 800.70 325.45 797.52
  Q 307.19 788.54 290.49 776.03
  Q 287.15 773.53 286.50 770.28
  C 285.14 763.54 286.47 755.92 288.53 749.73
  A 1.03 0.89 59.2 0 0 288.59 749.39
  L 288.76 738.84
  A 1.27 1.27 0.0 0 0 287.90 737.61
  L 278.34 734.32
  A 3.73 3.72 -12.1 0 1 276.84 733.35
  Q 274.80 731.19 274.54 728.00
  Q 273.18 710.92 272.20 683.78
  Q 271.20 656.46 271.07 654.26
  C 270.41 643.12 270.25 628.60 269.66 614.90
  Q 267.92 574.40 269.23 533.23
  A 3.04 2.98 -66.7 0 0 268.38 531.03
  Q 265.91 528.50 265.97 523.74
  Q 266.09 512.41 266.65 501.05
  Q 266.78 498.32 267.33 496.05
  C 267.83 494.00 267.23 491.93 267.29 489.32
  Q 267.54 478.26 269.49 452.50
  Q 275.03 379.18 284.84 316.78
  Q 285.24 314.22 286.38 308.70
  Q 287.37 303.95 288.90 301.58
  A 2.58 2.57 60.0 0 0 289.30 300.07
  C 289.23 298.48 289.05 295.82 289.28 293.59
  C 290.89 277.89 291.75 266.98 293.66 256.21
  Q 294.39 252.09 294.53 247.64
  A 0.58 0.58 0.0 0 0 293.52 247.23
  Q 283.75 257.71 271.88 267.38
  Q 263.52 274.20 260.16 276.69
  C 256.52 279.40 252.60 281.79 249.53 283.78
  Q 229.28 296.91 203.51 300.28
  Q 194.83 301.42 189.27 301.52
  C 175.37 301.77 164.52 301.63 151.49 299.79
  Q 148.35 299.34 133.71 297.45
  C 129.58 296.92 126.49 295.47 125.52 291.56
  A 0.78 0.78 0.0 0 0 124.58 290.99
  C 118.62 292.42 114.79 293.60 109.38 294.30
  C 101.78 295.29 75.46 297.35 71.88 287.60
  Q 71.41 286.31 70.15 285.78
  Q 64.36 283.32 64.33 278.95
  A 2.30 2.27 25.8 0 0 63.84 277.57
  C 61.53 274.67 60.07 271.73 62.50 268.24
  Q 63.68 266.55 63.69 266.52
  A 1.62 1.55 -31.5 0 0 63.93 265.62
  C 63.69 259.75 67.71 258.57 72.51 257.74
  Q 83.08 255.93 95.78 254.80
  A 0.53 0.53 0.0 0 0 96.14 253.94
  Q 93.64 250.92 90.51 245.94
  Q 87.23 240.70 90.23 235.80
  C 93.53 230.42 99.59 235.76 103.14 238.95
  Q 106.28 241.79 126.41 255.60
  C 128.88 257.29 129.44 256.29 131.74 255.92
  C 133.78 255.59 136.44 256.05 139.05 256.12
  Q 157.86 256.56 173.74 255.53
  C 188.90 254.55 204.17 250.20 217.85 242.20
  C 231.68 234.11 244.14 223.35 255.80 212.30
  Q 269.61 199.21 291.48 177.22
  Q 295.51 173.17 301.35 167.74
  A 1.43 1.42 -31.2 0 0 301.73 166.22
  C 296.42 151.21 308.91 140.59 322.16 136.82
  Q 327.39 135.33 332.98 135.86
  Q 341.06 136.63 346.71 139.63
  A 0.82 0.81 31.6 0 0 347.75 139.39
  Q 352.12 133.44 360.34 133.61
  A 1.02 1.01 10.6 0 0 361.31 132.95
  Q 367.94 114.85 371.57 96.36
  A 0.82 0.81 -62.3 0 0 371.34 95.61
  Q 364.95 89.28 365.26 81.01
  C 365.53 73.41 368.10 66.71 375.68 63.81
  A 1.26 1.21 1.3 0 0 376.37 63.18
  C 378.18 59.38 379.57 54.66 381.90 47.10
  Q 383.89 40.65 386.06 38.01
  C 390.62 32.48 395.11 31.23 402.66 30.68
  C 418.89 29.49 434.33 36.29 447.56 45.21
  Q 448.48 45.84 449.39 46.92
  Q 449.84 47.46 449.51 47.93
  A 1.49 1.20 21.8 0 0 450.60 49.87
  Q 451.12 50.00 453.03 50.13
  A 3.29 3.25 -28.0 0 1 454.43 50.55
  C 458.76 53.01 461.72 57.08 460.39 62.26
  C 458.76 68.57 452.91 71.98 446.63 72.93
  A 0.64 0.64 0.0 0 0 446.10 73.40
  Q 445.32 76.25 444.23 77.91
  Q 443.85 78.49 443.36 78.59
  Q 443.00 78.66 442.84 78.78
  A 0.98 0.96 -24.0 0 0 442.49 79.67
  Q 443.40 86.28 442.58 90.31
  C 439.01 107.74 425.41 139.56 404.41 141.34
  A 0.92 0.90 1.9 0 0 403.58 142.10
  L 402.72 147.25
  A 1.06 1.05 19.0 0 0 403.27 148.36
  Q 407.06 150.35 409.31 154.49
  A 1.25 1.23 -11.8 0 0 410.31 155.13
  C 417.76 155.66 429.28 157.62 438.95 158.25
  Q 467.58 160.11 496.01 159.55
  C 499.02 159.49 502.55 159.01 505.34 158.97
  Q 516.33 158.84 530.67 157.78
  A 1.48 1.47 -75.8 0 0 531.82 157.09
  Q 534.54 152.74 537.26 151.95
  A 1.08 1.07 79.4 0 0 538.02 150.83
  L 537.43 143.71
  A 1.15 1.13 3.4 0 0 536.51 142.69
  Q 528.27 141.08 523.08 134.75
  C 514.48 124.26 510.52 111.88 508.06 98.24
  Q 506.61 90.20 508.45 84.74
  A 1.71 1.70 -48.3 0 0 508.38 83.47
  Q 506.65 79.82 506.65 78.24
  A 0.86 0.85 2.1 0 0 505.84 77.38
  C 498.06 76.90 493.09 67.04 494.45 60.21
  C 496.19 51.55 501.34 48.86 509.61 45.53
  Q 523.13 40.07 538.51 39.85
  Q 539.86 39.83 545.51 41.47
  A 2.50 2.42 49.0 0 0 546.44 41.55
  C 555.05 40.70 562.45 43.92 565.49 52.37
  A 4.32 4.22 33.0 0 1 565.74 53.48
  L 566.40 60.31
  A 1.04 0.55 -73.2 0 0 566.43 60.46
  L 569.54 71.76
  A 0.44 0.42 88.3 0 0 569.84 72.06
  Q 577.90 74.10 579.85 82.06
  C 581.77 89.91 580.54 96.88 574.74 103.46
  Q 574.24 104.02 573.26 104.43
  Q 572.53 104.74 572.22 105.05
  A 1.21 1.18 65.4 0 0 571.88 106.00
  Q 572.40 112.88 573.78 121.60
  C 574.62 126.94 576.81 131.95 577.84 137.55
  A 1.07 1.07 0.0 0 0 578.97 138.43
  Q 585.59 138.00 588.92 143.00
  A 1.58 1.57 -21.3 0 0 590.48 143.68
  Q 594.80 142.98 598.75 142.23
  C 610.35 140.04 629.17 145.03 631.45 158.70
  Q 632.35 164.10 630.96 168.40
  A 1.22 1.21 28.8 0 0 631.35 169.72
  C 638.49 175.50 644.53 182.03 651.01 188.39
  Q 666.87 203.97 673.43 210.31
  Q 696.20 232.33 718.69 247.51
  Q 727.01 253.12 738.78 258.99
  Q 748.97 264.06 760.33 267.21
  Q 775.29 271.35 788.50 272.69
  Q 789.86 272.82 792.46 274.07
  A 1.66 1.66 0.0 0 0 793.94 274.03
  C 799.88 270.86 805.22 268.33 810.48 264.98
  Q 820.59 258.53 822.64 257.41
  C 825.31 255.95 828.53 255.64 830.51 258.30
  C 835.15 264.53 827.54 271.76 823.39 276.45
  A 0.60 0.60 0.0 0 0 823.73 277.44
  Q 837.27 279.86 850.56 283.85
  Q 856.52 285.64 856.51 292.22
  A 2.14 2.08 -61.0 0 0 856.82 293.36
  Q 860.06 298.83 854.78 303.40
  A 1.35 1.33 -12.8 0 0 854.35 304.07
  C 853.23 308.06 852.14 310.47 847.30 310.84
  A 1.27 1.27 0.0 0 0 846.18 311.72
  C 844.34 317.41 838.37 317.28 832.50 317.81
  Q 829.05 318.12 825.01 317.75
  Q 807.75 316.19 791.64 309.07
  A 0.94 0.93 -50.6 0 0 790.73 309.16
  Q 786.62 312.05 782.24 311.60
  Q 771.26 310.48 771.09 310.46
  Q 763.88 309.84 759.99 309.06
  Q 733.89 303.88 717.20 297.54
  C 700.32 291.13 684.89 282.64 670.57 272.35
  Q 665.13 268.44 664.33 267.79
  C 659.13 263.56 654.17 260.28 649.73 256.06
  Q 648.80 255.18 641.24 248.73
  Z
  M 375.11 74.22
  C 372.47 76.12 372.99 81.01 373.47 84.52
  Q 373.73 86.44 375.84 89.52
  A 0.90 0.87 -8.2 0 0 376.34 89.88
  L 378.64 90.51
  A 1.15 1.13 -11.1 0 1 379.23 90.90
  Q 380.83 92.94 380.55 94.76
  Q 377.34 115.51 368.05 139.71
  C 367.23 141.84 365.88 143.37 365.25 144.66
  A 1.17 1.16 -49.1 0 0 365.33 145.83
  L 371.53 155.10
  A 1.61 1.53 2.3 0 0 371.93 155.51
  L 376.82 158.81
  A 2.02 2.00 17.2 0 1 377.70 160.47
  L 377.70 167.20
  A 0.66 0.66 0.0 0 0 378.96 167.49
  L 381.38 162.58
  A 3.68 3.66 1.1 0 1 383.20 160.84
  L 392.62 156.69
  A 2.08 2.06 -14.9 0 0 393.85 154.59
  L 393.55 151.46
  A 0.89 0.64 -49.7 0 1 393.57 151.21
  L 396.17 141.04
  A 0.83 0.83 0.0 0 0 395.64 140.06
  Q 388.99 137.75 385.76 130.84
  A 2.20 2.19 58.0 0 1 386.37 128.20
  C 387.95 126.93 390.04 126.85 391.59 128.74
  C 395.93 134.03 404.88 134.19 410.25 130.23
  C 416.08 125.93 420.91 120.26 424.53 113.43
  Q 429.19 104.67 433.18 93.72
  Q 434.25 90.79 434.41 89.14
  A 1.00 0.99 16.3 0 0 433.85 88.13
  L 425.59 84.06
  A 0.51 0.49 83.2 0 1 425.42 83.92
  Q 424.36 82.63 425.15 80.96
  A 1.41 1.41 0.0 0 1 425.86 80.25
  C 429.81 78.43 432.16 80.07 435.88 82.26
  A 0.54 0.52 -64.9 0 0 436.65 81.97
  L 438.28 77.22
  A 0.36 0.36 0.0 0 0 438.28 76.96
  Q 437.21 74.23 439.03 70.74
  A 0.85 0.85 0.0 0 0 438.95 69.83
  Q 438.46 69.21 436.76 67.74
  Q 431.06 62.83 423.12 58.15
  Q 417.72 54.97 411.70 54.27
  C 408.15 53.85 400.90 53.23 399.46 57.86
  Q 397.77 63.31 394.31 69.81
  C 391.97 74.20 388.17 78.75 382.70 77.65
  A 0.64 0.63 3.9 0 0 381.94 78.31
  Q 382.04 80.20 380.78 83.34
  A 1.60 1.59 13.4 0 1 379.15 84.34
  C 374.81 83.96 375.71 78.14 375.92 74.66
  A 0.51 0.51 0.0 0 0 375.11 74.22
  Z
  M 569.68 82.42
  C 569.55 85.59 569.43 90.28 565.80 91.06
  A 1.43 1.43 0.0 0 1 564.07 89.66
  L 564.07 86.46
  A 0.69 0.69 0.0 0 0 563.39 85.77
  C 555.55 85.75 552.38 71.62 550.92 66.42
  A 1.63 1.60 10.7 0 0 550.32 65.56
  Q 547.76 63.67 545.23 63.96
  C 541.24 64.41 535.79 65.65 531.90 67.38
  Q 528.65 68.82 523.42 70.65
  Q 522.33 71.03 515.63 74.56
  A 1.78 1.78 0.0 0 0 514.67 76.14
  L 514.67 81.33
  A 1.18 1.18 0.0 0 1 513.97 82.41
  L 513.63 82.56
  A 0.69 0.69 0.0 0 0 513.28 83.47
  L 515.01 87.41
  A 0.26 0.26 0.0 0 0 515.41 87.51
  C 517.68 85.69 523.54 83.33 525.21 87.02
  A 1.85 1.85 0.0 0 1 524.27 89.47
  L 516.26 93.00
  A 1.09 1.09 0.0 0 0 515.63 94.21
  Q 517.74 104.35 521.79 115.15
  Q 524.09 121.26 526.34 124.41
  C 531.58 131.72 538.41 137.37 547.78 132.51
  C 549.82 131.45 552.62 128.21 555.03 130.67
  C 556.55 132.22 554.99 134.46 553.52 136.23
  Q 550.02 140.41 545.58 141.42
  A 0.89 0.89 0.0 0 0 544.90 142.44
  L 546.75 153.64
  A 10.16 9.90 -48.5 0 1 546.86 155.96
  L 546.72 158.22
  A 1.20 1.18 -78.9 0 0 547.52 159.43
  L 555.80 162.28
  A 1.49 1.46 87.3 0 1 556.65 163.07
  L 559.16 168.77
  A 0.52 0.52 0.0 0 0 560.15 168.67
  L 561.33 163.30
  A 4.97 4.94 -11.1 0 1 563.37 160.28
  Q 569.49 156.12 573.68 149.43
  A 1.09 1.08 45.7 0 0 573.69 148.30
  Q 572.39 146.07 571.59 143.97
  Q 568.30 135.28 565.54 120.75
  Q 564.24 113.92 564.38 111.01
  Q 564.52 108.01 564.19 104.48
  C 563.90 101.41 564.65 97.91 568.30 98.38
  A 1.15 1.14 23.6 0 0 569.32 97.99
  Q 572.93 93.72 572.23 87.67
  C 571.97 85.33 571.80 83.53 570.36 82.14
  A 0.41 0.40 -67.0 0 0 569.68 82.42
  Z
  M 311.04 166.82
  L 310.11 158.94
  A 1.35 1.35 0.0 0 1 310.11 158.54
  Q 310.42 156.56 312.23 156.27
  A 2.15 1.92 77.0 0 1 314.44 157.83
  Q 315.62 161.90 317.50 165.24
  A 0.64 0.63 -63.1 0 0 318.68 164.85
  Q 317.71 156.59 317.62 155.15
  Q 317.52 153.72 318.58 152.93
  C 320.38 151.60 321.32 152.95 321.86 154.65
  Q 324.02 161.41 324.72 162.79
  Q 324.96 163.27 325.09 163.30
  A 0.93 0.93 0.0 0 0 326.22 162.27
  L 324.92 152.41
  A 2.56 2.55 80.2 0 1 326.92 149.56
  L 327.06 149.53
  A 2.27 2.26 74.6 0 1 329.79 151.09
  L 332.18 159.15
  A 0.42 0.42 0.0 0 0 332.96 159.22
  Q 333.14 158.85 333.11 158.50
  C 332.67 154.07 330.78 146.59 336.36 145.90
  A 1.24 1.20 53.7 0 1 337.07 146.02
  L 338.63 146.79
  A 1.26 1.22 49.4 0 0 339.49 146.87
  L 342.47 146.05
  A 0.58 0.57 -44.7 0 0 342.48 144.94
  Q 337.10 143.39 331.49 143.40
  C 324.88 143.41 318.10 147.00 312.75 150.92
  C 306.67 155.37 307.86 161.57 310.62 166.95
  A 0.22 0.22 0.0 0 0 311.04 166.82
  Z
  M 598.49 149.79
  Q 601.57 151.80 600.76 155.74
  Q 599.95 159.70 600.06 163.43
  A 0.42 0.42 0.0 0 0 600.87 163.55
  Q 602.06 160.19 603.27 156.03
  A 2.55 2.54 -81.5 0 1 605.75 154.19
  Q 607.99 154.22 607.91 156.78
  Q 607.79 161.33 606.82 165.88
  A 0.72 0.72 0.0 0 0 608.17 166.35
  Q 609.12 164.41 611.26 158.76
  Q 611.83 157.23 613.02 156.97
  A 1.84 1.70 85.3 0 1 615.07 158.86
  Q 614.90 164.59 614.32 168.12
  A 0.45 0.45 0.0 0 0 614.83 168.64
  Q 615.35 168.57 615.54 168.09
  C 617.30 163.83 618.54 159.59 620.38 159.42
  A 1.98 1.77 85.2 0 1 622.32 161.25
  Q 622.61 164.90 621.52 168.71
  A 0.34 0.34 0.0 0 0 622.13 168.98
  C 624.82 164.76 625.27 158.45 621.13 154.92
  Q 618.13 152.36 616.49 151.76
  C 610.25 149.49 605.17 147.34 598.59 149.17
  A 0.35 0.34 -36.3 0 0 598.49 149.79
  Z
  M 595.56 149.38
  Q 593.12 149.57 593.09 149.58
  A 0.81 0.81 0.0 0 0 593.50 151.12
  Q 595.40 150.95 595.94 149.96
  A 0.40 0.39 12.0 0 0 595.56 149.38
  Z
  M 371.40 169.78
  A 0.30 0.30 0.0 0 0 370.89 169.60
  C 367.97 172.68 357.40 181.45 353.31 175.71
  Q 346.14 165.66 343.62 156.45
  A 1.60 1.59 35.4 0 0 340.49 156.98
  C 340.84 162.02 338.64 167.78 332.36 166.97
  A 1.07 1.06 -72.9 0 0 331.27 167.55
  Q 329.48 171.11 325.07 170.38
  A 1.41 1.39 24.9 0 0 323.78 170.84
  Q 320.65 174.47 317.13 173.00
  A 0.92 0.91 30.9 0 0 316.07 173.26
  Q 314.09 175.67 309.21 174.56
  A 1.90 1.90 0.0 0 0 307.45 175.07
  Q 285.49 197.30 266.64 215.64
  Q 250.97 230.88 240.08 239.32
  Q 231.19 246.21 227.81 248.31
  Q 209.85 259.49 191.31 263.07
  Q 175.16 266.19 153.74 266.47
  A 0.95 0.94 -75.6 0 0 152.91 266.97
  Q 151.77 269.11 151.84 270.44
  Q 152.40 282.22 152.48 289.57
  A 0.78 0.77 6.3 0 0 153.08 290.31
  Q 155.97 290.96 162.53 291.12
  Q 165.65 291.20 179.68 291.52
  Q 190.98 291.79 196.81 291.10
  C 212.17 289.27 226.58 285.51 238.78 278.24
  C 244.17 275.03 250.84 270.89 256.69 266.42
  Q 276.14 251.58 292.55 234.05
  C 294.88 231.55 295.87 230.12 298.40 226.90
  C 299.99 224.86 300.04 221.66 302.67 219.79
  C 304.54 218.46 306.93 219.71 306.83 221.82
  Q 306.53 228.58 305.28 236.85
  C 302.77 253.39 301.46 267.93 299.07 290.76
  Q 298.55 295.75 298.68 298.02
  A 0.77 0.75 -81.8 0 0 299.17 298.69
  Q 323.41 307.52 350.22 311.73
  A 1.23 1.22 -86.9 0 0 351.63 310.46
  L 351.47 307.05
  A 4.44 3.73 -47.1 0 1 351.51 306.24
  C 352.32 299.76 352.68 294.45 353.83 288.05
  C 356.59 272.61 360.16 249.05 364.19 229.41
  Q 366.04 220.37 368.11 208.94
  Q 369.01 203.98 369.57 202.11
  C 371.09 197.05 371.32 192.15 372.75 186.78
  Q 373.70 183.18 374.54 178.25
  A 0.80 0.80 0.0 0 0 374.20 177.45
  Q 372.46 176.26 371.84 174.53
  A 1.33 1.09 39.2 0 1 371.77 174.19
  L 371.40 169.78
  Z
  M 592.48 160.38
  Q 589.86 167.87 586.60 173.58
  C 583.18 179.58 579.39 183.24 572.97 178.42
  Q 569.68 175.95 567.80 174.30
  A 0.57 0.57 0.0 0 0 566.93 174.44
  Q 565.72 176.46 565.99 179.93
  Q 566.15 181.94 567.50 190.69
  C 568.89 199.65 569.97 208.33 571.11 214.67
  C 573.08 225.56 573.71 235.05 575.81 245.70
  C 576.79 250.67 576.77 255.24 577.66 260.29
  Q 578.54 265.29 579.26 270.72
  Q 581.87 290.41 584.62 307.74
  Q 584.80 308.87 584.88 314.34
  A 1.43 1.43 0.0 0 0 585.19 315.23
  C 586.38 316.77 587.61 316.14 589.18 315.93
  Q 612.47 312.83 635.56 307.05
  A 0.73 0.72 81.8 0 0 636.11 306.31
  Q 634.72 282.15 631.98 257.32
  C 631.40 252.06 631.22 245.64 631.00 239.57
  A 2.97 2.80 35.2 0 0 630.82 238.69
  L 628.64 232.98
  A 1.68 1.65 39.1 0 1 628.55 232.16
  Q 629.12 228.26 633.05 228.84
  Q 634.86 229.11 635.34 231.12
  A 1.69 1.68 -82.0 0 0 636.14 232.19
  C 637.37 232.91 638.54 233.52 639.58 234.40
  Q 647.84 241.37 652.10 245.25
  Q 656.43 249.20 658.59 250.85
  C 664.80 255.59 669.85 260.20 675.46 263.71
  C 680.31 266.75 684.55 270.24 690.08 273.43
  Q 697.92 277.96 698.79 278.43
  Q 711.53 285.37 727.08 290.87
  Q 730.65 292.13 745.75 296.30
  C 752.71 298.22 758.07 298.75 767.49 300.33
  A 0.62 0.62 0.0 0 0 768.20 299.82
  L 771.43 280.49
  A 0.67 0.66 11.8 0 0 770.93 279.74
  Q 763.42 277.96 752.27 274.97
  Q 750.11 274.39 737.49 269.13
  Q 729.67 265.86 723.19 262.08
  Q 704.34 251.06 687.50 236.46
  Q 686.02 235.18 680.01 229.78
  C 674.26 224.61 670.42 220.45 666.06 216.72
  C 661.34 212.69 657.62 208.29 653.83 204.83
  Q 649.78 201.12 645.32 196.50
  Q 635.79 186.63 625.43 177.44
  A 1.55 1.54 56.3 0 0 623.89 177.13
  Q 620.62 178.25 617.58 176.42
  A 1.96 1.96 0.0 0 0 616.09 176.20
  Q 612.54 177.08 610.13 174.73
  A 1.73 1.73 0.0 0 0 608.69 174.27
  Q 604.44 174.86 602.66 171.72
  A 1.44 1.43 70.2 0 0 601.17 171.01
  C 596.10 171.89 592.77 168.89 593.02 163.96
  Q 593.17 160.93 592.97 160.38
  A 0.26 0.26 0.0 0 0 592.48 160.38
  Z
  M 358.01 166.41
  L 359.47 168.86
  A 0.28 0.28 0.0 0 0 359.86 168.96
  L 362.87 167.16
  A 1.99 1.57 -30.9 0 0 363.77 164.79
  L 363.63 164.55
  A 1.99 1.57 -30.9 0 0 361.11 164.22
  L 358.10 166.02
  A 0.28 0.28 0.0 0 0 358.01 166.41
  Z
  M 514.06 168.41
  C 505.64 168.66 498.53 169.70 490.91 169.35
  Q 489.88 169.30 480.75 169.53
  C 461.11 170.02 434.36 167.55 411.12 164.87
  A 0.57 0.56 -78.2 0 0 410.52 165.27
  C 408.29 172.51 403.84 177.09 397.41 183.09
  Q 393.28 186.95 388.80 183.99
  A 2.02 2.01 -88.1 0 1 388.15 183.29
  L 384.10 176.28
  A 0.44 0.44 0.0 0 0 383.41 176.18
  Q 381.87 177.63 381.78 178.25
  Q 379.66 193.40 377.03 205.79
  C 375.32 213.86 374.71 219.92 372.85 229.03
  Q 372.71 229.72 368.60 254.65
  C 367.25 262.89 365.76 268.90 364.92 275.08
  C 363.48 285.69 360.34 298.86 359.20 307.97
  Q 359.07 309.03 358.19 310.88
  A 1.51 1.51 0.0 0 0 359.20 312.99
  Q 364.26 314.22 369.25 314.44
  Q 388.32 315.32 405.17 313.49
  A 0.86 0.84 -84.7 0 0 405.89 312.88
  Q 413.34 287.00 422.96 260.69
  C 426.39 251.33 430.92 240.40 436.79 228.27
  C 440.71 220.15 444.84 214.97 452.31 211.07
  Q 461.30 206.39 466.37 204.52
  A 10.03 9.94 17.2 0 0 468.67 203.32
  Q 481.66 194.19 483.71 192.37
  Q 489.32 187.38 494.00 183.90
  C 497.40 181.38 500.50 178.12 504.30 175.56
  Q 510.92 171.10 514.25 169.01
  A 0.33 0.32 28.0 0 0 514.06 168.41
  Z
  M 578.4126 170.6829
  A 0.97 0.97 0.0 0 0 578.3384 169.3131
  L 575.4654 166.7353
  A 0.97 0.97 0.0 0 0 574.0956 166.8095
  L 573.2274 167.7771
  A 0.97 0.97 0.0 0 0 573.3016 169.1469
  L 576.1746 171.7247
  A 0.97 0.97 0.0 0 0 577.5444 171.6505
  L 578.4126 170.6829
  Z
  M 390.37 172.80
  L 392.16 175.76
  A 0.62 0.62 0.0 0 0 393.01 175.97
  L 393.32 175.78
  A 2.37 1.16 -31.1 0 0 394.75 173.56
  L 393.52 171.52
  A 2.37 1.16 -31.1 0 0 390.90 171.75
  L 390.58 171.95
  A 0.62 0.62 0.0 0 0 390.37 172.80
  Z
  M 553.12 176.05
  Q 551.63 177.68 546.85 183.08
  C 544.66 185.55 540.15 187.10 537.86 184.33
  Q 533.37 178.91 530.87 171.57
  A 0.69 0.69 0.0 0 0 529.92 171.17
  C 517.77 176.94 507.44 184.96 497.22 193.70
  Q 490.22 199.68 478.56 208.02
  Q 467.94 215.61 452.97 221.93
  A 3.55 3.47 10.7 0 0 451.89 222.65
  Q 448.76 225.76 447.90 227.42
  C 443.80 235.42 439.86 242.62 437.43 250.32
  A 0.59 0.58 11.5 0 0 437.94 251.08
  C 441.57 251.45 444.37 251.85 448.03 251.61
  Q 477.08 249.68 503.64 236.83
  A 0.86 0.86 0.0 0 0 504.12 236.04
  Q 504.04 231.44 506.88 227.22
  A 2.34 2.18 -63.0 0 1 509.46 226.28
  C 510.90 226.78 511.81 228.74 511.84 230.59
  C 511.92 234.53 513.79 238.95 514.45 242.78
  Q 516.05 252.11 520.43 271.61
  C 523.29 284.30 526.07 298.20 529.93 311.93
  A 4.32 4.32 0.0 0 1 530.06 312.58
  Q 530.26 314.24 530.68 315.89
  A 1.00 0.99 1.1 0 0 531.36 316.59
  Q 534.55 317.51 538.70 317.78
  C 551.49 318.62 563.71 319.66 575.83 317.81
  A 1.55 1.55 0.0 0 0 577.12 315.99
  Q 576.66 313.49 574.10 298.61
  C 573.27 293.80 573.11 289.15 572.19 284.14
  Q 571.23 278.90 570.51 273.32
  C 568.75 259.61 567.12 250.41 565.61 237.52
  Q 564.83 230.84 563.47 222.04
  C 561.96 212.30 561.57 204.44 559.97 195.35
  Q 558.83 188.87 558.32 179.52
  A 0.97 0.97 0.0 0 0 557.69 178.67
  Q 555.54 177.89 554.15 176.09
  A 0.68 0.67 -42.7 0 0 553.12 176.05
  Z
  M 542.50 176.11
  Q 542.54 176.11 542.58 176.09
  Q 545.20 175.01 544.44 173.50
  Q 543.52 171.66 542.41 171.68
  Q 541.29 171.70 540.45 173.58
  Q 539.76 175.12 542.42 176.10
  Q 542.46 176.11 542.50 176.11
  Z
  M 81.65 285.19
  Q 83.87 285.99 86.78 286.21
  C 94.24 286.75 102.97 287.11 111.46 284.88
  C 116.08 283.66 120.12 283.22 123.92 281.99
  A 1.46 1.45 -7.6 0 0 124.93 280.68
  L 125.74 265.49
  A 0.86 0.85 -75.2 0 0 125.27 264.68
  Q 122.59 263.36 119.55 261.20
  Q 118.95 260.77 106.51 251.23
  Q 101.14 247.11 97.38 243.35
  A 0.32 0.32 0.0 0 0 96.84 243.67
  C 97.93 247.47 101.31 250.98 103.93 253.78
  A 2.60 2.57 25.2 0 1 104.63 255.69
  L 104.46 258.82
  A 2.10 2.10 0.0 0 1 102.96 260.72
  Q 97.72 262.28 91.59 262.70
  C 83.89 263.23 78.65 264.16 72.33 265.11
  A 0.25 0.25 0.0 0 0 72.34 265.60
  L 88.77 267.27
  A 0.76 0.75 -74.1 0 1 89.37 268.35
  Q 89.10 268.92 88.61 269.07
  Q 80.44 271.60 70.57 271.01
  A 0.81 0.80 4.1 0 0 69.72 271.74
  L 69.68 272.12
  A 0.78 0.77 -86.6 0 0 70.44 272.98
  L 81.43 273.18
  A 3.29 3.21 53.9 0 1 82.37 273.34
  Q 85.82 274.42 89.84 274.29
  A 1.13 1.12 85.3 0 1 91.00 275.28
  L 91.00 275.34
  A 1.03 1.02 86.3 0 1 90.10 276.37
  L 73.85 278.30
  A 0.33 0.33 0.0 0 0 73.71 278.91
  C 74.64 279.51 76.12 279.91 77.18 279.91
  Q 87.00 279.92 92.24 280.10
  A 1.81 1.80 88.6 0 1 93.97 281.75
  L 93.97 281.81
  A 1.69 1.68 84.8 0 1 92.49 283.59
  L 81.69 284.86
  A 0.17 0.17 0.0 0 0 81.65 285.19
  Z
  M 846.02 290.72
  Q 839.20 288.13 830.33 286.29
  C 826.63 285.52 821.56 283.97 817.16 282.80
  A 2.52 2.52 0.0 0 1 815.31 280.11
  L 815.61 277.18
  A 4.06 4.06 0.0 0 1 816.95 274.56
  Q 821.55 270.49 823.67 265.68
  A 0.23 0.23 0.0 0 0 823.34 265.40
  Q 820.40 267.31 815.86 270.35
  Q 804.69 277.83 795.05 282.37
  A 1.28 1.26 -10.1 0 0 794.33 283.39
  L 792.78 298.55
  A 1.79 1.77 -76.5 0 0 793.89 300.38
  Q 799.50 302.61 802.70 304.00
  Q 806.11 305.47 811.72 306.66
  Q 822.60 308.98 825.51 309.48
  Q 831.86 310.59 835.77 310.32
  Q 836.62 310.26 837.14 309.85
  A 0.50 0.50 0.0 0 0 836.96 308.97
  L 824.09 305.43
  A 1.78 1.77 6.9 0 1 822.79 303.78
  L 822.79 303.72
  A 1.28 1.28 0.0 0 1 824.22 302.49
  Q 831.60 303.36 841.24 304.82
  Q 842.27 304.98 845.62 303.39
  A 0.17 0.16 -51.3 0 0 845.59 303.08
  L 826.78 298.96
  A 1.09 1.09 0.0 0 1 826.26 297.11
  Q 827.02 296.39 827.73 296.45
  Q 845.71 298.11 847.95 298.12
  A 2.13 2.07 26.8 0 0 849.16 297.74
  L 849.31 297.63
  A 0.40 0.40 0.0 0 0 849.19 296.91
  C 842.99 295.22 836.51 294.84 830.25 292.53
  Q 828.85 292.01 829.30 290.97
  A 1.12 1.12 0.0 0 1 830.40 290.29
  L 845.93 291.11
  A 0.20 0.20 0.0 0 0 846.02 290.72
  Z
  M 144.45 266.55
  A 0.66 0.66 0.0 0 0 143.83 265.95
  L 135.26 265.49
  A 0.69 0.67 10.1 0 0 134.58 265.95
  Q 133.61 268.77 133.63 270.03
  Q 133.85 283.92 133.67 287.29
  A 0.96 0.95 5.5 0 0 134.50 288.29
  L 142.79 289.39
  A 0.92 0.92 0.0 0 0 143.83 288.40
  Q 143.35 282.65 143.44 276.22
  C 143.48 273.07 144.70 269.57 144.45 266.55
  Z
  M 779.74 281.34
  A 0.56 0.56 0.0 0 0 779.11 281.83
  L 776.53 301.19
  A 0.56 0.56 0.0 0 0 777.02 301.82
  L 783.27 302.66
  A 0.56 0.56 0.0 0 0 783.90 302.17
  L 786.48 282.81
  A 0.56 0.56 0.0 0 0 785.99 282.18
  L 779.74 281.34
  Z
  M 370.59 728.94
  L 370.59 740.17
  A 1.18 1.16 -71.1 0 0 371.03 741.09
  Q 376.68 745.61 383.66 746.74
  A 1.54 1.53 -58.5 0 0 384.84 746.45
  Q 386.14 745.47 386.43 743.60
  A 1.43 1.42 34.2 0 0 386.25 742.68
  C 383.83 738.50 384.30 732.40 384.17 728.69
  A 0.59 0.59 0.0 0 0 383.58 728.12
  L 371.40 728.12
  A 0.82 0.81 -90.0 0 0 370.59 728.94
  Z
  M 564.10 732.83
  Q 557.76 733.10 550.66 731.81
  A 0.69 0.69 0.0 0 0 549.85 732.45
  Q 549.61 736.19 549.41 743.36
  Q 549.37 744.76 547.30 747.53
  A 1.35 1.34 56.3 0 0 547.07 748.71
  L 547.74 751.14
  A 1.02 1.01 -5.6 0 0 548.65 751.88
  Q 551.88 752.12 552.95 751.73
  Q 558.68 749.64 564.18 746.50
  A 1.48 1.46 75.4 0 0 564.92 745.22
  L 564.92 733.63
  A 0.80 0.79 89.0 0 0 564.10 732.83
  Z
  M 308.84 740.12
  L 298.32 739.56
  A 0.73 0.73 0.0 0 0 297.55 740.25
  L 296.92 752.05
  A 2.24 2.22 -70.3 0 0 297.81 753.95
  C 300.94 756.27 304.89 759.35 308.70 760.14
  A 1.01 1.00 29.6 0 0 309.59 759.90
  Q 310.78 758.83 311.13 757.84
  A 1.30 1.28 -49.8 0 0 311.05 756.82
  C 308.87 752.59 309.62 746.43 309.61 740.93
  A 0.81 0.81 0.0 0 0 308.84 740.12
  Z
  M 639.03 742.08
  L 627.23 741.45
  A 0.63 0.63 0.0 0 0 626.58 742.14
  C 627.16 747.88 627.79 753.49 625.34 758.48
  A 1.84 1.78 55.7 0 0 625.17 759.48
  Q 625.51 762.45 628.18 763.16
  A 1.82 1.79 -55.2 0 0 629.68 762.88
  L 639.27 756.04
  A 1.01 1.00 -17.6 0 0 639.70 755.22
  L 639.70 742.79
  A 0.71 0.71 0.0 0 0 639.03 742.08
  Z"
/>
<path fill="none" d="
  M 375.11 74.22
  A 0.51 0.51 0.0 0 1 375.92 74.66
  C 375.71 78.14 374.81 83.96 379.15 84.34
  A 1.60 1.59 13.4 0 0 380.78 83.34
  Q 382.04 80.20 381.94 78.31
  A 0.64 0.63 3.9 0 1 382.70 77.65
  C 388.17 78.75 391.97 74.20 394.31 69.81
  Q 397.77 63.31 399.46 57.86
  C 400.90 53.23 408.15 53.85 411.70 54.27
  Q 417.72 54.97 423.12 58.15
  Q 431.06 62.83 436.76 67.74
  Q 438.46 69.21 438.95 69.83
  A 0.85 0.85 0.0 0 1 439.03 70.74
  Q 437.21 74.23 438.28 76.96
  A 0.36 0.36 0.0 0 1 438.28 77.22
  L 436.65 81.97
  A 0.54 0.52 -64.9 0 1 435.88 82.26
  C 432.16 80.07 429.81 78.43 425.86 80.25
  A 1.41 1.41 0.0 0 0 425.15 80.96
  Q 424.36 82.63 425.42 83.92
  A 0.51 0.49 83.2 0 0 425.59 84.06
  L 433.85 88.13
  A 1.00 0.99 16.3 0 1 434.41 89.14
  Q 434.25 90.79 433.18 93.72
  Q 429.19 104.67 424.53 113.43
  C 420.91 120.26 416.08 125.93 410.25 130.23
  C 404.88 134.19 395.93 134.03 391.59 128.74
  C 390.04 126.85 387.95 126.93 386.37 128.20
  A 2.20 2.19 58.0 0 0 385.76 130.84
  Q 388.99 137.75 395.64 140.06
  A 0.83 0.83 0.0 0 1 396.17 141.04
  L 393.57 151.21
  A 0.89 0.64 -49.7 0 0 393.55 151.46
  L 393.85 154.59
  A 2.08 2.06 -14.9 0 1 392.62 156.69
  L 383.20 160.84
  A 3.68 3.66 1.1 0 0 381.38 162.58
  L 378.96 167.49
  A 0.66 0.66 0.0 0 1 377.70 167.20
  L 377.70 160.47
  A 2.02 2.00 17.2 0 0 376.82 158.81
  L 371.93 155.51
  A 1.61 1.53 2.3 0 1 371.53 155.10
  L 365.33 145.83
  A 1.17 1.16 -49.1 0 1 365.25 144.66
  C 365.88 143.37 367.23 141.84 368.05 139.71
  Q 377.34 115.51 380.55 94.76
  Q 380.83 92.94 379.23 90.90
  A 1.15 1.13 -11.1 0 0 378.64 90.51
  L 376.34 89.88
  A 0.90 0.87 -8.2 0 1 375.84 89.52
  Q 373.73 86.44 373.47 84.52
  C 372.99 81.01 372.47 76.12 375.11 74.22
  Z
  M 401.36 76.96
  L 412.24 78.56
  A 1.31 1.31 0.0 0 0 413.73 77.46
  L 413.83 76.80
  A 4.33 3.87 8.4 0 0 410.11 72.34
  L 405.20 71.62
  A 4.33 3.87 8.4 0 0 400.35 74.81
  L 400.26 75.47
  A 1.31 1.31 0.0 0 0 401.36 76.96
  Z
  M 405.7353 82.7955
  A 2.91 2.44 -70.0 0 0 402.4472 84.6955
  A 2.91 2.44 -70.0 0 0 403.7447 88.2645
  A 2.91 2.44 -70.0 0 0 407.0328 86.3645
  A 2.91 2.44 -70.0 0 0 405.7353 82.7955
  Z
  M 413.66 103.02
  A 0.69 0.69 0.0 0 1 412.63 103.58
  L 409.57 101.81
  A 1.00 1.00 0.0 0 0 408.85 101.71
  Q 406.66 102.28 406.88 104.82
  C 407.23 108.68 411.08 108.86 414.84 108.73
  C 416.71 108.67 418.24 107.75 418.34 105.77
  Q 418.72 98.07 418.38 90.21
  A 1.55 1.55 0.0 0 0 416.48 88.77
  L 416.40 88.80
  A 2.96 2.96 0.0 0 0 414.24 91.50
  L 413.66 103.02
  Z
  M 427.8613 90.4481
  A 2.89 2.50 -67.6 0 0 424.4486 92.1673
  A 2.89 2.50 -67.6 0 0 425.6587 95.7919
  A 2.89 2.50 -67.6 0 0 429.0714 94.0727
  A 2.89 2.50 -67.6 0 0 427.8613 90.4481
  Z
  M 409.37 113.81
  Q 408.63 113.30 407.08 113.39
  A 4.76 4.21 -16.1 0 1 402.95 111.43
  Q 401.92 109.79 400.39 106.17
  A 2.20 2.07 -16.3 0 0 398.02 104.96
  Q 396.09 105.32 395.78 106.99
  C 394.61 113.25 400.96 119.59 406.96 118.65
  Q 409.11 118.31 409.98 117.62
  A 2.62 2.17 41.3 0 0 409.37 113.81
  Z"
/>
<path fill="none" d="
  M 569.68 82.42
  A 0.41 0.40 -67.0 0 1 570.36 82.14
  C 571.80 83.53 571.97 85.33 572.23 87.67
  Q 572.93 93.72 569.32 97.99
  A 1.15 1.14 23.6 0 1 568.30 98.38
  C 564.65 97.91 563.90 101.41 564.19 104.48
  Q 564.52 108.01 564.38 111.01
  Q 564.24 113.92 565.54 120.75
  Q 568.30 135.28 571.59 143.97
  Q 572.39 146.07 573.69 148.30
  A 1.09 1.08 45.7 0 1 573.68 149.43
  Q 569.49 156.12 563.37 160.28
  A 4.97 4.94 -11.1 0 0 561.33 163.30
  L 560.15 168.67
  A 0.52 0.52 0.0 0 1 559.16 168.77
  L 556.65 163.07
  A 1.49 1.46 87.3 0 0 555.80 162.28
  L 547.52 159.43
  A 1.20 1.18 -78.9 0 1 546.72 158.22
  L 546.86 155.96
  A 10.16 9.90 -48.5 0 0 546.75 153.64
  L 544.90 142.44
  A 0.89 0.89 0.0 0 1 545.58 141.42
  Q 550.02 140.41 553.52 136.23
  C 554.99 134.46 556.55 132.22 555.03 130.67
  C 552.62 128.21 549.82 131.45 547.78 132.51
  C 538.41 137.37 531.58 131.72 526.34 124.41
  Q 524.09 121.26 521.79 115.15
  Q 517.74 104.35 515.63 94.21
  A 1.09 1.09 0.0 0 1 516.26 93.00
  L 524.27 89.47
  A 1.85 1.85 0.0 0 0 525.21 87.02
  C 523.54 83.33 517.68 85.69 515.41 87.51
  A 0.26 0.26 0.0 0 1 515.01 87.41
  L 513.28 83.47
  A 0.69 0.69 0.0 0 1 513.63 82.56
  L 513.97 82.41
  A 1.18 1.18 0.0 0 0 514.67 81.33
  L 514.67 76.14
  A 1.78 1.78 0.0 0 1 515.63 74.56
  Q 522.33 71.03 523.42 70.65
  Q 528.65 68.82 531.90 67.38
  C 535.79 65.65 541.24 64.41 545.23 63.96
  Q 547.76 63.67 550.32 65.56
  A 1.63 1.60 10.7 0 1 550.92 66.42
  C 552.38 71.62 555.55 85.75 563.39 85.77
  A 0.69 0.69 0.0 0 1 564.07 86.46
  L 564.07 89.66
  A 1.43 1.43 0.0 0 0 565.80 91.06
  C 569.43 90.28 569.55 85.59 569.68 82.42
  Z
  M 538.21 85.82
  L 548.39 84.98
  A 1.06 1.06 0.0 0 0 549.36 83.84
  L 549.35 83.68
  A 4.54 3.94 -4.7 0 0 544.50 80.13
  L 541.25 80.39
  A 4.54 3.94 -4.7 0 0 537.05 84.69
  L 537.07 84.85
  A 1.06 1.06 0.0 0 0 538.21 85.82
  Z
  M 544.5255 90.2675
  A 2.50 2.26 -74.8 0 0 541.6891 92.0875
  A 2.50 2.26 -74.8 0 0 543.2145 95.0925
  A 2.50 2.26 -74.8 0 0 546.0509 93.2725
  A 2.50 2.26 -74.8 0 0 544.5255 90.2675
  Z
  M 534.61 105.96
  Q 535.01 100.13 534.35 95.45
  A 1.94 1.80 73.8 0 0 531.76 93.90
  Q 530.73 94.40 530.57 96.03
  Q 529.75 104.41 529.54 106.99
  Q 529.19 111.37 533.03 111.86
  C 535.62 112.20 539.13 111.80 539.01 108.45
  A 1.90 1.85 84.8 0 0 536.88 106.62
  Q 536.05 106.74 535.46 106.80
  A 0.78 0.78 0.0 0 1 534.61 105.96
  Z
  M 522.3733 95.2033
  A 2.42 2.08 -93.0 0 0 520.4229 97.7289
  A 2.42 2.08 -93.0 0 0 522.6267 100.0367
  A 2.42 2.08 -93.0 0 0 524.5771 97.5111
  A 2.42 2.08 -93.0 0 0 522.3733 95.2033
  Z
  M 545.45 110.40
  C 543.84 113.47 542.29 116.62 538.34 116.62
  A 2.35 2.05 -86.2 0 0 536.28 118.69
  C 536.02 120.90 539.58 121.09 541.06 120.80
  Q 546.18 119.82 548.30 115.20
  C 549.38 112.83 550.25 111.96 548.34 109.98
  A 1.80 1.80 0.0 0 0 545.45 110.40
  Z"
/>
<path fill="#c5191d" d="
  M 401.36 76.96
  A 1.31 1.31 0.0 0 1 400.26 75.47
  L 400.35 74.81
  A 4.33 3.87 8.4 0 1 405.20 71.62
  L 410.11 72.34
  A 4.33 3.87 8.4 0 1 413.83 76.80
  L 413.73 77.46
  A 1.31 1.31 0.0 0 1 412.24 78.56
  L 401.36 76.96
  Z"
/>
<path fill="#c5191d" d="
  M 538.21 85.82
  A 1.06 1.06 0.0 0 1 537.07 84.85
  L 537.05 84.69
  A 4.54 3.94 -4.7 0 1 541.25 80.39
  L 544.50 80.13
  A 4.54 3.94 -4.7 0 1 549.35 83.68
  L 549.36 83.84
  A 1.06 1.06 0.0 0 1 548.39 84.98
  L 538.21 85.82
  Z"
/>
<ellipse fill="#c5191d" cx="0.00" cy="0.00" transform="translate(404.74,85.53) rotate(-70.0)" rx="2.91" ry="2.44"/>
<path fill="#c5191d" d="
  M 413.66 103.02
  L 414.24 91.50
  A 2.96 2.96 0.0 0 1 416.40 88.80
  L 416.48 88.77
  A 1.55 1.55 0.0 0 1 418.38 90.21
  Q 418.72 98.07 418.34 105.77
  C 418.24 107.75 416.71 108.67 414.84 108.73
  C 411.08 108.86 407.23 108.68 406.88 104.82
  Q 406.66 102.28 408.85 101.71
  A 1.00 1.00 0.0 0 1 409.57 101.81
  L 412.63 103.58
  A 0.69 0.69 0.0 0 0 413.66 103.02
  Z"
/>
<ellipse fill="#c5191d" cx="0.00" cy="0.00" transform="translate(426.76,93.12) rotate(-67.6)" rx="2.89" ry="2.50"/>
<ellipse fill="#c5191d" cx="0.00" cy="0.00" transform="translate(543.87,92.68) rotate(-74.8)" rx="2.50" ry="2.26"/>
<path fill="#c5191d" d="
  M 535.46 106.80
  Q 536.05 106.74 536.88 106.62
  A 1.90 1.85 84.8 0 1 539.01 108.45
  C 539.13 111.80 535.62 112.20 533.03 111.86
  Q 529.19 111.37 529.54 106.99
  Q 529.75 104.41 530.57 96.03
  Q 530.73 94.40 531.76 93.90
  A 1.94 1.80 73.8 0 1 534.35 95.45
  Q 535.01 100.13 534.61 105.96
  A 0.78 0.78 0.0 0 0 535.46 106.80
  Z"
/>
<ellipse fill="#c5191d" cx="0.00" cy="0.00" transform="translate(522.50,97.62) rotate(-93.0)" rx="2.42" ry="2.08"/>
<path fill="#c5191d" d="
  M 409.37 113.81
  A 2.62 2.17 41.3 0 1 409.98 117.62
  Q 409.11 118.31 406.96 118.65
  C 400.96 119.59 394.61 113.25 395.78 106.99
  Q 396.09 105.32 398.02 104.96
  A 2.20 2.07 -16.3 0 1 400.39 106.17
  Q 401.92 109.79 402.95 111.43
  A 4.76 4.21 -16.1 0 0 407.08 113.39
  Q 408.63 113.30 409.37 113.81
  Z"
/>
<path fill="#c5191d" d="
  M 545.45 110.40
  A 1.80 1.80 0.0 0 1 548.34 109.98
  C 550.25 111.96 549.38 112.83 548.30 115.20
  Q 546.18 119.82 541.06 120.80
  C 539.58 121.09 536.02 120.90 536.28 118.69
  A 2.35 2.05 -86.2 0 1 538.34 116.62
  C 542.29 116.62 543.84 113.47 545.45 110.40
  Z"
/>
<path fill="none" d="
  M 311.04 166.82
  A 0.22 0.22 0.0 0 1 310.62 166.95
  C 307.86 161.57 306.67 155.37 312.75 150.92
  C 318.10 147.00 324.88 143.41 331.49 143.40
  Q 337.10 143.39 342.48 144.94
  A 0.58 0.57 -44.7 0 1 342.47 146.05
  L 339.49 146.87
  A 1.26 1.22 49.4 0 1 338.63 146.79
  L 337.07 146.02
  A 1.24 1.20 53.7 0 0 336.36 145.90
  C 330.78 146.59 332.67 154.07 333.11 158.50
  Q 333.14 158.85 332.96 159.22
  A 0.42 0.42 0.0 0 1 332.18 159.15
  L 329.79 151.09
  A 2.27 2.26 74.6 0 0 327.06 149.53
  L 326.92 149.56
  A 2.56 2.55 80.2 0 0 324.92 152.41
  L 326.22 162.27
  A 0.93 0.93 0.0 0 1 325.09 163.30
  Q 324.96 163.27 324.72 162.79
  Q 324.02 161.41 321.86 154.65
  C 321.32 152.95 320.38 151.60 318.58 152.93
  Q 317.52 153.72 317.62 155.15
  Q 317.71 156.59 318.68 164.85
  A 0.64 0.63 -63.1 0 1 317.50 165.24
  Q 315.62 161.90 314.44 157.83
  A 2.15 1.92 77.0 0 0 312.23 156.27
  Q 310.42 156.56 310.11 158.54
  A 1.35 1.35 0.0 0 0 310.11 158.94
  L 311.04 166.82
  Z"
/>
<path fill="none" d="
  M 598.59 149.17
  C 605.17 147.34 610.25 149.49 616.49 151.76
  Q 618.13 152.36 621.13 154.92
  C 625.27 158.45 624.82 164.76 622.13 168.98
  A 0.34 0.34 0.0 0 1 621.52 168.71
  Q 622.61 164.90 622.32 161.25
  A 1.98 1.77 85.2 0 0 620.38 159.42
  C 618.54 159.59 617.30 163.83 615.54 168.09
  Q 615.35 168.57 614.83 168.64
  A 0.45 0.45 0.0 0 1 614.32 168.12
  Q 614.90 164.59 615.07 158.86
  A 1.84 1.70 85.3 0 0 613.02 156.97
  Q 611.83 157.23 611.26 158.76
  Q 609.12 164.41 608.17 166.35
  A 0.72 0.72 0.0 0 1 606.82 165.88
  Q 607.79 161.33 607.91 156.78
  Q 607.99 154.22 605.75 154.19
  A 2.55 2.54 -81.5 0 0 603.27 156.03
  Q 602.06 160.19 600.87 163.55
  A 0.42 0.42 0.0 0 1 600.06 163.43
  Q 599.95 159.70 600.76 155.74
  Q 601.57 151.80 598.49 149.79
  A 0.35 0.34 -36.3 0 1 598.59 149.17
  Z"
/>
<path fill="none" d="
  M 595.94 149.96
  Q 595.40 150.95 593.50 151.12
  A 0.81 0.81 0.0 0 1 593.09 149.58
  Q 593.12 149.57 595.56 149.38
  A 0.40 0.39 12.0 0 1 595.94 149.96
  Z"
/>
<path fill="none" d="
  M 371.40 169.78
  L 371.77 174.19
  A 1.33 1.09 39.2 0 0 371.84 174.53
  Q 372.46 176.26 374.20 177.45
  A 0.80 0.80 0.0 0 1 374.54 178.25
  Q 373.70 183.18 372.75 186.78
  C 371.32 192.15 371.09 197.05 369.57 202.11
  Q 369.01 203.98 368.11 208.94
  Q 366.04 220.37 364.19 229.41
  C 360.16 249.05 356.59 272.61 353.83 288.05
  C 352.68 294.45 352.32 299.76 351.51 306.24
  A 4.44 3.73 -47.1 0 0 351.47 307.05
  L 351.63 310.46
  A 1.23 1.22 -86.9 0 1 350.22 311.73
  Q 323.41 307.52 299.17 298.69
  A 0.77 0.75 -81.8 0 1 298.68 298.02
  Q 298.55 295.75 299.07 290.76
  C 301.46 267.93 302.77 253.39 305.28 236.85
  Q 306.53 228.58 306.83 221.82
  C 306.93 219.71 304.54 218.46 302.67 219.79
  C 300.04 221.66 299.99 224.86 298.40 226.90
  C 295.87 230.12 294.88 231.55 292.55 234.05
  Q 276.14 251.58 256.69 266.42
  C 250.84 270.89 244.17 275.03 238.78 278.24
  C 226.58 285.51 212.17 289.27 196.81 291.10
  Q 190.98 291.79 179.68 291.52
  Q 165.65 291.20 162.53 291.12
  Q 155.97 290.96 153.08 290.31
  A 0.78 0.77 6.3 0 1 152.48 289.57
  Q 152.40 282.22 151.84 270.44
  Q 151.77 269.11 152.91 266.97
  A 0.95 0.94 -75.6 0 1 153.74 266.47
  Q 175.16 266.19 191.31 263.07
  Q 209.85 259.49 227.81 248.31
  Q 231.19 246.21 240.08 239.32
  Q 250.97 230.88 266.64 215.64
  Q 285.49 197.30 307.45 175.07
  A 1.90 1.90 0.0 0 1 309.21 174.56
  Q 314.09 175.67 316.07 173.26
  A 0.92 0.91 30.9 0 1 317.13 173.00
  Q 320.65 174.47 323.78 170.84
  A 1.41 1.39 24.9 0 1 325.07 170.38
  Q 329.48 171.11 331.27 167.55
  A 1.07 1.06 -72.9 0 1 332.36 166.97
  C 338.64 167.78 340.84 162.02 340.49 156.98
  A 1.60 1.59 35.4 0 1 343.62 156.45
  Q 346.14 165.66 353.31 175.71
  C 357.40 181.45 367.97 172.68 370.89 169.60
  A 0.30 0.30 0.0 0 1 371.40 169.78
  Z
  M 367.9142 192.2105
  A 3.83 3.57 -35.6 0 0 362.7218 191.5372
  A 3.83 3.57 -35.6 0 0 361.6858 196.6695
  A 3.83 3.57 -35.6 0 0 366.8782 197.3428
  A 3.83 3.57 -35.6 0 0 367.9142 192.2105
  Z
  M 361.8572 219.2929
  A 3.93 3.68 -51.3 0 0 356.5280 220.0591
  A 3.93 3.68 -51.3 0 0 356.9428 225.4271
  A 3.93 3.68 -51.3 0 0 362.2720 224.6609
  A 3.93 3.68 -51.3 0 0 361.8572 219.2929
  Z
  M 354.9956 255.3024
  A 4.03 3.67 -58.0 0 0 349.7477 256.7752
  A 4.03 3.67 -58.0 0 0 350.7244 262.1376
  A 4.03 3.67 -58.0 0 0 355.9723 260.6648
  A 4.03 3.67 -58.0 0 0 354.9956 255.3024
  Z
  M 351.46 289.65
  A 3.81 3.81 0.0 0 0 347.65 285.84
  A 3.81 3.81 0.0 0 0 343.84 289.65
  A 3.81 3.81 0.0 0 0 347.65 293.46
  A 3.81 3.81 0.0 0 0 351.46 289.65
  Z"
/>
<path fill="none" d="
  M 592.97 160.38
  Q 593.17 160.93 593.02 163.96
  C 592.77 168.89 596.10 171.89 601.17 171.01
  A 1.44 1.43 70.2 0 1 602.66 171.72
  Q 604.44 174.86 608.69 174.27
  A 1.73 1.73 0.0 0 1 610.13 174.73
  Q 612.54 177.08 616.09 176.20
  A 1.96 1.96 0.0 0 1 617.58 176.42
  Q 620.62 178.25 623.89 177.13
  A 1.55 1.54 56.3 0 1 625.43 177.44
  Q 635.79 186.63 645.32 196.50
  Q 649.78 201.12 653.83 204.83
  C 657.62 208.29 661.34 212.69 666.06 216.72
  C 670.42 220.45 674.26 224.61 680.01 229.78
  Q 686.02 235.18 687.50 236.46
  Q 704.34 251.06 723.19 262.08
  Q 729.67 265.86 737.49 269.13
  Q 750.11 274.39 752.27 274.97
  Q 763.42 277.96 770.93 279.74
  A 0.67 0.66 11.8 0 1 771.43 280.49
  L 768.20 299.82
  A 0.62 0.62 0.0 0 1 767.49 300.33
  C 758.07 298.75 752.71 298.22 745.75 296.30
  Q 730.65 292.13 727.08 290.87
  Q 711.53 285.37 698.79 278.43
  Q 697.92 277.96 690.08 273.43
  C 684.55 270.24 680.31 266.75 675.46 263.71
  C 669.85 260.20 664.80 255.59 658.59 250.85
  Q 656.43 249.20 652.10 245.25
  Q 647.84 241.37 639.58 234.40
  C 638.54 233.52 637.37 232.91 636.14 232.19
  A 1.69 1.68 -82.0 0 1 635.34 231.12
  Q 634.86 229.11 633.05 228.84
  Q 629.12 228.26 628.55 232.16
  A 1.68 1.65 39.1 0 0 628.64 232.98
  L 630.82 238.69
  A 2.97 2.80 35.2 0 1 631.00 239.57
  C 631.22 245.64 631.40 252.06 631.98 257.32
  Q 634.72 282.15 636.11 306.31
  A 0.73 0.72 81.8 0 1 635.56 307.05
  Q 612.47 312.83 589.18 315.93
  C 587.61 316.14 586.38 316.77 585.19 315.23
  A 1.43 1.43 0.0 0 1 584.88 314.34
  Q 584.80 308.87 584.62 307.74
  Q 581.87 290.41 579.26 270.72
  Q 578.54 265.29 577.66 260.29
  C 576.77 255.24 576.79 250.67 575.81 245.70
  C 573.71 235.05 573.08 225.56 571.11 214.67
  C 569.97 208.33 568.89 199.65 567.50 190.69
  Q 566.15 181.94 565.99 179.93
  Q 565.72 176.46 566.93 174.44
  A 0.57 0.57 0.0 0 1 567.80 174.30
  Q 569.68 175.95 572.97 178.42
  C 579.39 183.24 583.18 179.58 586.60 173.58
  Q 589.86 167.87 592.48 160.38
  A 0.26 0.26 0.0 0 1 592.97 160.38
  Z"
/>
<path fill="none" d="
  M 358.01 166.41
  A 0.28 0.28 0.0 0 1 358.10 166.02
  L 361.11 164.22
  A 1.99 1.57 -30.9 0 1 363.63 164.55
  L 363.77 164.79
  A 1.99 1.57 -30.9 0 1 362.87 167.16
  L 359.86 168.96
  A 0.28 0.28 0.0 0 1 359.47 168.86
  L 358.01 166.41
  Z"
/>
<path fill="none" d="
  M 514.06 168.41
  A 0.33 0.32 28.0 0 1 514.25 169.01
  Q 510.92 171.10 504.30 175.56
  C 500.50 178.12 497.40 181.38 494.00 183.90
  Q 489.32 187.38 483.71 192.37
  Q 481.66 194.19 468.67 203.32
  A 10.03 9.94 17.2 0 1 466.37 204.52
  Q 461.30 206.39 452.31 211.07
  C 444.84 214.97 440.71 220.15 436.79 228.27
  C 430.92 240.40 426.39 251.33 422.96 260.69
  Q 413.34 287.00 405.89 312.88
  A 0.86 0.84 -84.7 0 1 405.17 313.49
  Q 388.32 315.32 369.25 314.44
  Q 364.26 314.22 359.20 312.99
  A 1.51 1.51 0.0 0 1 358.19 310.88
  Q 359.07 309.03 359.20 307.97
  C 360.34 298.86 363.48 285.69 364.92 275.08
  C 365.76 268.90 367.25 262.89 368.60 254.65
  Q 372.71 229.72 372.85 229.03
  C 374.71 219.92 375.32 213.86 377.03 205.79
  Q 379.66 193.40 381.78 178.25
  Q 381.87 177.63 383.41 176.18
  A 0.44 0.44 0.0 0 1 384.10 176.28
  L 388.15 183.29
  A 2.02 2.01 -88.1 0 0 388.80 183.99
  Q 393.28 186.95 397.41 183.09
  C 403.84 177.09 408.29 172.51 410.52 165.27
  A 0.57 0.56 -78.2 0 1 411.12 164.87
  C 434.36 167.55 461.11 170.02 480.75 169.53
  Q 489.88 169.30 490.91 169.35
  C 498.53 169.70 505.64 168.66 514.06 168.41
  Z"
/>
<rect fill="none" x="-2.90" y="-1.62" transform="translate(575.82,169.23) rotate(41.9)" width="5.80" height="3.24" rx="0.97"/>
<path fill="none" d="
  M 390.37 172.80
  A 0.62 0.62 0.0 0 1 390.58 171.95
  L 390.90 171.75
  A 2.37 1.16 -31.1 0 1 393.52 171.52
  L 394.75 173.56
  A 2.37 1.16 -31.1 0 1 393.32 175.78
  L 393.01 175.97
  A 0.62 0.62 0.0 0 1 392.16 175.76
  L 390.37 172.80
  Z"
/>
<path fill="none" d="
  M 554.15 176.09
  Q 555.54 177.89 557.69 178.67
  A 0.97 0.97 0.0 0 1 558.32 179.52
  Q 558.83 188.87 559.97 195.35
  C 561.57 204.44 561.96 212.30 563.47 222.04
  Q 564.83 230.84 565.61 237.52
  C 567.12 250.41 568.75 259.61 570.51 273.32
  Q 571.23 278.90 572.19 284.14
  C 573.11 289.15 573.27 293.80 574.10 298.61
  Q 576.66 313.49 577.12 315.99
  A 1.55 1.55 0.0 0 1 575.83 317.81
  C 563.71 319.66 551.49 318.62 538.70 317.78
  Q 534.55 317.51 531.36 316.59
  A 1.00 0.99 1.1 0 1 530.68 315.89
  Q 530.26 314.24 530.06 312.58
  A 4.32 4.32 0.0 0 0 529.93 311.93
  C 526.07 298.20 523.29 284.30 520.43 271.61
  Q 516.05 252.11 514.45 242.78
  C 513.79 238.95 511.92 234.53 511.84 230.59
  C 511.81 228.74 510.90 226.78 509.46 226.28
  A 2.34 2.18 -63.0 0 0 506.88 227.22
  Q 504.04 231.44 504.12 236.04
  A 0.86 0.86 0.0 0 1 503.64 236.83
  Q 477.08 249.68 448.03 251.61
  C 444.37 251.85 441.57 251.45 437.94 251.08
  A 0.59 0.58 11.5 0 1 437.43 250.32
  C 439.86 242.62 443.80 235.42 447.90 227.42
  Q 448.76 225.76 451.89 222.65
  A 3.55 3.47 10.7 0 1 452.97 221.93
  Q 467.94 215.61 478.56 208.02
  Q 490.22 199.68 497.22 193.70
  C 507.44 184.96 517.77 176.94 529.92 171.17
  A 0.69 0.69 0.0 0 1 530.87 171.57
  Q 533.37 178.91 537.86 184.33
  C 540.15 187.10 544.66 185.55 546.85 183.08
  Q 551.63 177.68 553.12 176.05
  A 0.68 0.67 -42.7 0 1 554.15 176.09
  Z
  M 554.8878 193.6233
  A 3.85 3.60 -78.8 0 0 550.6086 196.7008
  A 3.85 3.60 -78.8 0 0 553.3922 201.1767
  A 3.85 3.60 -78.8 0 0 557.6714 198.0992
  A 3.85 3.60 -78.8 0 0 554.8878 193.6233
  Z
  M 561.18 221.70
  A 3.73 3.73 0.0 0 0 557.45 217.97
  A 3.73 3.73 0.0 0 0 553.72 221.70
  A 3.73 3.73 0.0 0 0 557.45 225.43
  A 3.73 3.73 0.0 0 0 561.18 221.70
  Z
  M 559.3182 243.9358
  A 3.92 3.73 -114.6 0 0 557.5585 249.0527
  A 3.92 3.73 -114.6 0 0 562.5818 251.0642
  A 3.92 3.73 -114.6 0 0 564.3415 245.9473
  A 3.92 3.73 -114.6 0 0 559.3182 243.9358
  Z
  M 565.2728 270.5453
  A 3.71 3.60 -83.3 0 0 561.2646 273.8100
  A 3.71 3.60 -83.3 0 0 564.4072 277.9147
  A 3.71 3.60 -83.3 0 0 568.4154 274.6500
  A 3.71 3.60 -83.3 0 0 565.2728 270.5453
  Z
  M 570.5432 296.4120
  A 3.94 3.57 -62.6 0 0 565.5605 298.2671
  A 3.94 3.57 -62.6 0 0 566.9168 303.4080
  A 3.94 3.57 -62.6 0 0 571.8995 301.5529
  A 3.94 3.57 -62.6 0 0 570.5432 296.4120
  Z"
/>
<path fill="none" d="
  M 542.41 171.68
  Q 543.52 171.66 544.44 173.50
  Q 545.20 175.01 542.58 176.09
  Q 542.54 176.11 542.50 176.11
  Q 542.46 176.11 542.42 176.10
  Q 539.76 175.12 540.45 173.58
  Q 541.29 171.70 542.41 171.68
  Z"
/>
<ellipse fill="#c5191d" cx="0.00" cy="0.00" transform="translate(364.80,194.44) rotate(-35.6)" rx="3.83" ry="3.57"/>
<ellipse fill="#c5191d" cx="0.00" cy="0.00" transform="translate(554.14,197.40) rotate(-78.8)" rx="3.85" ry="3.60"/>
<circle fill="#c5191d" cx="557.45" cy="221.70" r="3.73"/>
<ellipse fill="#c5191d" cx="0.00" cy="0.00" transform="translate(359.40,222.36) rotate(-51.3)" rx="3.93" ry="3.68"/>
<path fill="none" d="
  M 81.65 285.19
  A 0.17 0.17 0.0 0 1 81.69 284.86
  L 92.49 283.59
  A 1.69 1.68 84.8 0 0 93.97 281.81
  L 93.97 281.75
  A 1.81 1.80 88.6 0 0 92.24 280.10
  Q 87.00 279.92 77.18 279.91
  C 76.12 279.91 74.64 279.51 73.71 278.91
  A 0.33 0.33 0.0 0 1 73.85 278.30
  L 90.10 276.37
  A 1.03 1.02 86.3 0 0 91.00 275.34
  L 91.00 275.28
  A 1.13 1.12 85.3 0 0 89.84 274.29
  Q 85.82 274.42 82.37 273.34
  A 3.29 3.21 53.9 0 0 81.43 273.18
  L 70.44 272.98
  A 0.78 0.77 -86.6 0 1 69.68 272.12
  L 69.72 271.74
  A 0.81 0.80 4.1 0 1 70.57 271.01
  Q 80.44 271.60 88.61 269.07
  Q 89.10 268.92 89.37 268.35
  A 0.76 0.75 -74.1 0 0 88.77 267.27
  L 72.34 265.60
  A 0.25 0.25 0.0 0 1 72.33 265.11
  C 78.65 264.16 83.89 263.23 91.59 262.70
  Q 97.72 262.28 102.96 260.72
  A 2.10 2.10 0.0 0 0 104.46 258.82
  L 104.63 255.69
  A 2.60 2.57 25.2 0 0 103.93 253.78
  C 101.31 250.98 97.93 247.47 96.84 243.67
  A 0.32 0.32 0.0 0 1 97.38 243.35
  Q 101.14 247.11 106.51 251.23
  Q 118.95 260.77 119.55 261.20
  Q 122.59 263.36 125.27 264.68
  A 0.86 0.85 -75.2 0 1 125.74 265.49
  L 124.93 280.68
  A 1.46 1.45 -7.6 0 1 123.92 281.99
  C 120.12 283.22 116.08 283.66 111.46 284.88
  C 102.97 287.11 94.24 286.75 86.78 286.21
  Q 83.87 285.99 81.65 285.19
  Z"
/>
<ellipse fill="#c5191d" cx="0.00" cy="0.00" transform="translate(560.95,247.50) rotate(-114.6)" rx="3.92" ry="3.73"/>
<ellipse fill="#c5191d" cx="0.00" cy="0.00" transform="translate(352.86,258.72) rotate(-58.0)" rx="4.03" ry="3.67"/>
<path fill="none" d="
  M 846.02 290.72
  A 0.20 0.20 0.0 0 1 845.93 291.11
  L 830.40 290.29
  A 1.12 1.12 0.0 0 0 829.30 290.97
  Q 828.85 292.01 830.25 292.53
  C 836.51 294.84 842.99 295.22 849.19 296.91
  A 0.40 0.40 0.0 0 1 849.31 297.63
  L 849.16 297.74
  A 2.13 2.07 26.8 0 1 847.95 298.12
  Q 845.71 298.11 827.73 296.45
  Q 827.02 296.39 826.26 297.11
  A 1.09 1.09 0.0 0 0 826.78 298.96
  L 845.59 303.08
  A 0.17 0.16 -51.3 0 1 845.62 303.39
  Q 842.27 304.98 841.24 304.82
  Q 831.60 303.36 824.22 302.49
  A 1.28 1.28 0.0 0 0 822.79 303.72
  L 822.79 303.78
  A 1.78 1.77 6.9 0 0 824.09 305.43
  L 836.96 308.97
  A 0.50 0.50 0.0 0 1 837.14 309.85
  Q 836.62 310.26 835.77 310.32
  Q 831.86 310.59 825.51 309.48
  Q 822.60 308.98 811.72 306.66
  Q 806.11 305.47 802.70 304.00
  Q 799.50 302.61 793.89 300.38
  A 1.79 1.77 -76.5 0 1 792.78 298.55
  L 794.33 283.39
  A 1.28 1.26 -10.1 0 1 795.05 282.37
  Q 804.69 277.83 815.86 270.35
  Q 820.40 267.31 823.34 265.40
  A 0.23 0.23 0.0 0 1 823.67 265.68
  Q 821.55 270.49 816.95 274.56
  A 4.06 4.06 0.0 0 0 815.61 277.18
  L 815.31 280.11
  A 2.52 2.52 0.0 0 0 817.16 282.80
  C 821.56 283.97 826.63 285.52 830.33 286.29
  Q 839.20 288.13 846.02 290.72
  Z"
/>
<path fill="none" d="
  M 144.45 266.55
  C 144.70 269.57 143.48 273.07 143.44 276.22
  Q 143.35 282.65 143.83 288.40
  A 0.92 0.92 0.0 0 1 142.79 289.39
  L 134.50 288.29
  A 0.96 0.95 5.5 0 1 133.67 287.29
  Q 133.85 283.92 133.63 270.03
  Q 133.61 268.77 134.58 265.95
  A 0.69 0.67 10.1 0 1 135.26 265.49
  L 143.83 265.95
  A 0.66 0.66 0.0 0 1 144.45 266.55
  Z"
/>
<ellipse fill="#c5191d" cx="0.00" cy="0.00" transform="translate(564.84,274.23) rotate(-83.3)" rx="3.71" ry="3.60"/>
<path fill="none" d="
  M 779.74 281.34
  L 785.99 282.18
  A 0.56 0.56 0.0 0 1 786.48 282.81
  L 783.90 302.17
  A 0.56 0.56 0.0 0 1 783.27 302.66
  L 777.02 301.82
  A 0.56 0.56 0.0 0 1 776.53 301.19
  L 779.11 281.83
  A 0.56 0.56 0.0 0 1 779.74 281.34
  Z"
/>
<circle fill="#c5191d" cx="347.65" cy="289.65" r="3.81"/>
<ellipse fill="#c5191d" cx="0.00" cy="0.00" transform="translate(568.73,299.91) rotate(-62.6)" rx="3.94" ry="3.57"/>
<path fill="none" d="
  M 371.40 728.12
  L 383.58 728.12
  A 0.59 0.59 0.0 0 1 384.17 728.69
  C 384.30 732.40 383.83 738.50 386.25 742.68
  A 1.43 1.42 34.2 0 1 386.43 743.60
  Q 386.14 745.47 384.84 746.45
  A 1.54 1.53 -58.5 0 1 383.66 746.74
  Q 376.68 745.61 371.03 741.09
  A 1.18 1.16 -71.1 0 1 370.59 740.17
  L 370.59 728.94
  A 0.82 0.81 90.0 0 1 371.40 728.12
  Z"
/>
<path fill="none" d="
  M 564.10 732.83
  A 0.80 0.79 89.0 0 1 564.92 733.63
  L 564.92 745.22
  A 1.48 1.46 75.4 0 1 564.18 746.50
  Q 558.68 749.64 552.95 751.73
  Q 551.88 752.12 548.65 751.88
  A 1.02 1.01 -5.6 0 1 547.74 751.14
  L 547.07 748.71
  A 1.35 1.34 56.3 0 1 547.30 747.53
  Q 549.37 744.76 549.41 743.36
  Q 549.61 736.19 549.85 732.45
  A 0.69 0.69 0.0 0 1 550.66 731.81
  Q 557.76 733.10 564.10 732.83
  Z"
/>
<path fill="none" d="
  M 309.61 740.93
  C 309.62 746.43 308.87 752.59 311.05 756.82
  A 1.30 1.28 -49.8 0 1 311.13 757.84
  Q 310.78 758.83 309.59 759.90
  A 1.01 1.00 29.6 0 1 308.70 760.14
  C 304.89 759.35 300.94 756.27 297.81 753.95
  A 2.24 2.22 -70.3 0 1 296.92 752.05
  L 297.55 740.25
  A 0.73 0.73 0.0 0 1 298.32 739.56
  L 308.84 740.12
  A 0.81 0.81 0.0 0 1 309.61 740.93
  Z"
/>
<path fill="none" d="
  M 639.70 742.79
  L 639.70 755.22
  A 1.01 1.00 -17.6 0 1 639.27 756.04
  L 629.68 762.88
  A 1.82 1.79 -55.2 0 1 628.18 763.16
  Q 625.51 762.45 625.17 759.48
  A 1.84 1.78 55.7 0 1 625.34 758.48
  C 627.79 753.49 627.16 747.88 626.58 742.14
  A 0.63 0.63 0.0 0 1 627.23 741.45
  L 639.03 742.08
  A 0.71 0.71 0.0 0 1 639.70 742.79
  Z"
/>
</svg>
