<?xml version="1.0" encoding="UTF-8" standalone="no"?>
<!DOCTYPE svg PUBLIC "-//W3C//DTD SVG 1.1//EN" "http://www.w3.org/Graphics/SVG/1.1/DTD/svg11.dtd">
<svg xmlns="http://www.w3.org/2000/svg" version="1.1" viewBox="0.00 0.00 143.00 207.00">
<g stroke-width="2.00" fill="none" stroke-linecap="butt">
<path stroke="#e28686" vector-effect="non-scaling-stroke" d="
  M 73.04 109.07
  L 74.51 116.60
  A 4.51 4.41 46.0 0 1 74.50 118.35
  Q 73.99 120.81 74.33 123.34
  C 74.54 124.88 74.00 126.31 74.07 127.94
  Q 74.62 140.19 74.20 150.91
  Q 74.14 152.46 74.28 164.83
  Q 74.37 172.77 73.75 178.75
  Q 73.65 179.72 75.41 181.37
  A 0.93 0.93 0.0 0 1 75.70 182.13
  L 75.47 184.79
  A 1.76 1.74 87.2 0 1 74.07 186.35
  Q 70.50 187.06 67.35 189.66
  Q 65.79 190.95 66.25 192.26
  C 66.95 194.26 68.89 193.93 70.56 193.54
  Q 70.87 193.47 76.73 191.73
  Q 83.41 189.74 81.37 182.80
  A 0.52 0.51 88.3 0 1 81.98 182.15
  C 86.08 183.06 87.82 180.18 88.44 176.51
  Q 88.98 173.26 90.23 166.49
  A 5.07 0.78 83.2 0 0 90.31 164.12
  Q 90.26 162.93 90.50 160.50
  Q 90.77 157.74 90.39 151.09
  Q 90.08 145.81 90.37 141.68
  Q 90.73 136.45 90.21 131.18
  Q 89.89 127.96 90.16 120.78
  Q 90.41 114.17 89.40 107.27
  Q 88.57 101.57 88.61 99.77
  A 0.68 0.67 -1.9 0 1 89.23 99.11
  Q 98.31 98.36 102.14 91.03
  Q 104.94 85.67 103.60 78.13
  Q 102.23 70.43 99.49 64.71
  Q 93.86 52.98 80.89 44.75
  A 0.93 0.92 -71.3 0 1 80.47 43.89
  L 80.72 41.07
  A 0.89 0.87 88.0 0 1 81.45 40.27
  Q 85.20 39.60 86.88 35.46
  Q 87.17 34.76 86.49 33.70
  Q 85.85 32.68 86.38 31.00
  Q 87.25 28.29 84.87 26.63
  C 81.39 24.21 78.78 24.31 74.50 24.26
  A 1.95 1.91 7.6 0 0 72.60 25.68
  Q 72.24 27.03 73.38 28.06
  A 0.86 0.85 33.2 0 1 73.59 29.05
  Q 71.12 34.62 71.88 39.89
  Q 72.08 41.29 72.74 42.06
  A 2.28 2.23 63.6 0 1 71.54 45.75
  C 68.50 46.37 65.96 48.49 63.90 51.34
  Q 57.63 60.02 54.38 69.02
  C 53.41 71.72 51.80 74.13 49.73 75.66
  A 1.79 1.79 0.0 0 1 47.06 75.03
  Q 44.42 69.77 44.15 64.00
  Q 43.65 52.80 43.46 50.33
  A 0.58 0.57 -7.8 0 1 43.93 49.72
  L 44.21 49.66
  A 0.50 0.49 79.5 0 0 44.60 49.08
  L 44.03 46.17
  A 0.67 0.66 -87.9 0 0 43.56 45.66
  Q 43.15 45.54 42.95 45.46
  A 1.07 1.07 0.0 0 1 43.39 43.40
  Q 46.37 43.51 51.02 43.00
  Q 54.83 42.58 56.16 41.97
  A 0.80 0.79 -11.8 0 0 56.63 41.26
  Q 56.67 39.67 55.92 38.75
  A 1.54 1.51 -66.6 0 1 55.56 37.82
  L 55.42 34.68
  A 5.65 5.52 -55.6 0 0 55.16 33.20
  Q 51.71 22.47 42.73 15.75
  A 3.18 3.02 71.4 0 0 41.84 15.28
  L 39.76 14.56
  A 1.24 1.23 -87.3 0 1 38.97 13.69
  Q 38.92 13.50 38.76 12.73
  C 38.23 10.08 35.03 9.49 33.78 11.92
  Q 33.23 12.98 31.77 12.70
  A 1.93 1.85 41.1 0 0 30.87 12.74
  Q 16.89 16.90 12.72 30.89
  A 0.64 0.64 0.0 0 1 12.04 31.33
  L 9.53 31.05
  A 1.39 1.39 0.0 0 0 8.31 33.32
  Q 8.75 33.84 10.45 34.58
  C 15.10 36.60 18.11 38.38 22.38 39.74
  Q 29.07 41.86 30.47 42.16
  A 1.97 1.95 -11.4 0 1 31.66 42.94
  Q 32.87 44.65 34.78 44.92
  A 0.43 0.42 -63.6 0 1 35.02 45.64
  Q 33.77 46.93 33.14 48.77
  A 0.67 0.67 0.0 0 0 33.52 49.61
  Q 34.56 50.05 34.47 52.48
  C 34.39 54.37 34.13 57.43 34.37 60.16
  Q 34.93 66.34 36.56 77.73
  C 37.26 82.66 38.79 88.92 43.97 91.10
  A 3.63 3.60 57.0 0 0 45.26 91.38
  C 53.54 91.63 58.70 87.30 62.42 80.63
  A 0.10 0.10 0.0 0 1 62.61 80.69
  Q 59.63 105.43 57.92 119.03
  C 57.30 124.01 57.22 128.40 56.65 133.85
  C 55.98 140.14 57.00 147.18 56.43 153.23
  Q 56.02 157.56 56.18 161.76
  Q 56.25 163.59 55.92 171.96
  Q 55.78 175.23 59.26 176.52
  A 0.71 0.71 0.0 0 1 59.73 177.19
  L 59.73 180.99
  A 0.97 0.95 -17.7 0 1 59.31 181.78
  Q 56.66 183.59 52.88 188.15
  A 1.64 1.64 0.0 0 0 53.76 190.79
  Q 53.77 190.80 54.74 190.48
  Q 56.47 189.91 63.28 186.50
  C 66.70 184.78 65.56 181.19 65.15 178.11
  A 0.64 0.64 0.0 0 1 66.01 177.43
  C 71.02 179.29 71.52 175.49 72.18 171.79
  C 73.06 166.92 72.54 161.32 72.43 154.01
  Q 72.35 149.17 72.73 140.35
  Q 73.23 128.50 72.57 117.50
  Q 72.17 110.89 72.71 109.05
  A 0.17 0.17 0.0 0 1 73.04 109.07"
/>
<path stroke="#e28686" vector-effect="non-scaling-stroke" d="
  M 35.66 12.87
  Q 35.69 12.90 37.17 13.31
  A 0.38 0.38 0.0 0 0 37.63 12.83
  Q 37.49 12.35 36.40 11.86
  A 0.64 0.64 0.0 0 0 35.66 12.87"
/>
<path stroke="#e28686" vector-effect="non-scaling-stroke" d="
  M 54.15 37.87
  Q 51.84 26.12 42.71 18.61
  Q 39.32 15.82 33.30 14.98
  A 2.49 2.40 40.4 0 0 32.32 15.04
  Q 18.99 18.47 14.64 31.55
  A 0.78 0.78 0.0 0 0 15.14 32.53
  L 30.52 37.40
  A 0.86 0.67 52.0 0 0 30.64 37.43
  L 43.60 38.56
  A 5.95 4.98 6.8 0 0 44.44 38.59
  L 53.75 38.37
  A 0.42 0.42 0.0 0 0 54.15 37.87"
/>
<path stroke="#e28686" vector-effect="non-scaling-stroke" d="
  M 76.56 33.15
  L 75.48 33.05
  A 0.81 0.81 0.0 0 0 74.63 33.64
  Q 73.58 37.41 74.69 40.36
  A 1.31 1.30 -20.2 0 0 76.37 41.13
  Q 78.44 40.36 79.62 38.34
  Q 80.54 36.75 82.03 37.29
  A 0.84 0.82 25.6 0 0 83.02 36.95
  Q 83.78 35.72 82.89 34.68
  A 1.17 1.16 -63.2 0 1 82.60 33.79
  L 82.83 31.19
  A 1.10 1.10 0.0 0 0 81.81 30.00
  L 76.80 29.63
  A 1.03 1.02 21.3 0 0 75.95 30.00
  Q 75.68 30.34 75.42 30.98
  A 0.56 0.56 0.0 0 0 75.78 31.73
  Q 76.76 32.00 76.87 32.83
  A 0.29 0.29 0.0 0 1 76.56 33.15"
/>
<path stroke="#e28686" vector-effect="non-scaling-stroke" d="
  M 55.21 39.81
  A 0.05 0.03 -9.2 0 0 55.17 39.79
  Q 50.97 39.88 47.35 40.10
  C 42.08 40.41 37.09 39.32 31.56 39.07
  A 6.03 5.95 54.8 0 1 30.11 38.81
  L 15.13 34.19
  A 0.11 0.11 0.0 0 0 15.01 34.24
  L 15.01 34.25
  A 0.08 0.07 22.5 0 0 15.05 34.33
  L 19.45 36.56
  A 8.71 8.61 65.9 0 0 21.05 37.18
  C 30.47 39.83 36.34 41.70 45.26 41.16
  Q 52.61 40.72 55.12 40.68
  A 0.28 0.27 -10.2 0 0 55.38 40.31
  L 55.21 39.81"
/>
<path stroke="#e28686" vector-effect="non-scaling-stroke" d="
  M 35.10 42.83
  Q 35.00 42.78 34.47 42.75
  A 0.21 0.21 0.0 0 0 34.34 43.14
  Q 34.91 43.52 34.96 43.52
  A 0.36 0.36 0.0 0 0 35.10 42.83"
/>
<path stroke="#e28686" vector-effect="non-scaling-stroke" d="
  M 78.34 42.73
  Q 77.15 43.95 75.32 43.62
  A 0.58 0.58 0.0 0 0 74.64 44.07
  C 74.00 47.15 75.97 48.36 78.79 47.03
  A 0.53 0.53 0.0 0 0 79.05 46.33
  Q 78.37 44.82 78.72 42.92
  A 0.22 0.22 0.0 0 0 78.34 42.73"
/>
<path stroke="#e28686" vector-effect="non-scaling-stroke" d="
  M 37.00 43.75
  Q 38.41 44.79 40.38 44.85
  A 0.75 0.75 0.0 0 0 41.05 44.47
  L 41.39 43.88
  A 0.36 0.36 0.0 0 0 41.08 43.34
  L 37.13 43.34
  A 0.23 0.23 0.0 0 0 37.00 43.75"
/>
<path stroke="#e28686" vector-effect="non-scaling-stroke" d="
  M 35.47 48.37
  L 42.51 48.15
  A 0.15 0.15 0.0 0 0 42.65 47.99
  L 42.65 47.90
  A 2.95 1.52 -1.8 0 0 39.65 46.48
  L 38.21 46.52
  A 2.95 1.52 -1.8 0 0 35.31 48.13
  L 35.31 48.22
  A 0.15 0.15 0.0 0 0 35.47 48.37"
/>
<path stroke="#e28686" vector-effect="non-scaling-stroke" d="
  M 73.2517 47.3753
  A 0.91 0.50 -96.2 0 0 72.8529 48.3340
  A 0.91 0.50 -96.2 0 0 73.4483 49.1847
  A 0.91 0.50 -96.2 0 0 73.8471 48.2260
  A 0.91 0.50 -96.2 0 0 73.2517 47.3753"
/>
<path stroke="#e28686" vector-effect="non-scaling-stroke" d="
  M 80.65 47.70
  A 0.91 0.79 79.7 0 0 79.87 49.02
  Q 80.09 49.46 80.35 49.42
  A 0.89 0.88 70.9 0 0 81.00 48.08
  Q 80.79 47.73 80.65 47.70"
/>
<path stroke="#e28686" vector-effect="non-scaling-stroke" d="
  M 73.89 57.87
  Q 73.58 57.93 73.41 57.91
  A 0.63 0.54 -63.7 0 1 73.15 56.91
  Q 73.75 56.22 74.33 56.99
  A 0.33 0.32 -57.3 0 0 74.91 56.86
  L 76.15 50.62
  A 0.47 0.47 0.0 0 0 75.61 50.06
  Q 74.51 50.25 73.42 51.09
  A 1.04 1.04 0.0 0 1 71.76 50.47
  L 71.50 49.13
  A 0.57 0.56 -23.3 0 0 70.62 48.78
  Q 68.86 50.02 67.81 51.32
  Q 63.82 56.30 60.60 62.85
  C 58.11 67.90 57.03 74.71 51.55 77.54
  Q 48.04 79.36 46.01 77.53
  C 44.47 76.14 42.01 69.82 41.90 67.56
  Q 41.52 59.81 40.84 49.92
  A 0.22 0.22 0.0 0 0 40.62 49.71
  L 37.27 49.71
  A 0.31 0.31 0.0 0 0 36.96 49.99
  Q 36.35 58.29 37.59 65.93
  C 38.71 72.84 38.61 80.61 42.66 87.22
  A 3.57 3.56 -14.4 0 0 45.56 88.93
  Q 52.45 89.23 56.91 83.93
  Q 61.91 77.98 64.36 71.38
  A 2.49 1.82 69.9 0 0 64.47 71.00
  L 67.33 56.67
  A 0.82 0.82 0.0 0 1 67.96 56.04
  L 68.25 55.99
  A 0.46 0.46 0.0 0 1 68.80 56.49
  Q 68.13 62.84 67.02 68.25
  Q 66.89 68.84 67.06 72.94
  A 0.84 0.84 0.0 0 0 67.48 73.63
  L 71.07 75.70
  A 0.61 0.60 17.5 0 0 71.98 75.23
  L 72.22 72.54
  A 0.37 0.37 0.0 0 0 71.64 72.20
  Q 71.10 72.55 70.68 72.63
  A 0.55 0.55 0.0 0 1 70.24 71.67
  Q 71.03 71.02 71.94 71.77
  A 0.34 0.34 0.0 0 0 72.50 71.54
  L 72.99 66.01
  A 0.54 0.53 -78.9 0 0 72.63 65.46
  Q 72.54 65.43 72.29 65.36
  A 0.58 0.58 0.0 0 1 71.99 64.46
  Q 72.14 64.25 72.62 64.26
  A 0.73 0.72 -84.1 0 0 73.33 63.68
  L 74.39 58.38
  A 0.43 0.43 0.0 0 0 73.89 57.87"
/>
<path stroke="#e28686" vector-effect="non-scaling-stroke" d="
  M 82.30 49.68
  Q 82.11 49.85 81.78 50.67
  Q 81.36 51.72 80.65 51.76
  Q 80.29 51.78 79.07 50.71
  A 0.90 0.89 23.4 0 0 77.59 51.29
  Q 77.39 53.38 75.39 61.07
  Q 74.21 65.59 73.29 75.52
  A 0.45 0.45 0.0 0 0 73.70 76.01
  L 80.76 76.63
  A 0.48 0.47 8.5 0 0 81.26 76.27
  L 84.11 64.78
  A 1.15 1.15 0.0 0 1 85.97 64.18
  Q 88.71 66.55 89.82 69.44
  Q 92.94 77.58 93.60 79.47
  A 3.79 3.79 0.0 0 1 93.81 80.52
  Q 94.09 85.26 92.33 88.71
  Q 91.94 89.48 88.37 91.98
  A 0.91 0.91 0.0 0 0 88.06 93.09
  Q 88.49 94.08 88.35 95.40
  A 0.78 0.77 -85.9 0 0 89.09 96.26
  C 94.25 96.45 97.09 93.97 99.87 89.79
  A 3.54 3.50 -21.4 0 0 100.38 88.64
  Q 101.70 83.26 101.09 80.00
  Q 100.19 75.17 98.36 69.16
  C 96.10 61.75 90.34 56.11 83.22 49.69
  A 0.70 0.69 45.3 0 0 82.30 49.68"
/>
<path stroke="#e28686" vector-effect="non-scaling-stroke" d="
  M 85.68 68.39
  L 84.08 76.42
  A 1.55 1.51 -52.6 0 0 84.20 77.41
  Q 86.29 81.79 86.98 88.55
  A 0.56 0.56 0.0 0 0 87.81 88.98
  L 90.43 87.46
  A 0.68 0.65 -8.5 0 0 90.74 87.06
  Q 91.95 82.54 91.01 79.26
  Q 89.58 74.25 86.35 68.29
  A 0.36 0.36 0.0 0 0 85.68 68.39"
/>
<path stroke="#e28686" vector-effect="non-scaling-stroke" d="
  M 63.2396 177.7239
  A 0.60 0.60 0.0 0 0 62.6501 177.1135
  L 62.2902 177.1072
  A 0.60 0.60 0.0 0 0 61.6798 177.6966
  L 61.6204 181.0961
  A 0.60 0.60 0.0 0 0 62.2099 181.7065
  L 62.5698 181.7128
  A 0.60 0.60 0.0 0 0 63.1802 181.1234
  L 63.2396 177.7239"
/>
<path stroke="#e28686" vector-effect="non-scaling-stroke" d="
  M 79.4471 181.8340
  A 0.55 0.55 0.0 0 0 78.8764 181.3055
  L 78.0370 181.3377
  A 0.55 0.55 0.0 0 0 77.5085 181.9084
  L 77.6329 185.1460
  A 0.55 0.55 0.0 0 0 78.2036 185.6745
  L 79.0430 185.6423
  A 0.55 0.55 0.0 0 0 79.5715 185.0716
  L 79.4471 181.8340"
/>
<path stroke="#e28686" vector-effect="non-scaling-stroke" d="
  M 79.94 34.15
  Q 80.85 34.59 80.95 34.61
  A 0.49 0.49 0.0 0 0 81.54 34.00
  Q 81.26 33.10 80.61 32.78
  Q 79.95 32.46 79.06 32.80
  A 0.49 0.49 0.0 0 0 78.95 33.64
  Q 79.03 33.71 79.94 34.15"
/>
<path stroke="#e28686" vector-effect="non-scaling-stroke" d="
  M 77.72 37.16
  Q 78.24 36.64 77.38 35.87
  A 0.89 0.72 28.1 0 0 75.98 36.14
  Q 75.89 36.86 76.77 37.24
  A 0.40 0.40 0.0 0 1 76.84 37.93
  Q 76.34 38.27 76.36 38.40
  A 0.96 0.92 -36.1 0 0 78.13 38.64
  Q 78.35 38.25 77.79 37.89
  A 0.47 0.47 0.0 0 1 77.72 37.16"
/>
<path stroke="#e28686" vector-effect="non-scaling-stroke" d="
  M 74.57 54.53
  A 0.80 0.76 61.2 0 0 74.94 53.12
  Q 74.84 53.03 74.66 53.03
  A 0.75 0.66 69.0 0 0 74.21 54.22
  Q 74.46 54.54 74.57 54.53"
/>
<path stroke="#e28686" vector-effect="non-scaling-stroke" d="
  M 73.16 60.58
  Q 73.06 60.18 72.57 60.33
  A 0.81 0.75 -35.4 0 0 72.28 61.71
  Q 72.57 61.90 72.67 61.82
  Q 73.35 61.34 73.16 60.58"
/>
<path stroke="#e28686" vector-effect="non-scaling-stroke" d="
  M 71.66 69.52
  A 0.86 0.47 78.1 0 0 72.04 68.27
  Q 71.89 67.97 71.52 68.07
  Q 71.06 68.18 71.08 68.53
  Q 71.10 69.20 71.66 69.52"
/>
</g>

<path fill="#cb171d" d="
  M 72.71 109.05
  Q 72.17 110.89 72.57 117.50
  Q 73.23 128.50 72.73 140.35
  Q 72.35 149.17 72.43 154.01
  C 72.54 161.32 73.06 166.92 72.18 171.79
  C 71.52 175.49 71.02 179.29 66.01 177.43
  A 0.64 0.64 0.0 0 0 65.15 178.11
  C 65.56 181.19 66.70 184.78 63.28 186.50
  Q 56.47 189.91 54.74 190.48
  Q 53.77 190.80 53.76 190.79
  A 1.64 1.64 0.0 0 1 52.88 188.15
  Q 56.66 183.59 59.31 181.78
  A 0.97 0.95 -17.7 0 0 59.73 180.99
  L 59.73 177.19
  A 0.71 0.71 0.0 0 0 59.26 176.52
  Q 55.78 175.23 55.92 171.96
  Q 56.25 163.59 56.18 161.76
  Q 56.02 157.56 56.43 153.23
  C 57.00 147.18 55.98 140.14 56.65 133.85
  C 57.22 128.40 57.30 124.01 57.92 119.03
  Q 59.63 105.43 62.61 80.69
  A 0.10 0.10 0.0 0 0 62.42 80.63
  C 58.70 87.30 53.54 91.63 45.26 91.38
  A 3.63 3.60 57.0 0 1 43.97 91.10
  C 38.79 88.92 37.26 82.66 36.56 77.73
  Q 34.93 66.34 34.37 60.16
  C 34.13 57.43 34.39 54.37 34.47 52.48
  Q 34.56 50.05 33.52 49.61
  A 0.67 0.67 0.0 0 1 33.14 48.77
  Q 33.77 46.93 35.02 45.64
  A 0.43 0.42 -63.6 0 0 34.78 44.92
  Q 32.87 44.65 31.66 42.94
  A 1.97 1.95 -11.4 0 0 30.47 42.16
  Q 29.07 41.86 22.38 39.74
  C 18.11 38.38 15.10 36.60 10.45 34.58
  Q 8.75 33.84 8.31 33.32
  A 1.39 1.39 0.0 0 1 9.53 31.05
  L 12.04 31.33
  A 0.64 0.64 0.0 0 0 12.72 30.89
  Q 16.89 16.90 30.87 12.74
  A 1.93 1.85 41.1 0 1 31.77 12.70
  Q 33.23 12.98 33.78 11.92
  C 35.03 9.49 38.23 10.08 38.76 12.73
  Q 38.92 13.50 38.97 13.69
  A 1.24 1.23 -87.3 0 0 39.76 14.56
  L 41.84 15.28
  A 3.18 3.02 71.4 0 1 42.73 15.75
  Q 51.71 22.47 55.16 33.20
  A 5.65 5.52 -55.6 0 1 55.42 34.68
  L 55.56 37.82
  A 1.54 1.51 -66.6 0 0 55.92 38.75
  Q 56.67 39.67 56.63 41.26
  A 0.80 0.79 -11.8 0 1 56.16 41.97
  Q 54.83 42.58 51.02 43.00
  Q 46.37 43.51 43.39 43.40
  A 1.07 1.07 0.0 0 0 42.95 45.46
  Q 43.15 45.54 43.56 45.66
  A 0.67 0.66 -87.9 0 1 44.03 46.17
  L 44.60 49.08
  A 0.50 0.49 79.5 0 1 44.21 49.66
  L 43.93 49.72
  A 0.58 0.57 -7.8 0 0 43.46 50.33
  Q 43.65 52.80 44.15 64.00
  Q 44.42 69.77 47.06 75.03
  A 1.79 1.79 0.0 0 0 49.73 75.66
  C 51.80 74.13 53.41 71.72 54.38 69.02
  Q 57.63 60.02 63.90 51.34
  C 65.96 48.49 68.50 46.37 71.54 45.75
  A 2.28 2.23 63.6 0 0 72.74 42.06
  Q 72.08 41.29 71.88 39.89
  Q 71.12 34.62 73.59 29.05
  A 0.86 0.85 33.2 0 0 73.38 28.06
  Q 72.24 27.03 72.60 25.68
  A 1.95 1.91 7.6 0 1 74.50 24.26
  C 78.78 24.31 81.39 24.21 84.87 26.63
  Q 87.25 28.29 86.38 31.00
  Q 85.85 32.68 86.49 33.70
  Q 87.17 34.76 86.88 35.46
  Q 85.20 39.60 81.45 40.27
  A 0.89 0.87 88.0 0 0 80.72 41.07
  L 80.47 43.89
  A 0.93 0.92 -71.3 0 0 80.89 44.75
  Q 93.86 52.98 99.49 64.71
  Q 102.23 70.43 103.60 78.13
  Q 104.94 85.67 102.14 91.03
  Q 98.31 98.36 89.23 99.11
  A 0.68 0.67 -1.9 0 0 88.61 99.77
  Q 88.57 101.57 89.40 107.27
  Q 90.41 114.17 90.16 120.78
  Q 89.89 127.96 90.21 131.18
  Q 90.73 136.45 90.37 141.68
  Q 90.08 145.81 90.39 151.09
  Q 90.77 157.74 90.50 160.50
  Q 90.26 162.93 90.31 164.12
  A 5.07 0.78 83.2 0 1 90.23 166.49
  Q 88.98 173.26 88.44 176.51
  C 87.82 180.18 86.08 183.06 81.98 182.15
  A 0.52 0.51 88.3 0 0 81.37 182.80
  Q 83.41 189.74 76.73 191.73
  Q 70.87 193.47 70.56 193.54
  C 68.89 193.93 66.95 194.26 66.25 192.26
  Q 65.79 190.95 67.35 189.66
  Q 70.50 187.06 74.07 186.35
  A 1.76 1.74 87.2 0 0 75.47 184.79
  L 75.70 182.13
  A 0.93 0.93 0.0 0 0 75.41 181.37
  Q 73.65 179.72 73.75 178.75
  Q 74.37 172.77 74.28 164.83
  Q 74.14 152.46 74.20 150.91
  Q 74.62 140.19 74.07 127.94
  C 74.00 126.31 74.54 124.88 74.33 123.34
  Q 73.99 120.81 74.50 118.35
  A 4.51 4.41 46.0 0 0 74.51 116.60
  L 73.04 109.07
  A 0.17 0.17 0.0 0 0 72.71 109.05
  Z
  M 35.66 12.87
  Q 35.69 12.90 37.17 13.31
  A 0.38 0.38 0.0 0 0 37.63 12.83
  Q 37.49 12.35 36.40 11.86
  A 0.64 0.64 0.0 0 0 35.66 12.87
  Z
  M 54.15 37.87
  Q 51.84 26.12 42.71 18.61
  Q 39.32 15.82 33.30 14.98
  A 2.49 2.40 40.4 0 0 32.32 15.04
  Q 18.99 18.47 14.64 31.55
  A 0.78 0.78 0.0 0 0 15.14 32.53
  L 30.52 37.40
  A 0.86 0.67 52.0 0 0 30.64 37.43
  L 43.60 38.56
  A 5.95 4.98 6.8 0 0 44.44 38.59
  L 53.75 38.37
  A 0.42 0.42 0.0 0 0 54.15 37.87
  Z
  M 76.56 33.15
  L 75.48 33.05
  A 0.81 0.81 0.0 0 0 74.63 33.64
  Q 73.58 37.41 74.69 40.36
  A 1.31 1.30 -20.2 0 0 76.37 41.13
  Q 78.44 40.36 79.62 38.34
  Q 80.54 36.75 82.03 37.29
  A 0.84 0.82 25.6 0 0 83.02 36.95
  Q 83.78 35.72 82.89 34.68
  A 1.17 1.16 -63.2 0 1 82.60 33.79
  L 82.83 31.19
  A 1.10 1.10 0.0 0 0 81.81 30.00
  L 76.80 29.63
  A 1.03 1.02 21.3 0 0 75.95 30.00
  Q 75.68 30.34 75.42 30.98
  A 0.56 0.56 0.0 0 0 75.78 31.73
  Q 76.76 32.00 76.87 32.83
  A 0.29 0.29 0.0 0 1 76.56 33.15
  Z
  M 55.21 39.81
  A 0.05 0.03 -9.2 0 0 55.17 39.79
  Q 50.97 39.88 47.35 40.10
  C 42.08 40.41 37.09 39.32 31.56 39.07
  A 6.03 5.95 54.8 0 1 30.11 38.81
  L 15.13 34.19
  A 0.11 0.11 0.0 0 0 15.01 34.24
  L 15.01 34.25
  A 0.08 0.07 22.5 0 0 15.05 34.33
  L 19.45 36.56
  A 8.71 8.61 65.9 0 0 21.05 37.18
  C 30.47 39.83 36.34 41.70 45.26 41.16
  Q 52.61 40.72 55.12 40.68
  A 0.28 0.27 -10.2 0 0 55.38 40.31
  L 55.21 39.81
  Z
  M 35.10 42.83
  Q 35.00 42.78 34.47 42.75
  A 0.21 0.21 0.0 0 0 34.34 43.14
  Q 34.91 43.52 34.96 43.52
  A 0.36 0.36 0.0 0 0 35.10 42.83
  Z
  M 78.34 42.73
  Q 77.15 43.95 75.32 43.62
  A 0.58 0.58 0.0 0 0 74.64 44.07
  C 74.00 47.15 75.97 48.36 78.79 47.03
  A 0.53 0.53 0.0 0 0 79.05 46.33
  Q 78.37 44.82 78.72 42.92
  A 0.22 0.22 0.0 0 0 78.34 42.73
  Z
  M 37.00 43.75
  Q 38.41 44.79 40.38 44.85
  A 0.75 0.75 0.0 0 0 41.05 44.47
  L 41.39 43.88
  A 0.36 0.36 0.0 0 0 41.08 43.34
  L 37.13 43.34
  A 0.23 0.23 0.0 0 0 37.00 43.75
  Z
  M 35.47 48.37
  L 42.51 48.15
  A 0.15 0.15 0.0 0 0 42.65 47.99
  L 42.65 47.90
  A 2.95 1.52 -1.8 0 0 39.65 46.48
  L 38.21 46.52
  A 2.95 1.52 -1.8 0 0 35.31 48.13
  L 35.31 48.22
  A 0.15 0.15 0.0 0 0 35.47 48.37
  Z
  M 73.2517 47.3753
  A 0.91 0.50 -96.2 0 0 72.8529 48.3340
  A 0.91 0.50 -96.2 0 0 73.4483 49.1847
  A 0.91 0.50 -96.2 0 0 73.8471 48.2260
  A 0.91 0.50 -96.2 0 0 73.2517 47.3753
  Z
  M 80.65 47.70
  A 0.91 0.79 79.7 0 0 79.87 49.02
  Q 80.09 49.46 80.35 49.42
  A 0.89 0.88 70.9 0 0 81.00 48.08
  Q 80.79 47.73 80.65 47.70
  Z
  M 73.89 57.87
  Q 73.58 57.93 73.41 57.91
  A 0.63 0.54 -63.7 0 1 73.15 56.91
  Q 73.75 56.22 74.33 56.99
  A 0.33 0.32 -57.3 0 0 74.91 56.86
  L 76.15 50.62
  A 0.47 0.47 0.0 0 0 75.61 50.06
  Q 74.51 50.25 73.42 51.09
  A 1.04 1.04 0.0 0 1 71.76 50.47
  L 71.50 49.13
  A 0.57 0.56 -23.3 0 0 70.62 48.78
  Q 68.86 50.02 67.81 51.32
  Q 63.82 56.30 60.60 62.85
  C 58.11 67.90 57.03 74.71 51.55 77.54
  Q 48.04 79.36 46.01 77.53
  C 44.47 76.14 42.01 69.82 41.90 67.56
  Q 41.52 59.81 40.84 49.92
  A 0.22 0.22 0.0 0 0 40.62 49.71
  L 37.27 49.71
  A 0.31 0.31 0.0 0 0 36.96 49.99
  Q 36.35 58.29 37.59 65.93
  C 38.71 72.84 38.61 80.61 42.66 87.22
  A 3.57 3.56 -14.4 0 0 45.56 88.93
  Q 52.45 89.23 56.91 83.93
  Q 61.91 77.98 64.36 71.38
  A 2.49 1.82 69.9 0 0 64.47 71.00
  L 67.33 56.67
  A 0.82 0.82 0.0 0 1 67.96 56.04
  L 68.25 55.99
  A 0.46 0.46 0.0 0 1 68.80 56.49
  Q 68.13 62.84 67.02 68.25
  Q 66.89 68.84 67.06 72.94
  A 0.84 0.84 0.0 0 0 67.48 73.63
  L 71.07 75.70
  A 0.61 0.60 17.5 0 0 71.98 75.23
  L 72.22 72.54
  A 0.37 0.37 0.0 0 0 71.64 72.20
  Q 71.10 72.55 70.68 72.63
  A 0.55 0.55 0.0 0 1 70.24 71.67
  Q 71.03 71.02 71.94 71.77
  A 0.34 0.34 0.0 0 0 72.50 71.54
  L 72.99 66.01
  A 0.54 0.53 -78.9 0 0 72.63 65.46
  Q 72.54 65.43 72.29 65.36
  A 0.58 0.58 0.0 0 1 71.99 64.46
  Q 72.14 64.25 72.62 64.26
  A 0.73 0.72 -84.1 0 0 73.33 63.68
  L 74.39 58.38
  A 0.43 0.43 0.0 0 0 73.89 57.87
  Z
  M 82.30 49.68
  Q 82.11 49.85 81.78 50.67
  Q 81.36 51.72 80.65 51.76
  Q 80.29 51.78 79.07 50.71
  A 0.90 0.89 23.4 0 0 77.59 51.29
  Q 77.39 53.38 75.39 61.07
  Q 74.21 65.59 73.29 75.52
  A 0.45 0.45 0.0 0 0 73.70 76.01
  L 80.76 76.63
  A 0.48 0.47 8.5 0 0 81.26 76.27
  L 84.11 64.78
  A 1.15 1.15 0.0 0 1 85.97 64.18
  Q 88.71 66.55 89.82 69.44
  Q 92.94 77.58 93.60 79.47
  A 3.79 3.79 0.0 0 1 93.81 80.52
  Q 94.09 85.26 92.33 88.71
  Q 91.94 89.48 88.37 91.98
  A 0.91 0.91 0.0 0 0 88.06 93.09
  Q 88.49 94.08 88.35 95.40
  A 0.78 0.77 -85.9 0 0 89.09 96.26
  C 94.25 96.45 97.09 93.97 99.87 89.79
  A 3.54 3.50 -21.4 0 0 100.38 88.64
  Q 101.70 83.26 101.09 80.00
  Q 100.19 75.17 98.36 69.16
  C 96.10 61.75 90.34 56.11 83.22 49.69
  A 0.70 0.69 45.3 0 0 82.30 49.68
  Z
  M 85.68 68.39
  L 84.08 76.42
  A 1.55 1.51 -52.6 0 0 84.20 77.41
  Q 86.29 81.79 86.98 88.55
  A 0.56 0.56 0.0 0 0 87.81 88.98
  L 90.43 87.46
  A 0.68 0.65 -8.5 0 0 90.74 87.06
  Q 91.95 82.54 91.01 79.26
  Q 89.58 74.25 86.35 68.29
  A 0.36 0.36 0.0 0 0 85.68 68.39
  Z
  M 63.2396 177.7239
  A 0.60 0.60 0.0 0 0 62.6501 177.1135
  L 62.2902 177.1072
  A 0.60 0.60 0.0 0 0 61.6798 177.6966
  L 61.6204 181.0961
  A 0.60 0.60 0.0 0 0 62.2099 181.7065
  L 62.5698 181.7128
  A 0.60 0.60 0.0 0 0 63.1802 181.1234
  L 63.2396 177.7239
  Z
  M 79.4471 181.8340
  A 0.55 0.55 0.0 0 0 78.8764 181.3055
  L 78.0370 181.3377
  A 0.55 0.55 0.0 0 0 77.5085 181.9084
  L 77.6329 185.1460
  A 0.55 0.55 0.0 0 0 78.2036 185.6745
  L 79.0430 185.6423
  A 0.55 0.55 0.0 0 0 79.5715 185.0716
  L 79.4471 181.8340
  Z"
/>
<path fill="#f8f5ef" d="
  M 35.66 12.87
  A 0.64 0.64 0.0 0 1 36.40 11.86
  Q 37.49 12.35 37.63 12.83
  A 0.38 0.38 0.0 0 1 37.17 13.31
  Q 35.69 12.90 35.66 12.87
  Z"
/>
<path fill="#f8f5ef" d="
  M 54.15 37.87
  A 0.42 0.42 0.0 0 1 53.75 38.37
  L 44.44 38.59
  A 5.95 4.98 6.8 0 1 43.60 38.56
  L 30.64 37.43
  A 0.86 0.67 52.0 0 1 30.52 37.40
  L 15.14 32.53
  A 0.78 0.78 0.0 0 1 14.64 31.55
  Q 18.99 18.47 32.32 15.04
  A 2.49 2.40 40.4 0 1 33.30 14.98
  Q 39.32 15.82 42.71 18.61
  Q 51.84 26.12 54.15 37.87
  Z"
/>
<path fill="#f8f5ef" d="
  M 76.87 32.83
  Q 76.76 32.00 75.78 31.73
  A 0.56 0.56 0.0 0 1 75.42 30.98
  Q 75.68 30.34 75.95 30.00
  A 1.03 1.02 21.3 0 1 76.80 29.63
  L 81.81 30.00
  A 1.10 1.10 0.0 0 1 82.83 31.19
  L 82.60 33.79
  A 1.17 1.16 -63.2 0 0 82.89 34.68
  Q 83.78 35.72 83.02 36.95
  A 0.84 0.82 25.6 0 1 82.03 37.29
  Q 80.54 36.75 79.62 38.34
  Q 78.44 40.36 76.37 41.13
  A 1.31 1.30 -20.2 0 1 74.69 40.36
  Q 73.58 37.41 74.63 33.64
  A 0.81 0.81 0.0 0 1 75.48 33.05
  L 76.56 33.15
  A 0.29 0.29 0.0 0 0 76.87 32.83
  Z
  M 79.94 34.15
  Q 80.85 34.59 80.95 34.61
  A 0.49 0.49 0.0 0 0 81.54 34.00
  Q 81.26 33.10 80.61 32.78
  Q 79.95 32.46 79.06 32.80
  A 0.49 0.49 0.0 0 0 78.95 33.64
  Q 79.03 33.71 79.94 34.15
  Z
  M 77.72 37.16
  Q 78.24 36.64 77.38 35.87
  A 0.89 0.72 28.1 0 0 75.98 36.14
  Q 75.89 36.86 76.77 37.24
  A 0.40 0.40 0.0 0 1 76.84 37.93
  Q 76.34 38.27 76.36 38.40
  A 0.96 0.92 -36.1 0 0 78.13 38.64
  Q 78.35 38.25 77.79 37.89
  A 0.47 0.47 0.0 0 1 77.72 37.16
  Z"
/>
<path fill="#cb171d" d="
  M 80.61 32.78
  Q 81.26 33.10 81.54 34.00
  A 0.49 0.49 0.0 0 1 80.95 34.61
  Q 80.85 34.59 79.94 34.15
  Q 79.03 33.71 78.95 33.64
  A 0.49 0.49 0.0 0 1 79.06 32.80
  Q 79.95 32.46 80.61 32.78
  Z"
/>
<path fill="#f8f5ef" d="
  M 55.12 40.68
  Q 52.61 40.72 45.26 41.16
  C 36.34 41.70 30.47 39.83 21.05 37.18
  A 8.71 8.61 65.9 0 1 19.45 36.56
  L 15.05 34.33
  A 0.08 0.07 22.5 0 1 15.01 34.25
  L 15.01 34.24
  A 0.11 0.11 0.0 0 1 15.13 34.19
  L 30.11 38.81
  A 6.03 5.95 54.8 0 0 31.56 39.07
  C 37.09 39.32 42.08 40.41 47.35 40.10
  Q 50.97 39.88 55.17 39.79
  A 0.05 0.03 -9.2 0 1 55.21 39.81
  L 55.38 40.31
  A 0.28 0.27 -10.2 0 1 55.12 40.68
  Z"
/>
<path fill="#cb171d" d="
  M 77.79 37.89
  Q 78.35 38.25 78.13 38.64
  A 0.96 0.92 -36.1 0 1 76.36 38.40
  Q 76.34 38.27 76.84 37.93
  A 0.40 0.40 0.0 0 0 76.77 37.24
  Q 75.89 36.86 75.98 36.14
  A 0.89 0.72 28.1 0 1 77.38 35.87
  Q 78.24 36.64 77.72 37.16
  A 0.47 0.47 0.0 0 0 77.79 37.89
  Z"
/>
<path fill="#f8f5ef" d="
  M 34.96 43.52
  Q 34.91 43.52 34.34 43.14
  A 0.21 0.21 0.0 0 1 34.47 42.75
  Q 35.00 42.78 35.10 42.83
  A 0.36 0.36 0.0 0 1 34.96 43.52
  Z"
/>
<path fill="#f8f5ef" d="
  M 78.34 42.73
  A 0.22 0.22 0.0 0 1 78.72 42.92
  Q 78.37 44.82 79.05 46.33
  A 0.53 0.53 0.0 0 1 78.79 47.03
  C 75.97 48.36 74.00 47.15 74.64 44.07
  A 0.58 0.58 0.0 0 1 75.32 43.62
  Q 77.15 43.95 78.34 42.73
  Z"
/>
<path fill="#f8f5ef" d="
  M 37.00 43.75
  A 0.23 0.23 0.0 0 1 37.13 43.34
  L 41.08 43.34
  A 0.36 0.36 0.0 0 1 41.39 43.88
  L 41.05 44.47
  A 0.75 0.75 0.0 0 1 40.38 44.85
  Q 38.41 44.79 37.00 43.75
  Z"
/>
<path fill="#f8f5ef" d="
  M 35.47 48.37
  A 0.15 0.15 0.0 0 1 35.31 48.22
  L 35.31 48.13
  A 2.95 1.52 -1.8 0 1 38.21 46.52
  L 39.65 46.48
  A 2.95 1.52 -1.8 0 1 42.65 47.90
  L 42.65 47.99
  A 0.15 0.15 0.0 0 1 42.51 48.15
  L 35.47 48.37
  Z"
/>
<ellipse fill="#f8f5ef" cx="0.00" cy="0.00" transform="translate(73.35,48.28) rotate(-96.2)" rx="0.91" ry="0.50"/>
<path fill="#f8f5ef" d="
  M 80.65 47.70
  Q 80.79 47.73 81.00 48.08
  A 0.89 0.88 70.9 0 1 80.35 49.42
  Q 80.09 49.46 79.87 49.02
  A 0.91 0.79 79.7 0 1 80.65 47.70
  Z"
/>
<path fill="#f8f5ef" d="
  M 74.39 58.38
  L 73.33 63.68
  A 0.73 0.72 -84.1 0 1 72.62 64.26
  Q 72.14 64.25 71.99 64.46
  A 0.58 0.58 0.0 0 0 72.29 65.36
  Q 72.54 65.43 72.63 65.46
  A 0.54 0.53 -78.9 0 1 72.99 66.01
  L 72.50 71.54
  A 0.34 0.34 0.0 0 1 71.94 71.77
  Q 71.03 71.02 70.24 71.67
  A 0.55 0.55 0.0 0 0 70.68 72.63
  Q 71.10 72.55 71.64 72.20
  A 0.37 0.37 0.0 0 1 72.22 72.54
  L 71.98 75.23
  A 0.61 0.60 17.5 0 1 71.07 75.70
  L 67.48 73.63
  A 0.84 0.84 0.0 0 1 67.06 72.94
  Q 66.89 68.84 67.02 68.25
  Q 68.13 62.84 68.80 56.49
  A 0.46 0.46 0.0 0 0 68.25 55.99
  L 67.96 56.04
  A 0.82 0.82 0.0 0 0 67.33 56.67
  L 64.47 71.00
  A 2.49 1.82 69.9 0 1 64.36 71.38
  Q 61.91 77.98 56.91 83.93
  Q 52.45 89.23 45.56 88.93
  A 3.57 3.56 -14.4 0 1 42.66 87.22
  C 38.61 80.61 38.71 72.84 37.59 65.93
  Q 36.35 58.29 36.96 49.99
  A 0.31 0.31 0.0 0 1 37.27 49.71
  L 40.62 49.71
  A 0.22 0.22 0.0 0 1 40.84 49.92
  Q 41.52 59.81 41.90 67.56
  C 42.01 69.82 44.47 76.14 46.01 77.53
  Q 48.04 79.36 51.55 77.54
  C 57.03 74.71 58.11 67.90 60.60 62.85
  Q 63.82 56.30 67.81 51.32
  Q 68.86 50.02 70.62 48.78
  A 0.57 0.56 -23.3 0 1 71.50 49.13
  L 71.76 50.47
  A 1.04 1.04 0.0 0 0 73.42 51.09
  Q 74.51 50.25 75.61 50.06
  A 0.47 0.47 0.0 0 1 76.15 50.62
  L 74.91 56.86
  A 0.33 0.32 -57.3 0 1 74.33 56.99
  Q 73.75 56.22 73.15 56.91
  A 0.63 0.54 -63.7 0 0 73.41 57.91
  Q 73.58 57.93 73.89 57.87
  A 0.43 0.43 0.0 0 1 74.39 58.38
  Z
  M 74.57 54.53
  A 0.80 0.76 61.2 0 0 74.94 53.12
  Q 74.84 53.03 74.66 53.03
  A 0.75 0.66 69.0 0 0 74.21 54.22
  Q 74.46 54.54 74.57 54.53
  Z
  M 73.16 60.58
  Q 73.06 60.18 72.57 60.33
  A 0.81 0.75 -35.4 0 0 72.28 61.71
  Q 72.57 61.90 72.67 61.82
  Q 73.35 61.34 73.16 60.58
  Z
  M 71.66 69.52
  A 0.86 0.47 78.1 0 0 72.04 68.27
  Q 71.89 67.97 71.52 68.07
  Q 71.06 68.18 71.08 68.53
  Q 71.10 69.20 71.66 69.52
  Z"
/>
<path fill="#f8f5ef" d="
  M 83.22 49.69
  C 90.34 56.11 96.10 61.75 98.36 69.16
  Q 100.19 75.17 101.09 80.00
  Q 101.70 83.26 100.38 88.64
  A 3.54 3.50 -21.4 0 1 99.87 89.79
  C 97.09 93.97 94.25 96.45 89.09 96.26
  A 0.78 0.77 -85.9 0 1 88.35 95.40
  Q 88.49 94.08 88.06 93.09
  A 0.91 0.91 0.0 0 1 88.37 91.98
  Q 91.94 89.48 92.33 88.71
  Q 94.09 85.26 93.81 80.52
  A 3.79 3.79 0.0 0 0 93.60 79.47
  Q 92.94 77.58 89.82 69.44
  Q 88.71 66.55 85.97 64.18
  A 1.15 1.15 0.0 0 0 84.11 64.78
  L 81.26 76.27
  A 0.48 0.47 8.5 0 1 80.76 76.63
  L 73.70 76.01
  A 0.45 0.45 0.0 0 1 73.29 75.52
  Q 74.21 65.59 75.39 61.07
  Q 77.39 53.38 77.59 51.29
  A 0.90 0.89 23.4 0 1 79.07 50.71
  Q 80.29 51.78 80.65 51.76
  Q 81.36 51.72 81.78 50.67
  Q 82.11 49.85 82.30 49.68
  A 0.70 0.69 45.3 0 1 83.22 49.69
  Z"
/>
<path fill="#cb171d" d="
  M 74.57 54.53
  Q 74.46 54.54 74.21 54.22
  A 0.75 0.66 69.0 0 1 74.66 53.03
  Q 74.84 53.03 74.94 53.12
  A 0.80 0.76 61.2 0 1 74.57 54.53
  Z"
/>
<path fill="#cb171d" d="
  M 73.16 60.58
  Q 73.35 61.34 72.67 61.82
  Q 72.57 61.90 72.28 61.71
  A 0.81 0.75 -35.4 0 1 72.57 60.33
  Q 73.06 60.18 73.16 60.58
  Z"
/>
<path fill="#f8f5ef" d="
  M 86.35 68.29
  Q 89.58 74.25 91.01 79.26
  Q 91.95 82.54 90.74 87.06
  A 0.68 0.65 -8.5 0 1 90.43 87.46
  L 87.81 88.98
  A 0.56 0.56 0.0 0 1 86.98 88.55
  Q 86.29 81.79 84.20 77.41
  A 1.55 1.51 -52.6 0 1 84.08 76.42
  L 85.68 68.39
  A 0.36 0.36 0.0 0 1 86.35 68.29
  Z"
/>
<path fill="#cb171d" d="
  M 71.66 69.52
  Q 71.10 69.20 71.08 68.53
  Q 71.06 68.18 71.52 68.07
  Q 71.89 67.97 72.04 68.27
  A 0.86 0.47 78.1 0 1 71.66 69.52
  Z"
/>
<rect fill="#f8f5ef" x="-0.78" y="-2.30" transform="translate(62.43,179.41) rotate(1.0)" width="1.56" height="4.60" rx="0.60"/>
<rect fill="#f8f5ef" x="-0.97" y="-2.17" transform="translate(78.54,183.49) rotate(-2.2)" width="1.94" height="4.34" rx="0.55"/>
</svg>
