<?xml version="1.0" encoding="UTF-8" standalone="no"?>
<!DOCTYPE svg PUBLIC "-//W3C//DTD SVG 1.1//EN" "http://www.w3.org/Graphics/SVG/1.1/DTD/svg11.dtd">
<svg xmlns="http://www.w3.org/2000/svg" version="1.1" viewBox="0.00 0.00 552.00 545.00">
<g stroke-width="2.00" fill="none" stroke-linecap="butt">
<path stroke="#e18482" vector-effect="non-scaling-stroke" d="
  M 256.86 223.63
  A 0.35 0.35 0.0 0 1 256.82 224.29
  C 248.93 226.30 249.27 231.34 248.14 237.89
  A 0.97 0.96 -4.9 0 1 247.52 238.62
  Q 236.09 242.66 233.02 243.56
  Q 220.65 247.16 216.11 248.89
  Q 203.47 253.72 193.85 264.36
  Q 188.66 270.10 180.57 280.58
  Q 174.98 287.82 167.06 297.34
  A 0.28 0.28 0.0 0 1 166.57 297.16
  L 166.57 287.43
  A 1.19 1.18 -16.3 0 1 167.12 286.43
  Q 173.57 282.37 172.17 274.83
  A 2.15 2.14 62.7 0 1 172.78 272.90
  C 175.76 270.02 175.38 266.21 176.59 262.56
  Q 179.96 252.35 178.16 241.26
  Q 178.16 241.24 175.93 229.26
  Q 174.90 223.74 176.00 216.26
  Q 176.98 209.66 176.82 204.01
  C 176.69 199.08 173.58 194.35 168.23 194.82
  C 160.25 195.51 157.41 205.85 157.61 212.56
  Q 157.75 217.13 158.57 222.68
  A 1.42 1.42 0.0 0 1 157.21 224.31
  C 147.52 224.64 129.48 225.02 130.22 239.31
  C 130.28 240.42 130.98 242.37 130.91 243.93
  A 2.44 2.42 60.4 0 1 130.62 245.00
  Q 127.55 250.61 129.76 256.68
  C 130.63 259.05 130.39 259.67 130.00 262.25
  C 129.61 264.82 129.85 267.32 130.94 269.68
  Q 132.20 272.43 132.26 272.61
  A 3.68 3.56 37.5 0 1 132.46 273.96
  Q 132.28 278.32 133.80 282.24
  C 134.58 284.26 134.26 285.71 133.73 287.47
  Q 129.53 301.46 122.65 317.15
  A 1.30 1.29 -88.1 0 1 121.94 317.82
  Q 114.17 320.73 110.65 325.18
  Q 98.90 340.02 103.60 359.00
  Q 106.65 371.32 115.08 379.41
  Q 131.18 394.85 153.07 387.39
  Q 161.15 384.63 167.56 376.52
  A 5.25 5.10 2.2 0 1 168.84 375.37
  Q 174.49 371.73 179.49 366.99
  Q 187.59 359.29 195.64 351.38
  A 0.37 0.37 0.0 0 1 196.27 351.66
  Q 195.54 370.36 196.23 389.05
  A 6.92 6.84 53.2 0 1 195.91 391.37
  Q 194.97 394.30 194.09 396.82
  Q 190.53 407.10 197.50 415.03
  A 1.27 1.25 30.0 0 1 197.80 416.11
  C 197.40 418.09 196.19 421.55 195.65 424.43
  Q 189.01 459.74 187.46 496.24
  A 1.11 1.11 0.0 0 0 188.57 497.40
  L 188.62 497.40
  A 1.27 1.27 0.0 0 0 189.89 496.26
  Q 192.86 465.84 198.00 433.75
  Q 199.16 426.54 200.88 418.91
  A 0.59 0.59 0.0 0 1 201.64 418.47
  Q 217.62 423.55 234.44 425.56
  Q 278.51 430.81 322.09 425.27
  A 0.31 0.31 0.0 0 1 322.41 425.71
  Q 321.26 428.14 321.17 431.12
  A 1.07 1.06 -9.4 0 1 320.47 432.09
  C 308.46 436.55 297.04 438.67 283.35 440.88
  Q 276.24 442.03 269.07 441.87
  Q 255.49 441.58 245.51 440.72
  Q 226.95 439.13 207.81 433.69
  A 0.75 0.75 0.0 0 0 206.85 434.40
  L 206.85 434.44
  A 1.49 1.48 -77.5 0 0 207.73 435.83
  Q 217.76 440.32 228.00 441.99
  Q 250.76 445.68 273.22 444.26
  A 1.96 1.82 -60.5 0 0 274.07 443.99
  C 275.97 442.88 278.39 443.97 280.85 443.83
  Q 300.95 442.74 319.79 435.93
  A 0.30 0.30 0.0 0 1 320.15 436.36
  Q 307.93 457.32 292.44 477.68
  A 0.42 0.42 0.0 0 0 292.43 478.17
  L 292.63 478.46
  A 0.68 0.68 0.0 0 0 293.65 478.57
  Q 298.28 474.25 301.97 469.73
  Q 313.82 455.25 322.07 439.40
  A 0.20 0.20 0.0 0 1 322.41 439.38
  L 324.77 442.78
  A 0.96 0.93 29.3 0 1 324.94 443.35
  Q 323.63 476.82 325.92 509.94
  A 1.03 1.01 69.3 0 0 327.56 510.69
  Q 328.29 510.12 328.32 508.50
  C 328.61 487.01 327.98 464.63 328.47 444.83
  A 0.65 0.65 0.0 0 1 329.76 444.71
  Q 336.05 474.38 339.85 505.14
  C 340.13 507.40 340.84 508.55 343.22 508.17
  Q 350.50 506.99 356.21 503.45
  A 2.60 2.58 -17.4 0 0 357.42 501.16
  Q 357.28 498.00 356.54 494.46
  Q 355.22 488.11 352.46 477.24
  A 0.50 0.50 0.0 0 1 353.03 476.63
  L 353.97 476.80
  A 2.93 2.89 37.1 0 0 355.71 476.57
  Q 362.86 473.22 365.43 470.38
  C 368.91 466.54 366.20 462.10 364.39 458.02
  A 1.36 1.34 62.5 0 1 364.91 456.34
  C 382.25 445.52 398.50 435.17 413.68 422.52
  A 0.97 0.96 35.2 0 1 414.64 422.36
  Q 422.97 425.53 429.64 421.04
  Q 439.23 414.59 444.04 403.86
  Q 448.06 394.89 444.45 384.89
  A 1.48 1.45 -44.4 0 1 444.47 383.87
  Q 451.46 366.06 442.72 348.68
  Q 438.14 339.55 433.93 333.06
  Q 415.37 304.39 392.33 275.17
  C 384.69 265.48 375.87 257.57 365.20 252.80
  Q 356.84 249.06 349.21 246.40
  C 340.05 243.22 331.05 239.70 322.40 236.35
  A 1.79 1.78 6.7 0 1 321.27 234.92
  Q 320.62 230.21 319.90 225.12
  C 319.10 219.52 316.82 217.80 311.69 216.24
  A 0.89 0.88 -79.0 0 1 311.07 215.32
  Q 311.68 207.98 313.56 201.59
  A 0.78 0.77 -81.0 0 1 314.31 201.04
  C 325.20 201.30 333.22 193.72 335.90 183.69
  Q 337.42 178.04 334.59 171.17
  A 0.83 0.80 -38.1 0 1 334.70 170.36
  C 338.09 165.84 340.12 160.37 343.70 152.80
  A 0.49 0.48 -61.1 0 1 344.40 152.59
  Q 351.43 156.91 359.22 156.00
  C 371.25 154.61 378.89 144.75 375.98 132.82
  A 1.11 1.11 0.0 0 1 376.22 131.84
  C 385.28 121.47 386.29 106.11 379.34 94.18
  Q 372.86 83.07 359.10 79.61
  A 0.81 0.81 0.0 0 1 358.50 78.96
  C 358.12 76.80 357.87 73.80 356.82 71.22
  Q 349.92 54.31 332.82 47.21
  Q 313.60 39.22 294.88 47.19
  A 1.26 1.24 49.1 0 1 293.72 47.10
  Q 292.87 46.56 291.42 45.49
  Q 287.14 42.32 282.20 40.79
  C 266.96 36.06 249.77 39.12 240.13 52.27
  C 230.10 65.94 233.76 83.30 246.30 93.89
  C 247.77 95.12 249.81 96.21 251.07 97.21
  A 0.87 0.87 0.0 0 1 251.33 98.22
  Q 247.99 106.34 241.32 125.33
  Q 240.02 129.05 242.15 131.95
  A 0.91 0.90 -56.8 0 1 242.30 132.68
  Q 239.03 147.28 234.84 169.56
  C 232.43 182.39 232.81 194.52 238.47 206.47
  Q 244.30 218.80 256.86 223.63"
/>
<path stroke="#e18482" vector-effect="non-scaling-stroke" d="
  M 164.1371 162.8212
  A 1.41 1.41 0.0 0 0 162.5874 161.5663
  L 162.4879 161.5768
  A 1.41 1.41 0.0 0 0 161.2331 163.1264
  L 162.5229 175.3988
  A 1.41 1.41 0.0 0 0 164.0726 176.6537
  L 164.1721 176.6432
  A 1.41 1.41 0.0 0 0 165.4269 175.0936
  L 164.1371 162.8212"
/>
<path stroke="#e18482" vector-effect="non-scaling-stroke" d="
  M 143.6659 169.3026
  A 1.46 1.46 0.0 0 0 141.6463 168.8734
  L 141.5792 168.9169
  A 1.46 1.46 0.0 0 0 141.1499 170.9366
  L 148.0341 181.5374
  A 1.46 1.46 0.0 0 0 150.0537 181.9666
  L 150.1208 181.9231
  A 1.46 1.46 0.0 0 0 150.5501 179.9034
  L 143.6659 169.3026"
/>
<path stroke="#e18482" vector-effect="non-scaling-stroke" d="
  M 140.8188 192.9790
  A 1.37 1.37 0.0 0 0 140.1848 191.1481
  L 130.2357 186.3171
  A 1.37 1.37 0.0 0 0 128.4049 186.9511
  L 128.3612 187.0410
  A 1.37 1.37 0.0 0 0 128.9952 188.8719
  L 138.9443 193.7029
  A 1.37 1.37 0.0 0 0 140.7751 193.0689
  L 140.8188 192.9790"
/>
<path stroke="#e18482" vector-effect="non-scaling-stroke" d="
  M 266.72 89.36
  Q 260.35 82.27 260.38 72.62
  A 1.04 1.03 -17.2 0 1 260.84 71.76
  L 261.21 71.49
  A 0.73 0.73 0.0 0 1 262.34 71.96
  Q 264.17 82.04 270.53 89.00
  A 1.92 1.89 68.3 0 0 271.93 89.62
  Q 279.47 89.69 286.39 91.53
  A 0.52 0.51 -84.0 0 0 287.04 91.00
  C 286.88 87.98 286.35 78.63 289.20 77.17
  A 0.88 0.83 82.8 0 1 290.39 78.15
  Q 289.05 85.26 290.52 91.92
  A 1.00 0.99 1.6 0 0 291.23 92.66
  Q 302.65 95.72 314.03 102.12
  A 0.74 0.73 25.7 0 0 315.07 101.76
  C 316.77 97.48 319.89 91.31 323.69 89.04
  A 0.85 0.84 -19.9 0 1 324.96 89.63
  Q 325.06 90.21 324.71 90.74
  Q 319.32 98.91 317.97 103.98
  A 0.70 0.69 23.5 0 0 318.27 104.73
  Q 326.12 109.77 333.51 116.84
  A 1.11 1.10 -29.1 0 0 334.50 117.12
  C 339.48 116.04 343.46 113.63 348.29 110.76
  A 0.97 0.96 -14.7 0 1 349.76 111.60
  Q 349.73 112.25 348.95 112.97
  Q 343.84 117.71 336.94 119.74
  A 0.50 0.50 0.0 0 0 336.72 120.56
  Q 342.36 126.56 345.65 133.21
  A 1.88 1.88 0.0 0 0 346.68 134.14
  Q 349.74 135.31 354.02 136.01
  A 0.89 0.88 -69.5 0 1 354.62 137.35
  Q 354.40 137.73 353.85 137.83
  Q 350.55 138.44 347.68 137.39
  A 0.35 0.35 0.0 0 0 347.23 137.83
  C 348.69 142.42 347.06 143.76 345.85 147.84
  A 0.82 0.81 -65.2 0 0 346.18 148.75
  C 357.69 156.33 373.05 150.48 372.85 135.49
  A 0.58 0.57 -10.7 0 0 372.07 134.96
  Q 370.85 135.42 369.46 135.92
  Q 367.93 136.47 367.27 135.48
  A 0.74 0.73 -39.9 0 1 367.36 134.56
  C 369.16 132.73 372.23 130.65 373.93 128.27
  Q 383.66 114.67 377.48 99.80
  Q 373.27 89.67 362.08 84.69
  Q 361.17 84.29 359.25 84.16
  A 0.70 0.69 6.9 0 0 358.52 84.73
  Q 358.29 85.94 357.49 87.30
  A 1.50 1.39 -50.4 0 1 355.15 87.62
  Q 354.62 86.98 354.66 86.23
  C 355.61 70.06 345.19 56.86 330.73 51.01
  Q 312.69 43.72 295.15 51.38
  Q 293.07 52.29 292.61 52.18
  Q 291.46 51.89 291.10 50.59
  A 2.05 2.03 8.6 0 0 290.23 49.42
  C 275.34 39.86 254.61 39.74 243.30 54.96
  C 238.94 60.83 237.30 68.92 239.46 76.31
  Q 242.59 87.04 253.01 93.40
  A 0.95 0.94 45.3 0 0 253.97 93.41
  Q 259.53 90.14 266.53 89.82
  A 0.28 0.27 67.7 0 0 266.72 89.36"
/>
<path stroke="#e18482" vector-effect="non-scaling-stroke" d="
  M 246.57 124.49
  L 251.00 123.30
  A 2.54 1.91 26.6 0 1 251.44 123.22
  Q 267.10 121.74 280.72 125.80
  Q 303.61 132.61 322.15 150.09
  Q 328.68 156.25 333.43 163.58
  A 0.35 0.35 0.0 0 0 334.04 163.54
  Q 339.06 152.98 343.20 142.96
  Q 344.09 140.81 343.59 139.17
  C 341.75 133.14 337.09 126.55 332.72 122.07
  Q 311.67 100.52 282.29 94.82
  C 274.64 93.34 266.67 93.33 258.67 95.14
  A 3.57 3.55 -85.9 0 0 256.13 97.35
  L 246.06 123.94
  A 0.42 0.42 0.0 0 0 246.57 124.49"
/>
<path stroke="#e18482" vector-effect="non-scaling-stroke" d="
  M 263.16 225.50
  L 262.81 237.02
  A 1.09 1.06 26.3 0 0 263.08 237.78
  C 268.59 244.09 268.08 248.76 268.12 256.05
  A 0.16 0.16 0.0 0 0 268.32 256.20
  L 276.85 253.91
  A 0.38 0.36 83.8 0 0 277.12 253.56
  Q 277.41 246.18 278.98 241.72
  C 280.62 237.08 283.75 235.26 288.34 233.62
  Q 299.04 229.80 306.61 225.52
  A 1.22 1.21 -16.9 0 0 307.23 224.37
  Q 306.24 210.68 310.75 197.53
  A 1.11 1.11 0.0 0 1 312.01 196.80
  C 314.63 197.31 316.45 197.67 319.22 196.74
  C 328.10 193.75 335.75 183.25 331.24 173.84
  Q 328.76 168.65 323.23 169.77
  C 319.01 170.63 316.35 173.96 313.76 177.27
  A 2.49 2.21 -53.1 0 1 310.57 177.92
  Q 309.06 176.83 309.52 174.50
  Q 310.65 168.75 311.25 164.14
  A 2.50 2.50 0.0 0 0 310.93 162.53
  Q 310.38 161.57 309.44 159.86
  C 307.08 155.58 307.44 150.27 309.46 145.84
  A 1.05 1.04 -59.7 0 0 309.13 144.56
  C 296.65 135.42 282.06 129.19 266.63 127.13
  C 260.85 126.36 254.44 126.77 249.15 127.69
  A 1.33 1.32 2.0 0 0 248.09 128.67
  C 247.17 132.30 245.65 136.45 244.71 141.04
  Q 242.69 150.85 239.15 167.82
  Q 236.61 180.05 238.03 190.76
  Q 239.60 202.55 245.68 210.42
  Q 256.17 224.00 274.36 220.25
  Q 281.43 218.80 290.78 213.86
  A 0.93 0.93 0.0 0 1 292.09 214.97
  L 292.01 215.21
  A 1.18 1.16 -11.8 0 1 291.67 215.72
  Q 282.49 223.96 270.14 225.16
  C 267.82 225.39 265.09 225.33 263.72 225.06
  A 0.47 0.46 6.3 0 0 263.16 225.50"
/>
<path stroke="#e18482" vector-effect="non-scaling-stroke" d="
  M 171.66 226.84
  Q 171.59 217.66 173.09 208.57
  C 173.60 205.46 173.25 199.02 169.12 198.63
  C 165.13 198.26 162.71 203.29 162.06 206.30
  Q 160.97 211.35 161.69 217.06
  C 162.01 219.68 161.93 221.38 162.00 224.16
  A 0.48 0.47 -1.2 0 0 162.49 224.62
  Q 167.06 224.49 171.02 227.18
  A 0.41 0.41 0.0 0 0 171.66 226.84"
/>
<path stroke="#e18482" vector-effect="non-scaling-stroke" d="
  M 310.96 222.11
  A 1.15 1.07 81.1 0 0 312.18 220.29
  Q 311.56 219.62 311.19 220.53
  Q 310.61 221.92 310.96 222.11"
/>
<path stroke="#e18482" vector-effect="non-scaling-stroke" d="
  M 314.63 223.35
  C 312.12 227.66 306.29 230.37 301.70 232.43
  Q 294.33 235.74 286.70 238.45
  C 281.32 240.36 280.72 250.90 281.21 255.52
  A 1.50 1.49 79.4 0 1 280.11 257.13
  L 238.40 268.35
  A 2.91 2.90 0.9 0 0 236.39 270.29
  Q 235.03 274.68 233.57 281.28
  Q 224.48 322.30 222.15 369.51
  Q 220.45 404.03 220.60 407.60
  Q 220.84 412.90 220.93 413.39
  Q 221.40 416.00 222.08 419.07
  A 1.05 1.05 0.0 0 0 222.94 419.87
  Q 274.81 427.86 326.77 420.58
  Q 329.31 420.23 335.16 418.77
  A 2.27 2.17 -70.5 0 0 336.03 418.33
  Q 342.80 412.62 342.94 404.43
  Q 342.95 403.96 342.42 399.05
  Q 341.99 395.02 343.06 390.87
  Q 351.52 358.24 357.74 336.36
  A 0.90 0.89 -54.2 0 0 357.62 335.60
  L 353.73 329.97
  A 1.06 1.06 0.0 0 1 354.82 328.32
  Q 356.05 328.57 357.05 329.50
  Q 362.54 334.59 369.14 342.12
  Q 377.02 351.10 387.39 363.73
  A 0.52 0.52 0.0 0 0 388.21 363.70
  C 392.75 357.32 400.97 351.35 409.08 350.94
  A 0.77 0.77 0.0 0 1 409.36 352.44
  C 402.55 354.66 394.11 359.63 390.40 366.06
  A 0.27 0.27 0.0 0 0 390.72 366.45
  Q 404.58 361.80 418.77 365.36
  Q 432.33 368.76 441.33 379.63
  A 0.39 0.39 0.0 0 0 442.00 379.51
  C 444.04 373.45 444.46 367.15 442.78 360.76
  Q 441.36 355.33 440.92 354.37
  Q 435.81 343.25 430.72 335.52
  Q 410.85 305.31 387.54 276.01
  Q 375.38 260.71 357.16 254.10
  Q 354.86 253.27 321.93 240.75
  A 0.71 0.70 -59.7 0 0 321.15 240.96
  Q 318.77 243.80 315.56 246.05
  Q 304.82 253.59 290.13 256.48
  A 0.96 0.96 0.0 0 1 289.16 256.09
  L 288.93 255.76
  A 0.81 0.81 0.0 0 1 289.33 254.53
  C 300.01 250.84 309.51 246.68 317.54 239.50
  A 1.35 1.34 64.6 0 0 317.97 238.28
  L 315.48 223.50
  A 0.46 0.46 0.0 0 0 314.63 223.35"
/>
<path stroke="#e18482" vector-effect="non-scaling-stroke" d="
  M 259.39 233.75
  L 259.09 228.14
  A 0.59 0.59 0.0 0 0 258.25 227.64
  L 256.81 228.34
  A 1.01 1.01 0.0 0 0 256.34 229.69
  L 258.42 234.00
  A 0.51 0.51 0.0 0 0 259.39 233.75"
/>
<path stroke="#e18482" vector-effect="non-scaling-stroke" d="
  M 162.34 287.83
  Q 158.80 288.45 157.74 286.09
  A 0.75 0.75 0.0 0 0 157.01 285.64
  L 152.69 285.87
  A 0.99 0.99 0.0 0 1 151.67 285.05
  L 151.61 284.69
  A 0.97 0.97 0.0 0 1 152.42 283.57
  L 162.36 282.02
  A 0.66 0.65 -17.4 0 1 163.04 282.37
  Q 163.07 282.44 162.67 283.58
  A 0.47 0.47 0.0 0 0 163.27 284.17
  Q 168.13 282.45 168.85 278.38
  Q 169.81 273.02 164.74 272.98
  Q 153.67 272.90 150.06 272.70
  A 1.05 1.05 0.0 0 1 149.09 271.83
  L 149.02 271.43
  A 1.02 1.02 0.0 0 1 149.97 270.25
  L 164.67 269.48
  A 2.02 1.89 47.0 0 1 165.11 269.51
  L 169.40 270.32
  A 0.83 0.82 20.5 0 0 170.25 269.94
  Q 172.20 266.76 171.83 263.39
  C 171.45 259.83 167.86 259.09 164.74 258.92
  Q 163.21 258.84 150.08 258.64
  A 2.38 2.33 68.3 0 1 148.43 257.91
  L 148.06 257.52
  A 0.76 0.76 0.0 0 1 148.52 256.24
  C 155.17 255.46 165.04 254.26 171.24 256.64
  A 0.67 0.67 0.0 0 0 172.07 256.33
  C 175.61 249.94 172.27 244.63 165.23 243.95
  Q 163.57 243.79 149.12 243.66
  A 1.62 1.61 -8.4 0 1 147.59 242.53
  L 147.58 242.48
  A 1.05 1.04 -13.3 0 1 148.42 241.13
  Q 157.49 239.75 166.47 240.45
  C 168.34 240.59 170.37 241.63 171.54 241.91
  A 0.72 0.71 -70.4 0 0 172.33 241.53
  C 174.17 237.77 172.90 233.67 169.96 230.96
  C 165.76 227.11 154.08 228.10 149.10 228.81
  C 143.73 229.56 134.63 230.22 133.97 237.47
  Q 133.89 238.33 134.72 241.51
  C 136.03 246.54 130.60 249.33 133.40 255.36
  C 135.61 260.11 132.09 264.44 134.54 268.87
  Q 135.66 270.90 136.01 271.91
  A 4.91 4.79 -54.9 0 1 136.29 273.65
  Q 136.19 278.75 138.33 283.44
  A 2.95 2.94 41.2 0 1 138.47 285.51
  Q 133.06 303.51 125.40 320.81
  C 123.50 325.10 121.41 330.73 120.14 334.62
  C 116.91 344.54 119.96 356.44 129.78 361.64
  C 138.78 366.40 149.42 362.22 155.38 354.61
  Q 160.78 347.70 161.62 338.38
  Q 162.60 327.57 162.62 324.69
  Q 162.68 313.64 162.67 288.11
  A 0.29 0.28 -4.4 0 0 162.34 287.83"
/>
<path stroke="#e18482" vector-effect="non-scaling-stroke" d="
  M 201.69 300.64
  A 0.34 0.33 -80.8 0 0 202.06 300.37
  Q 203.99 290.28 206.40 282.35
  Q 207.66 278.19 208.48 277.11
  A 0.79 0.78 -25.4 0 1 209.89 277.61
  Q 209.84 278.65 209.64 279.57
  Q 202.63 311.76 200.42 344.92
  C 199.94 352.09 199.96 357.91 199.74 368.26
  C 199.58 375.81 200.09 383.05 199.74 391.22
  A 6.89 6.71 -37.2 0 1 199.52 392.68
  C 197.73 399.19 194.96 403.54 198.83 410.16
  Q 200.74 413.43 201.60 414.36
  A 2.74 2.72 -14.0 0 0 202.91 415.14
  L 217.32 418.91
  A 0.58 0.57 2.4 0 0 218.03 418.26
  Q 217.16 413.15 217.21 408.25
  C 217.66 365.70 220.17 323.17 229.51 282.25
  Q 231.15 275.07 233.17 268.89
  Q 234.30 265.46 238.16 264.37
  Q 245.58 262.27 264.20 257.40
  A 0.70 0.70 0.0 0 0 264.72 256.71
  Q 264.55 249.12 263.28 245.26
  C 261.18 238.86 255.08 237.77 253.59 231.18
  A 0.27 0.26 43.6 0 0 253.07 231.19
  Q 252.40 235.34 252.16 239.77
  C 251.88 245.06 254.60 249.20 258.26 252.47
  A 0.90 0.84 54.5 0 1 258.06 253.94
  Q 257.81 254.03 257.22 253.79
  C 252.43 251.90 249.89 247.90 248.29 243.25
  A 0.44 0.43 -19.1 0 0 247.74 242.99
  Q 239.63 245.69 219.39 252.13
  C 210.70 254.89 202.33 260.69 196.11 267.87
  Q 190.79 274.00 189.48 275.73
  Q 177.60 291.36 167.08 302.71
  A 1.67 1.67 0.0 0 0 166.64 303.84
  L 166.64 315.44
  A 1.01 1.00 14.7 0 0 167.16 316.32
  C 176.03 321.27 181.17 331.09 181.90 341.03
  Q 181.96 341.82 181.51 342.33
  A 0.80 0.75 -31.1 0 1 180.15 342.04
  C 178.49 333.82 174.03 325.52 167.21 320.15
  A 0.46 0.46 0.0 0 0 166.47 320.51
  L 166.47 330.65
  A 1.25 1.23 26.1 0 0 166.74 331.42
  C 174.57 341.30 174.78 357.00 171.05 368.40
  A 0.43 0.43 0.0 0 0 171.76 368.84
  L 196.06 345.82
  A 1.90 1.88 -20.4 0 0 196.65 344.55
  Q 197.46 328.45 199.82 312.16
  A 5.53 5.53 0.0 0 0 199.82 310.54
  Q 198.55 301.78 199.41 291.38
  A 0.57 0.57 0.0 0 1 200.12 290.88
  L 200.47 290.97
  A 1.00 0.98 6.7 0 1 201.22 291.90
  L 201.44 300.33
  A 0.33 0.32 8.5 0 0 201.68 300.64
  L 201.69 300.64"
/>
<path stroke="#e18482" vector-effect="non-scaling-stroke" d="
  M 165.64 337.37
  Q 164.88 342.16 164.52 343.95
  C 161.90 356.83 151.17 367.31 137.79 367.59
  Q 133.83 367.67 128.68 365.58
  C 119.95 362.04 115.17 352.05 115.06 342.97
  C 114.98 336.22 117.35 329.76 120.17 323.19
  A 0.38 0.37 -4.6 0 0 119.62 322.73
  C 110.37 328.43 105.53 339.70 106.23 350.25
  C 107.05 362.59 113.14 374.57 123.53 380.94
  C 134.33 387.55 147.84 387.18 157.98 380.34
  Q 166.49 374.61 168.76 362.41
  Q 171.16 349.52 166.47 337.28
  A 0.43 0.43 0.0 0 0 165.64 337.37"
/>
<path stroke="#e18482" vector-effect="non-scaling-stroke" d="
  M 380.84 378.21
  Q 380.66 371.89 385.84 368.58
  A 1.07 1.07 0.0 0 0 385.86 366.79
  C 383.14 364.99 381.97 363.07 380.07 360.87
  Q 369.87 349.05 361.76 339.93
  A 0.48 0.48 0.0 0 0 360.93 340.12
  Q 351.43 374.43 346.05 395.62
  C 345.47 397.89 347.17 403.22 346.90 406.12
  C 346.40 411.47 344.22 415.50 340.82 419.31
  A 0.79 0.79 0.0 0 0 340.63 419.96
  L 342.25 429.62
  A 0.68 0.66 -74.3 0 0 342.45 429.99
  L 345.45 432.62
  A 0.78 0.78 0.0 0 0 346.37 432.70
  Q 348.47 431.41 350.04 429.79
  Q 365.18 414.28 378.53 396.96
  A 0.81 0.81 0.0 0 0 378.60 396.07
  Q 373.68 387.29 380.12 380.16
  A 2.75 2.74 -24.9 0 0 380.84 378.21"
/>
<path stroke="#e18482" vector-effect="non-scaling-stroke" d="
  M 417.76 418.78
  A 0.48 0.48 0.0 0 0 417.99 419.60
  Q 424.26 420.90 429.55 416.32
  C 436.97 409.88 443.36 401.11 442.03 391.34
  C 440.93 383.31 434.12 376.46 426.94 372.80
  Q 410.31 364.31 392.02 369.79
  C 388.42 370.86 384.40 373.44 384.60 377.61
  C 384.74 380.38 383.82 381.45 382.10 383.59
  Q 378.79 387.71 380.70 392.48
  A 0.74 0.73 70.7 0 0 381.59 392.91
  Q 382.20 392.73 382.96 391.64
  A 1.02 1.00 -30.4 0 0 383.14 390.98
  Q 382.93 388.29 386.00 387.72
  C 393.55 386.32 401.62 388.63 408.14 392.53
  C 414.96 396.60 424.97 405.12 424.23 413.28
  Q 424.00 415.80 421.77 415.58
  A 1.29 1.29 0.0 0 0 420.78 415.92
  L 417.76 418.78"
/>
<path stroke="#e18482" vector-effect="non-scaling-stroke" d="
  M 362.30 453.51
  C 382.32 440.75 400.77 429.16 416.85 414.35
  Q 418.69 412.65 419.56 411.53
  A 1.56 1.56 0.0 0 0 419.81 410.10
  Q 418.85 407.19 416.63 404.62
  C 410.03 397.01 399.44 390.75 389.01 391.03
  A 1.65 1.64 -71.7 0 0 387.75 391.67
  Q 377.33 405.25 366.64 417.65
  Q 358.09 427.55 349.49 435.35
  A 0.67 0.67 0.0 0 0 349.42 436.27
  Q 354.93 443.10 355.63 443.95
  C 358.31 447.23 359.42 449.39 361.62 453.34
  A 0.48 0.48 0.0 0 0 362.30 453.51"
/>
<path stroke="#e18482" vector-effect="non-scaling-stroke" d="
  M 337.68 425.36
  Q 337.63 424.35 337.12 422.82
  Q 336.89 422.13 336.46 422.10
  Q 336.19 422.08 335.42 422.34
  A 0.37 0.36 63.6 0 0 335.24 422.89
  L 337.09 425.56
  A 0.32 0.32 0.0 0 0 337.68 425.36"
/>
<path stroke="#e18482" vector-effect="non-scaling-stroke" d="
  M 330.98 424.97
  A 0.47 0.46 -10.6 0 0 330.53 425.62
  Q 331.75 428.49 330.54 429.05
  A 1.51 1.10 55.9 0 1 329.02 428.50
  Q 328.96 428.43 327.48 426.10
  A 0.64 0.64 0.0 0 0 326.65 425.87
  C 323.90 427.27 325.04 434.07 325.53 436.24
  C 326.27 439.51 328.65 442.24 332.11 440.87
  C 336.59 439.10 336.80 425.22 330.98 424.97"
/>
<path stroke="#e18482" vector-effect="non-scaling-stroke" d="
  M 338.81 432.74
  Q 338.97 436.03 337.75 439.30
  A 0.89 0.88 43.0 0 0 337.78 440.03
  L 353.45 472.44
  A 1.21 1.21 0.0 0 0 355.24 472.91
  L 362.62 467.81
  A 2.05 2.05 0.0 0 0 363.33 465.30
  C 361.42 460.95 359.05 455.39 356.15 451.54
  C 353.73 448.33 352.07 445.32 349.29 442.13
  Q 344.29 436.40 339.42 432.43
  A 0.38 0.37 -71.8 0 0 338.81 432.74"
/>
<path stroke="#e18482" vector-effect="non-scaling-stroke" d="
  M 343.77 504.25
  Q 348.82 503.25 353.36 500.85
  A 0.83 0.83 0.0 0 0 353.79 499.98
  Q 349.46 475.47 339.19 451.55
  Q 337.15 446.81 335.61 444.10
  A 1.19 1.17 43.4 0 0 333.52 444.15
  Q 333.26 444.70 333.36 445.13
  Q 335.04 452.41 336.32 459.08
  Q 340.40 480.30 343.29 503.90
  A 0.41 0.40 -8.6 0 0 343.77 504.25"
/>
<path stroke="#e18482" vector-effect="non-scaling-stroke" d="
  M 254.08 143.94
  Q 256.55 143.77 259.39 144.69
  A 1.42 1.42 0.0 0 0 261.22 143.05
  C 260.60 140.07 256.17 139.14 253.76 139.30
  C 251.36 139.47 247.10 140.99 246.88 144.03
  A 1.42 1.42 0.0 0 0 248.91 145.40
  Q 251.61 144.11 254.08 143.94"
/>
<path stroke="#e18482" vector-effect="non-scaling-stroke" d="
  M 296.65 151.84
  A 3.85 3.81 -68.6 0 0 295.45 149.05
  Q 290.38 144.29 283.72 144.78
  A 2.45 2.44 3.8 0 0 281.51 146.71
  L 281.50 146.77
  A 1.61 1.60 7.1 0 0 283.02 148.71
  C 287.96 148.87 290.49 150.65 294.66 154.12
  A 1.21 1.21 0.0 0 0 296.65 153.19
  L 296.65 151.84"
/>
<path stroke="#e18482" vector-effect="non-scaling-stroke" d="
  M 253.7841 153.8996
  A 5.78 3.75 -84.2 0 0 249.4692 159.2710
  A 5.78 3.75 -84.2 0 0 252.6159 165.4004
  A 5.78 3.75 -84.2 0 0 256.9308 160.0290
  A 5.78 3.75 -84.2 0 0 253.7841 153.8996"
/>
<path stroke="#e18482" vector-effect="non-scaling-stroke" d="
  M 286.0454 159.6608
  A 5.92 3.84 -85.2 0 0 281.7235 165.2387
  A 5.92 3.84 -85.2 0 0 285.0546 171.4592
  A 5.92 3.84 -85.2 0 0 289.3765 165.8813
  A 5.92 3.84 -85.2 0 0 286.0454 159.6608"
/>
<path stroke="#e18482" vector-effect="non-scaling-stroke" d="
  M 259.80 184.16
  A 1.01 1.01 0.0 0 0 260.61 182.47
  C 258.31 179.97 254.83 176.62 258.87 174.03
  C 262.12 171.95 266.37 166.96 266.02 162.71
  A 0.99 0.99 0.0 0 0 264.14 162.35
  Q 262.70 165.26 262.01 166.39
  C 259.34 170.81 248.58 174.80 255.74 182.20
  Q 257.48 184.01 259.80 184.16"
/>
<path stroke="#e18482" vector-effect="non-scaling-stroke" d="
  M 327.76 176.60
  Q 326.23 174.81 324.49 175.18
  Q 318.38 176.47 317.74 183.14
  A 1.36 1.36 0.0 0 0 319.45 184.58
  L 319.79 184.49
  A 1.90 1.89 78.4 0 0 321.16 182.40
  Q 320.87 180.39 321.40 179.71
  Q 324.03 176.31 326.32 178.46
  A 0.79 0.79 0.0 0 0 327.41 178.46
  L 327.67 178.21
  A 1.17 1.17 0.0 0 0 327.76 176.60"
/>
<path stroke="#e18482" vector-effect="non-scaling-stroke" d="
  M 269.19 195.10
  Q 262.70 195.74 257.07 193.35
  A 1.29 1.26 -80.6 0 0 255.32 194.64
  Q 255.39 195.65 256.53 196.25
  C 260.74 198.45 264.82 199.03 269.53 198.56
  C 274.24 198.10 278.13 196.74 281.82 193.76
  Q 282.83 192.95 282.70 191.95
  A 1.29 1.26 69.4 0 0 280.74 191.03
  Q 275.68 194.46 269.19 195.10"
/>
<path stroke="#e18482" vector-effect="non-scaling-stroke" d="
  M 350.82 296.02
  Q 349.14 306.12 350.78 315.91
  A 0.85 0.84 76.0 0 0 351.88 316.58
  Q 352.49 316.38 352.49 315.70
  Q 352.47 304.68 353.83 296.52
  Q 355.18 288.36 358.76 277.95
  Q 358.98 277.30 358.47 276.91
  A 0.85 0.84 -57.2 0 0 357.21 277.19
  Q 352.50 285.92 350.82 296.02"
/>
<path stroke="#e18482" vector-effect="non-scaling-stroke" d="
  M 250.73 287.16
  A 5.66 5.66 0.0 0 0 245.07 281.50
  A 5.66 5.66 0.0 0 0 239.41 287.16
  A 5.66 5.66 0.0 0 0 245.07 292.82
  A 5.66 5.66 0.0 0 0 250.73 287.16"
/>
<path stroke="#e18482" vector-effect="non-scaling-stroke" d="
  M 294.87 289.13
  A 5.78 5.78 0.0 0 0 289.09 283.35
  A 5.78 5.78 0.0 0 0 283.31 289.13
  A 5.78 5.78 0.0 0 0 289.09 294.91
  A 5.78 5.78 0.0 0 0 294.87 289.13"
/>
<path stroke="#e18482" vector-effect="non-scaling-stroke" d="
  M 244.23 331.71
  A 5.66 5.66 0.0 0 0 238.57 326.05
  A 5.66 5.66 0.0 0 0 232.91 331.71
  A 5.66 5.66 0.0 0 0 238.57 337.37
  A 5.66 5.66 0.0 0 0 244.23 331.71"
/>
<path stroke="#e18482" vector-effect="non-scaling-stroke" d="
  M 287.65 333.93
  A 5.72 5.72 0.0 0 0 281.93 328.21
  A 5.72 5.72 0.0 0 0 276.21 333.93
  A 5.72 5.72 0.0 0 0 281.93 339.65
  A 5.72 5.72 0.0 0 0 287.65 333.93"
/>
<path stroke="#e18482" vector-effect="non-scaling-stroke" d="
  M 239.8944 378.6541
  A 4.90 4.90 0.0 0 0 235.3940 373.3848
  L 234.4369 373.3094
  A 4.90 4.90 0.0 0 0 229.1676 377.8099
  L 229.0656 379.1059
  A 4.90 4.90 0.0 0 0 233.5660 384.3752
  L 234.5231 384.4506
  A 4.90 4.90 0.0 0 0 239.7924 379.9501
  L 239.8944 378.6541"
/>
<path stroke="#e18482" vector-effect="non-scaling-stroke" d="
  M 281.48 381.05
  A 5.73 5.73 0.0 0 0 275.75 375.32
  A 5.73 5.73 0.0 0 0 270.02 381.05
  A 5.73 5.73 0.0 0 0 275.75 386.78
  A 5.73 5.73 0.0 0 0 281.48 381.05"
/>
<path stroke="#e18482" vector-effect="non-scaling-stroke" d="
  M 247.81 287.14
  A 2.79 2.79 0.0 0 0 245.02 284.35
  A 2.79 2.79 0.0 0 0 242.23 287.14
  A 2.79 2.79 0.0 0 0 245.02 289.93
  A 2.79 2.79 0.0 0 0 247.81 287.14"
/>
<path stroke="#e18482" vector-effect="non-scaling-stroke" d="
  M 291.88 289.14
  A 2.83 2.83 0.0 0 0 289.05 286.31
  A 2.83 2.83 0.0 0 0 286.22 289.14
  A 2.83 2.83 0.0 0 0 289.05 291.97
  A 2.83 2.83 0.0 0 0 291.88 289.14"
/>
<path stroke="#e18482" vector-effect="non-scaling-stroke" d="
  M 238.9581 328.8729
  A 2.93 2.72 -81.4 0 0 235.8306 331.3633
  A 2.93 2.72 -81.4 0 0 238.0819 334.6671
  A 2.93 2.72 -81.4 0 0 241.2094 332.1767
  A 2.93 2.72 -81.4 0 0 238.9581 328.8729"
/>
<path stroke="#e18482" vector-effect="non-scaling-stroke" d="
  M 284.65 333.92
  A 2.76 2.76 0.0 0 0 281.89 331.16
  A 2.76 2.76 0.0 0 0 279.13 333.92
  A 2.76 2.76 0.0 0 0 281.89 336.68
  A 2.76 2.76 0.0 0 0 284.65 333.92"
/>
<path stroke="#e18482" vector-effect="non-scaling-stroke" d="
  M 237.11 378.92
  A 2.74 2.74 0.0 0 0 234.37 376.18
  A 2.74 2.74 0.0 0 0 231.63 378.92
  A 2.74 2.74 0.0 0 0 234.37 381.66
  A 2.74 2.74 0.0 0 0 237.11 378.92"
/>
<path stroke="#e18482" vector-effect="non-scaling-stroke" d="
  M 278.43 381.10
  A 2.74 2.74 0.0 0 0 275.69 378.36
  A 2.74 2.74 0.0 0 0 272.95 381.10
  A 2.74 2.74 0.0 0 0 275.69 383.84
  A 2.74 2.74 0.0 0 0 278.43 381.10"
/>
</g>
<path fill="none" d="
  M 552.00 0.00
  L 552.00 545.00
  L 0.00 545.00
  L 0.00 0.00
  L 552.00 0.00
  Z
  M 256.86 223.63
  A 0.35 0.35 0.0 0 1 256.82 224.29
  C 248.93 226.30 249.27 231.34 248.14 237.89
  A 0.97 0.96 -4.9 0 1 247.52 238.62
  Q 236.09 242.66 233.02 243.56
  Q 220.65 247.16 216.11 248.89
  Q 203.47 253.72 193.85 264.36
  Q 188.66 270.10 180.57 280.58
  Q 174.98 287.82 167.06 297.34
  A 0.28 0.28 0.0 0 1 166.57 297.16
  L 166.57 287.43
  A 1.19 1.18 -16.3 0 1 167.12 286.43
  Q 173.57 282.37 172.17 274.83
  A 2.15 2.14 62.7 0 1 172.78 272.90
  C 175.76 270.02 175.38 266.21 176.59 262.56
  Q 179.96 252.35 178.16 241.26
  Q 178.16 241.24 175.93 229.26
  Q 174.90 223.74 176.00 216.26
  Q 176.98 209.66 176.82 204.01
  C 176.69 199.08 173.58 194.35 168.23 194.82
  C 160.25 195.51 157.41 205.85 157.61 212.56
  Q 157.75 217.13 158.57 222.68
  A 1.42 1.42 0.0 0 1 157.21 224.31
  C 147.52 224.64 129.48 225.02 130.22 239.31
  C 130.28 240.42 130.98 242.37 130.91 243.93
  A 2.44 2.42 60.4 0 1 130.62 245.00
  Q 127.55 250.61 129.76 256.68
  C 130.63 259.05 130.39 259.67 130.00 262.25
  C 129.61 264.82 129.85 267.32 130.94 269.68
  Q 132.20 272.43 132.26 272.61
  A 3.68 3.56 37.5 0 1 132.46 273.96
  Q 132.28 278.32 133.80 282.24
  C 134.58 284.26 134.26 285.71 133.73 287.47
  Q 129.53 301.46 122.65 317.15
  A 1.30 1.29 -88.1 0 1 121.94 317.82
  Q 114.17 320.73 110.65 325.18
  Q 98.90 340.02 103.60 359.00
  Q 106.65 371.32 115.08 379.41
  Q 131.18 394.85 153.07 387.39
  Q 161.15 384.63 167.56 376.52
  A 5.25 5.10 2.2 0 1 168.84 375.37
  Q 174.49 371.73 179.49 366.99
  Q 187.59 359.29 195.64 351.38
  A 0.37 0.37 0.0 0 1 196.27 351.66
  Q 195.54 370.36 196.23 389.05
  A 6.92 6.84 53.2 0 1 195.91 391.37
  Q 194.97 394.30 194.09 396.82
  Q 190.53 407.10 197.50 415.03
  A 1.27 1.25 30.0 0 1 197.80 416.11
  C 197.40 418.09 196.19 421.55 195.65 424.43
  Q 189.01 459.74 187.46 496.24
  A 1.11 1.11 0.0 0 0 188.57 497.40
  L 188.62 497.40
  A 1.27 1.27 0.0 0 0 189.89 496.26
  Q 192.86 465.84 198.00 433.75
  Q 199.16 426.54 200.88 418.91
  A 0.59 0.59 0.0 0 1 201.64 418.47
  Q 217.62 423.55 234.44 425.56
  Q 278.51 430.81 322.09 425.27
  A 0.31 0.31 0.0 0 1 322.41 425.71
  Q 321.26 428.14 321.17 431.12
  A 1.07 1.06 -9.4 0 1 320.47 432.09
  C 308.46 436.55 297.04 438.67 283.35 440.88
  Q 276.24 442.03 269.07 441.87
  Q 255.49 441.58 245.51 440.72
  Q 226.95 439.13 207.81 433.69
  A 0.75 0.75 0.0 0 0 206.85 434.40
  L 206.85 434.44
  A 1.49 1.48 -77.5 0 0 207.73 435.83
  Q 217.76 440.32 228.00 441.99
  Q 250.76 445.68 273.22 444.26
  A 1.96 1.82 -60.5 0 0 274.07 443.99
  C 275.97 442.88 278.39 443.97 280.85 443.83
  Q 300.95 442.74 319.79 435.93
  A 0.30 0.30 0.0 0 1 320.15 436.36
  Q 307.93 457.32 292.44 477.68
  A 0.42 0.42 0.0 0 0 292.43 478.17
  L 292.63 478.46
  A 0.68 0.68 0.0 0 0 293.65 478.57
  Q 298.28 474.25 301.97 469.73
  Q 313.82 455.25 322.07 439.40
  A 0.20 0.20 0.0 0 1 322.41 439.38
  L 324.77 442.78
  A 0.96 0.93 29.3 0 1 324.94 443.35
  Q 323.63 476.82 325.92 509.94
  A 1.03 1.01 69.3 0 0 327.56 510.69
  Q 328.29 510.12 328.32 508.50
  C 328.61 487.01 327.98 464.63 328.47 444.83
  A 0.65 0.65 0.0 0 1 329.76 444.71
  Q 336.05 474.38 339.85 505.14
  C 340.13 507.40 340.84 508.55 343.22 508.17
  Q 350.50 506.99 356.21 503.45
  A 2.60 2.58 -17.4 0 0 357.42 501.16
  Q 357.28 498.00 356.54 494.46
  Q 355.22 488.11 352.46 477.24
  A 0.50 0.50 0.0 0 1 353.03 476.63
  L 353.97 476.80
  A 2.93 2.89 37.1 0 0 355.71 476.57
  Q 362.86 473.22 365.43 470.38
  C 368.91 466.54 366.20 462.10 364.39 458.02
  A 1.36 1.34 62.5 0 1 364.91 456.34
  C 382.25 445.52 398.50 435.17 413.68 422.52
  A 0.97 0.96 35.2 0 1 414.64 422.36
  Q 422.97 425.53 429.64 421.04
  Q 439.23 414.59 444.04 403.86
  Q 448.06 394.89 444.45 384.89
  A 1.48 1.45 -44.4 0 1 444.47 383.87
  Q 451.46 366.06 442.72 348.68
  Q 438.14 339.55 433.93 333.06
  Q 415.37 304.39 392.33 275.17
  C 384.69 265.48 375.87 257.57 365.20 252.80
  Q 356.84 249.06 349.21 246.40
  C 340.05 243.22 331.05 239.70 322.40 236.35
  A 1.79 1.78 6.7 0 1 321.27 234.92
  Q 320.62 230.21 319.90 225.12
  C 319.10 219.52 316.82 217.80 311.69 216.24
  A 0.89 0.88 -79.0 0 1 311.07 215.32
  Q 311.68 207.98 313.56 201.59
  A 0.78 0.77 -81.0 0 1 314.31 201.04
  C 325.20 201.30 333.22 193.72 335.90 183.69
  Q 337.42 178.04 334.59 171.17
  A 0.83 0.80 -38.1 0 1 334.70 170.36
  C 338.09 165.84 340.12 160.37 343.70 152.80
  A 0.49 0.48 -61.1 0 1 344.40 152.59
  Q 351.43 156.91 359.22 156.00
  C 371.25 154.61 378.89 144.75 375.98 132.82
  A 1.11 1.11 0.0 0 1 376.22 131.84
  C 385.28 121.47 386.29 106.11 379.34 94.18
  Q 372.86 83.07 359.10 79.61
  A 0.81 0.81 0.0 0 1 358.50 78.96
  C 358.12 76.80 357.87 73.80 356.82 71.22
  Q 349.92 54.31 332.82 47.21
  Q 313.60 39.22 294.88 47.19
  A 1.26 1.24 49.1 0 1 293.72 47.10
  Q 292.87 46.56 291.42 45.49
  Q 287.14 42.32 282.20 40.79
  C 266.96 36.06 249.77 39.12 240.13 52.27
  C 230.10 65.94 233.76 83.30 246.30 93.89
  C 247.77 95.12 249.81 96.21 251.07 97.21
  A 0.87 0.87 0.0 0 1 251.33 98.22
  Q 247.99 106.34 241.32 125.33
  Q 240.02 129.05 242.15 131.95
  A 0.91 0.90 -56.8 0 1 242.30 132.68
  Q 239.03 147.28 234.84 169.56
  C 232.43 182.39 232.81 194.52 238.47 206.47
  Q 244.30 218.80 256.86 223.63
  Z
  M 164.1371 162.8212
  A 1.41 1.41 0.0 0 0 162.5874 161.5663
  L 162.4879 161.5768
  A 1.41 1.41 0.0 0 0 161.2331 163.1264
  L 162.5229 175.3988
  A 1.41 1.41 0.0 0 0 164.0726 176.6537
  L 164.1721 176.6432
  A 1.41 1.41 0.0 0 0 165.4269 175.0936
  L 164.1371 162.8212
  Z
  M 143.6659 169.3026
  A 1.46 1.46 0.0 0 0 141.6463 168.8734
  L 141.5792 168.9169
  A 1.46 1.46 0.0 0 0 141.1499 170.9366
  L 148.0341 181.5374
  A 1.46 1.46 0.0 0 0 150.0537 181.9666
  L 150.1208 181.9231
  A 1.46 1.46 0.0 0 0 150.5501 179.9034
  L 143.6659 169.3026
  Z
  M 140.8188 192.9790
  A 1.37 1.37 0.0 0 0 140.1848 191.1481
  L 130.2357 186.3171
  A 1.37 1.37 0.0 0 0 128.4049 186.9511
  L 128.3612 187.0410
  A 1.37 1.37 0.0 0 0 128.9952 188.8719
  L 138.9443 193.7029
  A 1.37 1.37 0.0 0 0 140.7751 193.0689
  L 140.8188 192.9790
  Z"
/>
<path fill="#c61414" d="
  M 256.86 223.63
  Q 244.30 218.80 238.47 206.47
  C 232.81 194.52 232.43 182.39 234.84 169.56
  Q 239.03 147.28 242.30 132.68
  A 0.91 0.90 -56.8 0 0 242.15 131.95
  Q 240.02 129.05 241.32 125.33
  Q 247.99 106.34 251.33 98.22
  A 0.87 0.87 0.0 0 0 251.07 97.21
  C 249.81 96.21 247.77 95.12 246.30 93.89
  C 233.76 83.30 230.10 65.94 240.13 52.27
  C 249.77 39.12 266.96 36.06 282.20 40.79
  Q 287.14 42.32 291.42 45.49
  Q 292.87 46.56 293.72 47.10
  A 1.26 1.24 49.1 0 0 294.88 47.19
  Q 313.60 39.22 332.82 47.21
  Q 349.92 54.31 356.82 71.22
  C 357.87 73.80 358.12 76.80 358.50 78.96
  A 0.81 0.81 0.0 0 0 359.10 79.61
  Q 372.86 83.07 379.34 94.18
  C 386.29 106.11 385.28 121.47 376.22 131.84
  A 1.11 1.11 0.0 0 0 375.98 132.82
  C 378.89 144.75 371.25 154.61 359.22 156.00
  Q 351.43 156.91 344.40 152.59
  A 0.49 0.48 -61.1 0 0 343.70 152.80
  C 340.12 160.37 338.09 165.84 334.70 170.36
  A 0.83 0.80 -38.1 0 0 334.59 171.17
  Q 337.42 178.04 335.90 183.69
  C 333.22 193.72 325.20 201.30 314.31 201.04
  A 0.78 0.77 -81.0 0 0 313.56 201.59
  Q 311.68 207.98 311.07 215.32
  A 0.89 0.88 -79.0 0 0 311.69 216.24
  C 316.82 217.80 319.10 219.52 319.90 225.12
  Q 320.62 230.21 321.27 234.92
  A 1.79 1.78 6.7 0 0 322.40 236.35
  C 331.05 239.70 340.05 243.22 349.21 246.40
  Q 356.84 249.06 365.20 252.80
  C 375.87 257.57 384.69 265.48 392.33 275.17
  Q 415.37 304.39 433.93 333.06
  Q 438.14 339.55 442.72 348.68
  Q 451.46 366.06 444.47 383.87
  A 1.48 1.45 -44.4 0 0 444.45 384.89
  Q 448.06 394.89 444.04 403.86
  Q 439.23 414.59 429.64 421.04
  Q 422.97 425.53 414.64 422.36
  A 0.97 0.96 35.2 0 0 413.68 422.52
  C 398.50 435.17 382.25 445.52 364.91 456.34
  A 1.36 1.34 62.5 0 0 364.39 458.02
  C 366.20 462.10 368.91 466.54 365.43 470.38
  Q 362.86 473.22 355.71 476.57
  A 2.93 2.89 37.1 0 1 353.97 476.80
  L 353.03 476.63
  A 0.50 0.50 0.0 0 0 352.46 477.24
  Q 355.22 488.11 356.54 494.46
  Q 357.28 498.00 357.42 501.16
  A 2.60 2.58 -17.4 0 1 356.21 503.45
  Q 350.50 506.99 343.22 508.17
  C 340.84 508.55 340.13 507.40 339.85 505.14
  Q 336.05 474.38 329.76 444.71
  A 0.65 0.65 0.0 0 0 328.47 444.83
  C 327.98 464.63 328.61 487.01 328.32 508.50
  Q 328.29 510.12 327.56 510.69
  A 1.03 1.01 69.3 0 1 325.92 509.94
  Q 323.63 476.82 324.94 443.35
  A 0.96 0.93 29.3 0 0 324.77 442.78
  L 322.41 439.38
  A 0.20 0.20 0.0 0 0 322.07 439.40
  Q 313.82 455.25 301.97 469.73
  Q 298.28 474.25 293.65 478.57
  A 0.68 0.68 0.0 0 1 292.63 478.46
  L 292.43 478.17
  A 0.42 0.42 0.0 0 1 292.44 477.68
  Q 307.93 457.32 320.15 436.36
  A 0.30 0.30 0.0 0 0 319.79 435.93
  Q 300.95 442.74 280.85 443.83
  C 278.39 443.97 275.97 442.88 274.07 443.99
  A 1.96 1.82 -60.5 0 1 273.22 444.26
  Q 250.76 445.68 228.00 441.99
  Q 217.76 440.32 207.73 435.83
  A 1.49 1.48 -77.5 0 1 206.85 434.44
  L 206.85 434.40
  A 0.75 0.75 0.0 0 1 207.81 433.69
  Q 226.95 439.13 245.51 440.72
  Q 255.49 441.58 269.07 441.87
  Q 276.24 442.03 283.35 440.88
  C 297.04 438.67 308.46 436.55 320.47 432.09
  A 1.07 1.06 -9.4 0 0 321.17 431.12
  Q 321.26 428.14 322.41 425.71
  A 0.31 0.31 0.0 0 0 322.09 425.27
  Q 278.51 430.81 234.44 425.56
  Q 217.62 423.55 201.64 418.47
  A 0.59 0.59 0.0 0 0 200.88 418.91
  Q 199.16 426.54 198.00 433.75
  Q 192.86 465.84 189.89 496.26
  A 1.27 1.27 0.0 0 1 188.62 497.40
  L 188.57 497.40
  A 1.11 1.11 0.0 0 1 187.46 496.24
  Q 189.01 459.74 195.65 424.43
  C 196.19 421.55 197.40 418.09 197.80 416.11
  A 1.27 1.25 30.0 0 0 197.50 415.03
  Q 190.53 407.10 194.09 396.82
  Q 194.97 394.30 195.91 391.37
  A 6.92 6.84 53.2 0 0 196.23 389.05
  Q 195.54 370.36 196.27 351.66
  A 0.37 0.37 0.0 0 0 195.64 351.38
  Q 187.59 359.29 179.49 366.99
  Q 174.49 371.73 168.84 375.37
  A 5.25 5.10 2.2 0 0 167.56 376.52
  Q 161.15 384.63 153.07 387.39
  Q 131.18 394.85 115.08 379.41
  Q 106.65 371.32 103.60 359.00
  Q 98.90 340.02 110.65 325.18
  Q 114.17 320.73 121.94 317.82
  A 1.30 1.29 -88.1 0 0 122.65 317.15
  Q 129.53 301.46 133.73 287.47
  C 134.26 285.71 134.58 284.26 133.80 282.24
  Q 132.28 278.32 132.46 273.96
  A 3.68 3.56 37.5 0 0 132.26 272.61
  Q 132.20 272.43 130.94 269.68
  C 129.85 267.32 129.61 264.82 130.00 262.25
  C 130.39 259.67 130.63 259.05 129.76 256.68
  Q 127.55 250.61 130.62 245.00
  A 2.44 2.42 60.4 0 0 130.91 243.93
  C 130.98 242.37 130.28 240.42 130.22 239.31
  C 129.48 225.02 147.52 224.64 157.21 224.31
  A 1.42 1.42 0.0 0 0 158.57 222.68
  Q 157.75 217.13 157.61 212.56
  C 157.41 205.85 160.25 195.51 168.23 194.82
  C 173.58 194.35 176.69 199.08 176.82 204.01
  Q 176.98 209.66 176.00 216.26
  Q 174.90 223.74 175.93 229.26
  Q 178.16 241.24 178.16 241.26
  Q 179.96 252.35 176.59 262.56
  C 175.38 266.21 175.76 270.02 172.78 272.90
  A 2.15 2.14 62.7 0 0 172.17 274.83
  Q 173.57 282.37 167.12 286.43
  A 1.19 1.18 -16.3 0 0 166.57 287.43
  L 166.57 297.16
  A 0.28 0.28 0.0 0 0 167.06 297.34
  Q 174.98 287.82 180.57 280.58
  Q 188.66 270.10 193.85 264.36
  Q 203.47 253.72 216.11 248.89
  Q 220.65 247.16 233.02 243.56
  Q 236.09 242.66 247.52 238.62
  A 0.97 0.96 -4.9 0 0 248.14 237.89
  C 249.27 231.34 248.93 226.30 256.82 224.29
  A 0.35 0.35 0.0 0 0 256.86 223.63
  Z
  M 266.72 89.36
  Q 260.35 82.27 260.38 72.62
  A 1.04 1.03 -17.2 0 1 260.84 71.76
  L 261.21 71.49
  A 0.73 0.73 0.0 0 1 262.34 71.96
  Q 264.17 82.04 270.53 89.00
  A 1.92 1.89 68.3 0 0 271.93 89.62
  Q 279.47 89.69 286.39 91.53
  A 0.52 0.51 -84.0 0 0 287.04 91.00
  C 286.88 87.98 286.35 78.63 289.20 77.17
  A 0.88 0.83 82.8 0 1 290.39 78.15
  Q 289.05 85.26 290.52 91.92
  A 1.00 0.99 1.6 0 0 291.23 92.66
  Q 302.65 95.72 314.03 102.12
  A 0.74 0.73 25.7 0 0 315.07 101.76
  C 316.77 97.48 319.89 91.31 323.69 89.04
  A 0.85 0.84 -19.9 0 1 324.96 89.63
  Q 325.06 90.21 324.71 90.74
  Q 319.32 98.91 317.97 103.98
  A 0.70 0.69 23.5 0 0 318.27 104.73
  Q 326.12 109.77 333.51 116.84
  A 1.11 1.10 -29.1 0 0 334.50 117.12
  C 339.48 116.04 343.46 113.63 348.29 110.76
  A 0.97 0.96 -14.7 0 1 349.76 111.60
  Q 349.73 112.25 348.95 112.97
  Q 343.84 117.71 336.94 119.74
  A 0.50 0.50 0.0 0 0 336.72 120.56
  Q 342.36 126.56 345.65 133.21
  A 1.88 1.88 0.0 0 0 346.68 134.14
  Q 349.74 135.31 354.02 136.01
  A 0.89 0.88 -69.5 0 1 354.62 137.35
  Q 354.40 137.73 353.85 137.83
  Q 350.55 138.44 347.68 137.39
  A 0.35 0.35 0.0 0 0 347.23 137.83
  C 348.69 142.42 347.06 143.76 345.85 147.84
  A 0.82 0.81 -65.2 0 0 346.18 148.75
  C 357.69 156.33 373.05 150.48 372.85 135.49
  A 0.58 0.57 -10.7 0 0 372.07 134.96
  Q 370.85 135.42 369.46 135.92
  Q 367.93 136.47 367.27 135.48
  A 0.74 0.73 -39.9 0 1 367.36 134.56
  C 369.16 132.73 372.23 130.65 373.93 128.27
  Q 383.66 114.67 377.48 99.80
  Q 373.27 89.67 362.08 84.69
  Q 361.17 84.29 359.25 84.16
  A 0.70 0.69 6.9 0 0 358.52 84.73
  Q 358.29 85.94 357.49 87.30
  A 1.50 1.39 -50.4 0 1 355.15 87.62
  Q 354.62 86.98 354.66 86.23
  C 355.61 70.06 345.19 56.86 330.73 51.01
  Q 312.69 43.72 295.15 51.38
  Q 293.07 52.29 292.61 52.18
  Q 291.46 51.89 291.10 50.59
  A 2.05 2.03 8.6 0 0 290.23 49.42
  C 275.34 39.86 254.61 39.74 243.30 54.96
  C 238.94 60.83 237.30 68.92 239.46 76.31
  Q 242.59 87.04 253.01 93.40
  A 0.95 0.94 45.3 0 0 253.97 93.41
  Q 259.53 90.14 266.53 89.82
  A 0.28 0.27 67.7 0 0 266.72 89.36
  Z
  M 246.57 124.49
  L 251.00 123.30
  A 2.54 1.91 26.6 0 1 251.44 123.22
  Q 267.10 121.74 280.72 125.80
  Q 303.61 132.61 322.15 150.09
  Q 328.68 156.25 333.43 163.58
  A 0.35 0.35 0.0 0 0 334.04 163.54
  Q 339.06 152.98 343.20 142.96
  Q 344.09 140.81 343.59 139.17
  C 341.75 133.14 337.09 126.55 332.72 122.07
  Q 311.67 100.52 282.29 94.82
  C 274.64 93.34 266.67 93.33 258.67 95.14
  A 3.57 3.55 -85.9 0 0 256.13 97.35
  L 246.06 123.94
  A 0.42 0.42 0.0 0 0 246.57 124.49
  Z
  M 263.16 225.50
  L 262.81 237.02
  A 1.09 1.06 26.3 0 0 263.08 237.78
  C 268.59 244.09 268.08 248.76 268.12 256.05
  A 0.16 0.16 0.0 0 0 268.32 256.20
  L 276.85 253.91
  A 0.38 0.36 83.8 0 0 277.12 253.56
  Q 277.41 246.18 278.98 241.72
  C 280.62 237.08 283.75 235.26 288.34 233.62
  Q 299.04 229.80 306.61 225.52
  A 1.22 1.21 -16.9 0 0 307.23 224.37
  Q 306.24 210.68 310.75 197.53
  A 1.11 1.11 0.0 0 1 312.01 196.80
  C 314.63 197.31 316.45 197.67 319.22 196.74
  C 328.10 193.75 335.75 183.25 331.24 173.84
  Q 328.76 168.65 323.23 169.77
  C 319.01 170.63 316.35 173.96 313.76 177.27
  A 2.49 2.21 -53.1 0 1 310.57 177.92
  Q 309.06 176.83 309.52 174.50
  Q 310.65 168.75 311.25 164.14
  A 2.50 2.50 0.0 0 0 310.93 162.53
  Q 310.38 161.57 309.44 159.86
  C 307.08 155.58 307.44 150.27 309.46 145.84
  A 1.05 1.04 -59.7 0 0 309.13 144.56
  C 296.65 135.42 282.06 129.19 266.63 127.13
  C 260.85 126.36 254.44 126.77 249.15 127.69
  A 1.33 1.32 2.0 0 0 248.09 128.67
  C 247.17 132.30 245.65 136.45 244.71 141.04
  Q 242.69 150.85 239.15 167.82
  Q 236.61 180.05 238.03 190.76
  Q 239.60 202.55 245.68 210.42
  Q 256.17 224.00 274.36 220.25
  Q 281.43 218.80 290.78 213.86
  A 0.93 0.93 0.0 0 1 292.09 214.97
  L 292.01 215.21
  A 1.18 1.16 -11.8 0 1 291.67 215.72
  Q 282.49 223.96 270.14 225.16
  C 267.82 225.39 265.09 225.33 263.72 225.06
  A 0.47 0.46 6.3 0 0 263.16 225.50
  Z
  M 171.66 226.84
  Q 171.59 217.66 173.09 208.57
  C 173.60 205.46 173.25 199.02 169.12 198.63
  C 165.13 198.26 162.71 203.29 162.06 206.30
  Q 160.97 211.35 161.69 217.06
  C 162.01 219.68 161.93 221.38 162.00 224.16
  A 0.48 0.47 -1.2 0 0 162.49 224.62
  Q 167.06 224.49 171.02 227.18
  A 0.41 0.41 0.0 0 0 171.66 226.84
  Z
  M 310.96 222.11
  A 1.15 1.07 81.1 0 0 312.18 220.29
  Q 311.56 219.62 311.19 220.53
  Q 310.61 221.92 310.96 222.11
  Z
  M 314.63 223.35
  C 312.12 227.66 306.29 230.37 301.70 232.43
  Q 294.33 235.74 286.70 238.45
  C 281.32 240.36 280.72 250.90 281.21 255.52
  A 1.50 1.49 79.4 0 1 280.11 257.13
  L 238.40 268.35
  A 2.91 2.90 0.9 0 0 236.39 270.29
  Q 235.03 274.68 233.57 281.28
  Q 224.48 322.30 222.15 369.51
  Q 220.45 404.03 220.60 407.60
  Q 220.84 412.90 220.93 413.39
  Q 221.40 416.00 222.08 419.07
  A 1.05 1.05 0.0 0 0 222.94 419.87
  Q 274.81 427.86 326.77 420.58
  Q 329.31 420.23 335.16 418.77
  A 2.27 2.17 -70.5 0 0 336.03 418.33
  Q 342.80 412.62 342.94 404.43
  Q 342.95 403.96 342.42 399.05
  Q 341.99 395.02 343.06 390.87
  Q 351.52 358.24 357.74 336.36
  A 0.90 0.89 -54.2 0 0 357.62 335.60
  L 353.73 329.97
  A 1.06 1.06 0.0 0 1 354.82 328.32
  Q 356.05 328.57 357.05 329.50
  Q 362.54 334.59 369.14 342.12
  Q 377.02 351.10 387.39 363.73
  A 0.52 0.52 0.0 0 0 388.21 363.70
  C 392.75 357.32 400.97 351.35 409.08 350.94
  A 0.77 0.77 0.0 0 1 409.36 352.44
  C 402.55 354.66 394.11 359.63 390.40 366.06
  A 0.27 0.27 0.0 0 0 390.72 366.45
  Q 404.58 361.80 418.77 365.36
  Q 432.33 368.76 441.33 379.63
  A 0.39 0.39 0.0 0 0 442.00 379.51
  C 444.04 373.45 444.46 367.15 442.78 360.76
  Q 441.36 355.33 440.92 354.37
  Q 435.81 343.25 430.72 335.52
  Q 410.85 305.31 387.54 276.01
  Q 375.38 260.71 357.16 254.10
  Q 354.86 253.27 321.93 240.75
  A 0.71 0.70 -59.7 0 0 321.15 240.96
  Q 318.77 243.80 315.56 246.05
  Q 304.82 253.59 290.13 256.48
  A 0.96 0.96 0.0 0 1 289.16 256.09
  L 288.93 255.76
  A 0.81 0.81 0.0 0 1 289.33 254.53
  C 300.01 250.84 309.51 246.68 317.54 239.50
  A 1.35 1.34 64.6 0 0 317.97 238.28
  L 315.48 223.50
  A 0.46 0.46 0.0 0 0 314.63 223.35
  Z
  M 259.39 233.75
  L 259.09 228.14
  A 0.59 0.59 0.0 0 0 258.25 227.64
  L 256.81 228.34
  A 1.01 1.01 0.0 0 0 256.34 229.69
  L 258.42 234.00
  A 0.51 0.51 0.0 0 0 259.39 233.75
  Z
  M 162.34 287.83
  Q 158.80 288.45 157.74 286.09
  A 0.75 0.75 0.0 0 0 157.01 285.64
  L 152.69 285.87
  A 0.99 0.99 0.0 0 1 151.67 285.05
  L 151.61 284.69
  A 0.97 0.97 0.0 0 1 152.42 283.57
  L 162.36 282.02
  A 0.66 0.65 -17.4 0 1 163.04 282.37
  Q 163.07 282.44 162.67 283.58
  A 0.47 0.47 0.0 0 0 163.27 284.17
  Q 168.13 282.45 168.85 278.38
  Q 169.81 273.02 164.74 272.98
  Q 153.67 272.90 150.06 272.70
  A 1.05 1.05 0.0 0 1 149.09 271.83
  L 149.02 271.43
  A 1.02 1.02 0.0 0 1 149.97 270.25
  L 164.67 269.48
  A 2.02 1.89 47.0 0 1 165.11 269.51
  L 169.40 270.32
  A 0.83 0.82 20.5 0 0 170.25 269.94
  Q 172.20 266.76 171.83 263.39
  C 171.45 259.83 167.86 259.09 164.74 258.92
  Q 163.21 258.84 150.08 258.64
  A 2.38 2.33 68.3 0 1 148.43 257.91
  L 148.06 257.52
  A 0.76 0.76 0.0 0 1 148.52 256.24
  C 155.17 255.46 165.04 254.26 171.24 256.64
  A 0.67 0.67 0.0 0 0 172.07 256.33
  C 175.61 249.94 172.27 244.63 165.23 243.95
  Q 163.57 243.79 149.12 243.66
  A 1.62 1.61 -8.4 0 1 147.59 242.53
  L 147.58 242.48
  A 1.05 1.04 -13.3 0 1 148.42 241.13
  Q 157.49 239.75 166.47 240.45
  C 168.34 240.59 170.37 241.63 171.54 241.91
  A 0.72 0.71 -70.4 0 0 172.33 241.53
  C 174.17 237.77 172.90 233.67 169.96 230.96
  C 165.76 227.11 154.08 228.10 149.10 228.81
  C 143.73 229.56 134.63 230.22 133.97 237.47
  Q 133.89 238.33 134.72 241.51
  C 136.03 246.54 130.60 249.33 133.40 255.36
  C 135.61 260.11 132.09 264.44 134.54 268.87
  Q 135.66 270.90 136.01 271.91
  A 4.91 4.79 -54.9 0 1 136.29 273.65
  Q 136.19 278.75 138.33 283.44
  A 2.95 2.94 41.2 0 1 138.47 285.51
  Q 133.06 303.51 125.40 320.81
  C 123.50 325.10 121.41 330.73 120.14 334.62
  C 116.91 344.54 119.96 356.44 129.78 361.64
  C 138.78 366.40 149.42 362.22 155.38 354.61
  Q 160.78 347.70 161.62 338.38
  Q 162.60 327.57 162.62 324.69
  Q 162.68 313.64 162.67 288.11
  A 0.29 0.28 -4.4 0 0 162.34 287.83
  Z
  M 201.69 300.64
  A 0.34 0.33 -80.8 0 0 202.06 300.37
  Q 203.99 290.28 206.40 282.35
  Q 207.66 278.19 208.48 277.11
  A 0.79 0.78 -25.4 0 1 209.89 277.61
  Q 209.84 278.65 209.64 279.57
  Q 202.63 311.76 200.42 344.92
  C 199.94 352.09 199.96 357.91 199.74 368.26
  C 199.58 375.81 200.09 383.05 199.74 391.22
  A 6.89 6.71 -37.2 0 1 199.52 392.68
  C 197.73 399.19 194.96 403.54 198.83 410.16
  Q 200.74 413.43 201.60 414.36
  A 2.74 2.72 -14.0 0 0 202.91 415.14
  L 217.32 418.91
  A 0.58 0.57 2.4 0 0 218.03 418.26
  Q 217.16 413.15 217.21 408.25
  C 217.66 365.70 220.17 323.17 229.51 282.25
  Q 231.15 275.07 233.17 268.89
  Q 234.30 265.46 238.16 264.37
  Q 245.58 262.27 264.20 257.40
  A 0.70 0.70 0.0 0 0 264.72 256.71
  Q 264.55 249.12 263.28 245.26
  C 261.18 238.86 255.08 237.77 253.59 231.18
  A 0.27 0.26 43.6 0 0 253.07 231.19
  Q 252.40 235.34 252.16 239.77
  C 251.88 245.06 254.60 249.20 258.26 252.47
  A 0.90 0.84 54.5 0 1 258.06 253.94
  Q 257.81 254.03 257.22 253.79
  C 252.43 251.90 249.89 247.90 248.29 243.25
  A 0.44 0.43 -19.1 0 0 247.74 242.99
  Q 239.63 245.69 219.39 252.13
  C 210.70 254.89 202.33 260.69 196.11 267.87
  Q 190.79 274.00 189.48 275.73
  Q 177.60 291.36 167.08 302.71
  A 1.67 1.67 0.0 0 0 166.64 303.84
  L 166.64 315.44
  A 1.01 1.00 14.7 0 0 167.16 316.32
  C 176.03 321.27 181.17 331.09 181.90 341.03
  Q 181.96 341.82 181.51 342.33
  A 0.80 0.75 -31.1 0 1 180.15 342.04
  C 178.49 333.82 174.03 325.52 167.21 320.15
  A 0.46 0.46 0.0 0 0 166.47 320.51
  L 166.47 330.65
  A 1.25 1.23 26.1 0 0 166.74 331.42
  C 174.57 341.30 174.78 357.00 171.05 368.40
  A 0.43 0.43 0.0 0 0 171.76 368.84
  L 196.06 345.82
  A 1.90 1.88 -20.4 0 0 196.65 344.55
  Q 197.46 328.45 199.82 312.16
  A 5.53 5.53 0.0 0 0 199.82 310.54
  Q 198.55 301.78 199.41 291.38
  A 0.57 0.57 0.0 0 1 200.12 290.88
  L 200.47 290.97
  A 1.00 0.98 6.7 0 1 201.22 291.90
  L 201.44 300.33
  A 0.33 0.32 8.5 0 0 201.68 300.64
  L 201.69 300.64
  Z
  M 165.64 337.37
  Q 164.88 342.16 164.52 343.95
  C 161.90 356.83 151.17 367.31 137.79 367.59
  Q 133.83 367.67 128.68 365.58
  C 119.95 362.04 115.17 352.05 115.06 342.97
  C 114.98 336.22 117.35 329.76 120.17 323.19
  A 0.38 0.37 -4.6 0 0 119.62 322.73
  C 110.37 328.43 105.53 339.70 106.23 350.25
  C 107.05 362.59 113.14 374.57 123.53 380.94
  C 134.33 387.55 147.84 387.18 157.98 380.34
  Q 166.49 374.61 168.76 362.41
  Q 171.16 349.52 166.47 337.28
  A 0.43 0.43 0.0 0 0 165.64 337.37
  Z
  M 380.84 378.21
  Q 380.66 371.89 385.84 368.58
  A 1.07 1.07 0.0 0 0 385.86 366.79
  C 383.14 364.99 381.97 363.07 380.07 360.87
  Q 369.87 349.05 361.76 339.93
  A 0.48 0.48 0.0 0 0 360.93 340.12
  Q 351.43 374.43 346.05 395.62
  C 345.47 397.89 347.17 403.22 346.90 406.12
  C 346.40 411.47 344.22 415.50 340.82 419.31
  A 0.79 0.79 0.0 0 0 340.63 419.96
  L 342.25 429.62
  A 0.68 0.66 -74.3 0 0 342.45 429.99
  L 345.45 432.62
  A 0.78 0.78 0.0 0 0 346.37 432.70
  Q 348.47 431.41 350.04 429.79
  Q 365.18 414.28 378.53 396.96
  A 0.81 0.81 0.0 0 0 378.60 396.07
  Q 373.68 387.29 380.12 380.16
  A 2.75 2.74 -24.9 0 0 380.84 378.21
  Z
  M 417.76 418.78
  A 0.48 0.48 0.0 0 0 417.99 419.60
  Q 424.26 420.90 429.55 416.32
  C 436.97 409.88 443.36 401.11 442.03 391.34
  C 440.93 383.31 434.12 376.46 426.94 372.80
  Q 410.31 364.31 392.02 369.79
  C 388.42 370.86 384.40 373.44 384.60 377.61
  C 384.74 380.38 383.82 381.45 382.10 383.59
  Q 378.79 387.71 380.70 392.48
  A 0.74 0.73 70.7 0 0 381.59 392.91
  Q 382.20 392.73 382.96 391.64
  A 1.02 1.00 -30.4 0 0 383.14 390.98
  Q 382.93 388.29 386.00 387.72
  C 393.55 386.32 401.62 388.63 408.14 392.53
  C 414.96 396.60 424.97 405.12 424.23 413.28
  Q 424.00 415.80 421.77 415.58
  A 1.29 1.29 0.0 0 0 420.78 415.92
  L 417.76 418.78
  Z
  M 362.30 453.51
  C 382.32 440.75 400.77 429.16 416.85 414.35
  Q 418.69 412.65 419.56 411.53
  A 1.56 1.56 0.0 0 0 419.81 410.10
  Q 418.85 407.19 416.63 404.62
  C 410.03 397.01 399.44 390.75 389.01 391.03
  A 1.65 1.64 -71.7 0 0 387.75 391.67
  Q 377.33 405.25 366.64 417.65
  Q 358.09 427.55 349.49 435.35
  A 0.67 0.67 0.0 0 0 349.42 436.27
  Q 354.93 443.10 355.63 443.95
  C 358.31 447.23 359.42 449.39 361.62 453.34
  A 0.48 0.48 0.0 0 0 362.30 453.51
  Z
  M 337.68 425.36
  Q 337.63 424.35 337.12 422.82
  Q 336.89 422.13 336.46 422.10
  Q 336.19 422.08 335.42 422.34
  A 0.37 0.36 63.6 0 0 335.24 422.89
  L 337.09 425.56
  A 0.32 0.32 0.0 0 0 337.68 425.36
  Z
  M 330.98 424.97
  A 0.47 0.46 -10.6 0 0 330.53 425.62
  Q 331.75 428.49 330.54 429.05
  A 1.51 1.10 55.9 0 1 329.02 428.50
  Q 328.96 428.43 327.48 426.10
  A 0.64 0.64 0.0 0 0 326.65 425.87
  C 323.90 427.27 325.04 434.07 325.53 436.24
  C 326.27 439.51 328.65 442.24 332.11 440.87
  C 336.59 439.10 336.80 425.22 330.98 424.97
  Z
  M 338.81 432.74
  Q 338.97 436.03 337.75 439.30
  A 0.89 0.88 43.0 0 0 337.78 440.03
  L 353.45 472.44
  A 1.21 1.21 0.0 0 0 355.24 472.91
  L 362.62 467.81
  A 2.05 2.05 0.0 0 0 363.33 465.30
  C 361.42 460.95 359.05 455.39 356.15 451.54
  C 353.73 448.33 352.07 445.32 349.29 442.13
  Q 344.29 436.40 339.42 432.43
  A 0.38 0.37 -71.8 0 0 338.81 432.74
  Z
  M 343.77 504.25
  Q 348.82 503.25 353.36 500.85
  A 0.83 0.83 0.0 0 0 353.79 499.98
  Q 349.46 475.47 339.19 451.55
  Q 337.15 446.81 335.61 444.10
  A 1.19 1.17 43.4 0 0 333.52 444.15
  Q 333.26 444.70 333.36 445.13
  Q 335.04 452.41 336.32 459.08
  Q 340.40 480.30 343.29 503.90
  A 0.41 0.40 -8.6 0 0 343.77 504.25
  Z"
/>
<path fill="#fbf3f0" d="
  M 266.72 89.36
  A 0.28 0.27 67.7 0 1 266.53 89.82
  Q 259.53 90.14 253.97 93.41
  A 0.95 0.94 45.3 0 1 253.01 93.40
  Q 242.59 87.04 239.46 76.31
  C 237.30 68.92 238.94 60.83 243.30 54.96
  C 254.61 39.74 275.34 39.86 290.23 49.42
  A 2.05 2.03 8.6 0 1 291.10 50.59
  Q 291.46 51.89 292.61 52.18
  Q 293.07 52.29 295.15 51.38
  Q 312.69 43.72 330.73 51.01
  C 345.19 56.86 355.61 70.06 354.66 86.23
  Q 354.62 86.98 355.15 87.62
  A 1.50 1.39 -50.4 0 0 357.49 87.30
  Q 358.29 85.94 358.52 84.73
  A 0.70 0.69 6.9 0 1 359.25 84.16
  Q 361.17 84.29 362.08 84.69
  Q 373.27 89.67 377.48 99.80
  Q 383.66 114.67 373.93 128.27
  C 372.23 130.65 369.16 132.73 367.36 134.56
  A 0.74 0.73 -39.9 0 0 367.27 135.48
  Q 367.93 136.47 369.46 135.92
  Q 370.85 135.42 372.07 134.96
  A 0.58 0.57 -10.7 0 1 372.85 135.49
  C 373.05 150.48 357.69 156.33 346.18 148.75
  A 0.82 0.81 -65.2 0 1 345.85 147.84
  C 347.06 143.76 348.69 142.42 347.23 137.83
  A 0.35 0.35 0.0 0 1 347.68 137.39
  Q 350.55 138.44 353.85 137.83
  Q 354.40 137.73 354.62 137.35
  A 0.89 0.88 -69.5 0 0 354.02 136.01
  Q 349.74 135.31 346.68 134.14
  A 1.88 1.88 0.0 0 1 345.65 133.21
  Q 342.36 126.56 336.72 120.56
  A 0.50 0.50 0.0 0 1 336.94 119.74
  Q 343.84 117.71 348.95 112.97
  Q 349.73 112.25 349.76 111.60
  A 0.97 0.96 -14.7 0 0 348.29 110.76
  C 343.46 113.63 339.48 116.04 334.50 117.12
  A 1.11 1.10 -29.1 0 1 333.51 116.84
  Q 326.12 109.77 318.27 104.73
  A 0.70 0.69 23.5 0 1 317.97 103.98
  Q 319.32 98.91 324.71 90.74
  Q 325.06 90.21 324.96 89.63
  A 0.85 0.84 -19.9 0 0 323.69 89.04
  C 319.89 91.31 316.77 97.48 315.07 101.76
  A 0.74 0.73 25.7 0 1 314.03 102.12
  Q 302.65 95.72 291.23 92.66
  A 1.00 0.99 1.6 0 1 290.52 91.92
  Q 289.05 85.26 290.39 78.15
  A 0.88 0.83 82.8 0 0 289.20 77.17
  C 286.35 78.63 286.88 87.98 287.04 91.00
  A 0.52 0.51 -84.0 0 1 286.39 91.53
  Q 279.47 89.69 271.93 89.62
  A 1.92 1.89 68.3 0 1 270.53 89.00
  Q 264.17 82.04 262.34 71.96
  A 0.73 0.73 0.0 0 0 261.21 71.49
  L 260.84 71.76
  A 1.04 1.03 -17.2 0 0 260.38 72.62
  Q 260.35 82.27 266.72 89.36
  Z"
/>
<path fill="#fbf3f0" d="
  M 246.06 123.94
  L 256.13 97.35
  A 3.57 3.55 -85.9 0 1 258.67 95.14
  C 266.67 93.33 274.64 93.34 282.29 94.82
  Q 311.67 100.52 332.72 122.07
  C 337.09 126.55 341.75 133.14 343.59 139.17
  Q 344.09 140.81 343.20 142.96
  Q 339.06 152.98 334.04 163.54
  A 0.35 0.35 0.0 0 1 333.43 163.58
  Q 328.68 156.25 322.15 150.09
  Q 303.61 132.61 280.72 125.80
  Q 267.10 121.74 251.44 123.22
  A 2.54 1.91 26.6 0 0 251.00 123.30
  L 246.57 124.49
  A 0.42 0.42 0.0 0 1 246.06 123.94
  Z"
/>
<path fill="#fbf3f0" d="
  M 263.72 225.06
  C 265.09 225.33 267.82 225.39 270.14 225.16
  Q 282.49 223.96 291.67 215.72
  A 1.18 1.16 -11.8 0 0 292.01 215.21
  L 292.09 214.97
  A 0.93 0.93 0.0 0 0 290.78 213.86
  Q 281.43 218.80 274.36 220.25
  Q 256.17 224.00 245.68 210.42
  Q 239.60 202.55 238.03 190.76
  Q 236.61 180.05 239.15 167.82
  Q 242.69 150.85 244.71 141.04
  C 245.65 136.45 247.17 132.30 248.09 128.67
  A 1.33 1.32 2.0 0 1 249.15 127.69
  C 254.44 126.77 260.85 126.36 266.63 127.13
  C 282.06 129.19 296.65 135.42 309.13 144.56
  A 1.05 1.04 -59.7 0 1 309.46 145.84
  C 307.44 150.27 307.08 155.58 309.44 159.86
  Q 310.38 161.57 310.93 162.53
  A 2.50 2.50 0.0 0 1 311.25 164.14
  Q 310.65 168.75 309.52 174.50
  Q 309.06 176.83 310.57 177.92
  A 2.49 2.21 -53.1 0 0 313.76 177.27
  C 316.35 173.96 319.01 170.63 323.23 169.77
  Q 328.76 168.65 331.24 173.84
  C 335.75 183.25 328.10 193.75 319.22 196.74
  C 316.45 197.67 314.63 197.31 312.01 196.80
  A 1.11 1.11 0.0 0 0 310.75 197.53
  Q 306.24 210.68 307.23 224.37
  A 1.22 1.21 -16.9 0 1 306.61 225.52
  Q 299.04 229.80 288.34 233.62
  C 283.75 235.26 280.62 237.08 278.98 241.72
  Q 277.41 246.18 277.12 253.56
  A 0.38 0.36 83.8 0 1 276.85 253.91
  L 268.32 256.20
  A 0.16 0.16 0.0 0 1 268.12 256.05
  C 268.08 248.76 268.59 244.09 263.08 237.78
  A 1.09 1.06 26.3 0 1 262.81 237.02
  L 263.16 225.50
  A 0.47 0.46 6.3 0 1 263.72 225.06
  Z
  M 254.08 143.94
  Q 256.55 143.77 259.39 144.69
  A 1.42 1.42 0.0 0 0 261.22 143.05
  C 260.60 140.07 256.17 139.14 253.76 139.30
  C 251.36 139.47 247.10 140.99 246.88 144.03
  A 1.42 1.42 0.0 0 0 248.91 145.40
  Q 251.61 144.11 254.08 143.94
  Z
  M 296.65 151.84
  A 3.85 3.81 -68.6 0 0 295.45 149.05
  Q 290.38 144.29 283.72 144.78
  A 2.45 2.44 3.8 0 0 281.51 146.71
  L 281.50 146.77
  A 1.61 1.60 7.1 0 0 283.02 148.71
  C 287.96 148.87 290.49 150.65 294.66 154.12
  A 1.21 1.21 0.0 0 0 296.65 153.19
  L 296.65 151.84
  Z
  M 253.7841 153.8996
  A 5.78 3.75 -84.2 0 0 249.4692 159.2710
  A 5.78 3.75 -84.2 0 0 252.6159 165.4004
  A 5.78 3.75 -84.2 0 0 256.9308 160.0290
  A 5.78 3.75 -84.2 0 0 253.7841 153.8996
  Z
  M 286.0454 159.6608
  A 5.92 3.84 -85.2 0 0 281.7235 165.2387
  A 5.92 3.84 -85.2 0 0 285.0546 171.4592
  A 5.92 3.84 -85.2 0 0 289.3765 165.8813
  A 5.92 3.84 -85.2 0 0 286.0454 159.6608
  Z
  M 259.80 184.16
  A 1.01 1.01 0.0 0 0 260.61 182.47
  C 258.31 179.97 254.83 176.62 258.87 174.03
  C 262.12 171.95 266.37 166.96 266.02 162.71
  A 0.99 0.99 0.0 0 0 264.14 162.35
  Q 262.70 165.26 262.01 166.39
  C 259.34 170.81 248.58 174.80 255.74 182.20
  Q 257.48 184.01 259.80 184.16
  Z
  M 327.76 176.60
  Q 326.23 174.81 324.49 175.18
  Q 318.38 176.47 317.74 183.14
  A 1.36 1.36 0.0 0 0 319.45 184.58
  L 319.79 184.49
  A 1.90 1.89 78.4 0 0 321.16 182.40
  Q 320.87 180.39 321.40 179.71
  Q 324.03 176.31 326.32 178.46
  A 0.79 0.79 0.0 0 0 327.41 178.46
  L 327.67 178.21
  A 1.17 1.17 0.0 0 0 327.76 176.60
  Z
  M 269.19 195.10
  Q 262.70 195.74 257.07 193.35
  A 1.29 1.26 -80.6 0 0 255.32 194.64
  Q 255.39 195.65 256.53 196.25
  C 260.74 198.45 264.82 199.03 269.53 198.56
  C 274.24 198.10 278.13 196.74 281.82 193.76
  Q 282.83 192.95 282.70 191.95
  A 1.29 1.26 69.4 0 0 280.74 191.03
  Q 275.68 194.46 269.19 195.10
  Z"
/>
<path fill="#c61414" d="
  M 253.76 139.30
  C 256.17 139.14 260.60 140.07 261.22 143.05
  A 1.42 1.42 0.0 0 1 259.39 144.69
  Q 256.55 143.77 254.08 143.94
  Q 251.61 144.11 248.91 145.40
  A 1.42 1.42 0.0 0 1 246.88 144.03
  C 247.10 140.99 251.36 139.47 253.76 139.30
  Z"
/>
<path fill="#c61414" d="
  M 296.65 151.84
  L 296.65 153.19
  A 1.21 1.21 0.0 0 1 294.66 154.12
  C 290.49 150.65 287.96 148.87 283.02 148.71
  A 1.61 1.60 7.1 0 1 281.50 146.77
  L 281.51 146.71
  A 2.45 2.44 3.8 0 1 283.72 144.78
  Q 290.38 144.29 295.45 149.05
  A 3.85 3.81 -68.6 0 1 296.65 151.84
  Z"
/>
<ellipse fill="#c61414" cx="0.00" cy="0.00" transform="translate(253.20,159.65) rotate(-84.2)" rx="5.78" ry="3.75"/>
<ellipse fill="#c61414" cx="0.00" cy="0.00" transform="translate(285.55,165.56) rotate(-85.2)" rx="5.92" ry="3.84"/>
<rect fill="#c61414" x="-1.46" y="-7.58" transform="translate(163.33,169.11) rotate(-6.0)" width="2.92" height="15.16" rx="1.41"/>
<path fill="#c61414" d="
  M 259.80 184.16
  Q 257.48 184.01 255.74 182.20
  C 248.58 174.80 259.34 170.81 262.01 166.39
  Q 262.70 165.26 264.14 162.35
  A 0.99 0.99 0.0 0 1 266.02 162.71
  C 266.37 166.96 262.12 171.95 258.87 174.03
  C 254.83 176.62 258.31 179.97 260.61 182.47
  A 1.01 1.01 0.0 0 1 259.80 184.16
  Z"
/>
<rect fill="#c61414" x="-1.50" y="-7.78" transform="translate(145.85,175.42) rotate(-33.0)" width="3.00" height="15.56" rx="1.46"/>
<path fill="#c61414" d="
  M 327.76 176.60
  A 1.17 1.17 0.0 0 1 327.67 178.21
  L 327.41 178.46
  A 0.79 0.79 0.0 0 1 326.32 178.46
  Q 324.03 176.31 321.40 179.71
  Q 320.87 180.39 321.16 182.40
  A 1.90 1.89 78.4 0 1 319.79 184.49
  L 319.45 184.58
  A 1.36 1.36 0.0 0 1 317.74 183.14
  Q 318.38 176.47 324.49 175.18
  Q 326.23 174.81 327.76 176.60
  Z"
/>
<rect fill="#c61414" x="-6.90" y="-1.42" transform="translate(134.59,190.01) rotate(25.9)" width="13.80" height="2.84" rx="1.37"/>
<path fill="#c61414" d="
  M 269.53 198.56
  C 264.82 199.03 260.74 198.45 256.53 196.25
  Q 255.39 195.65 255.32 194.64
  A 1.29 1.26 -80.6 0 1 257.07 193.35
  Q 262.70 195.74 269.19 195.10
  Q 275.68 194.46 280.74 191.03
  A 1.29 1.26 69.4 0 1 282.70 191.95
  Q 282.83 192.95 281.82 193.76
  C 278.13 196.74 274.24 198.10 269.53 198.56
  Z"
/>
<path fill="#fbf3f0" d="
  M 171.02 227.18
  Q 167.06 224.49 162.49 224.62
  A 0.48 0.47 -1.2 0 1 162.00 224.16
  C 161.93 221.38 162.01 219.68 161.69 217.06
  Q 160.97 211.35 162.06 206.30
  C 162.71 203.29 165.13 198.26 169.12 198.63
  C 173.25 199.02 173.60 205.46 173.09 208.57
  Q 171.59 217.66 171.66 226.84
  A 0.41 0.41 0.0 0 1 171.02 227.18
  Z"
/>
<path fill="#fbf3f0" d="
  M 310.96 222.11
  Q 310.61 221.92 311.19 220.53
  Q 311.56 219.62 312.18 220.29
  A 1.15 1.07 81.1 0 1 310.96 222.11
  Z"
/>
<path fill="#fbf3f0" d="
  M 314.63 223.35
  A 0.46 0.46 0.0 0 1 315.48 223.50
  L 317.97 238.28
  A 1.35 1.34 64.6 0 1 317.54 239.50
  C 309.51 246.68 300.01 250.84 289.33 254.53
  A 0.81 0.81 0.0 0 0 288.93 255.76
  L 289.16 256.09
  A 0.96 0.96 0.0 0 0 290.13 256.48
  Q 304.82 253.59 315.56 246.05
  Q 318.77 243.80 321.15 240.96
  A 0.71 0.70 -59.7 0 1 321.93 240.75
  Q 354.86 253.27 357.16 254.10
  Q 375.38 260.71 387.54 276.01
  Q 410.85 305.31 430.72 335.52
  Q 435.81 343.25 440.92 354.37
  Q 441.36 355.33 442.78 360.76
  C 444.46 367.15 444.04 373.45 442.00 379.51
  A 0.39 0.39 0.0 0 1 441.33 379.63
  Q 432.33 368.76 418.77 365.36
  Q 404.58 361.80 390.72 366.45
  A 0.27 0.27 0.0 0 1 390.40 366.06
  C 394.11 359.63 402.55 354.66 409.36 352.44
  A 0.77 0.77 0.0 0 0 409.08 350.94
  C 400.97 351.35 392.75 357.32 388.21 363.70
  A 0.52 0.52 0.0 0 1 387.39 363.73
  Q 377.02 351.10 369.14 342.12
  Q 362.54 334.59 357.05 329.50
  Q 356.05 328.57 354.82 328.32
  A 1.06 1.06 0.0 0 0 353.73 329.97
  L 357.62 335.60
  A 0.90 0.89 -54.2 0 1 357.74 336.36
  Q 351.52 358.24 343.06 390.87
  Q 341.99 395.02 342.42 399.05
  Q 342.95 403.96 342.94 404.43
  Q 342.80 412.62 336.03 418.33
  A 2.27 2.17 -70.5 0 1 335.16 418.77
  Q 329.31 420.23 326.77 420.58
  Q 274.81 427.86 222.94 419.87
  A 1.05 1.05 0.0 0 1 222.08 419.07
  Q 221.40 416.00 220.93 413.39
  Q 220.84 412.90 220.60 407.60
  Q 220.45 404.03 222.15 369.51
  Q 224.48 322.30 233.57 281.28
  Q 235.03 274.68 236.39 270.29
  A 2.91 2.90 0.9 0 1 238.40 268.35
  L 280.11 257.13
  A 1.50 1.49 79.4 0 0 281.21 255.52
  C 280.72 250.90 281.32 240.36 286.70 238.45
  Q 294.33 235.74 301.70 232.43
  C 306.29 230.37 312.12 227.66 314.63 223.35
  Z
  M 350.82 296.02
  Q 349.14 306.12 350.78 315.91
  A 0.85 0.84 76.0 0 0 351.88 316.58
  Q 352.49 316.38 352.49 315.70
  Q 352.47 304.68 353.83 296.52
  Q 355.18 288.36 358.76 277.95
  Q 358.98 277.30 358.47 276.91
  A 0.85 0.84 -57.2 0 0 357.21 277.19
  Q 352.50 285.92 350.82 296.02
  Z
  M 250.73 287.16
  A 5.66 5.66 0.0 0 0 245.07 281.50
  A 5.66 5.66 0.0 0 0 239.41 287.16
  A 5.66 5.66 0.0 0 0 245.07 292.82
  A 5.66 5.66 0.0 0 0 250.73 287.16
  Z
  M 294.87 289.13
  A 5.78 5.78 0.0 0 0 289.09 283.35
  A 5.78 5.78 0.0 0 0 283.31 289.13
  A 5.78 5.78 0.0 0 0 289.09 294.91
  A 5.78 5.78 0.0 0 0 294.87 289.13
  Z
  M 244.23 331.71
  A 5.66 5.66 0.0 0 0 238.57 326.05
  A 5.66 5.66 0.0 0 0 232.91 331.71
  A 5.66 5.66 0.0 0 0 238.57 337.37
  A 5.66 5.66 0.0 0 0 244.23 331.71
  Z
  M 287.65 333.93
  A 5.72 5.72 0.0 0 0 281.93 328.21
  A 5.72 5.72 0.0 0 0 276.21 333.93
  A 5.72 5.72 0.0 0 0 281.93 339.65
  A 5.72 5.72 0.0 0 0 287.65 333.93
  Z
  M 239.8944 378.6541
  A 4.90 4.90 0.0 0 0 235.3940 373.3848
  L 234.4369 373.3094
  A 4.90 4.90 0.0 0 0 229.1676 377.8099
  L 229.0656 379.1059
  A 4.90 4.90 0.0 0 0 233.5660 384.3752
  L 234.5231 384.4506
  A 4.90 4.90 0.0 0 0 239.7924 379.9501
  L 239.8944 378.6541
  Z
  M 281.48 381.05
  A 5.73 5.73 0.0 0 0 275.75 375.32
  A 5.73 5.73 0.0 0 0 270.02 381.05
  A 5.73 5.73 0.0 0 0 275.75 386.78
  A 5.73 5.73 0.0 0 0 281.48 381.05
  Z"
/>
<path fill="#fbf3f0" d="
  M 259.39 233.75
  A 0.51 0.51 0.0 0 1 258.42 234.00
  L 256.34 229.69
  A 1.01 1.01 0.0 0 1 256.81 228.34
  L 258.25 227.64
  A 0.59 0.59 0.0 0 1 259.09 228.14
  L 259.39 233.75
  Z"
/>
<path fill="#fbf3f0" d="
  M 162.34 287.83
  A 0.29 0.28 -4.4 0 1 162.67 288.11
  Q 162.68 313.64 162.62 324.69
  Q 162.60 327.57 161.62 338.38
  Q 160.78 347.70 155.38 354.61
  C 149.42 362.22 138.78 366.40 129.78 361.64
  C 119.96 356.44 116.91 344.54 120.14 334.62
  C 121.41 330.73 123.50 325.10 125.40 320.81
  Q 133.06 303.51 138.47 285.51
  A 2.95 2.94 41.2 0 0 138.33 283.44
  Q 136.19 278.75 136.29 273.65
  A 4.91 4.79 -54.9 0 0 136.01 271.91
  Q 135.66 270.90 134.54 268.87
  C 132.09 264.44 135.61 260.11 133.40 255.36
  C 130.60 249.33 136.03 246.54 134.72 241.51
  Q 133.89 238.33 133.97 237.47
  C 134.63 230.22 143.73 229.56 149.10 228.81
  C 154.08 228.10 165.76 227.11 169.96 230.96
  C 172.90 233.67 174.17 237.77 172.33 241.53
  A 0.72 0.71 -70.4 0 1 171.54 241.91
  C 170.37 241.63 168.34 240.59 166.47 240.45
  Q 157.49 239.75 148.42 241.13
  A 1.05 1.04 -13.3 0 0 147.58 242.48
  L 147.59 242.53
  A 1.62 1.61 -8.4 0 0 149.12 243.66
  Q 163.57 243.79 165.23 243.95
  C 172.27 244.63 175.61 249.94 172.07 256.33
  A 0.67 0.67 0.0 0 1 171.24 256.64
  C 165.04 254.26 155.17 255.46 148.52 256.24
  A 0.76 0.76 0.0 0 0 148.06 257.52
  L 148.43 257.91
  A 2.38 2.33 68.3 0 0 150.08 258.64
  Q 163.21 258.84 164.74 258.92
  C 167.86 259.09 171.45 259.83 171.83 263.39
  Q 172.20 266.76 170.25 269.94
  A 0.83 0.82 20.5 0 1 169.40 270.32
  L 165.11 269.51
  A 2.02 1.89 47.0 0 0 164.67 269.48
  L 149.97 270.25
  A 1.02 1.02 0.0 0 0 149.02 271.43
  L 149.09 271.83
  A 1.05 1.05 0.0 0 0 150.06 272.70
  Q 153.67 272.90 164.74 272.98
  Q 169.81 273.02 168.85 278.38
  Q 168.13 282.45 163.27 284.17
  A 0.47 0.47 0.0 0 1 162.67 283.58
  Q 163.07 282.44 163.04 282.37
  A 0.66 0.65 -17.4 0 0 162.36 282.02
  L 152.42 283.57
  A 0.97 0.97 0.0 0 0 151.61 284.69
  L 151.67 285.05
  A 0.99 0.99 0.0 0 0 152.69 285.87
  L 157.01 285.64
  A 0.75 0.75 0.0 0 1 157.74 286.09
  Q 158.80 288.45 162.34 287.83
  Z"
/>
<path fill="#fbf3f0" d="
  M 201.69 300.64
  L 201.68 300.64
  A 0.33 0.32 8.5 0 1 201.44 300.33
  L 201.22 291.90
  A 1.00 0.98 6.7 0 0 200.47 290.97
  L 200.12 290.88
  A 0.57 0.57 0.0 0 0 199.41 291.38
  Q 198.55 301.78 199.82 310.54
  A 5.53 5.53 0.0 0 1 199.82 312.16
  Q 197.46 328.45 196.65 344.55
  A 1.90 1.88 -20.4 0 1 196.06 345.82
  L 171.76 368.84
  A 0.43 0.43 0.0 0 1 171.05 368.40
  C 174.78 357.00 174.57 341.30 166.74 331.42
  A 1.25 1.23 26.1 0 1 166.47 330.65
  L 166.47 320.51
  A 0.46 0.46 0.0 0 1 167.21 320.15
  C 174.03 325.52 178.49 333.82 180.15 342.04
  A 0.80 0.75 -31.1 0 0 181.51 342.33
  Q 181.96 341.82 181.90 341.03
  C 181.17 331.09 176.03 321.27 167.16 316.32
  A 1.01 1.00 14.7 0 1 166.64 315.44
  L 166.64 303.84
  A 1.67 1.67 0.0 0 1 167.08 302.71
  Q 177.60 291.36 189.48 275.73
  Q 190.79 274.00 196.11 267.87
  C 202.33 260.69 210.70 254.89 219.39 252.13
  Q 239.63 245.69 247.74 242.99
  A 0.44 0.43 -19.1 0 1 248.29 243.25
  C 249.89 247.90 252.43 251.90 257.22 253.79
  Q 257.81 254.03 258.06 253.94
  A 0.90 0.84 54.5 0 0 258.26 252.47
  C 254.60 249.20 251.88 245.06 252.16 239.77
  Q 252.40 235.34 253.07 231.19
  A 0.27 0.26 43.6 0 1 253.59 231.18
  C 255.08 237.77 261.18 238.86 263.28 245.26
  Q 264.55 249.12 264.72 256.71
  A 0.70 0.70 0.0 0 1 264.20 257.40
  Q 245.58 262.27 238.16 264.37
  Q 234.30 265.46 233.17 268.89
  Q 231.15 275.07 229.51 282.25
  C 220.17 323.17 217.66 365.70 217.21 408.25
  Q 217.16 413.15 218.03 418.26
  A 0.58 0.57 2.4 0 1 217.32 418.91
  L 202.91 415.14
  A 2.74 2.72 -14.0 0 1 201.60 414.36
  Q 200.74 413.43 198.83 410.16
  C 194.96 403.54 197.73 399.19 199.52 392.68
  A 6.89 6.71 -37.2 0 0 199.74 391.22
  C 200.09 383.05 199.58 375.81 199.74 368.26
  C 199.96 357.91 199.94 352.09 200.42 344.92
  Q 202.63 311.76 209.64 279.57
  Q 209.84 278.65 209.89 277.61
  A 0.79 0.78 -25.4 0 0 208.48 277.11
  Q 207.66 278.19 206.40 282.35
  Q 203.99 290.28 202.06 300.37
  A 0.34 0.33 -80.8 0 1 201.69 300.64
  Z"
/>
<path fill="#c61414" d="
  M 353.83 296.52
  Q 352.47 304.68 352.49 315.70
  Q 352.49 316.38 351.88 316.58
  A 0.85 0.84 76.0 0 1 350.78 315.91
  Q 349.14 306.12 350.82 296.02
  Q 352.50 285.92 357.21 277.19
  A 0.85 0.84 -57.2 0 1 358.47 276.91
  Q 358.98 277.30 358.76 277.95
  Q 355.18 288.36 353.83 296.52
  Z"
/>
<path fill="#c61414" d="
  M 250.73 287.16
  A 5.66 5.66 0.0 0 1 245.07 292.82
  A 5.66 5.66 0.0 0 1 239.41 287.16
  A 5.66 5.66 0.0 0 1 245.07 281.50
  A 5.66 5.66 0.0 0 1 250.73 287.16
  Z
  M 247.81 287.14
  A 2.79 2.79 0.0 0 0 245.02 284.35
  A 2.79 2.79 0.0 0 0 242.23 287.14
  A 2.79 2.79 0.0 0 0 245.02 289.93
  A 2.79 2.79 0.0 0 0 247.81 287.14
  Z"
/>
<path fill="#c61414" d="
  M 294.87 289.13
  A 5.78 5.78 0.0 0 1 289.09 294.91
  A 5.78 5.78 0.0 0 1 283.31 289.13
  A 5.78 5.78 0.0 0 1 289.09 283.35
  A 5.78 5.78 0.0 0 1 294.87 289.13
  Z
  M 291.88 289.14
  A 2.83 2.83 0.0 0 0 289.05 286.31
  A 2.83 2.83 0.0 0 0 286.22 289.14
  A 2.83 2.83 0.0 0 0 289.05 291.97
  A 2.83 2.83 0.0 0 0 291.88 289.14
  Z"
/>
<circle fill="#fbf3f0" cx="245.02" cy="287.14" r="2.79"/>
<circle fill="#fbf3f0" cx="289.05" cy="289.14" r="2.83"/>
<path fill="#fbf3f0" d="
  M 165.64 337.37
  A 0.43 0.43 0.0 0 1 166.47 337.28
  Q 171.16 349.52 168.76 362.41
  Q 166.49 374.61 157.98 380.34
  C 147.84 387.18 134.33 387.55 123.53 380.94
  C 113.14 374.57 107.05 362.59 106.23 350.25
  C 105.53 339.70 110.37 328.43 119.62 322.73
  A 0.38 0.37 -4.6 0 1 120.17 323.19
  C 117.35 329.76 114.98 336.22 115.06 342.97
  C 115.17 352.05 119.95 362.04 128.68 365.58
  Q 133.83 367.67 137.79 367.59
  C 151.17 367.31 161.90 356.83 164.52 343.95
  Q 164.88 342.16 165.64 337.37
  Z"
/>
<path fill="#c61414" d="
  M 244.23 331.71
  A 5.66 5.66 0.0 0 1 238.57 337.37
  A 5.66 5.66 0.0 0 1 232.91 331.71
  A 5.66 5.66 0.0 0 1 238.57 326.05
  A 5.66 5.66 0.0 0 1 244.23 331.71
  Z
  M 238.9581 328.8729
  A 2.93 2.72 -81.4 0 0 235.8306 331.3633
  A 2.93 2.72 -81.4 0 0 238.0819 334.6671
  A 2.93 2.72 -81.4 0 0 241.2094 332.1767
  A 2.93 2.72 -81.4 0 0 238.9581 328.8729
  Z"
/>
<path fill="#c61414" d="
  M 287.65 333.93
  A 5.72 5.72 0.0 0 1 281.93 339.65
  A 5.72 5.72 0.0 0 1 276.21 333.93
  A 5.72 5.72 0.0 0 1 281.93 328.21
  A 5.72 5.72 0.0 0 1 287.65 333.93
  Z
  M 284.65 333.92
  A 2.76 2.76 0.0 0 0 281.89 331.16
  A 2.76 2.76 0.0 0 0 279.13 333.92
  A 2.76 2.76 0.0 0 0 281.89 336.68
  A 2.76 2.76 0.0 0 0 284.65 333.92
  Z"
/>
<ellipse fill="#fbf3f0" cx="0.00" cy="0.00" transform="translate(238.52,331.77) rotate(-81.4)" rx="2.93" ry="2.72"/>
<circle fill="#fbf3f0" cx="281.89" cy="333.92" r="2.76"/>
<path fill="#fbf3f0" d="
  M 380.12 380.16
  Q 373.68 387.29 378.60 396.07
  A 0.81 0.81 0.0 0 1 378.53 396.96
  Q 365.18 414.28 350.04 429.79
  Q 348.47 431.41 346.37 432.70
  A 0.78 0.78 0.0 0 1 345.45 432.62
  L 342.45 429.99
  A 0.68 0.66 -74.3 0 1 342.25 429.62
  L 340.63 419.96
  A 0.79 0.79 0.0 0 1 340.82 419.31
  C 344.22 415.50 346.40 411.47 346.90 406.12
  C 347.17 403.22 345.47 397.89 346.05 395.62
  Q 351.43 374.43 360.93 340.12
  A 0.48 0.48 0.0 0 1 361.76 339.93
  Q 369.87 349.05 380.07 360.87
  C 381.97 363.07 383.14 364.99 385.86 366.79
  A 1.07 1.07 0.0 0 1 385.84 368.58
  Q 380.66 371.89 380.84 378.21
  A 2.75 2.74 -24.9 0 1 380.12 380.16
  Z"
/>
<path fill="#fbf3f0" d="
  M 417.76 418.78
  L 420.78 415.92
  A 1.29 1.29 0.0 0 1 421.77 415.58
  Q 424.00 415.80 424.23 413.28
  C 424.97 405.12 414.96 396.60 408.14 392.53
  C 401.62 388.63 393.55 386.32 386.00 387.72
  Q 382.93 388.29 383.14 390.98
  A 1.02 1.00 -30.4 0 1 382.96 391.64
  Q 382.20 392.73 381.59 392.91
  A 0.74 0.73 70.7 0 1 380.70 392.48
  Q 378.79 387.71 382.10 383.59
  C 383.82 381.45 384.74 380.38 384.60 377.61
  C 384.40 373.44 388.42 370.86 392.02 369.79
  Q 410.31 364.31 426.94 372.80
  C 434.12 376.46 440.93 383.31 442.03 391.34
  C 443.36 401.11 436.97 409.88 429.55 416.32
  Q 424.26 420.90 417.99 419.60
  A 0.48 0.48 0.0 0 1 417.76 418.78
  Z"
/>
<path fill="#c61414" d="
  M 239.7924 379.9501
  A 4.90 4.90 0.0 0 1 234.5231 384.4506
  L 233.5660 384.3752
  A 4.90 4.90 0.0 0 1 229.0656 379.1059
  L 229.1676 377.8099
  A 4.90 4.90 0.0 0 1 234.4369 373.3094
  L 235.3940 373.3848
  A 4.90 4.90 0.0 0 1 239.8944 378.6541
  L 239.7924 379.9501
  Z
  M 237.11 378.92
  A 2.74 2.74 0.0 0 0 234.37 376.18
  A 2.74 2.74 0.0 0 0 231.63 378.92
  A 2.74 2.74 0.0 0 0 234.37 381.66
  A 2.74 2.74 0.0 0 0 237.11 378.92
  Z"
/>
<path fill="#c61414" d="
  M 281.48 381.05
  A 5.73 5.73 0.0 0 1 275.75 386.78
  A 5.73 5.73 0.0 0 1 270.02 381.05
  A 5.73 5.73 0.0 0 1 275.75 375.32
  A 5.73 5.73 0.0 0 1 281.48 381.05
  Z
  M 278.43 381.10
  A 2.74 2.74 0.0 0 0 275.69 378.36
  A 2.74 2.74 0.0 0 0 272.95 381.10
  A 2.74 2.74 0.0 0 0 275.69 383.84
  A 2.74 2.74 0.0 0 0 278.43 381.10
  Z"
/>
<circle fill="#fbf3f0" cx="234.37" cy="378.92" r="2.74"/>
<circle fill="#fbf3f0" cx="275.69" cy="381.10" r="2.74"/>
<path fill="#fbf3f0" d="
  M 362.30 453.51
  A 0.48 0.48 0.0 0 1 361.62 453.34
  C 359.42 449.39 358.31 447.23 355.63 443.95
  Q 354.93 443.10 349.42 436.27
  A 0.67 0.67 0.0 0 1 349.49 435.35
  Q 358.09 427.55 366.64 417.65
  Q 377.33 405.25 387.75 391.67
  A 1.65 1.64 -71.7 0 1 389.01 391.03
  C 399.44 390.75 410.03 397.01 416.63 404.62
  Q 418.85 407.19 419.81 410.10
  A 1.56 1.56 0.0 0 1 419.56 411.53
  Q 418.69 412.65 416.85 414.35
  C 400.77 429.16 382.32 440.75 362.30 453.51
  Z"
/>
<path fill="#fbf3f0" d="
  M 337.09 425.56
  L 335.24 422.89
  A 0.37 0.36 63.6 0 1 335.42 422.34
  Q 336.19 422.08 336.46 422.10
  Q 336.89 422.13 337.12 422.82
  Q 337.63 424.35 337.68 425.36
  A 0.32 0.32 0.0 0 1 337.09 425.56
  Z"
/>
<path fill="#fbf3f0" d="
  M 330.98 424.97
  C 336.80 425.22 336.59 439.10 332.11 440.87
  C 328.65 442.24 326.27 439.51 325.53 436.24
  C 325.04 434.07 323.90 427.27 326.65 425.87
  A 0.64 0.64 0.0 0 1 327.48 426.10
  Q 328.96 428.43 329.02 428.50
  A 1.51 1.10 55.9 0 0 330.54 429.05
  Q 331.75 428.49 330.53 425.62
  A 0.47 0.46 -10.6 0 1 330.98 424.97
  Z"
/>
<path fill="#fbf3f0" d="
  M 338.81 432.74
  A 0.38 0.37 -71.8 0 1 339.42 432.43
  Q 344.29 436.40 349.29 442.13
  C 352.07 445.32 353.73 448.33 356.15 451.54
  C 359.05 455.39 361.42 460.95 363.33 465.30
  A 2.05 2.05 0.0 0 1 362.62 467.81
  L 355.24 472.91
  A 1.21 1.21 0.0 0 1 353.45 472.44
  L 337.78 440.03
  A 0.89 0.88 43.0 0 1 337.75 439.30
  Q 338.97 436.03 338.81 432.74
  Z"
/>
<path fill="#fbf3f0" d="
  M 343.77 504.25
  A 0.41 0.40 -8.6 0 1 343.29 503.90
  Q 340.40 480.30 336.32 459.08
  Q 335.04 452.41 333.36 445.13
  Q 333.26 444.70 333.52 444.15
  A 1.19 1.17 43.4 0 1 335.61 444.10
  Q 337.15 446.81 339.19 451.55
  Q 349.46 475.47 353.79 499.98
  A 0.83 0.83 0.0 0 1 353.36 500.85
  Q 348.82 503.25 343.77 504.25
  Z"
/>
</svg>
