<?xml version="1.0" encoding="UTF-8" standalone="no"?>
<!DOCTYPE svg PUBLIC "-//W3C//DTD SVG 1.1//EN" "http://www.w3.org/Graphics/SVG/1.1/DTD/svg11.dtd">
<svg xmlns="http://www.w3.org/2000/svg" version="1.1" viewBox="0.00 0.00 506.00 490.00">
<g stroke-width="2.00" fill="none" stroke-linecap="butt">
<path stroke="none" vector-effect="non-scaling-stroke" d="
  M 506.00 487.41
  C 505.57 482.74 505.77 477.97 504.51 473.38
  A 0.77 0.75 -3.4 0 0 503.88 472.83
  Q 480.80 469.68 457.66 469.76
  Q 411.88 469.93 360.26 469.52
  Q 343.82 469.39 327.13 468.75"
/>
<path stroke="#e18382" vector-effect="non-scaling-stroke" d="
  M 327.13 468.75
  C 333.46 464.41 330.09 459.02 327.92 454.17
  A 1.17 1.17 0.0 0 1 328.34 452.72
  Q 332.76 449.76 342.75 443.50
  Q 362.43 431.17 379.31 417.26
  A 0.90 0.89 36.5 0 1 380.24 417.13
  Q 388.26 420.61 395.52 415.94
  Q 404.48 410.17 409.88 399.86
  Q 415.29 389.55 411.28 378.45
  A 1.52 1.47 -47.8 0 1 411.25 377.51
  Q 411.70 375.94 412.40 373.67
  Q 417.40 357.44 409.95 341.79
  Q 405.67 332.80 399.95 323.83
  Q 390.44 308.91 369.59 280.50
  Q 360.28 267.81 351.96 258.33
  Q 341.85 246.82 328.69 240.83
  C 324.26 238.81 317.84 236.21 313.78 234.79
  Q 296.86 228.86 284.02 223.61
  A 1.41 1.39 -83.4 0 1 283.17 222.52
  Q 281.53 211.47 281.47 210.98
  C 280.87 205.79 277.21 204.47 272.89 202.78
  A 0.74 0.73 12.9 0 1 272.42 202.04
  Q 273.03 194.43 275.16 187.54
  A 0.71 0.71 0.0 0 1 275.88 187.04
  C 287.59 187.82 296.88 177.91 298.78 167.04
  Q 299.63 162.20 296.96 156.11
  A 0.80 0.79 -39.5 0 1 297.04 155.33
  Q 298.86 152.81 299.50 151.49
  Q 303.16 144.08 306.35 137.01
  A 0.62 0.62 0.0 0 1 307.23 136.74
  C 316.60 142.49 329.13 141.70 336.33 133.26
  Q 342.23 126.37 340.06 116.23
  A 1.45 1.44 58.9 0 1 340.36 115.00
  Q 347.82 105.89 348.16 94.98
  Q 348.71 77.28 334.87 66.40
  Q 330.35 62.85 322.45 60.89
  A 0.73 0.73 0.0 0 1 321.91 60.29
  Q 321.10 54.55 320.41 52.81
  Q 312.48 33.07 292.23 26.02
  Q 273.73 19.57 255.85 26.95
  A 1.62 1.61 49.2 0 1 254.42 26.84
  C 251.81 25.29 248.92 22.94 245.70 21.63
  Q 234.82 17.19 223.44 18.54
  C 204.72 20.76 190.40 35.97 193.08 54.81
  C 194.55 65.12 201.17 73.68 210.20 79.08
  A 0.70 0.70 0.0 0 1 210.49 79.94
  Q 204.97 93.99 200.19 107.74
  Q 198.59 112.35 200.66 114.82
  A 1.81 1.77 -58.4 0 1 201.02 116.40
  C 200.34 119.15 199.83 120.61 199.27 123.44
  Q 196.46 137.85 193.07 155.01
  C 190.00 170.54 191.77 187.03 201.31 199.66
  Q 207.06 207.29 216.01 210.38
  A 0.40 0.40 0.0 0 1 216.16 211.04
  Q 215.87 211.33 212.83 212.57
  C 208.29 214.40 207.31 220.82 207.21 225.05
  A 1.21 1.20 -9.9 0 1 206.44 226.14
  Q 195.14 230.35 181.83 234.08
  C 172.46 236.71 161.74 241.53 155.08 248.44
  C 152.35 251.29 149.43 253.93 146.83 257.15
  C 139.25 266.53 130.81 277.66 122.83 287.06
  A 0.37 0.37 0.0 0 1 122.18 286.82
  L 122.18 277.19
  A 1.62 1.59 73.9 0 1 122.91 275.84
  Q 128.03 272.51 128.39 267.20
  A 0.07 0.05 -58.3 0 0 128.39 267.15
  L 128.14 263.11
  A 1.41 1.36 65.3 0 1 128.49 262.11
  Q 131.64 258.69 131.80 254.14
  A 3.38 3.25 -34.5 0 1 132.02 253.07
  Q 136.27 241.72 134.43 229.49
  Q 133.83 225.50 132.11 216.95
  Q 131.03 211.59 131.97 203.76
  Q 132.86 196.32 132.88 195.76
  Q 133.12 188.59 132.33 186.48
  C 129.84 179.84 122.77 178.64 117.94 183.63
  C 113.55 188.18 112.31 195.96 112.99 201.75
  Q 113.62 207.14 113.93 209.64
  A 1.41 1.40 85.7 0 1 112.59 211.21
  C 105.53 211.45 96.54 212.05 91.02 214.99
  C 85.98 217.68 83.52 222.78 84.84 228.62
  Q 85.09 229.73 85.22 230.98
  A 3.10 3.04 53.6 0 1 85.01 232.46
  C 84.31 234.19 83.47 235.64 83.21 237.59
  Q 82.68 241.44 84.25 245.50
  Q 84.95 247.33 84.54 249.28
  C 83.79 252.78 83.97 255.94 85.50 258.98
  Q 86.34 260.64 86.61 261.37
  A 4.07 4.03 -54.1 0 1 86.87 263.05
  Q 86.59 267.80 88.42 272.08
  A 3.91 3.85 37.7 0 1 88.70 274.15
  Q 88.42 276.11 87.81 278.07
  Q 83.39 292.24 76.49 308.02
  A 0.89 0.87 -86.7 0 1 75.96 308.50
  C 62.34 312.66 55.54 327.04 55.46 340.37
  Q 55.37 355.86 65.11 368.47
  C 76.88 383.73 97.01 387.63 113.60 378.09
  Q 120.37 374.19 123.41 369.26
  A 2.40 2.37 0.4 0 1 124.23 368.46
  Q 129.77 365.17 134.99 360.23
  Q 143.94 351.75 151.91 343.91
  Q 152.09 343.73 152.57 343.45
  A 0.19 0.19 0.0 0 1 152.86 343.61
  L 153.08 382.47
  A 10.22 10.20 51.5 0 1 152.82 384.76
  C 152.07 387.70 150.41 391.15 149.93 394.01
  Q 148.50 402.61 154.48 409.68
  A 1.10 1.09 -57.0 0 1 154.69 410.70
  Q 152.44 418.10 150.04 433.75
  Q 147.19 452.28 145.97 464.53"
/>
<path stroke="#f4edea" vector-effect="non-scaling-stroke" d="
  M 145.97 464.53
  C 115.82 466.55 93.43 466.23 56.80 466.02
  Q 43.49 465.94 30.18 466.60
  Q 14.10 467.39 0.00 475.31"
/>
<path stroke="#e18382" vector-effect="non-scaling-stroke" d="
  M 119.7329 147.1813
  A 1.45 1.45 0.0 0 0 118.1416 145.8881
  L 118.0620 145.8963
  A 1.45 1.45 0.0 0 0 116.7687 147.4876
  L 118.1071 160.4387
  A 1.45 1.45 0.0 0 0 119.6984 161.7319
  L 119.7780 161.7237
  A 1.45 1.45 0.0 0 0 121.0713 160.1324
  L 119.7329 147.1813"
/>
<path stroke="#e18382" vector-effect="non-scaling-stroke" d="
  M 98.3797 153.9830
  A 1.52 1.52 0.0 0 0 96.2762 153.5397
  L 96.2260 153.5725
  A 1.52 1.52 0.0 0 0 95.7827 155.6759
  L 102.9803 166.7170
  A 1.52 1.52 0.0 0 0 105.0838 167.1603
  L 105.1340 167.1275
  A 1.52 1.52 0.0 0 0 105.5773 165.0241
  L 98.3797 153.9830"
/>
<path stroke="#e18382" vector-effect="non-scaling-stroke" d="
  M 95.6083 178.6751
  A 1.41 1.41 0.0 0 0 94.9394 176.7966
  L 84.4245 171.8038
  A 1.41 1.41 0.0 0 0 82.5460 172.4727
  L 82.5117 172.5449
  A 1.41 1.41 0.0 0 0 83.1806 174.4234
  L 93.6955 179.4162
  A 1.41 1.41 0.0 0 0 95.5740 178.7473
  L 95.6083 178.6751"
/>
<path stroke="#da7d7c" vector-effect="non-scaling-stroke" d="
  M 327.13 468.75
  L 318.99 473.41
  A 1.86 1.80 -59.3 0 1 318.07 473.66
  L 316.04 473.66
  A 0.53 0.52 -6.8 0 0 315.52 474.31
  L 319.32 490.00"
/>
<path stroke="#da7d7c" vector-effect="non-scaling-stroke" d="
  M 315.35 490.00
  Q 310.80 468.85 302.34 448.84
  Q 300.28 443.96 298.04 439.79
  A 1.30 1.30 0.0 0 0 295.63 440.68
  Q 300.95 465.05 304.52 490.00"
/>
<path stroke="#da7d7c" vector-effect="non-scaling-stroke" d="
  M 300.69 490.00
  L 292.41 441.19
  A 1.29 1.28 -87.6 0 0 291.47 440.16
  L 291.19 440.09
  A 0.52 0.51 -82.7 0 0 290.55 440.59
  L 290.68 490.00"
/>
<path stroke="#da7d7c" vector-effect="non-scaling-stroke" d="
  M 286.91 490.00
  L 286.40 467.45"
/>
<path stroke="#e18382" vector-effect="non-scaling-stroke" d="
  M 286.40 467.45
  L 286.86 439.00
  A 1.41 1.39 25.2 0 0 286.51 438.05
  Q 285.33 436.72 284.63 435.02
  A 0.39 0.39 0.0 0 0 283.95 434.96
  Q 282.71 436.85 281.67 438.75
  Q 272.27 455.88 259.53 470.51"
/>
<path stroke="#da7d7c" vector-effect="non-scaling-stroke" d="
  M 259.53 470.51
  L 254.51 475.59
  A 0.79 0.78 42.5 0 1 253.44 475.63
  L 253.42 475.61
  A 0.79 0.77 -51.2 0 1 253.32 474.55
  L 256.30 470.47"
/>
<path stroke="#e18382" vector-effect="non-scaling-stroke" d="
  M 256.30 470.47
  Q 270.10 452.13 281.91 431.76
  A 0.29 0.29 0.0 0 0 281.56 431.34
  Q 261.51 438.50 239.71 439.58
  A 2.81 2.79 -35.8 0 1 238.57 439.40
  Q 236.57 438.65 235.22 439.25
  Q 233.85 439.85 231.73 439.98
  Q 209.07 441.32 186.24 437.50
  C 178.93 436.27 170.86 434.37 164.56 430.79
  A 1.09 1.08 -53.9 0 1 164.30 429.12
  Q 164.60 428.79 165.00 428.90
  C 186.41 435.07 208.53 437.63 230.64 437.19
  C 233.90 437.13 236.09 438.07 239.04 437.04
  Q 239.83 436.76 243.68 436.27
  C 256.81 434.58 269.61 432.04 282.23 427.21
  A 1.20 1.20 0.0 0 0 283.01 426.10
  Q 283.08 423.22 284.35 420.57
  A 0.26 0.26 0.0 0 0 284.08 420.20
  Q 237.62 426.14 190.75 420.24
  Q 174.59 418.21 158.77 413.07
  A 0.70 0.70 0.0 0 0 157.87 413.58
  Q 156.55 419.35 155.32 427.00
  Q 151.84 448.53 149.14 470.35"
/>
<path stroke="#da7d7c" vector-effect="non-scaling-stroke" d="
  M 149.14 470.35
  L 146.80 490.00"
/>
<path stroke="#da7d7c" vector-effect="non-scaling-stroke" d="
  M 144.25 490.00
  L 145.97 464.53"
/>
<path stroke="#e18382" vector-effect="non-scaling-stroke" d="
  M 226.17 70.80
  Q 220.02 63.41 219.76 53.84
  A 1.25 1.21 68.3 0 1 220.14 52.92
  L 220.63 52.45
  A 0.75 0.75 0.0 0 1 221.88 52.87
  Q 223.68 63.51 230.58 70.81
  A 1.25 1.21 -20.6 0 0 231.45 71.19
  Q 239.12 71.30 246.84 73.24
  A 0.56 0.56 0.0 0 0 247.53 72.63
  C 247.02 68.17 246.87 62.53 249.11 58.86
  Q 249.42 58.35 249.78 58.20
  A 0.94 0.90 86.4 0 1 250.97 59.30
  Q 249.35 66.72 251.22 73.82
  A 0.60 0.60 0.0 0 0 251.64 74.24
  Q 263.83 77.70 275.68 84.23
  A 0.72 0.71 25.3 0 0 276.69 83.87
  C 278.63 79.13 281.03 74.15 285.28 70.85
  A 1.07 1.07 0.0 0 1 286.99 71.49
  Q 287.05 71.77 286.75 72.24
  C 283.17 77.98 281.47 80.63 279.71 86.09
  A 0.74 0.73 25.7 0 0 280.01 86.93
  Q 288.62 92.58 295.88 99.56
  A 1.18 1.17 57.8 0 0 297.06 99.83
  C 302.46 98.12 305.90 96.34 311.16 93.22
  A 1.00 0.97 -18.7 0 1 312.66 93.93
  Q 312.73 94.63 312.04 95.30
  Q 307.01 100.23 299.36 102.62
  A 0.43 0.42 -29.9 0 0 299.17 103.31
  Q 305.20 109.91 308.66 116.93
  A 1.65 1.63 -5.6 0 0 309.72 117.79
  Q 314.71 119.07 316.25 119.20
  Q 317.52 119.31 317.81 119.92
  A 1.05 0.91 -16.2 0 1 316.96 121.24
  Q 313.67 121.78 310.56 120.85
  A 0.41 0.41 0.0 0 0 310.06 121.40
  C 311.86 125.84 309.72 127.81 308.69 131.88
  A 0.76 0.74 24.3 0 0 309.01 132.70
  C 321.04 140.47 336.91 134.62 336.69 118.83
  A 0.63 0.63 0.0 0 0 335.78 118.28
  Q 334.17 119.11 332.42 119.53
  A 1.21 1.07 -7.4 0 1 330.93 118.52
  Q 330.93 118.31 331.10 117.94
  A 0.99 0.94 -9.7 0 1 331.37 117.58
  Q 336.51 113.23 337.24 112.27
  C 346.62 99.83 346.34 84.20 335.77 72.97
  Q 331.27 68.19 323.52 65.41
  A 1.36 1.35 -72.1 0 0 321.75 66.32
  Q 321.40 67.60 321.06 68.43
  A 1.79 1.62 -67.3 0 1 318.85 69.47
  Q 317.71 68.98 317.79 67.72
  C 318.91 49.26 305.88 34.91 288.88 29.61
  Q 271.60 24.23 255.01 31.94
  Q 252.54 33.09 251.73 30.71
  A 2.52 2.50 7.3 0 0 250.70 29.39
  Q 239.55 22.27 227.33 22.54
  C 217.79 22.75 208.58 26.76 202.75 34.27
  C 196.76 41.99 195.40 51.83 199.32 61.00
  Q 202.98 69.54 212.00 75.08
  A 1.19 1.19 0.0 0 0 213.23 75.10
  Q 218.51 71.99 225.85 71.53
  A 0.45 0.45 0.0 0 0 226.17 70.80"
/>
<path stroke="#e18382" vector-effect="non-scaling-stroke" d="
  M 205.34 107.54
  Q 209.57 106.13 214.26 105.82
  C 244.01 103.87 273.84 120.67 292.27 143.09
  Q 294.18 145.41 295.63 148.07
  A 0.50 0.50 0.0 0 0 296.53 148.03
  L 306.16 126.18
  A 5.25 5.22 47.1 0 0 306.29 122.30
  C 302.10 110.75 291.50 100.19 281.23 93.01
  Q 262.63 80.01 240.28 76.21
  Q 230.12 74.48 219.22 76.63
  C 216.24 77.22 216.03 77.82 214.96 80.47
  Q 210.05 92.62 205.05 107.25
  A 0.23 0.23 0.0 0 0 205.34 107.54"
/>
<path stroke="#e18382" vector-effect="non-scaling-stroke" d="
  M 222.53 212.54
  L 222.53 224.66
  A 1.63 1.60 -66.6 0 0 222.95 225.75
  Q 227.63 230.91 227.74 237.50
  Q 227.82 242.82 227.73 243.16
  A 0.95 0.95 0.0 0 0 228.92 244.30
  L 235.78 242.29
  A 2.25 2.24 -9.2 0 0 237.40 240.06
  Q 237.35 238.55 237.96 234.24
  C 238.58 229.86 239.98 225.41 243.84 223.31
  Q 248.12 220.98 252.71 219.43
  C 258.60 217.44 263.53 214.94 268.22 212.23
  A 0.91 0.90 73.3 0 0 268.67 211.38
  C 268.43 208.25 268.09 206.01 268.35 202.87
  Q 269.18 192.94 271.91 183.81
  A 1.65 1.64 14.7 0 1 273.85 182.68
  C 276.79 183.36 279.26 183.42 282.13 182.20
  Q 291.26 178.32 294.01 169.32
  Q 296.03 162.70 292.91 157.76
  Q 289.99 153.15 284.63 154.62
  C 280.88 155.65 278.70 158.16 276.04 161.53
  C 274.79 163.12 272.76 164.32 271.39 162.49
  Q 270.51 161.33 270.78 159.91
  Q 271.96 153.53 272.70 148.91
  A 2.95 2.92 32.9 0 0 272.24 146.82
  Q 266.85 138.72 270.76 129.85
  A 1.32 1.31 30.4 0 0 270.34 128.26
  C 253.01 115.56 229.54 106.76 207.91 110.89
  A 0.81 0.80 -86.1 0 0 207.30 111.43
  C 203.21 123.58 201.30 135.35 197.61 153.33
  C 194.52 168.44 195.47 185.24 205.04 197.45
  C 217.19 212.94 236.54 208.65 251.40 200.35
  Q 251.92 200.06 252.53 200.34
  A 0.90 0.89 34.2 0 1 252.81 201.76
  C 245.44 209.58 233.30 213.01 222.95 212.15
  A 0.39 0.38 -87.3 0 0 222.53 212.54"
/>
<path stroke="#e18382" vector-effect="non-scaling-stroke" d="
  M 127.63 214.09
  Q 127.37 205.52 128.80 197.02
  C 129.28 194.10 129.87 185.49 125.75 184.68
  C 118.76 183.29 116.72 194.29 116.89 199.10
  Q 117.06 204.02 117.71 211.03
  A 0.64 0.64 0.0 0 0 118.37 211.62
  Q 123.22 211.48 127.02 214.40
  A 0.38 0.38 0.0 0 0 127.63 214.09"
/>
<path stroke="#da7d7c" vector-effect="non-scaling-stroke" d="
  M 272.50 209.39
  Q 272.92 209.54 273.72 208.18
  Q 274.28 207.22 273.42 206.91
  Q 272.56 206.59 272.36 207.68
  Q 272.08 209.23 272.50 209.39"
/>
<path stroke="#e18382" vector-effect="non-scaling-stroke" d="
  M 276.33 210.07
  C 273.67 214.85 266.55 218.06 261.69 220.19
  Q 254.58 223.30 248.58 225.37
  C 246.24 226.17 244.28 227.46 243.46 229.50
  Q 240.78 236.15 241.49 243.52
  A 1.78 1.77 -10.2 0 1 240.18 245.40
  L 196.67 257.16
  A 2.40 2.40 0.0 0 0 194.99 258.80
  Q 193.53 263.64 192.16 269.58
  Q 186.44 294.44 183.45 321.49
  Q 179.02 361.50 178.59 402.34
  C 178.54 407.00 179.16 409.80 179.97 413.77
  A 0.99 0.98 -0.8 0 0 180.78 414.55
  Q 235.49 423.11 290.28 415.10
  Q 291.66 414.90 297.90 413.26
  A 2.13 2.11 -73.0 0 0 298.77 412.79
  Q 305.13 407.08 305.68 399.10
  Q 305.71 398.60 305.05 392.95
  Q 304.58 388.97 305.78 384.31
  Q 312.31 358.99 321.03 327.61
  A 0.93 0.92 -55.2 0 0 320.89 326.82
  L 316.77 321.14
  A 1.10 1.09 72.4 0 1 317.67 319.40
  C 319.24 319.32 322.04 322.14 323.37 323.49
  Q 335.18 335.53 351.86 356.33
  A 0.49 0.49 0.0 0 0 352.64 356.31
  Q 360.49 345.32 373.70 342.76
  A 1.07 1.07 0.0 0 1 374.91 343.43
  L 374.93 343.46
  A 0.90 0.90 0.0 0 1 374.37 344.63
  C 366.98 347.07 359.54 351.79 355.05 358.42
  A 0.36 0.36 0.0 0 0 355.46 358.96
  Q 371.58 353.57 387.61 358.81
  Q 399.65 362.75 407.80 372.70
  A 0.47 0.47 0.0 0 0 408.61 372.56
  C 410.77 366.51 411.15 359.83 409.49 353.32
  Q 408.20 348.24 407.47 346.54
  Q 403.10 336.30 396.29 325.96
  Q 375.06 293.76 351.73 264.67
  C 345.24 256.58 336.92 249.49 327.25 245.17
  C 311.34 238.06 292.61 232.13 283.99 228.38
  A 0.80 0.79 -54.9 0 0 283.11 228.54
  Q 279.11 232.44 278.60 232.83
  Q 266.69 241.69 250.52 244.73
  A 0.98 0.97 -9.8 0 1 249.38 243.93
  L 249.37 243.89
  A 1.13 1.12 75.8 0 1 250.10 242.65
  C 261.02 238.83 270.82 234.46 279.09 227.23
  A 1.87 1.86 -25.3 0 0 279.71 225.50
  L 277.13 210.20
  A 0.43 0.43 0.0 0 0 276.33 210.07"
/>
<path stroke="#e18382" vector-effect="non-scaling-stroke" d="
  M 218.60 221.34
  L 218.60 215.35
  A 0.65 0.65 0.0 0 0 217.83 214.71
  Q 216.77 214.91 215.74 215.65
  A 0.86 0.85 61.6 0 0 215.45 216.63
  Q 216.65 219.83 218.16 221.51
  A 0.25 0.25 0.0 0 0 218.60 221.34"
/>
<path stroke="#e18382" vector-effect="non-scaling-stroke" d="
  M 117.70 273.41
  A 0.21 0.21 0.0 0 0 117.86 273.80
  Q 122.99 272.42 124.38 268.44
  C 125.34 265.66 124.77 261.96 121.23 261.92
  Q 112.17 261.81 105.56 261.67
  A 1.57 1.57 0.0 0 1 104.08 260.53
  L 104.02 260.30
  A 0.96 0.95 80.6 0 1 104.88 259.09
  L 119.41 258.21
  A 10.65 10.37 -38.9 0 1 122.63 258.51
  L 125.21 259.16
  A 0.75 0.75 0.0 0 0 126.05 258.79
  C 128.65 254.18 129.22 248.07 122.24 247.42
  Q 116.27 246.87 105.23 246.91
  A 2.54 2.54 0.0 0 1 103.39 246.12
  L 103.02 245.73
  A 0.76 0.75 -25.6 0 1 103.47 244.46
  Q 113.54 243.08 123.50 243.82
  C 124.77 243.92 126.27 244.69 127.23 244.96
  A 0.68 0.67 -69.1 0 0 128.02 244.60
  C 131.53 237.23 127.88 231.67 119.74 231.53
  Q 110.20 231.36 103.59 231.28
  A 1.01 1.01 0.0 0 1 102.59 230.33
  L 102.58 230.05
  A 1.28 1.27 -6.1 0 1 103.67 228.71
  Q 112.40 227.42 121.56 228.02
  C 123.41 228.14 124.90 228.68 127.05 229.51
  A 1.19 1.19 0.0 0 0 128.62 228.69
  Q 130.37 221.82 125.27 217.79
  C 122.91 215.91 117.84 215.42 115.01 215.37
  C 108.57 215.28 101.99 215.88 96.37 217.24
  C 92.91 218.08 88.50 220.70 88.40 224.77
  Q 88.35 226.72 89.32 230.47
  A 2.80 2.78 -47.1 0 1 89.36 231.66
  C 88.80 234.75 86.85 236.93 86.90 240.51
  A 4.83 4.82 -55.4 0 0 87.19 242.10
  L 88.62 246.01
  A 1.30 1.29 37.6 0 1 88.68 246.46
  C 88.59 248.34 87.25 254.78 88.51 256.98
  Q 90.53 260.52 90.61 261.43
  C 90.86 264.36 90.77 267.59 91.92 270.35
  Q 93.20 273.38 93.28 273.75
  A 1.53 1.50 53.1 0 1 93.15 274.72
  Q 92.99 275.05 87.79 291.05
  Q 86.39 295.38 77.98 315.23
  Q 75.44 321.22 73.89 326.34
  Q 71.00 335.81 75.25 345.07
  C 77.15 349.21 80.22 351.90 84.28 354.19
  C 92.10 358.62 102.77 355.08 108.52 349.11
  Q 115.56 341.80 116.95 331.46
  Q 118.20 322.18 118.19 311.50
  Q 118.17 281.79 118.22 277.69
  A 0.51 0.51 0.0 0 0 117.59 277.19
  Q 114.24 277.96 112.95 275.48
  A 0.94 0.93 74.5 0 0 112.06 274.97
  L 107.68 275.24
  A 0.98 0.98 0.0 0 1 106.66 274.43
  L 106.59 274.02
  A 0.90 0.90 0.0 0 1 107.33 272.98
  L 117.67 271.24
  A 0.97 0.97 0.0 0 1 118.38 272.99
  Q 118.15 273.15 117.70 273.41"
/>
<path stroke="#e18382" vector-effect="non-scaling-stroke" d="
  M 126.83 361.18
  A 0.44 0.44 0.0 0 0 127.55 361.64
  L 152.66 337.86
  A 2.80 2.76 70.2 0 0 153.53 335.98
  Q 154.46 318.77 156.78 302.85
  A 9.79 9.60 46.0 0 0 156.80 300.22
  Q 155.62 291.26 156.37 281.42
  A 0.89 0.88 4.2 0 1 157.33 280.60
  L 157.36 280.60
  A 0.99 0.98 -88.4 0 1 158.25 281.55
  L 158.51 290.08
  A 0.43 0.43 0.0 0 0 159.37 290.13
  Q 161.20 277.89 165.57 266.54
  A 0.82 0.81 -79.5 0 1 166.33 266.01
  L 166.70 266.01
  A 0.77 0.77 0.0 0 1 167.45 266.95
  Q 154.89 323.41 156.80 381.99
  Q 156.95 386.43 156.00 388.35
  Q 150.51 399.48 158.77 408.90
  A 2.67 2.62 -13.2 0 0 160.11 409.71
  L 175.11 413.48
  A 0.58 0.58 0.0 0 0 175.82 412.78
  Q 174.86 408.68 174.91 404.02
  Q 175.12 381.48 176.28 358.50
  Q 178.02 324.15 183.76 290.75
  Q 186.29 276.01 190.35 261.35
  C 191.50 257.22 192.14 254.32 195.89 253.20
  Q 200.46 251.84 223.75 245.62
  A 0.69 0.69 0.0 0 0 224.26 244.94
  C 224.23 240.93 223.96 232.36 221.14 229.51
  C 217.68 226.01 213.75 223.26 212.92 218.67
  A 0.39 0.39 0.0 0 0 212.15 218.67
  Q 211.43 222.85 211.28 228.19
  C 211.13 233.19 214.04 237.05 217.57 240.42
  A 1.09 0.99 49.4 0 1 217.52 242.05
  Q 217.24 242.23 216.74 242.03
  C 210.97 239.70 209.58 236.21 207.20 231.03
  A 0.66 0.66 0.0 0 0 206.38 230.68
  Q 198.36 233.50 184.94 237.66
  Q 173.63 241.16 169.60 243.36
  Q 161.94 247.53 156.38 252.90
  C 153.22 255.95 148.57 261.41 145.70 265.18
  Q 133.32 281.43 122.80 292.78
  A 2.06 2.05 66.6 0 0 122.25 294.18
  L 122.25 306.03
  A 1.06 1.05 13.0 0 0 122.85 306.98
  C 131.95 311.46 137.98 323.35 138.07 333.25
  A 0.83 0.83 0.0 0 1 137.27 334.09
  L 137.25 334.09
  A 1.11 1.10 84.2 0 1 136.14 333.18
  Q 133.92 320.82 123.64 311.28
  A 0.91 0.91 0.0 0 0 122.11 311.95
  L 122.11 320.97
  A 4.34 4.31 -65.1 0 0 123.11 323.74
  Q 126.88 328.24 128.38 336.27
  Q 130.81 349.29 126.83 361.18"
/>
<path stroke="#e18382" vector-effect="non-scaling-stroke" d="
  M 73.65 313.78
  Q 72.24 314.21 70.59 315.57
  Q 63.09 321.75 60.70 331.67
  Q 59.27 337.59 59.37 340.24
  C 59.82 352.71 65.19 365.33 75.39 372.68
  C 85.19 379.74 96.79 381.02 108.04 376.31
  C 115.38 373.24 119.96 368.57 122.78 361.22
  C 126.37 351.83 126.64 337.97 121.81 328.66
  A 0.43 0.43 0.0 0 0 120.99 328.85
  Q 120.78 339.13 115.07 347.55
  C 108.85 356.72 97.43 362.33 86.26 359.29
  C 70.36 354.98 65.77 337.25 70.60 323.07
  Q 72.11 318.67 73.97 314.14
  A 0.27 0.27 0.0 0 0 73.65 313.78"
/>
<path stroke="#e18382" vector-effect="non-scaling-stroke" d="
  M 324.30 331.88
  Q 316.60 359.49 311.02 381.02
  Q 309.28 387.75 309.16 388.58
  Q 308.76 391.31 309.57 396.29
  Q 310.84 404.06 305.84 410.91
  Q 303.96 413.48 303.33 414.08
  A 0.64 0.64 0.0 0 0 303.14 414.64
  L 304.81 424.52
  A 1.18 1.16 -75.2 0 0 305.22 425.24
  L 308.31 427.80
  A 0.76 0.75 -41.6 0 0 309.19 427.85
  Q 311.77 426.20 312.35 425.60
  Q 328.23 409.34 342.43 391.08
  A 1.30 1.29 50.6 0 0 342.56 389.69
  Q 337.71 380.32 344.34 373.21
  A 1.78 1.73 -20.9 0 0 344.78 372.26
  C 345.40 367.60 345.73 364.08 350.16 361.41
  A 1.27 1.26 -43.8 0 0 350.21 359.27
  C 347.04 357.18 345.17 354.31 342.68 351.47
  Q 331.79 339.00 327.60 334.11
  Q 326.22 332.50 325.07 331.62
  A 0.49 0.49 0.0 0 0 324.30 331.88"
/>
<path stroke="#e18382" vector-effect="non-scaling-stroke" d="
  M 345.76 386.65
  Q 347.66 385.64 347.51 384.08
  C 347.29 381.86 349.52 381.16 351.24 380.97
  Q 360.98 379.87 369.67 384.18
  Q 381.44 390.02 386.86 398.09
  Q 390.48 403.48 390.13 407.68
  Q 389.91 410.39 388.15 410.10
  A 2.24 2.23 -62.0 0 0 386.30 410.67
  L 383.60 413.20
  A 0.64 0.64 0.0 0 0 383.91 414.30
  Q 389.39 415.40 393.87 412.18
  C 403.43 405.30 412.53 392.13 407.36 380.25
  C 403.35 371.02 394.50 365.22 385.03 362.37
  Q 369.46 357.69 354.42 363.37
  Q 350.57 364.82 349.21 368.38
  C 348.60 369.98 349.07 372.04 348.57 373.66
  A 3.42 3.37 73.4 0 1 347.99 374.75
  C 344.88 378.60 343.15 381.42 345.04 386.39
  A 0.51 0.51 0.0 0 0 345.76 386.65"
/>
<path stroke="#e18382" vector-effect="non-scaling-stroke" d="
  M 312.21 431.60
  Q 314.93 434.52 320.52 441.74
  Q 323.05 445.02 324.88 449.16
  A 0.62 0.62 0.0 0 0 325.77 449.43
  Q 344.72 437.79 362.58 425.06
  Q 374.83 416.34 385.06 406.36
  A 1.95 1.95 0.0 0 0 385.56 404.42
  Q 384.86 402.06 382.93 399.64
  C 376.23 391.25 364.75 384.36 353.52 384.58
  A 1.62 1.61 -71.7 0 0 352.29 385.20
  C 340.56 400.37 328.89 414.73 314.86 428.63
  C 314.07 429.40 312.68 430.08 312.19 430.67
  A 0.71 0.70 44.0 0 0 312.21 431.60"
/>
<path stroke="#da7d7c" vector-effect="non-scaling-stroke" d="
  M 300.44 420.59
  Q 300.37 419.88 299.79 417.47
  A 0.73 0.72 78.2 0 0 298.96 416.92
  L 297.69 417.13
  A 0.25 0.24 -22.7 0 0 297.53 417.51
  L 299.91 420.79
  A 0.29 0.29 0.0 0 0 300.44 420.59"
/>
<path stroke="#e18382" vector-effect="non-scaling-stroke" d="
  M 293.40 423.01
  A 1.09 1.09 0.0 0 1 291.42 423.66
  L 289.79 421.41
  A 1.19 1.19 0.0 0 0 287.82 421.48
  C 285.57 425.04 287.08 439.93 294.64 436.31
  Q 296.15 435.58 297.01 432.96
  C 298.37 428.82 298.58 421.59 293.57 419.78
  A 0.68 0.68 0.0 0 0 292.73 420.71
  Q 293.39 422.06 293.40 423.01"
/>
<path stroke="#e18382" vector-effect="non-scaling-stroke" d="
  M 301.42 428.06
  Q 301.43 431.50 300.22 434.79
  A 1.19 1.16 -48.4 0 0 300.26 435.72
  L 316.58 469.39
  A 0.80 0.79 -24.5 0 0 317.61 469.77
  Q 322.58 467.62 326.77 463.79
  A 1.07 1.06 -31.0 0 0 327.06 462.64
  Q 325.66 458.77 322.93 453.43
  C 321.03 449.70 318.70 447.08 316.79 443.92
  C 313.18 437.95 307.39 432.14 302.12 427.73
  A 0.43 0.43 0.0 0 0 301.42 428.06"
/>
<path stroke="#e18382" vector-effect="non-scaling-stroke" d="
  M 212.90 122.89
  C 210.30 123.07 207.08 124.38 205.92 126.81
  A 1.98 1.83 -59.4 0 0 206.43 129.19
  Q 206.98 129.60 207.77 129.24
  Q 210.82 127.86 213.24 127.69
  Q 215.67 127.52 218.88 128.45
  Q 219.72 128.70 220.20 128.22
  A 1.98 1.83 51.3 0 0 220.37 125.79
  C 218.88 123.55 215.51 122.70 212.90 122.89"
/>
<path stroke="#e18382" vector-effect="non-scaling-stroke" d="
  M 257.48 137.49
  L 257.48 136.44
  A 5.24 5.24 0.0 0 0 255.76 132.56
  C 252.76 129.85 247.19 127.48 243.09 128.85
  A 2.43 2.06 65.2 0 0 242.17 132.19
  Q 242.47 132.74 243.25 132.68
  Q 248.85 132.27 255.48 138.37
  A 1.19 1.19 0.0 0 0 257.48 137.49"
/>
<path stroke="#e18382" vector-effect="non-scaling-stroke" d="
  M 212.9124 138.0210
  A 6.06 3.87 -84.2 0 0 208.4498 143.6589
  A 6.06 3.87 -84.2 0 0 211.6876 150.0790
  A 6.06 3.87 -84.2 0 0 216.1502 144.4411
  A 6.06 3.87 -84.2 0 0 212.9124 138.0210"
/>
<path stroke="#e18382" vector-effect="non-scaling-stroke" d="
  M 246.4746 144.0416
  A 6.15 3.99 -85.2 0 0 241.9840 149.8361
  A 6.15 3.99 -85.2 0 0 245.4454 156.2984
  A 6.15 3.99 -85.2 0 0 249.9360 150.5039
  A 6.15 3.99 -85.2 0 0 246.4746 144.0416"
/>
<path stroke="#e18382" vector-effect="non-scaling-stroke" d="
  M 224.36 146.37
  Q 223.82 146.65 223.52 147.25
  Q 221.49 151.37 221.01 151.91
  C 217.45 156.03 210.05 158.88 213.41 165.34
  C 214.26 166.99 217.05 169.84 219.12 169.68
  A 1.35 1.26 63.5 0 0 219.80 167.40
  C 217.92 165.59 215.55 163.27 216.59 160.61
  A 1.66 1.62 -7.4 0 1 217.19 159.85
  C 221.71 156.82 225.00 152.93 225.77 147.41
  A 1.00 0.98 80.9 0 0 224.36 146.37"
/>
<path stroke="#e18382" vector-effect="non-scaling-stroke" d="
  M 287.86 163.18
  Q 288.27 163.64 288.54 163.73
  A 1.28 1.25 78.7 0 0 289.87 161.68
  Q 287.50 158.96 283.96 161.01
  Q 279.74 163.45 279.38 168.26
  Q 279.28 169.62 280.40 169.91
  A 2.16 2.10 15.1 0 0 283.00 168.46
  Q 283.20 167.75 282.92 166.45
  A 1.65 1.65 0.0 0 1 283.02 165.48
  Q 284.13 162.96 286.74 162.75
  A 1.36 1.35 -23.6 0 1 287.86 163.18"
/>
<path stroke="#e18382" vector-effect="non-scaling-stroke" d="
  M 228.98 180.98
  C 224.05 181.47 220.42 180.58 216.21 179.06
  A 1.30 1.28 -86.4 0 0 214.53 180.57
  Q 214.76 181.61 216.05 182.25
  C 220.30 184.35 224.31 184.99 229.33 184.49
  C 234.35 183.99 238.15 182.56 241.90 179.66
  Q 243.04 178.78 243.06 177.72
  A 1.30 1.28 75.0 0 0 241.11 176.57
  C 237.29 178.89 233.90 180.49 228.98 180.98"
/>
<path stroke="#e18382" vector-effect="non-scaling-stroke" d="
  M 313.84 285.78
  Q 312.02 296.84 313.91 306.60
  A 0.84 0.83 66.4 0 0 315.22 307.13
  Q 315.64 306.82 315.64 306.01
  Q 315.61 294.46 316.96 286.29
  Q 318.31 278.12 322.03 267.19
  Q 322.30 266.42 322.00 266.00
  A 0.84 0.83 -47.6 0 0 320.59 266.08
  Q 315.67 274.71 313.84 285.78"
/>
<path stroke="#e18382" vector-effect="non-scaling-stroke" d="
  M 209.77 276.59
  A 5.86 5.86 0.0 0 0 203.91 270.73
  A 5.86 5.86 0.0 0 0 198.05 276.59
  A 5.86 5.86 0.0 0 0 203.91 282.45
  A 5.86 5.86 0.0 0 0 209.77 276.59"
/>
<path stroke="#e18382" vector-effect="non-scaling-stroke" d="
  M 251.9737 273.0560
  A 6.07 5.92 -67.9 0 0 244.2050 276.4528
  A 6.07 5.92 -67.9 0 0 247.4063 284.3040
  A 6.07 5.92 -67.9 0 0 255.1750 280.9072
  A 6.07 5.92 -67.9 0 0 251.9737 273.0560"
/>
<path stroke="#e18382" vector-effect="non-scaling-stroke" d="
  M 197.7303 316.9530
  A 6.03 5.81 -84.0 0 0 191.3218 322.3427
  A 6.03 5.81 -84.0 0 0 196.4697 328.9470
  A 6.03 5.81 -84.0 0 0 202.8782 323.5573
  A 6.03 5.81 -84.0 0 0 197.7303 316.9530"
/>
<path stroke="#e18382" vector-effect="non-scaling-stroke" d="
  M 243.3363 319.3013
  A 6.06 5.84 -79.0 0 0 236.4473 324.1357
  A 6.06 5.84 -79.0 0 0 241.0237 331.1987
  A 6.06 5.84 -79.0 0 0 247.9127 326.3643
  A 6.06 5.84 -79.0 0 0 243.3363 319.3013"
/>
<path stroke="#e18382" vector-effect="non-scaling-stroke" d="
  M 194.2496 366.2385
  A 5.91 5.72 -76.7 0 0 187.3234 370.6741
  A 5.91 5.72 -76.7 0 0 191.5304 377.7415
  A 5.91 5.72 -76.7 0 0 198.4566 373.3059
  A 5.91 5.72 -76.7 0 0 194.2496 366.2385"
/>
<path stroke="#e18382" vector-effect="non-scaling-stroke" d="
  M 237.1013 368.3470
  A 6.01 5.85 -77.3 0 0 230.0731 372.9239
  A 6.01 5.85 -77.3 0 0 234.4587 380.0730
  A 6.01 5.85 -77.3 0 0 241.4869 375.4961
  A 6.01 5.85 -77.3 0 0 237.1013 368.3470"
/>
<path stroke="#e18382" vector-effect="non-scaling-stroke" d="
  M 206.72 276.59
  A 2.91 2.91 0.0 0 0 203.81 273.68
  A 2.91 2.91 0.0 0 0 200.90 276.59
  A 2.91 2.91 0.0 0 0 203.81 279.50
  A 2.91 2.91 0.0 0 0 206.72 276.59"
/>
<path stroke="#e18382" vector-effect="non-scaling-stroke" d="
  M 252.56 278.68
  A 2.95 2.95 0.0 0 0 249.61 275.73
  A 2.95 2.95 0.0 0 0 246.66 278.68
  A 2.95 2.95 0.0 0 0 249.61 281.63
  A 2.95 2.95 0.0 0 0 252.56 278.68"
/>
<path stroke="#e18382" vector-effect="non-scaling-stroke" d="
  M 199.99 322.94
  A 2.91 2.91 0.0 0 0 197.08 320.03
  A 2.91 2.91 0.0 0 0 194.17 322.94
  A 2.91 2.91 0.0 0 0 197.08 325.85
  A 2.91 2.91 0.0 0 0 199.99 322.94"
/>
<path stroke="#e18382" vector-effect="non-scaling-stroke" d="
  M 245.07 325.22
  A 2.89 2.89 0.0 0 0 242.18 322.33
  A 2.89 2.89 0.0 0 0 239.29 325.22
  A 2.89 2.89 0.0 0 0 242.18 328.11
  A 2.89 2.89 0.0 0 0 245.07 325.22"
/>
<path stroke="#e18382" vector-effect="non-scaling-stroke" d="
  M 195.65 372.02
  A 2.91 2.91 0.0 0 0 192.74 369.11
  A 2.91 2.91 0.0 0 0 189.83 372.02
  A 2.91 2.91 0.0 0 0 192.74 374.93
  A 2.91 2.91 0.0 0 0 195.65 372.02"
/>
<path stroke="#e18382" vector-effect="non-scaling-stroke" d="
  M 235.9749 371.3318
  A 2.98 2.78 -84.9 0 0 232.9410 374.0529
  A 2.98 2.78 -84.9 0 0 235.4451 377.2682
  A 2.98 2.78 -84.9 0 0 238.4790 374.5471
  A 2.98 2.78 -84.9 0 0 235.9749 371.3318"
/>
<path stroke="#f4edea" vector-effect="non-scaling-stroke" d="
  M 256.30 470.47
  L 149.14 470.35"
/>
<path stroke="#f4edea" vector-effect="non-scaling-stroke" d="
  M 286.40 467.45
  L 286.11 469.55
  A 0.55 0.55 0.0 0 1 285.58 470.03
  L 259.53 470.51"
/>
<path stroke="#f4edea" vector-effect="non-scaling-stroke" d="
  M 106.01 490.00
  L 1.06 489.75
  A 0.90 0.90 0.0 0 1 0.26 489.26
  Q 0.09 488.91 0.00 488.34"
/>
<path stroke="#f4edea" vector-effect="non-scaling-stroke" d="
  M 217.72 490.00
  L 184.61 490.00"
/>
<path stroke="#f4edea" vector-effect="non-scaling-stroke" d="
  M 506.00 489.15
  Q 505.58 489.89 504.75 489.87
  Q 493.43 489.59 482.10 490.00"
/>
<path stroke="#f4edea" vector-effect="non-scaling-stroke" d="
  M 480.33 490.00
  L 370.16 490.00"
/>
</g>
<path fill="none" d="
  M 506.00 0.00
  L 506.00 487.41
  C 505.57 482.74 505.77 477.97 504.51 473.38
  A 0.77 0.75 -3.4 0 0 503.88 472.83
  Q 480.80 469.68 457.66 469.76
  Q 411.88 469.93 360.26 469.52
  Q 343.82 469.39 327.13 468.75
  C 333.46 464.41 330.09 459.02 327.92 454.17
  A 1.17 1.17 0.0 0 1 328.34 452.72
  Q 332.76 449.76 342.75 443.50
  Q 362.43 431.17 379.31 417.26
  A 0.90 0.89 36.5 0 1 380.24 417.13
  Q 388.26 420.61 395.52 415.94
  Q 404.48 410.17 409.88 399.86
  Q 415.29 389.55 411.28 378.45
  A 1.52 1.47 -47.8 0 1 411.25 377.51
  Q 411.70 375.94 412.40 373.67
  Q 417.40 357.44 409.95 341.79
  Q 405.67 332.80 399.95 323.83
  Q 390.44 308.91 369.59 280.50
  Q 360.28 267.81 351.96 258.33
  Q 341.85 246.82 328.69 240.83
  C 324.26 238.81 317.84 236.21 313.78 234.79
  Q 296.86 228.86 284.02 223.61
  A 1.41 1.39 -83.4 0 1 283.17 222.52
  Q 281.53 211.47 281.47 210.98
  C 280.87 205.79 277.21 204.47 272.89 202.78
  A 0.74 0.73 12.9 0 1 272.42 202.04
  Q 273.03 194.43 275.16 187.54
  A 0.71 0.71 0.0 0 1 275.88 187.04
  C 287.59 187.82 296.88 177.91 298.78 167.04
  Q 299.63 162.20 296.96 156.11
  A 0.80 0.79 -39.5 0 1 297.04 155.33
  Q 298.86 152.81 299.50 151.49
  Q 303.16 144.08 306.35 137.01
  A 0.62 0.62 0.0 0 1 307.23 136.74
  C 316.60 142.49 329.13 141.70 336.33 133.26
  Q 342.23 126.37 340.06 116.23
  A 1.45 1.44 58.9 0 1 340.36 115.00
  Q 347.82 105.89 348.16 94.98
  Q 348.71 77.28 334.87 66.40
  Q 330.35 62.85 322.45 60.89
  A 0.73 0.73 0.0 0 1 321.91 60.29
  Q 321.10 54.55 320.41 52.81
  Q 312.48 33.07 292.23 26.02
  Q 273.73 19.57 255.85 26.95
  A 1.62 1.61 49.2 0 1 254.42 26.84
  C 251.81 25.29 248.92 22.94 245.70 21.63
  Q 234.82 17.19 223.44 18.54
  C 204.72 20.76 190.40 35.97 193.08 54.81
  C 194.55 65.12 201.17 73.68 210.20 79.08
  A 0.70 0.70 0.0 0 1 210.49 79.94
  Q 204.97 93.99 200.19 107.74
  Q 198.59 112.35 200.66 114.82
  A 1.81 1.77 -58.4 0 1 201.02 116.40
  C 200.34 119.15 199.83 120.61 199.27 123.44
  Q 196.46 137.85 193.07 155.01
  C 190.00 170.54 191.77 187.03 201.31 199.66
  Q 207.06 207.29 216.01 210.38
  A 0.40 0.40 0.0 0 1 216.16 211.04
  Q 215.87 211.33 212.83 212.57
  C 208.29 214.40 207.31 220.82 207.21 225.05
  A 1.21 1.20 -9.9 0 1 206.44 226.14
  Q 195.14 230.35 181.83 234.08
  C 172.46 236.71 161.74 241.53 155.08 248.44
  C 152.35 251.29 149.43 253.93 146.83 257.15
  C 139.25 266.53 130.81 277.66 122.83 287.06
  A 0.37 0.37 0.0 0 1 122.18 286.82
  L 122.18 277.19
  A 1.62 1.59 73.9 0 1 122.91 275.84
  Q 128.03 272.51 128.39 267.20
  A 0.07 0.05 -58.3 0 0 128.39 267.15
  L 128.14 263.11
  A 1.41 1.36 65.3 0 1 128.49 262.11
  Q 131.64 258.69 131.80 254.14
  A 3.38 3.25 -34.5 0 1 132.02 253.07
  Q 136.27 241.72 134.43 229.49
  Q 133.83 225.50 132.11 216.95
  Q 131.03 211.59 131.97 203.76
  Q 132.86 196.32 132.88 195.76
  Q 133.12 188.59 132.33 186.48
  C 129.84 179.84 122.77 178.64 117.94 183.63
  C 113.55 188.18 112.31 195.96 112.99 201.75
  Q 113.62 207.14 113.93 209.64
  A 1.41 1.40 85.7 0 1 112.59 211.21
  C 105.53 211.45 96.54 212.05 91.02 214.99
  C 85.98 217.68 83.52 222.78 84.84 228.62
  Q 85.09 229.73 85.22 230.98
  A 3.10 3.04 53.6 0 1 85.01 232.46
  C 84.31 234.19 83.47 235.64 83.21 237.59
  Q 82.68 241.44 84.25 245.50
  Q 84.95 247.33 84.54 249.28
  C 83.79 252.78 83.97 255.94 85.50 258.98
  Q 86.34 260.64 86.61 261.37
  A 4.07 4.03 -54.1 0 1 86.87 263.05
  Q 86.59 267.80 88.42 272.08
  A 3.91 3.85 37.7 0 1 88.70 274.15
  Q 88.42 276.11 87.81 278.07
  Q 83.39 292.24 76.49 308.02
  A 0.89 0.87 -86.7 0 1 75.96 308.50
  C 62.34 312.66 55.54 327.04 55.46 340.37
  Q 55.37 355.86 65.11 368.47
  C 76.88 383.73 97.01 387.63 113.60 378.09
  Q 120.37 374.19 123.41 369.26
  A 2.40 2.37 0.4 0 1 124.23 368.46
  Q 129.77 365.17 134.99 360.23
  Q 143.94 351.75 151.91 343.91
  Q 152.09 343.73 152.57 343.45
  A 0.19 0.19 0.0 0 1 152.86 343.61
  L 153.08 382.47
  A 10.22 10.20 51.5 0 1 152.82 384.76
  C 152.07 387.70 150.41 391.15 149.93 394.01
  Q 148.50 402.61 154.48 409.68
  A 1.10 1.09 -57.0 0 1 154.69 410.70
  Q 152.44 418.10 150.04 433.75
  Q 147.19 452.28 145.97 464.53
  C 115.82 466.55 93.43 466.23 56.80 466.02
  Q 43.49 465.94 30.18 466.60
  Q 14.10 467.39 0.00 475.31
  L 0.00 0.00
  L 506.00 0.00
  Z
  M 119.7329 147.1813
  A 1.45 1.45 0.0 0 0 118.1416 145.8881
  L 118.0620 145.8963
  A 1.45 1.45 0.0 0 0 116.7687 147.4876
  L 118.1071 160.4387
  A 1.45 1.45 0.0 0 0 119.6984 161.7319
  L 119.7780 161.7237
  A 1.45 1.45 0.0 0 0 121.0713 160.1324
  L 119.7329 147.1813
  Z
  M 98.3797 153.9830
  A 1.52 1.52 0.0 0 0 96.2762 153.5397
  L 96.2260 153.5725
  A 1.52 1.52 0.0 0 0 95.7827 155.6759
  L 102.9803 166.7170
  A 1.52 1.52 0.0 0 0 105.0838 167.1603
  L 105.1340 167.1275
  A 1.52 1.52 0.0 0 0 105.5773 165.0241
  L 98.3797 153.9830
  Z
  M 95.6083 178.6751
  A 1.41 1.41 0.0 0 0 94.9394 176.7966
  L 84.4245 171.8038
  A 1.41 1.41 0.0 0 0 82.5460 172.4727
  L 82.5117 172.5449
  A 1.41 1.41 0.0 0 0 83.1806 174.4234
  L 93.6955 179.4162
  A 1.41 1.41 0.0 0 0 95.5740 178.7473
  L 95.6083 178.6751
  Z"
/>
<path fill="#c61314" d="
  M 327.13 468.75
  L 318.99 473.41
  A 1.86 1.80 -59.3 0 1 318.07 473.66
  L 316.04 473.66
  A 0.53 0.52 -6.8 0 0 315.52 474.31
  L 319.32 490.00
  L 315.35 490.00
  Q 310.80 468.85 302.34 448.84
  Q 300.28 443.96 298.04 439.79
  A 1.30 1.30 0.0 0 0 295.63 440.68
  Q 300.95 465.05 304.52 490.00
  L 300.69 490.00
  L 292.41 441.19
  A 1.29 1.28 -87.6 0 0 291.47 440.16
  L 291.19 440.09
  A 0.52 0.51 -82.7 0 0 290.55 440.59
  L 290.68 490.00
  L 286.91 490.00
  L 286.40 467.45
  L 286.86 439.00
  A 1.41 1.39 25.2 0 0 286.51 438.05
  Q 285.33 436.72 284.63 435.02
  A 0.39 0.39 0.0 0 0 283.95 434.96
  Q 282.71 436.85 281.67 438.75
  Q 272.27 455.88 259.53 470.51
  L 254.51 475.59
  A 0.79 0.78 42.5 0 1 253.44 475.63
  L 253.42 475.61
  A 0.79 0.77 -51.2 0 1 253.32 474.55
  L 256.30 470.47
  Q 270.10 452.13 281.91 431.76
  A 0.29 0.29 0.0 0 0 281.56 431.34
  Q 261.51 438.50 239.71 439.58
  A 2.81 2.79 -35.8 0 1 238.57 439.40
  Q 236.57 438.65 235.22 439.25
  Q 233.85 439.85 231.73 439.98
  Q 209.07 441.32 186.24 437.50
  C 178.93 436.27 170.86 434.37 164.56 430.79
  A 1.09 1.08 -53.9 0 1 164.30 429.12
  Q 164.60 428.79 165.00 428.90
  C 186.41 435.07 208.53 437.63 230.64 437.19
  C 233.90 437.13 236.09 438.07 239.04 437.04
  Q 239.83 436.76 243.68 436.27
  C 256.81 434.58 269.61 432.04 282.23 427.21
  A 1.20 1.20 0.0 0 0 283.01 426.10
  Q 283.08 423.22 284.35 420.57
  A 0.26 0.26 0.0 0 0 284.08 420.20
  Q 237.62 426.14 190.75 420.24
  Q 174.59 418.21 158.77 413.07
  A 0.70 0.70 0.0 0 0 157.87 413.58
  Q 156.55 419.35 155.32 427.00
  Q 151.84 448.53 149.14 470.35
  L 146.80 490.00
  L 144.25 490.00
  L 145.97 464.53
  Q 147.19 452.28 150.04 433.75
  Q 152.44 418.10 154.69 410.70
  A 1.10 1.09 -57.0 0 0 154.48 409.68
  Q 148.50 402.61 149.93 394.01
  C 150.41 391.15 152.07 387.70 152.82 384.76
  A 10.22 10.20 51.5 0 0 153.08 382.47
  L 152.86 343.61
  A 0.19 0.19 0.0 0 0 152.57 343.45
  Q 152.09 343.73 151.91 343.91
  Q 143.94 351.75 134.99 360.23
  Q 129.77 365.17 124.23 368.46
  A 2.40 2.37 0.4 0 0 123.41 369.26
  Q 120.37 374.19 113.60 378.09
  C 97.01 387.63 76.88 383.73 65.11 368.47
  Q 55.37 355.86 55.46 340.37
  C 55.54 327.04 62.34 312.66 75.96 308.50
  A 0.89 0.87 -86.7 0 0 76.49 308.02
  Q 83.39 292.24 87.81 278.07
  Q 88.42 276.11 88.70 274.15
  A 3.91 3.85 37.7 0 0 88.42 272.08
  Q 86.59 267.80 86.87 263.05
  A 4.07 4.03 -54.1 0 0 86.61 261.37
  Q 86.34 260.64 85.50 258.98
  C 83.97 255.94 83.79 252.78 84.54 249.28
  Q 84.95 247.33 84.25 245.50
  Q 82.68 241.44 83.21 237.59
  C 83.47 235.64 84.31 234.19 85.01 232.46
  A 3.10 3.04 53.6 0 0 85.22 230.98
  Q 85.09 229.73 84.84 228.62
  C 83.52 222.78 85.98 217.68 91.02 214.99
  C 96.54 212.05 105.53 211.45 112.59 211.21
  A 1.41 1.40 85.7 0 0 113.93 209.64
  Q 113.62 207.14 112.99 201.75
  C 112.31 195.96 113.55 188.18 117.94 183.63
  C 122.77 178.64 129.84 179.84 132.33 186.48
  Q 133.12 188.59 132.88 195.76
  Q 132.86 196.32 131.97 203.76
  Q 131.03 211.59 132.11 216.95
  Q 133.83 225.50 134.43 229.49
  Q 136.27 241.72 132.02 253.07
  A 3.38 3.25 -34.5 0 0 131.80 254.14
  Q 131.64 258.69 128.49 262.11
  A 1.41 1.36 65.3 0 0 128.14 263.11
  L 128.39 267.15
  A 0.07 0.05 -58.3 0 1 128.39 267.20
  Q 128.03 272.51 122.91 275.84
  A 1.62 1.59 73.9 0 0 122.18 277.19
  L 122.18 286.82
  A 0.37 0.37 0.0 0 0 122.83 287.06
  C 130.81 277.66 139.25 266.53 146.83 257.15
  C 149.43 253.93 152.35 251.29 155.08 248.44
  C 161.74 241.53 172.46 236.71 181.83 234.08
  Q 195.14 230.35 206.44 226.14
  A 1.21 1.20 -9.9 0 0 207.21 225.05
  C 207.31 220.82 208.29 214.40 212.83 212.57
  Q 215.87 211.33 216.16 211.04
  A 0.40 0.40 0.0 0 0 216.01 210.38
  Q 207.06 207.29 201.31 199.66
  C 191.77 187.03 190.00 170.54 193.07 155.01
  Q 196.46 137.85 199.27 123.44
  C 199.83 120.61 200.34 119.15 201.02 116.40
  A 1.81 1.77 -58.4 0 0 200.66 114.82
  Q 198.59 112.35 200.19 107.74
  Q 204.97 93.99 210.49 79.94
  A 0.70 0.70 0.0 0 0 210.20 79.08
  C 201.17 73.68 194.55 65.12 193.08 54.81
  C 190.40 35.97 204.72 20.76 223.44 18.54
  Q 234.82 17.19 245.70 21.63
  C 248.92 22.94 251.81 25.29 254.42 26.84
  A 1.62 1.61 49.2 0 0 255.85 26.95
  Q 273.73 19.57 292.23 26.02
  Q 312.48 33.07 320.41 52.81
  Q 321.10 54.55 321.91 60.29
  A 0.73 0.73 0.0 0 0 322.45 60.89
  Q 330.35 62.85 334.87 66.40
  Q 348.71 77.28 348.16 94.98
  Q 347.82 105.89 340.36 115.00
  A 1.45 1.44 58.9 0 0 340.06 116.23
  Q 342.23 126.37 336.33 133.26
  C 329.13 141.70 316.60 142.49 307.23 136.74
  A 0.62 0.62 0.0 0 0 306.35 137.01
  Q 303.16 144.08 299.50 151.49
  Q 298.86 152.81 297.04 155.33
  A 0.80 0.79 -39.5 0 0 296.96 156.11
  Q 299.63 162.20 298.78 167.04
  C 296.88 177.91 287.59 187.82 275.88 187.04
  A 0.71 0.71 0.0 0 0 275.16 187.54
  Q 273.03 194.43 272.42 202.04
  A 0.74 0.73 12.9 0 0 272.89 202.78
  C 277.21 204.47 280.87 205.79 281.47 210.98
  Q 281.53 211.47 283.17 222.52
  A 1.41 1.39 -83.4 0 0 284.02 223.61
  Q 296.86 228.86 313.78 234.79
  C 317.84 236.21 324.26 238.81 328.69 240.83
  Q 341.85 246.82 351.96 258.33
  Q 360.28 267.81 369.59 280.50
  Q 390.44 308.91 399.95 323.83
  Q 405.67 332.80 409.95 341.79
  Q 417.40 357.44 412.40 373.67
  Q 411.70 375.94 411.25 377.51
  A 1.52 1.47 -47.8 0 0 411.28 378.45
  Q 415.29 389.55 409.88 399.86
  Q 404.48 410.17 395.52 415.94
  Q 388.26 420.61 380.24 417.13
  A 0.90 0.89 36.5 0 0 379.31 417.26
  Q 362.43 431.17 342.75 443.50
  Q 332.76 449.76 328.34 452.72
  A 1.17 1.17 0.0 0 0 327.92 454.17
  C 330.09 459.02 333.46 464.41 327.13 468.75
  Z
  M 226.17 70.80
  Q 220.02 63.41 219.76 53.84
  A 1.25 1.21 68.3 0 1 220.14 52.92
  L 220.63 52.45
  A 0.75 0.75 0.0 0 1 221.88 52.87
  Q 223.68 63.51 230.58 70.81
  A 1.25 1.21 -20.6 0 0 231.45 71.19
  Q 239.12 71.30 246.84 73.24
  A 0.56 0.56 0.0 0 0 247.53 72.63
  C 247.02 68.17 246.87 62.53 249.11 58.86
  Q 249.42 58.35 249.78 58.20
  A 0.94 0.90 86.4 0 1 250.97 59.30
  Q 249.35 66.72 251.22 73.82
  A 0.60 0.60 0.0 0 0 251.64 74.24
  Q 263.83 77.70 275.68 84.23
  A 0.72 0.71 25.3 0 0 276.69 83.87
  C 278.63 79.13 281.03 74.15 285.28 70.85
  A 1.07 1.07 0.0 0 1 286.99 71.49
  Q 287.05 71.77 286.75 72.24
  C 283.17 77.98 281.47 80.63 279.71 86.09
  A 0.74 0.73 25.7 0 0 280.01 86.93
  Q 288.62 92.58 295.88 99.56
  A 1.18 1.17 57.8 0 0 297.06 99.83
  C 302.46 98.12 305.90 96.34 311.16 93.22
  A 1.00 0.97 -18.7 0 1 312.66 93.93
  Q 312.73 94.63 312.04 95.30
  Q 307.01 100.23 299.36 102.62
  A 0.43 0.42 -29.9 0 0 299.17 103.31
  Q 305.20 109.91 308.66 116.93
  A 1.65 1.63 -5.6 0 0 309.72 117.79
  Q 314.71 119.07 316.25 119.20
  Q 317.52 119.31 317.81 119.92
  A 1.05 0.91 -16.2 0 1 316.96 121.24
  Q 313.67 121.78 310.56 120.85
  A 0.41 0.41 0.0 0 0 310.06 121.40
  C 311.86 125.84 309.72 127.81 308.69 131.88
  A 0.76 0.74 24.3 0 0 309.01 132.70
  C 321.04 140.47 336.91 134.62 336.69 118.83
  A 0.63 0.63 0.0 0 0 335.78 118.28
  Q 334.17 119.11 332.42 119.53
  A 1.21 1.07 -7.4 0 1 330.93 118.52
  Q 330.93 118.31 331.10 117.94
  A 0.99 0.94 -9.7 0 1 331.37 117.58
  Q 336.51 113.23 337.24 112.27
  C 346.62 99.83 346.34 84.20 335.77 72.97
  Q 331.27 68.19 323.52 65.41
  A 1.36 1.35 -72.1 0 0 321.75 66.32
  Q 321.40 67.60 321.06 68.43
  A 1.79 1.62 -67.3 0 1 318.85 69.47
  Q 317.71 68.98 317.79 67.72
  C 318.91 49.26 305.88 34.91 288.88 29.61
  Q 271.60 24.23 255.01 31.94
  Q 252.54 33.09 251.73 30.71
  A 2.52 2.50 7.3 0 0 250.70 29.39
  Q 239.55 22.27 227.33 22.54
  C 217.79 22.75 208.58 26.76 202.75 34.27
  C 196.76 41.99 195.40 51.83 199.32 61.00
  Q 202.98 69.54 212.00 75.08
  A 1.19 1.19 0.0 0 0 213.23 75.10
  Q 218.51 71.99 225.85 71.53
  A 0.45 0.45 0.0 0 0 226.17 70.80
  Z
  M 205.34 107.54
  Q 209.57 106.13 214.26 105.82
  C 244.01 103.87 273.84 120.67 292.27 143.09
  Q 294.18 145.41 295.63 148.07
  A 0.50 0.50 0.0 0 0 296.53 148.03
  L 306.16 126.18
  A 5.25 5.22 47.1 0 0 306.29 122.30
  C 302.10 110.75 291.50 100.19 281.23 93.01
  Q 262.63 80.01 240.28 76.21
  Q 230.12 74.48 219.22 76.63
  C 216.24 77.22 216.03 77.82 214.96 80.47
  Q 210.05 92.62 205.05 107.25
  A 0.23 0.23 0.0 0 0 205.34 107.54
  Z
  M 222.53 212.54
  L 222.53 224.66
  A 1.63 1.60 -66.6 0 0 222.95 225.75
  Q 227.63 230.91 227.74 237.50
  Q 227.82 242.82 227.73 243.16
  A 0.95 0.95 0.0 0 0 228.92 244.30
  L 235.78 242.29
  A 2.25 2.24 -9.2 0 0 237.40 240.06
  Q 237.35 238.55 237.96 234.24
  C 238.58 229.86 239.98 225.41 243.84 223.31
  Q 248.12 220.98 252.71 219.43
  C 258.60 217.44 263.53 214.94 268.22 212.23
  A 0.91 0.90 73.3 0 0 268.67 211.38
  C 268.43 208.25 268.09 206.01 268.35 202.87
  Q 269.18 192.94 271.91 183.81
  A 1.65 1.64 14.7 0 1 273.85 182.68
  C 276.79 183.36 279.26 183.42 282.13 182.20
  Q 291.26 178.32 294.01 169.32
  Q 296.03 162.70 292.91 157.76
  Q 289.99 153.15 284.63 154.62
  C 280.88 155.65 278.70 158.16 276.04 161.53
  C 274.79 163.12 272.76 164.32 271.39 162.49
  Q 270.51 161.33 270.78 159.91
  Q 271.96 153.53 272.70 148.91
  A 2.95 2.92 32.9 0 0 272.24 146.82
  Q 266.85 138.72 270.76 129.85
  A 1.32 1.31 30.4 0 0 270.34 128.26
  C 253.01 115.56 229.54 106.76 207.91 110.89
  A 0.81 0.80 -86.1 0 0 207.30 111.43
  C 203.21 123.58 201.30 135.35 197.61 153.33
  C 194.52 168.44 195.47 185.24 205.04 197.45
  C 217.19 212.94 236.54 208.65 251.40 200.35
  Q 251.92 200.06 252.53 200.34
  A 0.90 0.89 34.2 0 1 252.81 201.76
  C 245.44 209.58 233.30 213.01 222.95 212.15
  A 0.39 0.38 -87.3 0 0 222.53 212.54
  Z
  M 127.63 214.09
  Q 127.37 205.52 128.80 197.02
  C 129.28 194.10 129.87 185.49 125.75 184.68
  C 118.76 183.29 116.72 194.29 116.89 199.10
  Q 117.06 204.02 117.71 211.03
  A 0.64 0.64 0.0 0 0 118.37 211.62
  Q 123.22 211.48 127.02 214.40
  A 0.38 0.38 0.0 0 0 127.63 214.09
  Z
  M 272.50 209.39
  Q 272.92 209.54 273.72 208.18
  Q 274.28 207.22 273.42 206.91
  Q 272.56 206.59 272.36 207.68
  Q 272.08 209.23 272.50 209.39
  Z
  M 276.33 210.07
  C 273.67 214.85 266.55 218.06 261.69 220.19
  Q 254.58 223.30 248.58 225.37
  C 246.24 226.17 244.28 227.46 243.46 229.50
  Q 240.78 236.15 241.49 243.52
  A 1.78 1.77 -10.2 0 1 240.18 245.40
  L 196.67 257.16
  A 2.40 2.40 0.0 0 0 194.99 258.80
  Q 193.53 263.64 192.16 269.58
  Q 186.44 294.44 183.45 321.49
  Q 179.02 361.50 178.59 402.34
  C 178.54 407.00 179.16 409.80 179.97 413.77
  A 0.99 0.98 -0.8 0 0 180.78 414.55
  Q 235.49 423.11 290.28 415.10
  Q 291.66 414.90 297.90 413.26
  A 2.13 2.11 -73.0 0 0 298.77 412.79
  Q 305.13 407.08 305.68 399.10
  Q 305.71 398.60 305.05 392.95
  Q 304.58 388.97 305.78 384.31
  Q 312.31 358.99 321.03 327.61
  A 0.93 0.92 -55.2 0 0 320.89 326.82
  L 316.77 321.14
  A 1.10 1.09 72.4 0 1 317.67 319.40
  C 319.24 319.32 322.04 322.14 323.37 323.49
  Q 335.18 335.53 351.86 356.33
  A 0.49 0.49 0.0 0 0 352.64 356.31
  Q 360.49 345.32 373.70 342.76
  A 1.07 1.07 0.0 0 1 374.91 343.43
  L 374.93 343.46
  A 0.90 0.90 0.0 0 1 374.37 344.63
  C 366.98 347.07 359.54 351.79 355.05 358.42
  A 0.36 0.36 0.0 0 0 355.46 358.96
  Q 371.58 353.57 387.61 358.81
  Q 399.65 362.75 407.80 372.70
  A 0.47 0.47 0.0 0 0 408.61 372.56
  C 410.77 366.51 411.15 359.83 409.49 353.32
  Q 408.20 348.24 407.47 346.54
  Q 403.10 336.30 396.29 325.96
  Q 375.06 293.76 351.73 264.67
  C 345.24 256.58 336.92 249.49 327.25 245.17
  C 311.34 238.06 292.61 232.13 283.99 228.38
  A 0.80 0.79 -54.9 0 0 283.11 228.54
  Q 279.11 232.44 278.60 232.83
  Q 266.69 241.69 250.52 244.73
  A 0.98 0.97 -9.8 0 1 249.38 243.93
  L 249.37 243.89
  A 1.13 1.12 75.8 0 1 250.10 242.65
  C 261.02 238.83 270.82 234.46 279.09 227.23
  A 1.87 1.86 -25.3 0 0 279.71 225.50
  L 277.13 210.20
  A 0.43 0.43 0.0 0 0 276.33 210.07
  Z
  M 218.60 221.34
  L 218.60 215.35
  A 0.65 0.65 0.0 0 0 217.83 214.71
  Q 216.77 214.91 215.74 215.65
  A 0.86 0.85 61.6 0 0 215.45 216.63
  Q 216.65 219.83 218.16 221.51
  A 0.25 0.25 0.0 0 0 218.60 221.34
  Z
  M 117.70 273.41
  A 0.21 0.21 0.0 0 0 117.86 273.80
  Q 122.99 272.42 124.38 268.44
  C 125.34 265.66 124.77 261.96 121.23 261.92
  Q 112.17 261.81 105.56 261.67
  A 1.57 1.57 0.0 0 1 104.08 260.53
  L 104.02 260.30
  A 0.96 0.95 80.6 0 1 104.88 259.09
  L 119.41 258.21
  A 10.65 10.37 -38.9 0 1 122.63 258.51
  L 125.21 259.16
  A 0.75 0.75 0.0 0 0 126.05 258.79
  C 128.65 254.18 129.22 248.07 122.24 247.42
  Q 116.27 246.87 105.23 246.91
  A 2.54 2.54 0.0 0 1 103.39 246.12
  L 103.02 245.73
  A 0.76 0.75 -25.6 0 1 103.47 244.46
  Q 113.54 243.08 123.50 243.82
  C 124.77 243.92 126.27 244.69 127.23 244.96
  A 0.68 0.67 -69.1 0 0 128.02 244.60
  C 131.53 237.23 127.88 231.67 119.74 231.53
  Q 110.20 231.36 103.59 231.28
  A 1.01 1.01 0.0 0 1 102.59 230.33
  L 102.58 230.05
  A 1.28 1.27 -6.1 0 1 103.67 228.71
  Q 112.40 227.42 121.56 228.02
  C 123.41 228.14 124.90 228.68 127.05 229.51
  A 1.19 1.19 0.0 0 0 128.62 228.69
  Q 130.37 221.82 125.27 217.79
  C 122.91 215.91 117.84 215.42 115.01 215.37
  C 108.57 215.28 101.99 215.88 96.37 217.24
  C 92.91 218.08 88.50 220.70 88.40 224.77
  Q 88.35 226.72 89.32 230.47
  A 2.80 2.78 -47.1 0 1 89.36 231.66
  C 88.80 234.75 86.85 236.93 86.90 240.51
  A 4.83 4.82 -55.4 0 0 87.19 242.10
  L 88.62 246.01
  A 1.30 1.29 37.6 0 1 88.68 246.46
  C 88.59 248.34 87.25 254.78 88.51 256.98
  Q 90.53 260.52 90.61 261.43
  C 90.86 264.36 90.77 267.59 91.92 270.35
  Q 93.20 273.38 93.28 273.75
  A 1.53 1.50 53.1 0 1 93.15 274.72
  Q 92.99 275.05 87.79 291.05
  Q 86.39 295.38 77.98 315.23
  Q 75.44 321.22 73.89 326.34
  Q 71.00 335.81 75.25 345.07
  C 77.15 349.21 80.22 351.90 84.28 354.19
  C 92.10 358.62 102.77 355.08 108.52 349.11
  Q 115.56 341.80 116.95 331.46
  Q 118.20 322.18 118.19 311.50
  Q 118.17 281.79 118.22 277.69
  A 0.51 0.51 0.0 0 0 117.59 277.19
  Q 114.24 277.96 112.95 275.48
  A 0.94 0.93 74.5 0 0 112.06 274.97
  L 107.68 275.24
  A 0.98 0.98 0.0 0 1 106.66 274.43
  L 106.59 274.02
  A 0.90 0.90 0.0 0 1 107.33 272.98
  L 117.67 271.24
  A 0.97 0.97 0.0 0 1 118.38 272.99
  Q 118.15 273.15 117.70 273.41
  Z
  M 126.83 361.18
  A 0.44 0.44 0.0 0 0 127.55 361.64
  L 152.66 337.86
  A 2.80 2.76 70.2 0 0 153.53 335.98
  Q 154.46 318.77 156.78 302.85
  A 9.79 9.60 46.0 0 0 156.80 300.22
  Q 155.62 291.26 156.37 281.42
  A 0.89 0.88 4.2 0 1 157.33 280.60
  L 157.36 280.60
  A 0.99 0.98 -88.4 0 1 158.25 281.55
  L 158.51 290.08
  A 0.43 0.43 0.0 0 0 159.37 290.13
  Q 161.20 277.89 165.57 266.54
  A 0.82 0.81 -79.5 0 1 166.33 266.01
  L 166.70 266.01
  A 0.77 0.77 0.0 0 1 167.45 266.95
  Q 154.89 323.41 156.80 381.99
  Q 156.95 386.43 156.00 388.35
  Q 150.51 399.48 158.77 408.90
  A 2.67 2.62 -13.2 0 0 160.11 409.71
  L 175.11 413.48
  A 0.58 0.58 0.0 0 0 175.82 412.78
  Q 174.86 408.68 174.91 404.02
  Q 175.12 381.48 176.28 358.50
  Q 178.02 324.15 183.76 290.75
  Q 186.29 276.01 190.35 261.35
  C 191.50 257.22 192.14 254.32 195.89 253.20
  Q 200.46 251.84 223.75 245.62
  A 0.69 0.69 0.0 0 0 224.26 244.94
  C 224.23 240.93 223.96 232.36 221.14 229.51
  C 217.68 226.01 213.75 223.26 212.92 218.67
  A 0.39 0.39 0.0 0 0 212.15 218.67
  Q 211.43 222.85 211.28 228.19
  C 211.13 233.19 214.04 237.05 217.57 240.42
  A 1.09 0.99 49.4 0 1 217.52 242.05
  Q 217.24 242.23 216.74 242.03
  C 210.97 239.70 209.58 236.21 207.20 231.03
  A 0.66 0.66 0.0 0 0 206.38 230.68
  Q 198.36 233.50 184.94 237.66
  Q 173.63 241.16 169.60 243.36
  Q 161.94 247.53 156.38 252.90
  C 153.22 255.95 148.57 261.41 145.70 265.18
  Q 133.32 281.43 122.80 292.78
  A 2.06 2.05 66.6 0 0 122.25 294.18
  L 122.25 306.03
  A 1.06 1.05 13.0 0 0 122.85 306.98
  C 131.95 311.46 137.98 323.35 138.07 333.25
  A 0.83 0.83 0.0 0 1 137.27 334.09
  L 137.25 334.09
  A 1.11 1.10 84.2 0 1 136.14 333.18
  Q 133.92 320.82 123.64 311.28
  A 0.91 0.91 0.0 0 0 122.11 311.95
  L 122.11 320.97
  A 4.34 4.31 -65.1 0 0 123.11 323.74
  Q 126.88 328.24 128.38 336.27
  Q 130.81 349.29 126.83 361.18
  Z
  M 73.65 313.78
  Q 72.24 314.21 70.59 315.57
  Q 63.09 321.75 60.70 331.67
  Q 59.27 337.59 59.37 340.24
  C 59.82 352.71 65.19 365.33 75.39 372.68
  C 85.19 379.74 96.79 381.02 108.04 376.31
  C 115.38 373.24 119.96 368.57 122.78 361.22
  C 126.37 351.83 126.64 337.97 121.81 328.66
  A 0.43 0.43 0.0 0 0 120.99 328.85
  Q 120.78 339.13 115.07 347.55
  C 108.85 356.72 97.43 362.33 86.26 359.29
  C 70.36 354.98 65.77 337.25 70.60 323.07
  Q 72.11 318.67 73.97 314.14
  A 0.27 0.27 0.0 0 0 73.65 313.78
  Z
  M 324.30 331.88
  Q 316.60 359.49 311.02 381.02
  Q 309.28 387.75 309.16 388.58
  Q 308.76 391.31 309.57 396.29
  Q 310.84 404.06 305.84 410.91
  Q 303.96 413.48 303.33 414.08
  A 0.64 0.64 0.0 0 0 303.14 414.64
  L 304.81 424.52
  A 1.18 1.16 -75.2 0 0 305.22 425.24
  L 308.31 427.80
  A 0.76 0.75 -41.6 0 0 309.19 427.85
  Q 311.77 426.20 312.35 425.60
  Q 328.23 409.34 342.43 391.08
  A 1.30 1.29 50.6 0 0 342.56 389.69
  Q 337.71 380.32 344.34 373.21
  A 1.78 1.73 -20.9 0 0 344.78 372.26
  C 345.40 367.60 345.73 364.08 350.16 361.41
  A 1.27 1.26 -43.8 0 0 350.21 359.27
  C 347.04 357.18 345.17 354.31 342.68 351.47
  Q 331.79 339.00 327.60 334.11
  Q 326.22 332.50 325.07 331.62
  A 0.49 0.49 0.0 0 0 324.30 331.88
  Z
  M 345.76 386.65
  Q 347.66 385.64 347.51 384.08
  C 347.29 381.86 349.52 381.16 351.24 380.97
  Q 360.98 379.87 369.67 384.18
  Q 381.44 390.02 386.86 398.09
  Q 390.48 403.48 390.13 407.68
  Q 389.91 410.39 388.15 410.10
  A 2.24 2.23 -62.0 0 0 386.30 410.67
  L 383.60 413.20
  A 0.64 0.64 0.0 0 0 383.91 414.30
  Q 389.39 415.40 393.87 412.18
  C 403.43 405.30 412.53 392.13 407.36 380.25
  C 403.35 371.02 394.50 365.22 385.03 362.37
  Q 369.46 357.69 354.42 363.37
  Q 350.57 364.82 349.21 368.38
  C 348.60 369.98 349.07 372.04 348.57 373.66
  A 3.42 3.37 73.4 0 1 347.99 374.75
  C 344.88 378.60 343.15 381.42 345.04 386.39
  A 0.51 0.51 0.0 0 0 345.76 386.65
  Z
  M 312.21 431.60
  Q 314.93 434.52 320.52 441.74
  Q 323.05 445.02 324.88 449.16
  A 0.62 0.62 0.0 0 0 325.77 449.43
  Q 344.72 437.79 362.58 425.06
  Q 374.83 416.34 385.06 406.36
  A 1.95 1.95 0.0 0 0 385.56 404.42
  Q 384.86 402.06 382.93 399.64
  C 376.23 391.25 364.75 384.36 353.52 384.58
  A 1.62 1.61 -71.7 0 0 352.29 385.20
  C 340.56 400.37 328.89 414.73 314.86 428.63
  C 314.07 429.40 312.68 430.08 312.19 430.67
  A 0.71 0.70 44.0 0 0 312.21 431.60
  Z
  M 300.44 420.59
  Q 300.37 419.88 299.79 417.47
  A 0.73 0.72 78.2 0 0 298.96 416.92
  L 297.69 417.13
  A 0.25 0.24 -22.7 0 0 297.53 417.51
  L 299.91 420.79
  A 0.29 0.29 0.0 0 0 300.44 420.59
  Z
  M 293.40 423.01
  A 1.09 1.09 0.0 0 1 291.42 423.66
  L 289.79 421.41
  A 1.19 1.19 0.0 0 0 287.82 421.48
  C 285.57 425.04 287.08 439.93 294.64 436.31
  Q 296.15 435.58 297.01 432.96
  C 298.37 428.82 298.58 421.59 293.57 419.78
  A 0.68 0.68 0.0 0 0 292.73 420.71
  Q 293.39 422.06 293.40 423.01
  Z
  M 301.42 428.06
  Q 301.43 431.50 300.22 434.79
  A 1.19 1.16 -48.4 0 0 300.26 435.72
  L 316.58 469.39
  A 0.80 0.79 -24.5 0 0 317.61 469.77
  Q 322.58 467.62 326.77 463.79
  A 1.07 1.06 -31.0 0 0 327.06 462.64
  Q 325.66 458.77 322.93 453.43
  C 321.03 449.70 318.70 447.08 316.79 443.92
  C 313.18 437.95 307.39 432.14 302.12 427.73
  A 0.43 0.43 0.0 0 0 301.42 428.06
  Z"
/>
<path fill="#fbf3f0" d="
  M 225.85 71.53
  Q 218.51 71.99 213.23 75.10
  A 1.19 1.19 0.0 0 1 212.00 75.08
  Q 202.98 69.54 199.32 61.00
  C 195.40 51.83 196.76 41.99 202.75 34.27
  C 208.58 26.76 217.79 22.75 227.33 22.54
  Q 239.55 22.27 250.70 29.39
  A 2.52 2.50 7.3 0 1 251.73 30.71
  Q 252.54 33.09 255.01 31.94
  Q 271.60 24.23 288.88 29.61
  C 305.88 34.91 318.91 49.26 317.79 67.72
  Q 317.71 68.98 318.85 69.47
  A 1.79 1.62 -67.3 0 0 321.06 68.43
  Q 321.40 67.60 321.75 66.32
  A 1.36 1.35 -72.1 0 1 323.52 65.41
  Q 331.27 68.19 335.77 72.97
  C 346.34 84.20 346.62 99.83 337.24 112.27
  Q 336.51 113.23 331.37 117.58
  A 0.99 0.94 -9.7 0 0 331.10 117.94
  Q 330.93 118.31 330.93 118.52
  A 1.21 1.07 -7.4 0 0 332.42 119.53
  Q 334.17 119.11 335.78 118.28
  A 0.63 0.63 0.0 0 1 336.69 118.83
  C 336.91 134.62 321.04 140.47 309.01 132.70
  A 0.76 0.74 24.3 0 1 308.69 131.88
  C 309.72 127.81 311.86 125.84 310.06 121.40
  A 0.41 0.41 0.0 0 1 310.56 120.85
  Q 313.67 121.78 316.96 121.24
  A 1.05 0.91 -16.2 0 0 317.81 119.92
  Q 317.52 119.31 316.25 119.20
  Q 314.71 119.07 309.72 117.79
  A 1.65 1.63 -5.6 0 1 308.66 116.93
  Q 305.20 109.91 299.17 103.31
  A 0.43 0.42 -29.9 0 1 299.36 102.62
  Q 307.01 100.23 312.04 95.30
  Q 312.73 94.63 312.66 93.93
  A 1.00 0.97 -18.7 0 0 311.16 93.22
  C 305.90 96.34 302.46 98.12 297.06 99.83
  A 1.18 1.17 57.8 0 1 295.88 99.56
  Q 288.62 92.58 280.01 86.93
  A 0.74 0.73 25.7 0 1 279.71 86.09
  C 281.47 80.63 283.17 77.98 286.75 72.24
  Q 287.05 71.77 286.99 71.49
  A 1.07 1.07 0.0 0 0 285.28 70.85
  C 281.03 74.15 278.63 79.13 276.69 83.87
  A 0.72 0.71 25.3 0 1 275.68 84.23
  Q 263.83 77.70 251.64 74.24
  A 0.60 0.60 0.0 0 1 251.22 73.82
  Q 249.35 66.72 250.97 59.30
  A 0.94 0.90 86.4 0 0 249.78 58.20
  Q 249.42 58.35 249.11 58.86
  C 246.87 62.53 247.02 68.17 247.53 72.63
  A 0.56 0.56 0.0 0 1 246.84 73.24
  Q 239.12 71.30 231.45 71.19
  A 1.25 1.21 -20.6 0 1 230.58 70.81
  Q 223.68 63.51 221.88 52.87
  A 0.75 0.75 0.0 0 0 220.63 52.45
  L 220.14 52.92
  A 1.25 1.21 68.3 0 0 219.76 53.84
  Q 220.02 63.41 226.17 70.80
  A 0.45 0.45 0.0 0 1 225.85 71.53
  Z"
/>
<path fill="#fbf3f0" d="
  M 205.34 107.54
  A 0.23 0.23 0.0 0 1 205.05 107.25
  Q 210.05 92.62 214.96 80.47
  C 216.03 77.82 216.24 77.22 219.22 76.63
  Q 230.12 74.48 240.28 76.21
  Q 262.63 80.01 281.23 93.01
  C 291.50 100.19 302.10 110.75 306.29 122.30
  A 5.25 5.22 47.1 0 1 306.16 126.18
  L 296.53 148.03
  A 0.50 0.50 0.0 0 1 295.63 148.07
  Q 294.18 145.41 292.27 143.09
  C 273.84 120.67 244.01 103.87 214.26 105.82
  Q 209.57 106.13 205.34 107.54
  Z"
/>
<path fill="#fbf3f0" d="
  M 222.53 212.54
  A 0.39 0.38 -87.3 0 1 222.95 212.15
  C 233.30 213.01 245.44 209.58 252.81 201.76
  A 0.90 0.89 34.2 0 0 252.53 200.34
  Q 251.92 200.06 251.40 200.35
  C 236.54 208.65 217.19 212.94 205.04 197.45
  C 195.47 185.24 194.52 168.44 197.61 153.33
  C 201.30 135.35 203.21 123.58 207.30 111.43
  A 0.81 0.80 -86.1 0 1 207.91 110.89
  C 229.54 106.76 253.01 115.56 270.34 128.26
  A 1.32 1.31 30.4 0 1 270.76 129.85
  Q 266.85 138.72 272.24 146.82
  A 2.95 2.92 32.9 0 1 272.70 148.91
  Q 271.96 153.53 270.78 159.91
  Q 270.51 161.33 271.39 162.49
  C 272.76 164.32 274.79 163.12 276.04 161.53
  C 278.70 158.16 280.88 155.65 284.63 154.62
  Q 289.99 153.15 292.91 157.76
  Q 296.03 162.70 294.01 169.32
  Q 291.26 178.32 282.13 182.20
  C 279.26 183.42 276.79 183.36 273.85 182.68
  A 1.65 1.64 14.7 0 0 271.91 183.81
  Q 269.18 192.94 268.35 202.87
  C 268.09 206.01 268.43 208.25 268.67 211.38
  A 0.91 0.90 73.3 0 1 268.22 212.23
  C 263.53 214.94 258.60 217.44 252.71 219.43
  Q 248.12 220.98 243.84 223.31
  C 239.98 225.41 238.58 229.86 237.96 234.24
  Q 237.35 238.55 237.40 240.06
  A 2.25 2.24 -9.2 0 1 235.78 242.29
  L 228.92 244.30
  A 0.95 0.95 0.0 0 1 227.73 243.16
  Q 227.82 242.82 227.74 237.50
  Q 227.63 230.91 222.95 225.75
  A 1.63 1.60 -66.6 0 1 222.53 224.66
  L 222.53 212.54
  Z
  M 212.90 122.89
  C 210.30 123.07 207.08 124.38 205.92 126.81
  A 1.98 1.83 -59.4 0 0 206.43 129.19
  Q 206.98 129.60 207.77 129.24
  Q 210.82 127.86 213.24 127.69
  Q 215.67 127.52 218.88 128.45
  Q 219.72 128.70 220.20 128.22
  A 1.98 1.83 51.3 0 0 220.37 125.79
  C 218.88 123.55 215.51 122.70 212.90 122.89
  Z
  M 257.48 137.49
  L 257.48 136.44
  A 5.24 5.24 0.0 0 0 255.76 132.56
  C 252.76 129.85 247.19 127.48 243.09 128.85
  A 2.43 2.06 65.2 0 0 242.17 132.19
  Q 242.47 132.74 243.25 132.68
  Q 248.85 132.27 255.48 138.37
  A 1.19 1.19 0.0 0 0 257.48 137.49
  Z
  M 212.9124 138.0210
  A 6.06 3.87 -84.2 0 0 208.4498 143.6589
  A 6.06 3.87 -84.2 0 0 211.6876 150.0790
  A 6.06 3.87 -84.2 0 0 216.1502 144.4411
  A 6.06 3.87 -84.2 0 0 212.9124 138.0210
  Z
  M 246.4746 144.0416
  A 6.15 3.99 -85.2 0 0 241.9840 149.8361
  A 6.15 3.99 -85.2 0 0 245.4454 156.2984
  A 6.15 3.99 -85.2 0 0 249.9360 150.5039
  A 6.15 3.99 -85.2 0 0 246.4746 144.0416
  Z
  M 224.36 146.37
  Q 223.82 146.65 223.52 147.25
  Q 221.49 151.37 221.01 151.91
  C 217.45 156.03 210.05 158.88 213.41 165.34
  C 214.26 166.99 217.05 169.84 219.12 169.68
  A 1.35 1.26 63.5 0 0 219.80 167.40
  C 217.92 165.59 215.55 163.27 216.59 160.61
  A 1.66 1.62 -7.4 0 1 217.19 159.85
  C 221.71 156.82 225.00 152.93 225.77 147.41
  A 1.00 0.98 80.9 0 0 224.36 146.37
  Z
  M 287.86 163.18
  Q 288.27 163.64 288.54 163.73
  A 1.28 1.25 78.7 0 0 289.87 161.68
  Q 287.50 158.96 283.96 161.01
  Q 279.74 163.45 279.38 168.26
  Q 279.28 169.62 280.40 169.91
  A 2.16 2.10 15.1 0 0 283.00 168.46
  Q 283.20 167.75 282.92 166.45
  A 1.65 1.65 0.0 0 1 283.02 165.48
  Q 284.13 162.96 286.74 162.75
  A 1.36 1.35 -23.6 0 1 287.86 163.18
  Z
  M 228.98 180.98
  C 224.05 181.47 220.42 180.58 216.21 179.06
  A 1.30 1.28 -86.4 0 0 214.53 180.57
  Q 214.76 181.61 216.05 182.25
  C 220.30 184.35 224.31 184.99 229.33 184.49
  C 234.35 183.99 238.15 182.56 241.90 179.66
  Q 243.04 178.78 243.06 177.72
  A 1.30 1.28 75.0 0 0 241.11 176.57
  C 237.29 178.89 233.90 180.49 228.98 180.98
  Z"
/>
<path fill="#c61314" d="
  M 213.24 127.69
  Q 210.82 127.86 207.77 129.24
  Q 206.98 129.60 206.43 129.19
  A 1.98 1.83 -59.4 0 1 205.92 126.81
  C 207.08 124.38 210.30 123.07 212.90 122.89
  C 215.51 122.70 218.88 123.55 220.37 125.79
  A 1.98 1.83 51.3 0 1 220.20 128.22
  Q 219.72 128.70 218.88 128.45
  Q 215.67 127.52 213.24 127.69
  Z"
/>
<path fill="#c61314" d="
  M 257.48 137.49
  A 1.19 1.19 0.0 0 1 255.48 138.37
  Q 248.85 132.27 243.25 132.68
  Q 242.47 132.74 242.17 132.19
  A 2.43 2.06 65.2 0 1 243.09 128.85
  C 247.19 127.48 252.76 129.85 255.76 132.56
  A 5.24 5.24 0.0 0 1 257.48 136.44
  L 257.48 137.49
  Z"
/>
<ellipse fill="#c61314" cx="0.00" cy="0.00" transform="translate(212.30,144.05) rotate(-84.2)" rx="6.06" ry="3.87"/>
<ellipse fill="#c61314" cx="0.00" cy="0.00" transform="translate(245.96,150.17) rotate(-85.2)" rx="6.15" ry="3.99"/>
<rect fill="#c61314" x="-1.49" y="-7.96" transform="translate(118.92,153.81) rotate(-5.9)" width="2.98" height="15.92" rx="1.45"/>
<path fill="#c61314" d="
  M 224.36 146.37
  A 1.00 0.98 80.9 0 1 225.77 147.41
  C 225.00 152.93 221.71 156.82 217.19 159.85
  A 1.66 1.62 -7.4 0 0 216.59 160.61
  C 215.55 163.27 217.92 165.59 219.80 167.40
  A 1.35 1.26 63.5 0 1 219.12 169.68
  C 217.05 169.84 214.26 166.99 213.41 165.34
  C 210.05 158.88 217.45 156.03 221.01 151.91
  Q 221.49 151.37 223.52 147.25
  Q 223.82 146.65 224.36 146.37
  Z"
/>
<rect fill="#c61314" x="-1.55" y="-8.11" transform="translate(100.68,160.35) rotate(-33.1)" width="3.10" height="16.22" rx="1.52"/>
<path fill="#c61314" d="
  M 286.74 162.75
  Q 284.13 162.96 283.02 165.48
  A 1.65 1.65 0.0 0 0 282.92 166.45
  Q 283.20 167.75 283.00 168.46
  A 2.16 2.10 15.1 0 1 280.40 169.91
  Q 279.28 169.62 279.38 168.26
  Q 279.74 163.45 283.96 161.01
  Q 287.50 158.96 289.87 161.68
  A 1.28 1.25 78.7 0 1 288.54 163.73
  Q 288.27 163.64 287.86 163.18
  A 1.36 1.35 -23.6 0 0 286.74 162.75
  Z"
/>
<rect fill="#c61314" x="-7.23" y="-1.45" transform="translate(89.06,175.61) rotate(25.4)" width="14.46" height="2.90" rx="1.41"/>
<path fill="#c61314" d="
  M 229.33 184.49
  C 224.31 184.99 220.30 184.35 216.05 182.25
  Q 214.76 181.61 214.53 180.57
  A 1.30 1.28 -86.4 0 1 216.21 179.06
  C 220.42 180.58 224.05 181.47 228.98 180.98
  C 233.90 180.49 237.29 178.89 241.11 176.57
  A 1.30 1.28 75.0 0 1 243.06 177.72
  Q 243.04 178.78 241.90 179.66
  C 238.15 182.56 234.35 183.99 229.33 184.49
  Z"
/>
<path fill="#fbf3f0" d="
  M 127.02 214.40
  Q 123.22 211.48 118.37 211.62
  A 0.64 0.64 0.0 0 1 117.71 211.03
  Q 117.06 204.02 116.89 199.10
  C 116.72 194.29 118.76 183.29 125.75 184.68
  C 129.87 185.49 129.28 194.10 128.80 197.02
  Q 127.37 205.52 127.63 214.09
  A 0.38 0.38 0.0 0 1 127.02 214.40
  Z"
/>
<path fill="none" d="
  M 273.42 206.91
  Q 274.28 207.22 273.72 208.18
  Q 272.92 209.54 272.50 209.39
  Q 272.08 209.23 272.36 207.68
  Q 272.56 206.59 273.42 206.91
  Z"
/>
<path fill="#fbf3f0" d="
  M 277.13 210.20
  L 279.71 225.50
  A 1.87 1.86 -25.3 0 1 279.09 227.23
  C 270.82 234.46 261.02 238.83 250.10 242.65
  A 1.13 1.12 75.8 0 0 249.37 243.89
  L 249.38 243.93
  A 0.98 0.97 -9.8 0 0 250.52 244.73
  Q 266.69 241.69 278.60 232.83
  Q 279.11 232.44 283.11 228.54
  A 0.80 0.79 -54.9 0 1 283.99 228.38
  C 292.61 232.13 311.34 238.06 327.25 245.17
  C 336.92 249.49 345.24 256.58 351.73 264.67
  Q 375.06 293.76 396.29 325.96
  Q 403.10 336.30 407.47 346.54
  Q 408.20 348.24 409.49 353.32
  C 411.15 359.83 410.77 366.51 408.61 372.56
  A 0.47 0.47 0.0 0 1 407.80 372.70
  Q 399.65 362.75 387.61 358.81
  Q 371.58 353.57 355.46 358.96
  A 0.36 0.36 0.0 0 1 355.05 358.42
  C 359.54 351.79 366.98 347.07 374.37 344.63
  A 0.90 0.90 0.0 0 0 374.93 343.46
  L 374.91 343.43
  A 1.07 1.07 0.0 0 0 373.70 342.76
  Q 360.49 345.32 352.64 356.31
  A 0.49 0.49 0.0 0 1 351.86 356.33
  Q 335.18 335.53 323.37 323.49
  C 322.04 322.14 319.24 319.32 317.67 319.40
  A 1.10 1.09 72.4 0 0 316.77 321.14
  L 320.89 326.82
  A 0.93 0.92 -55.2 0 1 321.03 327.61
  Q 312.31 358.99 305.78 384.31
  Q 304.58 388.97 305.05 392.95
  Q 305.71 398.60 305.68 399.10
  Q 305.13 407.08 298.77 412.79
  A 2.13 2.11 -73.0 0 1 297.90 413.26
  Q 291.66 414.90 290.28 415.10
  Q 235.49 423.11 180.78 414.55
  A 0.99 0.98 -0.8 0 1 179.97 413.77
  C 179.16 409.80 178.54 407.00 178.59 402.34
  Q 179.02 361.50 183.45 321.49
  Q 186.44 294.44 192.16 269.58
  Q 193.53 263.64 194.99 258.80
  A 2.40 2.40 0.0 0 1 196.67 257.16
  L 240.18 245.40
  A 1.78 1.77 -10.2 0 0 241.49 243.52
  Q 240.78 236.15 243.46 229.50
  C 244.28 227.46 246.24 226.17 248.58 225.37
  Q 254.58 223.30 261.69 220.19
  C 266.55 218.06 273.67 214.85 276.33 210.07
  A 0.43 0.43 0.0 0 1 277.13 210.20
  Z
  M 313.84 285.78
  Q 312.02 296.84 313.91 306.60
  A 0.84 0.83 66.4 0 0 315.22 307.13
  Q 315.64 306.82 315.64 306.01
  Q 315.61 294.46 316.96 286.29
  Q 318.31 278.12 322.03 267.19
  Q 322.30 266.42 322.00 266.00
  A 0.84 0.83 -47.6 0 0 320.59 266.08
  Q 315.67 274.71 313.84 285.78
  Z
  M 209.77 276.59
  A 5.86 5.86 0.0 0 0 203.91 270.73
  A 5.86 5.86 0.0 0 0 198.05 276.59
  A 5.86 5.86 0.0 0 0 203.91 282.45
  A 5.86 5.86 0.0 0 0 209.77 276.59
  Z
  M 251.9737 273.0560
  A 6.07 5.92 -67.9 0 0 244.2050 276.4528
  A 6.07 5.92 -67.9 0 0 247.4063 284.3040
  A 6.07 5.92 -67.9 0 0 255.1750 280.9072
  A 6.07 5.92 -67.9 0 0 251.9737 273.0560
  Z
  M 197.7303 316.9530
  A 6.03 5.81 -84.0 0 0 191.3218 322.3427
  A 6.03 5.81 -84.0 0 0 196.4697 328.9470
  A 6.03 5.81 -84.0 0 0 202.8782 323.5573
  A 6.03 5.81 -84.0 0 0 197.7303 316.9530
  Z
  M 243.3363 319.3013
  A 6.06 5.84 -79.0 0 0 236.4473 324.1357
  A 6.06 5.84 -79.0 0 0 241.0237 331.1987
  A 6.06 5.84 -79.0 0 0 247.9127 326.3643
  A 6.06 5.84 -79.0 0 0 243.3363 319.3013
  Z
  M 194.2496 366.2385
  A 5.91 5.72 -76.7 0 0 187.3234 370.6741
  A 5.91 5.72 -76.7 0 0 191.5304 377.7415
  A 5.91 5.72 -76.7 0 0 198.4566 373.3059
  A 5.91 5.72 -76.7 0 0 194.2496 366.2385
  Z
  M 237.1013 368.3470
  A 6.01 5.85 -77.3 0 0 230.0731 372.9239
  A 6.01 5.85 -77.3 0 0 234.4587 380.0730
  A 6.01 5.85 -77.3 0 0 241.4869 375.4961
  A 6.01 5.85 -77.3 0 0 237.1013 368.3470
  Z"
/>
<path fill="#fbf3f0" d="
  M 218.16 221.51
  Q 216.65 219.83 215.45 216.63
  A 0.86 0.85 61.6 0 1 215.74 215.65
  Q 216.77 214.91 217.83 214.71
  A 0.65 0.65 0.0 0 1 218.60 215.35
  L 218.60 221.34
  A 0.25 0.25 0.0 0 1 218.16 221.51
  Z"
/>
<path fill="#fbf3f0" d="
  M 117.70 273.41
  Q 118.15 273.15 118.38 272.99
  A 0.97 0.97 0.0 0 0 117.67 271.24
  L 107.33 272.98
  A 0.90 0.90 0.0 0 0 106.59 274.02
  L 106.66 274.43
  A 0.98 0.98 0.0 0 0 107.68 275.24
  L 112.06 274.97
  A 0.94 0.93 74.5 0 1 112.95 275.48
  Q 114.24 277.96 117.59 277.19
  A 0.51 0.51 0.0 0 1 118.22 277.69
  Q 118.17 281.79 118.19 311.50
  Q 118.20 322.18 116.95 331.46
  Q 115.56 341.80 108.52 349.11
  C 102.77 355.08 92.10 358.62 84.28 354.19
  C 80.22 351.90 77.15 349.21 75.25 345.07
  Q 71.00 335.81 73.89 326.34
  Q 75.44 321.22 77.98 315.23
  Q 86.39 295.38 87.79 291.05
  Q 92.99 275.05 93.15 274.72
  A 1.53 1.50 53.1 0 0 93.28 273.75
  Q 93.20 273.38 91.92 270.35
  C 90.77 267.59 90.86 264.36 90.61 261.43
  Q 90.53 260.52 88.51 256.98
  C 87.25 254.78 88.59 248.34 88.68 246.46
  A 1.30 1.29 37.6 0 0 88.62 246.01
  L 87.19 242.10
  A 4.83 4.82 -55.4 0 1 86.90 240.51
  C 86.85 236.93 88.80 234.75 89.36 231.66
  A 2.80 2.78 -47.1 0 0 89.32 230.47
  Q 88.35 226.72 88.40 224.77
  C 88.50 220.70 92.91 218.08 96.37 217.24
  C 101.99 215.88 108.57 215.28 115.01 215.37
  C 117.84 215.42 122.91 215.91 125.27 217.79
  Q 130.37 221.82 128.62 228.69
  A 1.19 1.19 0.0 0 1 127.05 229.51
  C 124.90 228.68 123.41 228.14 121.56 228.02
  Q 112.40 227.42 103.67 228.71
  A 1.28 1.27 -6.1 0 0 102.58 230.05
  L 102.59 230.33
  A 1.01 1.01 0.0 0 0 103.59 231.28
  Q 110.20 231.36 119.74 231.53
  C 127.88 231.67 131.53 237.23 128.02 244.60
  A 0.68 0.67 -69.1 0 1 127.23 244.96
  C 126.27 244.69 124.77 243.92 123.50 243.82
  Q 113.54 243.08 103.47 244.46
  A 0.76 0.75 -25.6 0 0 103.02 245.73
  L 103.39 246.12
  A 2.54 2.54 0.0 0 0 105.23 246.91
  Q 116.27 246.87 122.24 247.42
  C 129.22 248.07 128.65 254.18 126.05 258.79
  A 0.75 0.75 0.0 0 1 125.21 259.16
  L 122.63 258.51
  A 10.65 10.37 -38.9 0 0 119.41 258.21
  L 104.88 259.09
  A 0.96 0.95 80.6 0 0 104.02 260.30
  L 104.08 260.53
  A 1.57 1.57 0.0 0 0 105.56 261.67
  Q 112.17 261.81 121.23 261.92
  C 124.77 261.96 125.34 265.66 124.38 268.44
  Q 122.99 272.42 117.86 273.80
  A 0.21 0.21 0.0 0 1 117.70 273.41
  Z"
/>
<path fill="#fbf3f0" d="
  M 126.83 361.18
  Q 130.81 349.29 128.38 336.27
  Q 126.88 328.24 123.11 323.74
  A 4.34 4.31 -65.1 0 1 122.11 320.97
  L 122.11 311.95
  A 0.91 0.91 0.0 0 1 123.64 311.28
  Q 133.92 320.82 136.14 333.18
  A 1.11 1.10 84.2 0 0 137.25 334.09
  L 137.27 334.09
  A 0.83 0.83 0.0 0 0 138.07 333.25
  C 137.98 323.35 131.95 311.46 122.85 306.98
  A 1.06 1.05 13.0 0 1 122.25 306.03
  L 122.25 294.18
  A 2.06 2.05 66.6 0 1 122.80 292.78
  Q 133.32 281.43 145.70 265.18
  C 148.57 261.41 153.22 255.95 156.38 252.90
  Q 161.94 247.53 169.60 243.36
  Q 173.63 241.16 184.94 237.66
  Q 198.36 233.50 206.38 230.68
  A 0.66 0.66 0.0 0 1 207.20 231.03
  C 209.58 236.21 210.97 239.70 216.74 242.03
  Q 217.24 242.23 217.52 242.05
  A 1.09 0.99 49.4 0 0 217.57 240.42
  C 214.04 237.05 211.13 233.19 211.28 228.19
  Q 211.43 222.85 212.15 218.67
  A 0.39 0.39 0.0 0 1 212.92 218.67
  C 213.75 223.26 217.68 226.01 221.14 229.51
  C 223.96 232.36 224.23 240.93 224.26 244.94
  A 0.69 0.69 0.0 0 1 223.75 245.62
  Q 200.46 251.84 195.89 253.20
  C 192.14 254.32 191.50 257.22 190.35 261.35
  Q 186.29 276.01 183.76 290.75
  Q 178.02 324.15 176.28 358.50
  Q 175.12 381.48 174.91 404.02
  Q 174.86 408.68 175.82 412.78
  A 0.58 0.58 0.0 0 1 175.11 413.48
  L 160.11 409.71
  A 2.67 2.62 -13.2 0 1 158.77 408.90
  Q 150.51 399.48 156.00 388.35
  Q 156.95 386.43 156.80 381.99
  Q 154.89 323.41 167.45 266.95
  A 0.77 0.77 0.0 0 0 166.70 266.01
  L 166.33 266.01
  A 0.82 0.81 -79.5 0 0 165.57 266.54
  Q 161.20 277.89 159.37 290.13
  A 0.43 0.43 0.0 0 1 158.51 290.08
  L 158.25 281.55
  A 0.99 0.98 -88.4 0 0 157.36 280.60
  L 157.33 280.60
  A 0.89 0.88 4.2 0 0 156.37 281.42
  Q 155.62 291.26 156.80 300.22
  A 9.79 9.60 46.0 0 1 156.78 302.85
  Q 154.46 318.77 153.53 335.98
  A 2.80 2.76 70.2 0 1 152.66 337.86
  L 127.55 361.64
  A 0.44 0.44 0.0 0 1 126.83 361.18
  Z"
/>
<path fill="#c61314" d="
  M 316.96 286.29
  Q 315.61 294.46 315.64 306.01
  Q 315.64 306.82 315.22 307.13
  A 0.84 0.83 66.4 0 1 313.91 306.60
  Q 312.02 296.84 313.84 285.78
  Q 315.67 274.71 320.59 266.08
  A 0.84 0.83 -47.6 0 1 322.00 266.00
  Q 322.30 266.42 322.03 267.19
  Q 318.31 278.12 316.96 286.29
  Z"
/>
<path fill="#c61314" d="
  M 209.77 276.59
  A 5.86 5.86 0.0 0 1 203.91 282.45
  A 5.86 5.86 0.0 0 1 198.05 276.59
  A 5.86 5.86 0.0 0 1 203.91 270.73
  A 5.86 5.86 0.0 0 1 209.77 276.59
  Z
  M 206.72 276.59
  A 2.91 2.91 0.0 0 0 203.81 273.68
  A 2.91 2.91 0.0 0 0 200.90 276.59
  A 2.91 2.91 0.0 0 0 203.81 279.50
  A 2.91 2.91 0.0 0 0 206.72 276.59
  Z"
/>
<path fill="#c61314" d="
  M 251.9737 273.0560
  A 6.07 5.92 -67.9 0 1 255.1750 280.9072
  A 6.07 5.92 -67.9 0 1 247.4063 284.3040
  A 6.07 5.92 -67.9 0 1 244.2050 276.4528
  A 6.07 5.92 -67.9 0 1 251.9737 273.0560
  Z
  M 252.56 278.68
  A 2.95 2.95 0.0 0 0 249.61 275.73
  A 2.95 2.95 0.0 0 0 246.66 278.68
  A 2.95 2.95 0.0 0 0 249.61 281.63
  A 2.95 2.95 0.0 0 0 252.56 278.68
  Z"
/>
<circle fill="#fbf3f0" cx="203.81" cy="276.59" r="2.91"/>
<circle fill="#fbf3f0" cx="249.61" cy="278.68" r="2.95"/>
<path fill="#fbf3f0" d="
  M 73.65 313.78
  A 0.27 0.27 0.0 0 1 73.97 314.14
  Q 72.11 318.67 70.60 323.07
  C 65.77 337.25 70.36 354.98 86.26 359.29
  C 97.43 362.33 108.85 356.72 115.07 347.55
  Q 120.78 339.13 120.99 328.85
  A 0.43 0.43 0.0 0 1 121.81 328.66
  C 126.64 337.97 126.37 351.83 122.78 361.22
  C 119.96 368.57 115.38 373.24 108.04 376.31
  C 96.79 381.02 85.19 379.74 75.39 372.68
  C 65.19 365.33 59.82 352.71 59.37 340.24
  Q 59.27 337.59 60.70 331.67
  Q 63.09 321.75 70.59 315.57
  Q 72.24 314.21 73.65 313.78
  Z"
/>
<path fill="#c61314" d="
  M 197.7303 316.9530
  A 6.03 5.81 -84.0 0 1 202.8782 323.5573
  A 6.03 5.81 -84.0 0 1 196.4697 328.9470
  A 6.03 5.81 -84.0 0 1 191.3218 322.3427
  A 6.03 5.81 -84.0 0 1 197.7303 316.9530
  Z
  M 199.99 322.94
  A 2.91 2.91 0.0 0 0 197.08 320.03
  A 2.91 2.91 0.0 0 0 194.17 322.94
  A 2.91 2.91 0.0 0 0 197.08 325.85
  A 2.91 2.91 0.0 0 0 199.99 322.94
  Z"
/>
<path fill="#c61314" d="
  M 243.3363 319.3013
  A 6.06 5.84 -79.0 0 1 247.9127 326.3643
  A 6.06 5.84 -79.0 0 1 241.0237 331.1987
  A 6.06 5.84 -79.0 0 1 236.4473 324.1357
  A 6.06 5.84 -79.0 0 1 243.3363 319.3013
  Z
  M 245.07 325.22
  A 2.89 2.89 0.0 0 0 242.18 322.33
  A 2.89 2.89 0.0 0 0 239.29 325.22
  A 2.89 2.89 0.0 0 0 242.18 328.11
  A 2.89 2.89 0.0 0 0 245.07 325.22
  Z"
/>
<circle fill="#fbf3f0" cx="197.08" cy="322.94" r="2.91"/>
<circle fill="#fbf3f0" cx="242.18" cy="325.22" r="2.89"/>
<path fill="#fbf3f0" d="
  M 325.07 331.62
  Q 326.22 332.50 327.60 334.11
  Q 331.79 339.00 342.68 351.47
  C 345.17 354.31 347.04 357.18 350.21 359.27
  A 1.27 1.26 -43.8 0 1 350.16 361.41
  C 345.73 364.08 345.40 367.60 344.78 372.26
  A 1.78 1.73 -20.9 0 1 344.34 373.21
  Q 337.71 380.32 342.56 389.69
  A 1.30 1.29 50.6 0 1 342.43 391.08
  Q 328.23 409.34 312.35 425.60
  Q 311.77 426.20 309.19 427.85
  A 0.76 0.75 -41.6 0 1 308.31 427.80
  L 305.22 425.24
  A 1.18 1.16 -75.2 0 1 304.81 424.52
  L 303.14 414.64
  A 0.64 0.64 0.0 0 1 303.33 414.08
  Q 303.96 413.48 305.84 410.91
  Q 310.84 404.06 309.57 396.29
  Q 308.76 391.31 309.16 388.58
  Q 309.28 387.75 311.02 381.02
  Q 316.60 359.49 324.30 331.88
  A 0.49 0.49 0.0 0 1 325.07 331.62
  Z"
/>
<path fill="#fbf3f0" d="
  M 345.04 386.39
  C 343.15 381.42 344.88 378.60 347.99 374.75
  A 3.42 3.37 73.4 0 0 348.57 373.66
  C 349.07 372.04 348.60 369.98 349.21 368.38
  Q 350.57 364.82 354.42 363.37
  Q 369.46 357.69 385.03 362.37
  C 394.50 365.22 403.35 371.02 407.36 380.25
  C 412.53 392.13 403.43 405.30 393.87 412.18
  Q 389.39 415.40 383.91 414.30
  A 0.64 0.64 0.0 0 1 383.60 413.20
  L 386.30 410.67
  A 2.24 2.23 -62.0 0 1 388.15 410.10
  Q 389.91 410.39 390.13 407.68
  Q 390.48 403.48 386.86 398.09
  Q 381.44 390.02 369.67 384.18
  Q 360.98 379.87 351.24 380.97
  C 349.52 381.16 347.29 381.86 347.51 384.08
  Q 347.66 385.64 345.76 386.65
  A 0.51 0.51 0.0 0 1 345.04 386.39
  Z"
/>
<path fill="#c61314" d="
  M 194.2496 366.2385
  A 5.91 5.72 -76.7 0 1 198.4566 373.3059
  A 5.91 5.72 -76.7 0 1 191.5304 377.7415
  A 5.91 5.72 -76.7 0 1 187.3234 370.6741
  A 5.91 5.72 -76.7 0 1 194.2496 366.2385
  Z
  M 195.65 372.02
  A 2.91 2.91 0.0 0 0 192.74 369.11
  A 2.91 2.91 0.0 0 0 189.83 372.02
  A 2.91 2.91 0.0 0 0 192.74 374.93
  A 2.91 2.91 0.0 0 0 195.65 372.02
  Z"
/>
<path fill="#c61314" d="
  M 237.1013 368.3470
  A 6.01 5.85 -77.3 0 1 241.4869 375.4961
  A 6.01 5.85 -77.3 0 1 234.4587 380.0730
  A 6.01 5.85 -77.3 0 1 230.0731 372.9239
  A 6.01 5.85 -77.3 0 1 237.1013 368.3470
  Z
  M 235.9749 371.3318
  A 2.98 2.78 -84.9 0 0 232.9410 374.0529
  A 2.98 2.78 -84.9 0 0 235.4451 377.2682
  A 2.98 2.78 -84.9 0 0 238.4790 374.5471
  A 2.98 2.78 -84.9 0 0 235.9749 371.3318
  Z"
/>
<circle fill="#fbf3f0" cx="192.74" cy="372.02" r="2.91"/>
<ellipse fill="#fbf3f0" cx="0.00" cy="0.00" transform="translate(235.71,374.30) rotate(-84.9)" rx="2.98" ry="2.78"/>
<path fill="#fbf3f0" d="
  M 312.19 430.67
  C 312.68 430.08 314.07 429.40 314.86 428.63
  C 328.89 414.73 340.56 400.37 352.29 385.20
  A 1.62 1.61 -71.7 0 1 353.52 384.58
  C 364.75 384.36 376.23 391.25 382.93 399.64
  Q 384.86 402.06 385.56 404.42
  A 1.95 1.95 0.0 0 1 385.06 406.36
  Q 374.83 416.34 362.58 425.06
  Q 344.72 437.79 325.77 449.43
  A 0.62 0.62 0.0 0 1 324.88 449.16
  Q 323.05 445.02 320.52 441.74
  Q 314.93 434.52 312.21 431.60
  A 0.71 0.70 44.0 0 1 312.19 430.67
  Z"
/>
<path fill="#fbf3f0" d="
  M 256.30 470.47
  L 149.14 470.35
  Q 151.84 448.53 155.32 427.00
  Q 156.55 419.35 157.87 413.58
  A 0.70 0.70 0.0 0 1 158.77 413.07
  Q 174.59 418.21 190.75 420.24
  Q 237.62 426.14 284.08 420.20
  A 0.26 0.26 0.0 0 1 284.35 420.57
  Q 283.08 423.22 283.01 426.10
  A 1.20 1.20 0.0 0 1 282.23 427.21
  C 269.61 432.04 256.81 434.58 243.68 436.27
  Q 239.83 436.76 239.04 437.04
  C 236.09 438.07 233.90 437.13 230.64 437.19
  C 208.53 437.63 186.41 435.07 165.00 428.90
  Q 164.60 428.79 164.30 429.12
  A 1.09 1.08 -53.9 0 0 164.56 430.79
  C 170.86 434.37 178.93 436.27 186.24 437.50
  Q 209.07 441.32 231.73 439.98
  Q 233.85 439.85 235.22 439.25
  Q 236.57 438.65 238.57 439.40
  A 2.81 2.79 -35.8 0 0 239.71 439.58
  Q 261.51 438.50 281.56 431.34
  A 0.29 0.29 0.0 0 1 281.91 431.76
  Q 270.10 452.13 256.30 470.47
  Z"
/>
<path fill="none" d="
  M 299.91 420.79
  L 297.53 417.51
  A 0.25 0.24 -22.7 0 1 297.69 417.13
  L 298.96 416.92
  A 0.73 0.72 78.2 0 1 299.79 417.47
  Q 300.37 419.88 300.44 420.59
  A 0.29 0.29 0.0 0 1 299.91 420.79
  Z"
/>
<path fill="#fbf3f0" d="
  M 293.40 423.01
  Q 293.39 422.06 292.73 420.71
  A 0.68 0.68 0.0 0 1 293.57 419.78
  C 298.58 421.59 298.37 428.82 297.01 432.96
  Q 296.15 435.58 294.64 436.31
  C 287.08 439.93 285.57 425.04 287.82 421.48
  A 1.19 1.19 0.0 0 1 289.79 421.41
  L 291.42 423.66
  A 1.09 1.09 0.0 0 0 293.40 423.01
  Z"
/>
<path fill="#fbf3f0" d="
  M 301.42 428.06
  A 0.43 0.43 0.0 0 1 302.12 427.73
  C 307.39 432.14 313.18 437.95 316.79 443.92
  C 318.70 447.08 321.03 449.70 322.93 453.43
  Q 325.66 458.77 327.06 462.64
  A 1.07 1.06 -31.0 0 1 326.77 463.79
  Q 322.58 467.62 317.61 469.77
  A 0.80 0.79 -24.5 0 1 316.58 469.39
  L 300.26 435.72
  A 1.19 1.16 -48.4 0 1 300.22 434.79
  Q 301.43 431.50 301.42 428.06
  Z"
/>
<path fill="#fbf3f0" d="
  M 286.40 467.45
  L 286.11 469.55
  A 0.55 0.55 0.0 0 1 285.58 470.03
  L 259.53 470.51
  Q 272.27 455.88 281.67 438.75
  Q 282.71 436.85 283.95 434.96
  A 0.39 0.39 0.0 0 1 284.63 435.02
  Q 285.33 436.72 286.51 438.05
  A 1.41 1.39 25.2 0 1 286.86 439.00
  L 286.40 467.45
  Z"
/>
<path fill="none" d="
  M 315.35 490.00
  L 304.52 490.00
  Q 300.95 465.05 295.63 440.68
  A 1.30 1.30 0.0 0 1 298.04 439.79
  Q 300.28 443.96 302.34 448.84
  Q 310.80 468.85 315.35 490.00
  Z"
/>
<path fill="none" d="
  M 300.69 490.00
  L 290.68 490.00
  L 290.55 440.59
  A 0.52 0.51 -82.7 0 1 291.19 440.09
  L 291.47 440.16
  A 1.29 1.28 -87.6 0 1 292.41 441.19
  L 300.69 490.00
  Z"
/>
<path fill="none" d="
  M 145.97 464.53
  L 144.25 490.00
  L 106.01 490.00
  L 1.06 489.75
  A 0.90 0.90 0.0 0 1 0.26 489.26
  Q 0.09 488.91 0.00 488.34
  L 0.00 475.31
  Q 14.10 467.39 30.18 466.60
  Q 43.49 465.94 56.80 466.02
  C 93.43 466.23 115.82 466.55 145.97 464.53
  Z"
/>
<path fill="none" d="
  M 286.40 467.45
  L 286.91 490.00
  L 217.72 490.00
  L 184.61 490.00
  L 146.80 490.00
  L 149.14 470.35
  L 256.30 470.47
  L 253.32 474.55
  A 0.79 0.77 -51.2 0 0 253.42 475.61
  L 253.44 475.63
  A 0.79 0.78 42.5 0 0 254.51 475.59
  L 259.53 470.51
  L 285.58 470.03
  A 0.55 0.55 0.0 0 0 286.11 469.55
  L 286.40 467.45
  Z"
/>
<path fill="none" d="
  M 327.13 468.75
  Q 343.82 469.39 360.26 469.52
  Q 411.88 469.93 457.66 469.76
  Q 480.80 469.68 503.88 472.83
  A 0.77 0.75 -3.4 0 1 504.51 473.38
  C 505.77 477.97 505.57 482.74 506.00 487.41
  L 506.00 489.15
  Q 505.58 489.89 504.75 489.87
  Q 493.43 489.59 482.10 490.00
  L 480.33 490.00
  L 370.16 490.00
  L 319.32 490.00
  L 315.52 474.31
  A 0.53 0.52 -6.8 0 1 316.04 473.66
  L 318.07 473.66
  A 1.86 1.80 -59.3 0 0 318.99 473.41
  L 327.13 468.75
  Z"
/>
<path fill="#fbf3f0" d="
  M 106.01 490.00
  L 0.00 490.00
  L 0.00 488.34
  Q 0.09 488.91 0.26 489.26
  A 0.90 0.90 0.0 0 0 1.06 489.75
  L 106.01 490.00
  Z"
/>
<path fill="#fbf3f0" d="
  M 506.00 489.15
  L 506.00 490.00
  L 482.10 490.00
  Q 493.43 489.59 504.75 489.87
  Q 505.58 489.89 506.00 489.15
  Z"
/>
<path fill="#fbf3f0" d="
  M 217.72 490.00
  L 184.61 490.00
  L 217.72 490.00
  Z"
/>
<path fill="#fbf3f0" d="
  M 480.33 490.00
  L 370.16 490.00
  L 480.33 490.00
  Z"
/>
</svg>
