<?xml version="1.0" encoding="UTF-8" standalone="no"?>
<!DOCTYPE svg PUBLIC "-//W3C//DTD SVG 1.1//EN" "http://www.w3.org/Graphics/SVG/1.1/DTD/svg11.dtd">
<svg xmlns="http://www.w3.org/2000/svg" version="1.1" viewBox="0.00 0.00 175.00 223.00">
<g stroke-width="2.00" fill="none" stroke-linecap="butt">
<path stroke="#f58e93" vector-effect="non-scaling-stroke" d="
  M 0.00 133.93
  Q 2.77 140.21 9.12 143.89
  Q 11.66 145.36 14.51 145.01
  Q 27.98 143.38 40.94 140.63
  A 0.42 0.41 11.1 0 1 41.37 141.27
  Q 28.87 159.40 18.67 178.42
  Q 12.12 190.63 8.35 203.56
  A 2.49 2.48 -69.9 0 0 9.73 206.53
  Q 11.22 207.18 13.76 207.23
  C 20.42 207.35 33.92 205.49 37.06 198.55
  C 47.46 175.57 55.96 156.93 67.09 137.37
  A 2.12 2.10 -3.6 0 1 67.71 136.67
  Q 69.03 135.68 71.12 135.38
  Q 75.25 134.79 98.85 129.40
  A 0.40 0.40 0.0 0 1 99.32 129.89
  C 94.39 147.99 90.76 159.82 89.29 173.75
  C 88.58 180.59 88.36 187.48 95.44 190.89
  Q 102.26 194.17 110.35 194.92
  C 113.59 195.22 116.05 194.10 118.15 191.87
  Q 125.86 183.68 129.50 173.73
  Q 129.79 172.92 129.66 171.77
  A 0.96 0.96 0.0 0 0 128.41 170.97
  L 120.86 173.45
  A 0.79 0.79 0.0 0 1 119.83 172.74
  Q 119.69 169.77 120.33 165.81
  Q 122.06 155.05 125.49 143.01
  Q 142.42 83.56 170.20 28.70
  C 171.06 27.00 171.47 25.34 170.23 23.74
  C 166.39 18.75 159.42 15.67 153.07 14.21
  Q 149.99 13.50 148.41 14.18
  Q 145.25 15.55 141.92 18.67
  Q 131.86 28.10 125.56 35.05
  Q 88.26 76.21 54.74 122.30
  A 1.96 1.95 17.4 0 1 53.20 123.10
  Q 26.28 123.63 0.00 120.72"
/>
<path stroke="#f58e93" vector-effect="non-scaling-stroke" d="
  M 128.80 49.42
  Q 120.36 59.45 111.76 70.25
  Q 92.01 95.04 76.14 121.53
  A 0.53 0.53 0.0 0 0 76.61 122.33
  Q 89.05 122.05 101.08 119.90
  A 2.77 2.75 -85.4 0 0 103.21 118.07
  C 112.09 91.71 119.88 71.44 129.18 49.65
  A 0.23 0.22 -13.6 0 0 128.80 49.42"
/>
</g>
<path fill="none" d="
  M 175.00 0.00
  L 175.00 223.00
  L 0.00 223.00
  L 0.00 133.93
  Q 2.77 140.21 9.12 143.89
  Q 11.66 145.36 14.51 145.01
  Q 27.98 143.38 40.94 140.63
  A 0.42 0.41 11.1 0 1 41.37 141.27
  Q 28.87 159.40 18.67 178.42
  Q 12.12 190.63 8.35 203.56
  A 2.49 2.48 -69.9 0 0 9.73 206.53
  Q 11.22 207.18 13.76 207.23
  C 20.42 207.35 33.92 205.49 37.06 198.55
  C 47.46 175.57 55.96 156.93 67.09 137.37
  A 2.12 2.10 -3.6 0 1 67.71 136.67
  Q 69.03 135.68 71.12 135.38
  Q 75.25 134.79 98.85 129.40
  A 0.40 0.40 0.0 0 1 99.32 129.89
  C 94.39 147.99 90.76 159.82 89.29 173.75
  C 88.58 180.59 88.36 187.48 95.44 190.89
  Q 102.26 194.17 110.35 194.92
  C 113.59 195.22 116.05 194.10 118.15 191.87
  Q 125.86 183.68 129.50 173.73
  Q 129.79 172.92 129.66 171.77
  A 0.96 0.96 0.0 0 0 128.41 170.97
  L 120.86 173.45
  A 0.79 0.79 0.0 0 1 119.83 172.74
  Q 119.69 169.77 120.33 165.81
  Q 122.06 155.05 125.49 143.01
  Q 142.42 83.56 170.20 28.70
  C 171.06 27.00 171.47 25.34 170.23 23.74
  C 166.39 18.75 159.42 15.67 153.07 14.21
  Q 149.99 13.50 148.41 14.18
  Q 145.25 15.55 141.92 18.67
  Q 131.86 28.10 125.56 35.05
  Q 88.26 76.21 54.74 122.30
  A 1.96 1.95 17.4 0 1 53.20 123.10
  Q 26.28 123.63 0.00 120.72
  L 0.00 0.00
  L 175.00 0.00
  Z"
/>
<path fill="#ea1c26" d="
  M 0.00 133.93
  L 0.00 120.72
  Q 26.28 123.63 53.20 123.10
  A 1.96 1.95 17.4 0 0 54.74 122.30
  Q 88.26 76.21 125.56 35.05
  Q 131.86 28.10 141.92 18.67
  Q 145.25 15.55 148.41 14.18
  Q 149.99 13.50 153.07 14.21
  C 159.42 15.67 166.39 18.75 170.23 23.74
  C 171.47 25.34 171.06 27.00 170.20 28.70
  Q 142.42 83.56 125.49 143.01
  Q 122.06 155.05 120.33 165.81
  Q 119.69 169.77 119.83 172.74
  A 0.79 0.79 0.0 0 0 120.86 173.45
  L 128.41 170.97
  A 0.96 0.96 0.0 0 1 129.66 171.77
  Q 129.79 172.92 129.50 173.73
  Q 125.86 183.68 118.15 191.87
  C 116.05 194.10 113.59 195.22 110.35 194.92
  Q 102.26 194.17 95.44 190.89
  C 88.36 187.48 88.58 180.59 89.29 173.75
  C 90.76 159.82 94.39 147.99 99.32 129.89
  A 0.40 0.40 0.0 0 0 98.85 129.40
  Q 75.25 134.79 71.12 135.38
  Q 69.03 135.68 67.71 136.67
  A 2.12 2.10 -3.6 0 0 67.09 137.37
  C 55.96 156.93 47.46 175.57 37.06 198.55
  C 33.92 205.49 20.42 207.35 13.76 207.23
  Q 11.22 207.18 9.73 206.53
  A 2.49 2.48 -69.9 0 1 8.35 203.56
  Q 12.12 190.63 18.67 178.42
  Q 28.87 159.40 41.37 141.27
  A 0.42 0.41 11.1 0 0 40.94 140.63
  Q 27.98 143.38 14.51 145.01
  Q 11.66 145.36 9.12 143.89
  Q 2.77 140.21 0.00 133.93
  Z
  M 128.80 49.42
  Q 120.36 59.45 111.76 70.25
  Q 92.01 95.04 76.14 121.53
  A 0.53 0.53 0.0 0 0 76.61 122.33
  Q 89.05 122.05 101.08 119.90
  A 2.77 2.75 -85.4 0 0 103.21 118.07
  C 112.09 91.71 119.88 71.44 129.18 49.65
  A 0.23 0.22 -13.6 0 0 128.80 49.42
  Z"
/>
<path fill="none" d="
  M 128.80 49.42
  A 0.23 0.22 -13.6 0 1 129.18 49.65
  C 119.88 71.44 112.09 91.71 103.21 118.07
  A 2.77 2.75 -85.4 0 1 101.08 119.90
  Q 89.05 122.05 76.61 122.33
  A 0.53 0.53 0.0 0 1 76.14 121.53
  Q 92.01 95.04 111.76 70.25
  Q 120.36 59.45 128.80 49.42
  Z"
/>
</svg>
